<?xml version="1.0" encoding="utf-8"?>
<!-- Generator: Adobe Illustrator 21.0.0, SVG Export Plug-In . SVG Version: 6.00 Build 0)  -->
<svg version="1.1" id="Layer_1" xmlns="http://www.w3.org/2000/svg" xmlns:xlink="http://www.w3.org/1999/xlink" x="0px" y="0px"
	 viewBox="0 0 500 135.8" style="enable-background:new 0 0 500 135.8;" xml:space="preserve">
<style type="text/css">
	.st0{fill:#FFFFFF;}
</style>
<g>
	<path class="st0" d="M28.6,54.1c1.2-0.9,2.3-2.3,2.8-3.6l0.9-1.2c0.3-0.4,0.6-0.8,0.9-1.3c0.9-0.9,1.4-1.4,1.9-2.1
		c0.4-0.5,1.5-1.8,2.7-3l1.4-2.2c0.6-1,2.7-4.1,3.5-4.9c2.3-2.7,3.5-4.7,5-6.7l1.3-1.9c0.1-0.4,0.4-0.8,0.9-1.4
		c1-1.6,2.6-3.9,3.5-3.9h2.3c0.4,0,0.9-0.3,1.3-0.6c1.3,0,1.4,0.6,1.4,1.2v0.9c0,0.5-0.5,1.3-1.3,1.8l-1.1,2
		c-0.9,2.2-1.8,2.6-2.7,2.8l-1.2,0.8c-1,1-1.9,2.2-3,4.9c-0.4,0.9-3,2.8-3,4.4c0,0.5-0.8,1.2-1.3,1.7l-0.5,0.5
		c-0.8,0.8-3.6,1.7-3.6,2.8c0,0.1,0.1,0.6,0.4,1l1.7-0.1c1.9,0,3.7,0.4,6.2,0.8c0.6-0.1,1.4-0.3,2.1-0.5c0.5-0.1,0.9-0.1,1.4-0.1
		c1.2,0,2.3,0.3,3.2,0.5c0.3,0,0.8-0.1,1.3-0.1c0.5-0.1,1.4-0.3,2.2-0.3c0.5,0,1,0,1.5,0.3l1.2,0.3c0.8,0,2.7-0.6,4.5-1.4
		c2.3-1.3,6.6-9.7,6.6-13.2c-0.1-1.8-0.9-3.7-1.4-5.1c-0.8-0.8-0.9-2.1-1-3.4c-0.1-1.8-0.5-4.3-2.1-5.7c-0.5-0.7-0.9-1.3-1.2-1.9
		c-0.6-1.7-1.7-3.5-3.6-4.6l-2.8-2.3l-3.5-1.7c-0.3-0.1-0.8-0.1-1.8-1.2c-0.5-0.4-0.8-0.6-1.5-0.9C53.4,5.1,52.8,5,52,5
		c-0.3,0-0.5,0.1-0.6,0.1h-0.5c-0.6,0-1.3-0.1-1.9-0.4c-1-0.4-2.2-0.8-4.2-0.8c-0.6,0-1.6,0.1-2.4,0.3c-0.9,0.1-1.7,0.1-2.3,0.1
		c-0.3,0-1.5,0.5-2.8,1s-2.5,0.9-2.7,0.9c-0.5,0-0.8,0-1.2-0.1C32.9,6,32.5,6,32.2,6c-0.8,0-1.8,0.3-3.3,0.9c-0.4,0.1-1.5,1-2.7,1.9
		c-0.8,0.6-1.5,1.2-1.5,1.2c-3.9,2.6-5.3,4.4-7,6.4c-1.3,2.1-2.2,4.6-2.7,6.2c-1.7,3.4-2.2,6.3-2.2,11.2c0.1,1.2,0.5,8,2.7,10.1
		c0.6,0.6,1,1.6,1.8,2.5l1.9,3.6c0.9,1.2,1.3,1.2,2.1,1.9c1,0.9,2.6,2.2,2.6,2.2c0.4,0.2,1.5,1.4,2.3,1.4
		C26.7,55.5,28,54.6,28.6,54.1 M10.1,71.4c0,0,0.8-0.5,1.7-1c0.3-0.3,0.7-0.3,1-0.3s1-0.3,1.3-0.4c0.5-0.4,1.3-1.2,2.1-1.9l2.6-2.2
		c0.6-0.4,1.4-1,1.7-1.4l1-0.9c1.2-0.9,2.8-2.3,2.8-4.4c0-0.1-1-0.6-1.4-0.8c-1.5-0.5-3-1.5-3.9-2.2c-1-0.6-1.5-0.8-2.4-1.4
		c-1.9-1.3-4.3-4-4.3-4s-0.4-0.4-0.8-1.3c-0.3-0.5-0.5-1.3-0.8-1.4c-0.3-0.1-0.6-0.6-0.9-0.9c-0.3-0.4-0.8-1-0.8-1
		c-1-1-1.6-2.7-1.9-4.3L6,38.3c0-0.1,0-0.6-0.1-0.9l-0.5-4.2c0-0.3,0.1-0.6,0.1-1v-3.7c0-1.8,1.4-4.1,1.9-6.2c0-0.4,0.9-3,1.7-4.6
		l0.8-1c1-1.4,2.8-3.9,5.3-5c0.4-0.9,2.1-5.2,6.3-5.2c0.4,0,1-0.3,1.5-0.4c0.8-0.3,2.2-0.9,4.8-1.7c0.4-0.3,9.7-3.5,13.5-3.5h7.5
		c1.9,0,4,0.1,5.3,1c1,0.5,2.8,1,4.8,1c0.6-0.3,1.2-0.3,1.7-0.3c1,0,2.2,0.4,3,2.3c1,0.8,2.6,1.4,3.4,1.7c1,0.8,5.3,4,5.7,5.2
		c0,0.3,4.1,6.4,4.6,7.2c0.8,0.6,1.2,4.1,1.7,6.8c0.6,3.1,1.4,1.5,1.4,8c0,5.2-4.6,11.3-9,13.7c-1.4,0.6-4.3,2.3-5.7,2.3H63
		c-0.5,0-1.9,0-2.8,0.1h-3.3l-2.3-0.1c-0.8-0.1-1.8-0.1-2.7-0.1H48c-0.3,0-0.5,0-0.8,0.1c-1.2,0-2.4,0.1-3.9,0.1c-1,0-1.8,0.1-4,0.5
		c-1,0-1.6,0.5-1.9,1.2c-0.3,0.4-0.5,0.8-0.9,1c-0.3,0.4-1,1.7-1.7,2.3L33.7,56c-0.5,0.8-1.5,1.9-2.7,3.2c-1,1.2-2.3,2.6-3.5,4.1
		l-0.6,0.5l-2.7,3.3c-3.1,2.3-4.6,3.5-6.8,5.7c-1.5,2.2-3.3,4.1-6.2,4.1C10,78.2,7.8,78.3,6,78.3H4.3c-1.2,0-2.1-0.9-2.2-2.6
		c0-2.3,1.8-5,4.5-5c0.4,0,0.8,0.1,1,0.3L10.1,71.4z"/>
	<path class="st0" d="M66.3,64.3c-1.3,0.4-1.9,1-2.4,1.8l-1.7,2.2l-0.9,0.5l-1,1.2c-0.4,0.4-0.5,1.6-0.5,1.6
		c-0.1,0.4-0.3,0.8-0.3,1.2c0,0.6,0.1,1.3,0.4,1.8c0.6,0.8,0.6,1.2,1.5,1.2c0.1,0,1.9-0.4,2.2-0.4c0.6,0,2.8-0.7,3.2-0.9
		c0.5-0.4,1.8-1.6,2.6-2.6c0.4-0.6,1.4-0.8,1.7-1.3c0.9-0.8,1.7-0.9,1.8-1l2.3-2.6l1.2-2.7c0.1-0.4,0.1-0.6,0.1-0.9
		c0-0.9-0.5-1.3-2.1-1.6l-2.2,0.4L71.3,62L70,62.3L66.3,64.3z M87.5,73.3c0,0,0.4,0.1,0.5,0.4c0.1,0.1,0.1,0.7,0.1,0.9
		c0,0.3-0.4,0.7-0.4,0.7c-1.5,1-2.3,1.5-4,1.8l-2.6,0.7l-1.8,0.1c-0.4,0-2.1-0.5-2.3-0.8l-1.3-1c0,0-0.3-0.6-0.6-1.2
		c-0.4-0.6-0.6-1.7-0.6-1.7l-2.3,0.9l-1.5,1.5c-0.4,0-1.2,0.1-1.5,0.5l-1.3,0.7c-0.8,0.3-3.6,1.3-4.1,1.3h-0.9c-0.3,0-0.6,0.1-1,0.1
		c-1.2,0.1-2.6,0.1-3.1,0.1c-0.4,0-2.7-1.2-3.7-1.6C54.3,75.9,54,74,54,73.6c0-0.9,0.8-2.7,0.8-2.7c0-0.1,0.1-0.4,0.4-0.6
		c0,0,0-0.3,0.1-0.4c0.5-1.2,1.2-3.2,2.5-4c0.6-0.8,1.9-1.2,1.9-1.6c0,0,0.9-1.4,1.4-1.8c0.5-0.4,0.6-0.3,1.5-0.8
		c0.4-0.4,0.5-0.4,0.8-0.4l1.4-1.6l0.8-0.4c0,0,0.6-0.5,1.2-0.8l1.8-0.6c0.4,0,0.8,0,0.9-0.1c0.1,0,0.3-0.3,0.5-0.4l1.7-0.3l0.4-0.1
		c0.3,0,0.3-0.1,0.4-0.1c0.5,0,0.8-0.3,0.9-0.3c0.3,0,0.4-0.1,0.5-0.1l2.3-0.3l1.4,0.6c0.4,0.1,1.2,0.4,1.9,1.4
		c0.6,1.8,0.6,1.9,0.6,2.1c0,0.3,0,0.6,0.3,1c0.3,0.3,1,0.8,1.6,0.9c0.3,0.3,0.5,0.4,0.9,0.4c0.5,0,1-0.3,1.3-0.5l0.9,0.1
		c0.1,0.1,0.1,0.3,0.1,0.6L84,64.2c-0.3,0.4-0.5,0.6-0.5,0.6L82,66.1l-0.8,1.8c-0.4,0.8-0.5,0.9-0.6,1c-0.3,0.6-0.8,1.9-0.8,2.7
		c0,0.8,0.5,1.4,1.5,2.2c1,0.5,1.4,0.5,2.1,0.5s1.5-0.1,2.8-0.5L87.5,73.3z"/>
	<path class="st0" d="M126.8,75.1c0,0.1,0,0.3-0.1,0.4l-1.3,0.6c-0.4,0.3-1.2,0.8-2.1,1l-1.9,0.5c0,0-0.5,0.1-1.2,0.1
		c-0.8,0-1.7-0.1-1.9-0.5c-1.4-1-1.7-1.7-1.9-2.1c-0.3-0.4-0.4-1.2-0.4-1.8c0-0.5,0.1-1.3,0.1-1.3l0.6-2.4c0-0.5-0.4-0.9-1.3-0.9
		c-0.5,0-0.9,0.3-1.2,0.3l-1.4,0.9c-1.4,0.6-1.5,0.6-3,1.6c-0.5,0.4-1.3,0.6-1.7,1.3l-1.8,0.9l-3.1,2.3c-0.9,0.6-1.8,0.8-2.7,1.3
		c-0.8,0.3-1.3,0.4-1.7,0.4c-0.3,0-0.5-0.1-0.9-0.1c-0.5,0-1.6,0-1.9-0.1c-0.4-0.3-0.6-0.5-0.6-0.5c-1-0.9-1.3-3.1-1.3-3.4
		c0-0.9-0.1-0.9-0.3-0.9l-1,0.3l-2.3,1.3c-0.3,0.3-2.5,1.4-3.4,1.4c-0.1,0-0.4,0-0.4-0.1c-0.1-0.1-0.3-0.5-0.3-1.2s0.1-0.7,0.5-0.9
		l1-0.5c0.6-0.3,1.4-0.8,2.5-1.2l2.8-1.4c0.9-0.4,0.8-1,1-1.7c0.5-1.7,1.2-3.2,1.2-3.2l0.9-1.8c0.8-0.6,1.4-2.3,2.1-3.1
		c0.6-1,1.7-1.9,2.1-3.2c0.5-0.8,1-0.9,1.4-0.9h0.5c0.4,0,0.8,0.1,1,0.1l1.4,0.5c0.5,0.4,0.6,0.8,0.6,0.8c0,0.3-0.4,1.2-0.5,1.3
		c0,0.6-1,1.9-1.3,2.8l-0.8,2.2c0,0.1-0.4,1.2-0.8,1.4c-0.3,0.3-0.9,2.7-0.9,3.3c0,0-0.3,0.8-0.3,0.9l-0.1,0.4
		c0,1.3,1.2,1.7,2.8,1.7c0.1,0,0.4,0,0.5-0.1c0.4-0.3,2.3-0.8,2.6-0.9c1.9-1,2.2-1.7,3.2-2.1l1.8-0.9l2.2-1.7
		c1.2-0.6,2.1-1.7,2.1-1.7c1-0.8,1.9-1.9,2.3-2.3c0.9-0.8,1.9-2.2,3.2-3.5c0.1-0.1,1.2-1.3,1.4-1.4c0.6-0.4,0.8-0.6,1.2-0.6
		c0.6,0,0.9,0,1.2,0.1c0.3,0,0.4,0.1,0.4,0.1c0.3,0.1,0.8,0.5,0.8,0.8c0,0.9-0.4,2.2-0.8,3c-0.4,1.3-1.5,2.3-1.5,2.7
		c-0.8,1.9-1.5,2.2-1.8,2.8l-1.2,2.5c-0.4,0.3-0.6,2.4-0.6,2.8s-0.3,1-0.3,1.5l0.1,1.2c0,0.4,0.6,1.2,1.3,1.2c0.5,0,1.5-0.3,2.3-0.8
		c0.4-0.2,1.4-1,1.9-1c0.3,0,0.5,0.4,0.5,0.8L126.8,75.1z"/>
	<path class="st0" d="M151.6,56.9c1.3-0.6,2.1-1.9,2.8-2.8l2.4-3.1c0.1,0,2.7-2.3,3.4-3c0,0,0.6-1.4,1.2-2.1l0.9-1.2
		c0,0,0.4-0.5,1-1.2c0.6-1.2,3.1-4.5,3.5-5c0.1-0.1,4.8-8,5.3-9c0.5-0.8,1.7-3.6,1.7-4c0.3-0.3,1.8-3.6,1.9-4.5
		c0-0.6,0.4-2.2,0.5-2.7c0.3-1.2,0.3-1.8,0.4-3.1c0-0.8,0.4-1.4,0.4-2.3c-0.1-0.1-0.1-0.3-0.1-0.5l0.1-0.8c0-0.1-0.1-0.3-0.6-0.3
		c-0.4,0-0.8,0.1-1.2,0.4l-1.4,0.8c-1.2,0.3-1.7,1.9-2.7,3.1c-0.5,0.5-2.1,2.4-2.3,2.8c-0.4,0.3-1.7,3.2-1.7,3.2
		c-0.5,1-1.5,2.1-1.5,2.7c-0.3,0.5-1.2,1.3-1.5,1.8c-0.1,0.1-0.5,0.9-0.6,1.4c-0.9,2.3-2.6,4.8-2.7,5L158,38c0,0.3-1.9,4.5-2.2,4.9
		c-0.8,0.7-0.6,1.8-1,2.5c-0.4,0.8-1.3,1.3-1.6,2.5c-0.4,2.1-1,5.5-2.6,7.1c-0.3,0.3-0.6,0.9-0.6,1.2c-0.1,0.4-0.4,1.2-1,1.9
		l-0.1,0.6c0.1,0.3,0.5,0.3,0.6,0.4C150.4,58.4,151.1,57.2,151.6,56.9 M125.5,75v-0.6c0-0.4,0-0.5,0.3-0.7c0.3-0.1,1-0.5,1.8-0.6
		c1.9-0.8,2.3-1.2,3.2-1.5c0.6-0.4,1.4-0.5,1.5-0.6l1.9-0.9c0.8-0.3,2.6-1.9,2.7-1.9c0.4-0.3,0.9-1.2,1.7-1.4l1.7-1.2
		c0.4-0.3,1.8-1.9,2.1-2.4l0.3-0.6c0.8-1.4,0.4-2.2,0.9-2.7c1.4-2.6,2.3-5.2,2.3-5.7c0-1,1.2-3.2,1.8-4.1l0.5-1
		c0.4-0.6,1.2-1.3,1.2-1.3l1-2.3c0.1-0.9,0.4-1.7,0.5-1.9c0.6-0.6,3.3-7,3.5-7.5c0-0.3,0.3-0.4,0.4-0.6c0.3-0.6,1.2-2.6,1.3-3.1
		c0.4-0.8,1.3-2.4,1.8-3.2c0.3-0.5,0.9-1.3,1.2-1.5l2.2-5c0.4-0.7,1.2-1.3,1.3-1.6c0-0.4,0.5-0.9,0.9-1.6c0.3-0.1,0.4-0.5,0.4-0.5
		c0.4-0.3,1.4-2.7,1.7-3.1l0.8-1.2c0.9-1.6,2.8-3.4,3.9-4.4c1.4-1.4,1.9-2.2,3-2.7c0.8-0.7,1.9-1.2,2.2-1.3c-0.1,0,1.8-0.8,2.1-0.9
		s0.6-0.1,1-0.1c1.4,0.5,2.8,0.3,3.2,0.8l0.6,0.6c0.5,0.4,0.5,0.9,0.6,1.8c0,1.5-0.1,1.5-0.1,2.1l0.1,1c0,0.5-0.3,1.7-0.5,2.5
		l-0.9,2.7c-0.1,0.8-0.5,2.2-0.5,3c0,1.9-1.8,4.1-1.8,5.7c0,0.6-0.5,1.3-0.9,1.9c0,0.4-0.1,0.5-0.4,1.2c-0.4,0.5-0.6,1.3-0.6,1.3
		c-0.3,0.8-0.9,2.2-1.6,3.1c-0.4,0.4-1.4,2.6-1.9,3.7c-0.4,0.1-2.3,3.9-3.5,5.7l-0.3,0.4c-0.8,1.3-1,1.8-2.3,3.4
		c-0.5,0.3-1.5,1-1.7,1.5c-0.1,0.3-0.3,0.8-0.8,1.4c-0.4,0.5-1.3,1.3-1.5,1.4c-0.4,0.1-1.4,1.2-2.1,1.9c-0.3,0.3-1.4,2.2-2.3,2.6
		c-0.5,0-1.4,1.4-2.1,1.7l-1.2,0.8c-0.3,0.3-0.5,0.4-0.5,0.5c-0.1,0.1-0.9,1.4-1.4,1.8c-0.4,0.4-1.2,1.3-1.5,1.5l-1.3,1
		c-0.4,0.3-1,0.8-1,0.8c-0.4,0.5-1.8,1.3-2.3,1.7c-0.3,0.3-1.5,1.3-1.7,1.7c-0.1,0.1,0.1,0-0.8,0.8c-0.3,0.3-0.5,0.6-0.5,1
		c-0.4,0.6-0.6,1.5-1,1.9l-0.3,1l-0.4,0.8c-0.4,0.6-0.8,1.7-0.8,3.6v0.9l0.6,1c-0.1,0.4-0.3,0.4-0.9,0.4c-0.5,0.3-1.3,0.4-1.9,0.5
		c-0.1,0.1-0.3,0.1-0.5,0.1c-0.3,0-0.6,0-0.8-0.1l-0.9-0.5c-0.3-0.3-0.3-1.4-0.4-2.2c0-0.1,0.1-2.6,0.3-2.8c0.1-0.4,0.3-0.8,0.5-1.2
		c0.3-0.3,0.6-1,0.6-1.5c-1.3,0.1-3.1,1.5-4.1,2.2c-0.6,0.3-3,1.3-3.4,1.5l-1.9,0.6c-0.4,0.1-1.8,1-1.8,1c-0.3,0.1-1.5,0.6-2.1,0.6
		C125.5,75.9,125.5,75.6,125.5,75"/>
	<path class="st0" d="M199.3,88.5l-0.4-0.1c-0.3,0-0.4,0.1-0.5,0.1l-0.4,0.1c-0.6,0-12.2,5.3-17,8.5c-3.6,2.4-10.6,8.4-13.7,11.7
		c-0.5,0.5-0.9,1-1.2,1.4c-1.5,2.1-1.8,3.1-3.3,7.1c-0.1,0.3-0.1,0.8-0.3,1.3v4c0.4,2.2,1.8,3.6,4.1,3.6c0.1,0,2.3-0.3,3.5-1
		c0.8-0.4,0.8-0.8,1.7-1.4c2.4-1.7,4.5-5,6.6-6.8c1.3-1,2.6-2.5,4.1-4.5c0.9-1.3,2.3-3.2,3.4-4.9l3.5-5.2c0.5-1.1,1.3-2.4,1.7-3.1
		L199.3,88.5z M226.7,73.1c-0.1,0.3-0.8,1.2-1.7,1.4c-0.4,0.1-1,0.6-1.4,1c-0.3,0.3-0.6,0.5-0.9,0.5c-1.4,0.4-2.6,1.2-4.1,1.9
		l-2.1,1.7c-1.2,0.8-2.1,1.7-4.6,3c-1.2,0.5-2.3,1.3-3.5,2.1c-0.3,0.3-0.9,0.4-1.5,0.5c0,0,0.1-0.1-0.8,0.6
		c-0.3,0.3-1.2,0.9-1.2,0.9c-0.9,1.8-3.1,4.7-3.7,5.5c-1,1.4-2.1,3.5-3.4,5.2c-2.1,3-3.9,5.8-4.6,8c-1.4,2.3-2.1,3.5-2.7,4.1
		c-1,1.2-1.9,2.2-3.4,4.9L183,120c-1.8,2.6-3.7,5-4.9,6.4c-1.4,1.4-2.5,2.6-3.5,3.7c-1.4,1.2-1.7,1.8-3,2.7
		c-2.5,1.7-3.9,1.9-7.2,2.2c0,0-2.7,0-6.3-2.4c-0.5-0.4-1.8-2.5-1.8-2.5c-0.5-1.3-0.6-3.1-0.6-4.5c0-1.2,0.1-2.1,0.1-2.1l0.3-2.1
		l0.9-2.7c0-0.1,0.1-0.5,0.1-0.5l1.3-2.8c1.4-3.2,3.3-5.9,4.5-7.3l1-1.7c0.9-1.2,1.9-1.4,2.6-2.7c1-1.7,2.2-2.3,3.4-3
		c0,0,1.6-0.9,2.6-1.4c2.7-1.5,4-2.4,6.7-4.3l3.2-1.9c2.2-1.3,4.4-3,8.1-4.5c1.4-0.5,2.7-1,3.7-1.5c2.2-0.9,3.9-1.6,5-1.8
		c0.1,0,0.6-0.5,1.3-1.2l1.8-1.5c1.4-2.1,1.8-2.8,2.1-3.7c0.1-0.5,0.4-1.3,0.9-2.2c1-1,3.2-4,5-7.6c1.9-1.4,4.4-8.4,4.4-10.4
		l-0.4-0.5l-0.5,0.1c-0.6,0.1-1.7,0.6-2.1,0.9c-3,1.4-6.2,4.8-10.3,6.8l-1.9,0.5c-0.4,0.3-1.4,0.4-2.2,0.4l-3.1-0.3
		c-1,0-4.3-3.7-4.3-5.8l-0.1-2.7c0-0.5,0-1,0.1-1.5c0.5-1.7,0.3-2.3,0.6-3.9c0.3-1.3,0.4-2.2,0.9-3.4c-0.1,0.3,0.8-3.1,1.8-4.8
		c0.4-0.9,1.7-2.1,2.2-3.2c0.6-1.5,2.5-5,2.5-5.3c3.5-6.2,6.1-10.7,8.5-13.7c1.7-2.2,3.7-4,5.3-5.3c0.4-0.4,2.4-2.6,3.6-3.3l5.2-3.4
		c0.8-0.5,4-2.4,6.6-3.6c3.9-1.8,8.2-2.6,11.9-2.6c2.6,0,2.8,0.1,3.7,0.5l3.1,0.1c1,0.4,1.7,0.9,2.3,1.9s0.9,2.1,0.9,3
		c0,1-0.3,1.9-0.5,2.8c-0.4,1.3-0.9,1.2-1.4,1.8s-0.9,1-1.3,1c-0.3,0.1-1,0.6-1,0.6c-0.3,0.1-0.9,0.4-0.9,0.4l-1.7,1.7l-2.8,1.3H238
		c-0.9,0-1.8-1.9-1.9-2.3c0-0.5,0.1-1.5,1.4-2.3c3.1-1.7,3.7-4.2,4-5.5c0-0.3-0.1-0.3-0.8-0.8c-0.2-0.4-0.8-0.8-1.5-0.8
		c-0.5,0-0.8,0-1.8,0.3c-1.5,0-4.5,0.8-8.1,3c-1.9,1.4-4.1,2.3-5.4,2.8l-1.8,0.8c-0.8,0.4-1.9,1.5-3.2,2.6c-1,1-3.4,3.6-4.5,4.5
		c-2.2,1.4-3.6,3.7-5.3,6.6l-0.3,0.5c-0.5,0.8-0.9,1.5-1.3,2.3c-1.3,1.9-2.3,3.6-3.6,5.3c-0.6,0.9-0.8,1.7-1,2.2
		c0,0.8-1.3,2.2-1.7,3.5l-2.8,6.2c-1.3,3.1-1.6,6.3-1.6,6.8c-0.1,0.6-0.1,1.3-0.1,1.8c0,1.7,0.4,2.8,0.9,4.8
		c0.6,0.6,1.2,1.4,2.2,1.5l1.9-0.5c0.7-0.1,3.7-3.5,8.9-6.4c3.6-2.5,4.9-2.6,5.8-2.6c0.3,0,1-0.4,1.4-0.5c0.3-0.1,0.5-0.1,0.8-0.1
		c0.9,0,1.5,0.4,1.9,0.5L221,54c0.3,0.3,0.5,1.5,0.6,2.3c0.3,0.3,0.3,0.4,0.3,0.5c0,0.4-0.3,0.9-0.8,1.9l-1.2,2.2l-0.6,0.8
		c0,0.3-0.5,1.2-1,1.9c-1,1.4-1.3,2.4-2.2,4c-0.9,1.5-1.8,2.6-2.2,3.9c-0.6,1.8-1.3,3.1-2.1,3.9c-0.3,0.3-0.6,0.9-0.6,1l-1.7,3.6
		l0.4,0.1l1.2-0.9c0.6-0.5,1.2-0.9,4.4-2.7c0.6-0.4,1.4-0.5,1.9-0.8c0.5-0.1,1.2-0.4,1.7-0.8c0.5-0.3,1.2-0.8,1.7-0.9
		c0.3-0.1,1-0.4,1-0.4s0.5-0.1,0.6-0.3c0.3-0.3,0.6-0.5,1.9-1.2c0.9-0.4,1.4-0.8,1.7-0.9l0.5-0.3c0.1,0,0.5,0.6,0.5,0.8L226.7,73.1z
		"/>
	<path class="st0" d="M239.5,64.3c-1.3,0.4-1.9,1-2.4,1.8l-1.7,2.2l-0.9,0.5l-1,1.2c-0.4,0.4-0.5,1.6-0.5,1.6
		c-0.1,0.4-0.3,0.8-0.3,1.2c0,0.6,0.1,1.3,0.4,1.8c0.6,0.8,0.6,1.2,1.5,1.2c0.1,0,1.9-0.4,2.2-0.4c0.6,0,2.8-0.7,3.2-0.9
		c0.5-0.4,1.8-1.6,2.6-2.6c0.4-0.6,1.4-0.8,1.7-1.3c0.9-0.8,1.7-0.9,1.8-1l2.3-2.6l1.2-2.7c0.1-0.4,0.1-0.6,0.1-0.9
		c0-0.9-0.5-1.3-2.1-1.6l-2.2,0.4l-0.9-0.1l-1.3,0.3L239.5,64.3z M260.7,73.3c0,0,0.4,0.1,0.5,0.4c0.1,0.1,0.1,0.7,0.1,0.9
		c0,0.3-0.4,0.7-0.4,0.7c-1.5,1-2.3,1.5-4,1.8l-2.6,0.7l-1.8,0.1c-0.4,0-2.1-0.5-2.3-0.8l-1.3-1c0,0-0.3-0.6-0.6-1.2
		c-0.4-0.6-0.6-1.7-0.6-1.7l-2.3,0.9l-1.5,1.5c-0.4,0-1.2,0.1-1.5,0.5l-1.3,0.7c-0.8,0.3-3.6,1.3-4.1,1.3h-0.9c-0.2,0-0.6,0.1-1,0.1
		c-1.2,0.1-2.6,0.1-3.1,0.1c-0.4,0-2.7-1.2-3.7-1.6c-0.5-0.9-0.9-2.8-0.9-3.2c0-0.9,0.8-2.7,0.8-2.7c0-0.1,0.1-0.4,0.4-0.6
		c0,0,0-0.3,0.1-0.4c0.5-1.2,1.2-3.2,2.4-4c0.6-0.8,1.9-1.2,1.9-1.6c0,0,0.9-1.4,1.4-1.8c0.5-0.4,0.7-0.3,1.6-0.8
		c0.4-0.4,0.5-0.4,0.8-0.4l1.4-1.6l0.8-0.4c0,0,0.7-0.5,1.2-0.8l1.8-0.6c0.4,0,0.8,0,0.9-0.1c0.1,0,0.3-0.3,0.5-0.4l1.7-0.3l0.4-0.1
		c0.3,0,0.3-0.1,0.4-0.1c0.5,0,0.8-0.3,0.9-0.3c0.3,0,0.4-0.1,0.5-0.1l2.3-0.3l1.4,0.6c0.4,0.1,1.2,0.4,1.9,1.4
		c0.6,1.8,0.6,1.9,0.6,2.1c0,0.3,0,0.6,0.3,1c0.3,0.3,1,0.8,1.5,0.9c0.3,0.3,0.5,0.4,0.9,0.4c0.5,0,1-0.3,1.3-0.5l0.9,0.1
		c0.1,0.1,0.1,0.3,0.1,0.6l-1.2,1.2c-0.3,0.4-0.5,0.6-0.5,0.6l-1.4,1.3l-0.8,1.8c-0.4,0.8-0.5,0.9-0.6,1c-0.3,0.6-0.8,1.9-0.8,2.7
		c0,0.8,0.5,1.4,1.6,2.2c1,0.5,1.4,0.5,2.1,0.5s1.6-0.1,2.8-0.5L260.7,73.3z"/>
	<path class="st0" d="M300,75.1c0,0.1,0,0.3-0.1,0.4l-1.3,0.6c-0.4,0.3-1.2,0.8-2.1,1l-1.9,0.5c0,0-0.5,0.1-1.2,0.1
		c-0.8,0-1.7-0.1-1.9-0.5c-1.4-1-1.7-1.7-1.9-2.1c-0.3-0.4-0.4-1.2-0.4-1.8c0-0.5,0.1-1.3,0.1-1.3l0.6-2.4c0-0.5-0.4-0.9-1.3-0.9
		c-0.5,0-0.9,0.3-1.2,0.3l-1.4,0.9c-1.4,0.6-1.5,0.6-3,1.6c-0.5,0.4-1.3,0.6-1.7,1.3l-1.8,0.9l-3.1,2.3c-0.9,0.6-1.8,0.8-2.7,1.3
		c-0.8,0.3-1.3,0.4-1.7,0.4c-0.3,0-0.5-0.1-0.9-0.1c-0.5,0-1.5,0-1.9-0.1c-0.4-0.3-0.6-0.5-0.6-0.5c-1-0.9-1.3-3.1-1.3-3.4
		c0-0.9-0.1-0.9-0.3-0.9l-1,0.3l-2.3,1.3c-0.3,0.3-2.4,1.4-3.4,1.4c-0.1,0-0.4,0-0.4-0.1c-0.1-0.1-0.3-0.5-0.3-1.2s0.1-0.7,0.5-0.9
		l1-0.5c0.6-0.3,1.4-0.8,2.4-1.2l2.8-1.4c0.9-0.4,0.8-1,1-1.7c0.5-1.7,1.2-3.2,1.2-3.2l0.9-1.8c0.8-0.6,1.4-2.3,2.1-3.1
		c0.6-1,1.7-1.9,2.1-3.2c0.5-0.8,1-0.9,1.4-0.9h0.5c0.4,0,0.8,0.1,1,0.1l1.4,0.5c0.5,0.4,0.6,0.8,0.6,0.8c0,0.3-0.4,1.2-0.5,1.3
		c0,0.6-1,1.9-1.3,2.8l-0.8,2.2c0,0.1-0.4,1.2-0.8,1.4c-0.3,0.3-0.9,2.7-0.9,3.3c0,0-0.3,0.8-0.3,0.9l-0.1,0.4
		c0,1.3,1.2,1.7,2.8,1.7c0.1,0,0.4,0,0.5-0.1c0.4-0.3,2.3-0.8,2.6-0.9c1.9-1,2.2-1.7,3.2-2.1l1.8-0.9l2.2-1.7
		c1.2-0.6,2.1-1.7,2.1-1.7c1-0.8,1.9-1.9,2.3-2.3c0.9-0.8,1.9-2.2,3.2-3.5c0.1-0.1,1.2-1.3,1.4-1.4c0.6-0.4,0.8-0.6,1.2-0.6
		c0.6,0,0.9,0,1.2,0.1c0.3,0,0.4,0.1,0.4,0.1c0.3,0.1,0.8,0.5,0.8,0.8c0,0.9-0.4,2.2-0.8,3c-0.4,1.3-1.5,2.3-1.5,2.7
		c-0.8,1.9-1.6,2.2-1.8,2.8l-1.2,2.5c-0.4,0.3-0.6,2.4-0.6,2.8s-0.3,1-0.3,1.5l0.1,1.2c0,0.4,0.7,1.2,1.3,1.2c0.5,0,1.5-0.3,2.3-0.8
		c0.4-0.2,1.4-1,1.9-1c0.3,0,0.5,0.4,0.5,0.8L300,75.1z"/>
	<path class="st0" d="M306.7,97.7c-0.6,0.1-2.3,1.2-2.6,2.2c-0.1,0.7-0.4,1.2-0.9,1.8c-0.4,0.5-0.8,0.6-1.2,1l-1,0.9
		c-0.4,0.4-0.6,0.8-0.9,1.2l-0.1,0.5c-0.3,0.4-0.9,1.7-1.2,1.8c-0.3,0.1-1,1-1.8,1.8c-0.5,0.8-1.2,1.4-1.2,1.4
		c-0.3,0-3.6,3.4-4.1,4.1c-0.3,0.4-0.3,0.6-0.3,0.9c0,0.2,0,0.5-0.1,0.8c-0.3,0.5-0.6,0.5-1,1l-1.2,1.3l-0.5,0.9
		c-0.1,0.4-0.3,1.3-0.3,1.9c0,0.3,0.1,0.5,0.1,0.6c0.1,0.6,0.5,1.5,0.9,1.5c0.1,0,0.8-0.4,1-0.6c0.3-0.3,0.8-0.9,1.3-1.2
		c0.4-0.3,2.6-1.8,2.8-2.3l4.4-4.8c0.7-0.8,2.1-2.4,3.4-3.7c0,0,1.5-3.2,1.8-3.9c0.2-0.8,1.9-2.7,2.4-3.5c0.5-0.6,1.3-2.3,1.3-2.3
		c0.8-1.2,0.9-2.2,1.3-3.5c0-0.4-0.4-0.4-0.8-0.4C308.4,97.3,307.6,97.4,306.7,97.7 M299.1,74.4c0-0.4,0.1-0.9,0.4-1l3.9-1.3
		c0.6-0.3,2.6-0.8,3-1.3c0.1,0,1.4-0.9,2.2-1.4c0.6-0.3,1.4-0.6,1.7-0.9l1.2-0.7c0.4-0.3,0.8-0.9,0.8-1.4v-0.6
		c0-0.9,0.8-1.7,1.2-2.8c0.3-0.9,0.8-1.2,1.5-2.1c0.8-0.9,1.2-1.9,2.1-2.3c-0.1,0,0.6-0.3,1-0.4c1-0.4,2.6-0.9,3.2-0.9
		s0.8,0.1,1,0.1l1.2,0.4c0.8,0.3,1.4,0.6,1.5,1.2v0.6c0,1.2-0.3,2.8-0.8,3.3c-0.9,0.6-2.3,3.1-2.3,3.5c0,0.3-1.2,1.2-1.8,1.5
		c-0.3,0.3-0.4,0.5-0.4,0.6c0,0.6,0.6,1.5,1.4,1.7c0.5,0,1,0.4,1.7,0.8l0.7,0.6c0.1,0.3,0.3,0.1,0.5,0.4l0.8,1
		c0.3,0.5,0.9,1.5,1.2,1.5c0.5,0,1-0.1,1.5-0.4c0.3-0.3,1.5-0.8,1.7-0.8c0.3,0,0.4,1.3,0.4,1.8c0,0.1-1.9,1.4-4,2.4
		c0,0-2.3,2.8-2.5,3c-0.6,0.9-3.6,5.9-3.9,6.6c-3.6,7.1-3.9,7.5-4,8c-0.1,0.4-0.5,1.3-0.5,1.3c-0.3,0.3-1.2,2.2-1.3,2.6
		c-0.1,0.4-1.4,2.2-1.8,2.4c-0.7,0.7-1.8,2.2-2.2,3.1c-0.4,0.6-0.6,1.2-0.6,1.2l-1.2,2.2c-1,1.7-2.8,3.7-3.1,4.1
		c-0.2,0.4-1.9,3.5-2.2,4.1c-0.3,0.6-2.2,2.3-2.8,2.8c-0.3,0.1-0.9,1-1.4,1.7c-0.5,0.6-1.3,1.5-1.6,1.7c-0.4,0.3-1.8,1.3-2.7,2.1
		c-2.1,1-4.1,2.6-6.7,2.6c-1.8,0-4.3,0-4.6-0.6c-0.3-0.9-0.4-2.2-0.4-3.1s1.3-4.6,1.8-5s2.7-4,3.1-4.8c0.3-0.6,2.8-3.5,4.8-5.4
		c1.2-1.2,3.6-3.4,4.1-3.5c0.3-0.5,3.2-3.9,4.4-5.3c0.3-0.4,2.1-2.1,3.7-3.6l2.6-1.9c0.8-0.8,1-0.9,1-0.9l1.4-1.4
		c1.3-1.5,3.2-3.9,3.7-4.1c0.6-0.4,2.5-1.9,2.8-2.6l0.8-1.4c0.5-1.2,1.4-2.7,1.7-3c0.6-0.6,2.3-4,2.3-4.8c0-0.9-0.6-2.6-1.2-2.6
		l-0.5-0.1c-0.4-0.1-0.8-0.3-1.4-0.3c-0.3,0-1.7-0.5-2.7-1.3c-0.8-0.7-1.3-1.5-1.3-1.5s-3.5,1.8-4,1.9c0,0.4-1.5,1-1.8,1.2l-2.8,0.9
		c-0.4,0.3-1.2,0.7-2.1,0.7c-0.8,0.1-2.4,1.2-3,1.2C299.2,75.4,299.1,74.9,299.1,74.4"/>
	<path class="st0" d="M368.7,75.1c0,0.1,0,0.3-0.1,0.4l-1.3,0.6c-0.4,0.3-1.2,0.8-2.1,1l-1.9,0.5c0,0-0.5,0.1-1.2,0.1
		c-0.8,0-1.7-0.1-1.9-0.5c-1.4-1-1.7-1.7-1.9-2.1c-0.3-0.4-0.4-1.2-0.4-1.8c0-0.5,0.1-1.3,0.1-1.3l0.6-2.4c0-0.5-0.4-0.9-1.3-0.9
		c-0.5,0-0.9,0.3-1.2,0.3l-1.4,0.9c-1.4,0.6-1.6,0.6-3,1.6c-0.5,0.4-1.3,0.6-1.7,1.3l-1.8,0.9l-3.1,2.3c-0.9,0.6-1.8,0.8-2.7,1.3
		c-0.8,0.3-1.3,0.4-1.7,0.4c-0.3,0-0.5-0.1-0.9-0.1c-0.5,0-1.6,0-1.9-0.1c-0.4-0.3-0.6-0.5-0.6-0.5c-1-0.9-1.3-3.1-1.3-3.4
		c0-0.9-0.1-0.9-0.3-0.9l-1,0.3l-2.3,1.3c-0.3,0.3-2.5,1.4-3.3,1.4c-0.1,0-0.4,0-0.4-0.1c-0.1-0.1-0.3-0.5-0.3-1.2s0.1-0.7,0.5-0.9
		l1-0.5c0.6-0.3,1.4-0.8,2.5-1.2l2.8-1.4c0.9-0.4,0.8-1,1-1.7c0.5-1.7,1.2-3.2,1.2-3.2l0.9-1.8c0.8-0.6,1.4-2.3,2.1-3.1
		c0.6-1,1.7-1.9,2.1-3.2c0.5-0.8,1-0.9,1.4-0.9h0.5c0.4,0,0.8,0.1,1,0.1l1.4,0.5c0.5,0.4,0.7,0.8,0.7,0.8c0,0.3-0.4,1.2-0.5,1.3
		c0,0.6-1,1.9-1.3,2.8l-0.8,2.2c0,0.1-0.4,1.2-0.8,1.4c-0.3,0.3-0.9,2.7-0.9,3.3c0,0-0.3,0.8-0.3,0.9l-0.1,0.4
		c0,1.3,1.2,1.7,2.8,1.7c0.1,0,0.4,0,0.5-0.1c0.4-0.3,2.3-0.8,2.6-0.9c1.9-1,2.2-1.7,3.2-2.1l1.8-0.9l2.2-1.7
		c1.2-0.6,2.1-1.7,2.1-1.7c1-0.8,1.9-1.9,2.3-2.3c0.9-0.8,1.9-2.2,3.2-3.5c0.1-0.1,1.2-1.3,1.4-1.4c0.6-0.4,0.8-0.6,1.2-0.6
		c0.6,0,0.9,0,1.2,0.1c0.3,0,0.4,0.1,0.4,0.1c0.3,0.1,0.8,0.5,0.8,0.8c0,0.9-0.4,2.2-0.8,3c-0.4,1.3-1.5,2.3-1.5,2.7
		c-0.8,1.9-1.6,2.2-1.8,2.8l-1.2,2.5c-0.4,0.3-0.6,2.4-0.6,2.8s-0.3,1-0.3,1.5l0.1,1.2c0,0.4,0.6,1.2,1.3,1.2c0.5,0,1.6-0.3,2.3-0.8
		c0.4-0.2,1.4-1,1.9-1c0.3,0,0.5,0.4,0.5,0.8L368.7,75.1z"/>
	<path class="st0" d="M390.2,75c0,0.5-0.3,0.8-0.5,0.8c-0.6,0.3-1,0.5-1.3,0.8c-0.1,0.1-1.4,0.6-2.1,0.9c0,0,0.1,0-1,0.4
		c-0.4,0.3-2.3,0.8-3.1,0.9h-1.6c-0.4,0-0.8,0-0.9-0.1l-0.4-0.1c-1.5-0.7-1.9-0.8-2.3-2.8c-0.1-0.3-0.1-0.8-0.1-1.4
		c0-1,0.1-2.4,0.4-3.5c0-0.1-0.3-0.5-0.4-0.5c-0.4,0-1.3,0.9-1.7,1.2l-1.3,1c-1,0.8-1.4,1-2.3,1.5l-1.7,0.8
		c-0.8,0.4-1.7,0.8-1.9,0.8c-0.4,0-0.5-1.2-0.5-1.3c0-0.5,0.7-0.9,1.2-1.2c0.3-0.1,1.5-0.6,1.9-0.9c1-0.6,1.9-1.5,2.6-2.2l2.6-2.6
		c0.4-0.3,0.6-1.2,1.2-1.7l2.1-2.1c1.2-1.7,2.7-3.2,3.7-5c0.1-0.3,0.3-0.3,0.9-0.6c0.1-0.1,0.4-0.1,0.5-0.1h0.7
		c0.8,0.3,2.1,0.1,2.8,0.6c0.3,0.1,0.4,0.3,0.4,0.5l-0.1,0.8c-0.5,0.9-0.8,1-1.3,1.8c0,0.1-0.4,0.8-0.9,1.4
		c-0.1,0.5-0.3,1.4-0.9,2.6c-0.5,1-1.9,2.7-2.1,3.2l-1.2,4c0,0.5,0.1,1.3,0.3,1.7c0.3,0.5,1.4,1.2,2.2,1.2l1.7-0.3
		c1.4-0.3,2.3-1,3-1.4l0.9-0.3c0.3,0,0.5,0.1,0.5,0.3C390.2,74.2,390.2,74.6,390.2,75"/>
	<path class="st0" d="M390.6,47.3c0,0,0.3,0.8,0.3,1.4c0,0.3,0.3,1,0.3,1.4c0,0.5,0.1,1.3,0.1,2.1c0,0.3,0,0.5-0.1,0.8
		c-0.3,0.4-0.3,0.1-0.5,0.6c-0.1,0.1-0.8,0.9-1,0.9c-0.3,0-0.5-0.1-0.8-0.3c-0.3-0.1-1.4-0.3-1.8-0.6c-0.3-0.5-0.6-1.2-1-1.4
		c-0.5-0.6-0.6-1.8-1-2.1c-0.3-0.1-0.3-0.3-0.3-0.5c0-0.4,0.1-0.8,0.1-0.9c0-0.5,0.4-0.6,0.6-0.6c0.3,0,0.9-0.9,1.2-1.2
		c0.1-0.4,1-0.4,1.5-0.6c0.3-0.1,0.8-0.3,1.2-0.3c0.1,0,0.3,0,0.4,0.1C389.7,46.2,390.6,47.1,390.6,47.3"/>
	<path class="st0" d="M389.7,75.6c-0.5,0-0.5-0.5-0.5-0.9v-0.6c0-0.3,0-0.4,0.1-0.4l0.4-0.1c1.2-0.4,3-1.2,3.6-1.5
		c0.1-0.1,0.5-0.8,1.6-1.2c0.3-0.3,0.9-0.6,1.2-0.8c0.6-0.3,1.4-1,1.8-1.3l1.3-1.3c0.3-0.3,0.8-0.6,1-1l2.7-3.2
		c0.4-0.4,2.2-3.5,3.1-5.5c0.4-1,1.8-1,1.8-1l1.3,0.1c1,0.4,1.2,0,1.8,1c0.3,0.4,0.4,0.9,0.4,1.4s-0.1,0.9-0.3,1.3
		c-0.4,0.6,0.1,1.4-1.4,3.9c-0.4,0.5-2.1,3.6-2.2,3.9c-0.3,0.4-1.5,2.3-1.5,2.7c0,0.3,0.9,2.4,1.9,2.4c0.5,0,3-0.3,3.6-0.8
		c0.3-0.1,1.4-1.4,2.3-1.7c0.6-0.3,1.5-0.5,2.7-1.7c0.3-0.4,1.7-1.4,2.2-1.7c0.3-0.1,0.1-0.9,1-1.5c2.7-1.7,4.4-4.6,6.7-6.6l2.6-1.8
		l0.8-0.4c0.4,0,0.9-0.1,1.2-0.3l0.8-0.3c0.6-0.3,1.9-0.4,2.2-0.4c0.5,0.1,1.4,0.4,1.4,1.2c0,0.6-0.4,1.2-0.9,1.8c0,0-1,1.4-1.3,1.7
		c-1.4,1.9-2.3,4.9-2.3,5.4l-0.5,2.2c-0.1,0.8-0.4,1.5-0.4,2.3s0,2.8,1,3.2c0.3,0.1,1,0.3,1.8,0.3c0.9,0,2.3-0.7,3-0.9
		c0.4-0.1,0.3-0.3,0.8-0.3c0.3,0,0.5,0.4,0.5,0.4c0.1,0.3,0.3,0.9,0.3,1.2c0,0.1,0,0.4-0.1,0.4l-0.5,0.3c0.1,0-1.9,1.3-3.9,1.7
		c-0.6,0.1-1.7,0.5-2.2,0.5s-0.8,0.1-0.9,0.1c-0.4,0-0.5-0.1-1-0.4c-1.8-0.6-2.3-1.8-3.2-3.7l-0.3-3.5c0-0.4,0.3-1.4,0.3-1.7
		c0-0.5-0.3-0.4-0.6-0.8c-0.3-0.3-0.8-0.4-1.2-0.4c-0.4,0-0.7,0.1-0.8,0.1c-0.5,0.4-1.4,0.8-2.3,1.3l-2.3,1.5
		c-1.9,1.2-4.8,4-6.6,4.5c-0.6,0.1-1.6,0.9-2.2,1.3c-1,0.5-2.6,1.6-2.8,1.6L405,78c-0.5,0.1-1.2,0.1-1.7,0.1c0,0-2.2-0.4-2.4-0.6
		c-0.4-0.4-1.2-0.8-1.3-1.3l-0.4-1.5c0-0.1-0.1-0.5-0.1-0.9c0-0.9,0.1-2.2,0.1-2.2s-0.6,0.5-1.2,0.6l-1.3,0.9
		c-0.4,0-1.2,0.5-1.3,0.6c-0.9,0.4-1.4,0.3-1.8,0.5c-0.6,0-1.2,0.3-1.4,0.4l-0.8,0.5L389.7,75.6z"/>
	<path class="st0" d="M380.6,112.2c0,0.6-0.4,1.5-0.9,1.8c-0.8,0.5-2.7,1-4.8,1c-7.2,0-11-4.4-11-10.6c0-6.5,4.8-10.8,11.2-10.8
		c3.2,0,5.3,1,5.9,1.6c0,0.6-0.5,1.3-1,1.4c-1.3-0.7-3-1.1-5-1.1c-4.3,0-8.2,3-8.2,8.8c0,5.1,3,8.8,8.8,8.8
		C377.6,113.1,379.7,112.6,380.6,112.2L380.6,112.2z"/>
	<path class="st0" d="M391.1,104.3c1.7,0,3.2-0.1,3.6-0.3c1.2-0.5,2.6-1.7,2.6-4.1c0-3.2-2.2-4.2-4.3-4.2c-0.7,0-1.5,0-1.9,0.1
		L391.1,104.3L391.1,104.3z M391.1,113.9c0,0.6-0.1,0.8-0.6,0.8c-0.9,0.1-1.9,0.1-2.2,0.1c0.1-1.3,0.1-3.2,0.1-6V97.9
		c0-1.6,0-2.4-0.1-3.4c1-0.2,3.6-0.5,4.9-0.5c4.2,0,6.9,1.4,6.9,5.7c0,3.1-2.6,4.8-4.1,5.4c0.8,0.5,1.7,1.7,3.1,4.2
		c1.6,2.8,3.1,4.8,3.8,5.3v0.1c-0.3,0.2-1,0.3-1.8,0.3c-1,0-1.8-0.6-2.7-2c-1.4-2.1-1.6-2.6-2.7-4.6c-1.4-2.2-2.2-2.5-3.6-2.5h-1
		L391.1,113.9L391.1,113.9z"/>
	<path class="st0" d="M412.1,105.1c0,7,3.3,8.1,5.9,8.1c3.1,0,5.8-1.2,5.8-8.4V95c0-0.6,0.3-0.8,0.6-0.8c1-0.1,1.1-0.1,1.7-0.1
		c-0.1,1.3-0.1,3.2-0.1,5.9v4.7c0,9.1-4.8,10.4-8.4,10.4c-4.8,0-8.3-2.3-8.3-10.1v-6.5c0-2.2,0-3.5-0.1-4.2c0.4-0.1,1.8-0.3,2.3-0.3
		s0.6,0.2,0.6,1.7V105.1z"/>
	<path class="st0" d="M435.4,98.5c0-2.2,0-3.5-0.1-4.1c0.4-0.1,1.8-0.3,2.3-0.3c0.4,0,0.5,0.2,0.5,1.7v14.8c0,2.3,0.1,3.3,0.1,4
		c-0.5,0.2-1.8,0.3-2.3,0.3c-0.4,0-0.5-0.1-0.5-0.6V98.5z"/>
	<path class="st0" d="M452.7,93.7c1.6,0,3.4,0.7,4,1.3c0.1,0.5-0.3,1.3-0.8,1.5c-0.8-0.4-2.2-0.9-3.3-0.9c-1.8,0-3.6,0.9-3.6,3.1
		c0,1.9,1.1,2.8,4,4.7c3.3,1.9,4.7,3.2,4.7,6.1c0,3.8-3.1,5.8-6.7,5.8c-2.2,0-3.8-0.7-4.5-1.3c-0.3-0.3-0.6-0.5-0.6-0.8
		c0-0.5,0.3-1.3,0.5-1.5c1.2,1,3.1,1.5,4.5,1.5c2.7,0,3.9-1.4,3.9-3.2c0-2-1.3-3-4.7-5c-3.5-2.1-3.9-4.1-3.9-5.7
		C446.3,97.1,447.6,93.7,452.7,93.7L452.7,93.7z"/>
	<path class="st0" d="M465.5,98.8c0-1.5,0-2.9-0.1-4.1c0.6-0.2,1.4-0.4,2.3-0.5h8.3c-0.1,0.8-0.4,1.2-0.7,1.5
		c-0.4,0.2-1.1,0.2-2.5,0.2h-4.6v7.3h7.5c-0.2,1.5-0.9,1.7-2,1.7h-5.6v7.9c0.7,0.2,2.4,0.3,4,0.3c1.5,0,3.5,0,4.7-0.2v0.1
		c-0.2,0.8-0.7,1.4-1.4,1.7c-0.4,0.1-1.7,0.1-3.9,0.1c-2.6,0-4.8-0.1-5.7-0.4l-0.4-0.5V98.8H465.5z"/>
	<path class="st0" d="M490.4,93.7c1.6,0,3.4,0.7,4,1.3c0.1,0.5-0.3,1.3-0.8,1.5c-0.8-0.4-2.2-0.9-3.3-0.9c-1.8,0-3.6,0.9-3.6,3.1
		c0,1.9,1.1,2.8,4,4.7c3.3,1.9,4.7,3.2,4.7,6.1c0,3.8-3.1,5.8-6.6,5.8c-2.2,0-3.8-0.7-4.5-1.3c-0.3-0.3-0.6-0.5-0.6-0.8
		c0-0.5,0.3-1.3,0.5-1.5c1.2,1,3.1,1.5,4.5,1.5c2.7,0,3.9-1.4,3.9-3.2c0-2-1.3-3-4.7-5c-3.5-2.1-3.9-4.1-3.9-5.7
		C484,97.1,485.4,93.7,490.4,93.7L490.4,93.7z"/>
</g>
</svg>
