<svg id="Layer_1" data-name="Layer 1" xmlns="http://www.w3.org/2000/svg" viewBox="0 0 138.96 63.81"><defs><style>.cls-1{fill:#475267;}</style></defs><title>logo-z100</title><path class="cls-1" d="M78.42,45.66a1.1,1.1,0,0,1,1.23-1.18h2.68a3.61,3.61,0,0,1,3.88,3.76V53c0,0.12,0,.15-0.15.15H83.94c-0.11,0-.14,0-0.14-0.15V48.17a1.38,1.38,0,0,0-1.47-1.56H80.85V53c0,0.12,0,.15-0.13.15H78.56c-0.11,0-.14,0-0.14-0.15V45.66Zm16.3,4.52c0.12,0,.15,0,0.15.15a3.73,3.73,0,0,1-4,2.94,4.14,4.14,0,0,1-4.31-4.47,4.15,4.15,0,0,1,4.28-4.44A3.88,3.88,0,0,1,95,48.49a0.94,0.94,0,0,1-1.09,1H89a1.89,1.89,0,0,0,1.9,1.71,1.49,1.49,0,0,0,1.55-.92,0.16,0.16,0,0,1,.18-0.15h2.06Zm-2.06-2.24a1.72,1.72,0,0,0-1.79-1.74A1.85,1.85,0,0,0,89,47.93h3.62Zm2.18-3.29c0-.11,0-0.17.12-0.17h2.25a0.15,0.15,0,0,1,.18.15l0.88,5.85,1.3-5.14a1,1,0,0,1,1.11-.86h0.7a1,1,0,0,1,1,.86l1.18,5.12,1-5.84a0.16,0.16,0,0,1,.18-0.15h2c0.12,0,.14.06,0.12,0.17l-1.59,7.63a1,1,0,0,1-1.12.88h-1.06a1.08,1.08,0,0,1-1.11-.88L101,47.67l-1.17,4.59a1,1,0,0,1-1.09.88H97.51a1,1,0,0,1-1.12-.88Zm15,9.78c0-.12,0-0.15.14-0.15h0.67a0.88,0.88,0,0,0,1-.65l0.15-.47-3.12-8.51c0-.11,0-0.17.12-0.17h2.35a0.18,0.18,0,0,1,.18.15l1.79,5.43,1.56-5.43a0.17,0.17,0,0,1,.18-0.15H117c0.12,0,.15.06,0.12,0.17l-3,9.25a3.07,3.07,0,0,1-3.32,2.29H110c-0.11,0-.14,0-0.14-0.15V54.42Zm15.46-5.62a4.43,4.43,0,1,1-4.47-4.44A4.23,4.23,0,0,1,125.32,48.79Zm-2.43,0a2.05,2.05,0,1,0-4,0c0,1.53.82,2.37,2,2.37S122.9,50.34,122.9,48.81Zm2.8-.59a3.56,3.56,0,0,1,3.84-3.75h1c0.11,0,.14,0,0.14.15v1.87c0,0.12,0,.15-0.14.15h-0.8a1.47,1.47,0,0,0-1.58,1.62V53c0,0.12,0,.15-0.13.15h-2.15c-0.11,0-.14,0-0.14-0.15V48.22Zm5.36-7c0-.12,0-0.15.14-0.15h2.12c0.12,0,.15,0,0.15.15v7.25l2.68-3.84a0.25,0.25,0,0,1,.24-0.14h2.41a0.12,0.12,0,0,1,.09.2l-3,4L138.93,53a0.11,0.11,0,0,1-.09.18h-2.47a0.2,0.2,0,0,1-.23-0.14l-2.67-3.87V53c0,0.12,0,.15-0.15.15H131.2c-0.11,0-.14,0-0.14-0.15V41.2ZM25,16.93H14.43V16.39h10V10.6H46.06l-0.47.55H25v5.78ZM58,0H14.43V0.55H57.48v14L25.1,52.41H26L58,15V0Zm0.4,45.64H57.88V63.26H14.43v0.55h44V45.64Zm0.69-41V15.37L28.54,51.08H45.63V43.46H59.51V58A35.66,35.66,0,0,0,59.11,4.62Zm5.93,10a0.15,0.15,0,1,1,.27-0.15,34.15,34.15,0,0,1,0,33.78,0.15,0.15,0,0,1-.13.08l-0.08,0A0.15,0.15,0,0,1,65,48.14,33.84,33.84,0,0,0,65,14.67ZM94.19,12c-6.75,0-11.67,4.45-11.67,11.67v8.43c0,7.22,4.92,11.59,11.67,11.59s11.7-4.29,11.7-11.59V23.71C105.89,16.41,100.9,12,94.19,12Zm5.3,20.05c0,4.06-2,6.12-5.3,6.12-3.59,0-5.42-2.46-5.42-7.1V23.74c0-4.06,2.22-6.12,5.42-6.12,3.59,0,5.3,2.46,5.3,7.1v7.37ZM119.35,12c-6.75,0-11.67,4.45-11.67,11.67v8.43c0,7.22,4.92,11.59,11.67,11.59s11.7-4.29,11.7-11.59V23.71C131.06,16.41,126.06,12,119.35,12Zm5.31,20.05c0,4.06-2,6.12-5.31,6.12-3.59,0-5.42-2.46-5.42-7.1V23.74c0-4.06,2.22-6.12,5.42-6.12,3.59,0,5.31,2.46,5.31,7.1v7.37ZM80.46,12.35H74c-0.27,0-.35.08-0.35,0.39V43.1c0,0.31.08,0.39,0.35,0.39h6.48a0.32,0.32,0,0,0,.39-0.39V12.74A0.32,0.32,0,0,0,80.46,12.35ZM26,12.24V18H12.25V4.62A35.65,35.65,0,0,0,11.84,58V48L42.5,12.24H26Zm-20,36.11L6,48.37a0.15,0.15,0,0,1-.13-0.08,34.15,34.15,0,0,1,0-33.78,0.15,0.15,0,0,1,.27.15,33.84,33.84,0,0,0,0,33.47A0.16,0.16,0,0,1,6.08,48.35Z"/></svg>