<?xml version="1.0" encoding="utf-8"?>
<!-- Generator: Adobe Illustrator 21.0.0, SVG Export Plug-In . SVG Version: 6.00 Build 0)  -->
<svg version="1.1" id="Layer_1" xmlns="http://www.w3.org/2000/svg" xmlns:xlink="http://www.w3.org/1999/xlink" x="0px" y="0px"
	 viewBox="0 0 1578.1 547.3" style="enable-background:new 0 0 1578.1 547.3;" xml:space="preserve">
<style type="text/css">
	.st0{fill:#FFFFFF;}
</style>
<g>
	<g>
		<g>
			<g>
				<path class="st0" d="M581.3,51.8c37.2,0,55.6,27.3,55.6,64.2c0,38.4-17.7,65.2-55.6,65.2c-37.9,0-55.6-26.8-55.6-65.2
					C525.8,79.1,544.2,51.8,581.3,51.8z M581.3,156.1c9.8,0,14.3-8.9,14.3-40.1c0-28.5-3-39.1-14.3-39.1S567,87.5,567,116
					C567.1,147.3,571.5,156.1,581.3,156.1z"/>
				<path class="st0" d="M662.6,83.1h-16.2v-28h16.2V41.3c0-30.2,15-41.3,41.3-41.3c7.9,0,13.8,0.7,20.1,1.5V32
					c-2.2-0.5-5.2-1-7.3-1c-10.5,0-14.3,4.1-14.3,11.6v12.5H724v28h-21.6v95.4h-39.8V83.1z"/>
			</g>
			<g>
				<path class="st0" d="M198,89.5c0-7.4-3.4-12.3-10.3-12.3c-9.6,0-12.6,9-13,16.2L140,86.3c4.4-24.3,26.6-34.2,49.2-34.2
					c23.8,0,48.7,10.3,48.7,37.6v68.9c0,14,2.2,18.2,3.7,19.9h-41.1c-0.7-3.4-1-9.3-1.2-11.3c-6.8,7.2-18.6,13.7-30.3,13.7
					c-19.9,0-35-13.4-34.4-36.1c0.9-32.1,37.2-41.6,63.5-44.7V89.5H198z M198,119.3c-13.9,1.3-24.3,6.6-24.3,22.4
					c0,8.6,4.4,13.1,11.6,13.1c4.5,0,9.4-3.2,12.8-7.7v-27.8H198z"/>
				<path class="st0" d="M301,90.3v88.3h-39.8V55.1h39l0.2,12.6h0.5c8.2-8.4,19.2-15.5,34.8-15.5c17.4,0,27.4,11.8,27.4,28.8v97.6
					h-39.8v-85c0-7-2.5-10.9-9.2-10.9C309.5,82.6,304.6,85.6,301,90.3z"/>
				<polygon class="st0" points="387.7,3.5 427.5,3.5 427.5,92.4 428,92.4 457.4,55.1 497,55.1 463.6,93.1 497.2,178.5 455.8,178.5 
					436.4,124.7 435.9,124.7 427.5,134.3 427.5,178.5 387.7,178.5 				"/>
				<path class="st0" d="M92,87.5c19,6.3,32.7,21.8,32.7,44.2c0,30-24.1,46.9-57.3,46.9H0V3.5h69.2c31,0,51.4,18.6,51.4,42.8
					c0,22.9-15.9,34.9-28.6,39.9V87.5z M43,146.1h16.2c9.6,0,22.3-4.2,22.3-22.1c0-13-8.1-21.7-22.3-21.7H43V146.1z M43,72.8h14.5
					c16,0,22.4-8.6,22.4-18.9c0-16.7-11.3-19.4-21.4-19.4H43V72.8z"/>
			</g>
			<g>
				<path class="st0" d="M1531.6,89.5c0-7.4-3.4-12.3-10.4-12.3c-9.5,0-12.6,9-13,16.2l-34.7-7.1c4.4-24.3,26.6-34.2,49.2-34.2
					c23.9,0,48.7,10.3,48.7,37.6v68.9c0,14,2.2,18.2,3.7,19.9H1534c-0.7-3.4-1-9.3-1.2-11.3c-6.8,7.2-18.6,13.7-30.3,13.7
					c-19.9,0-35-13.4-34.4-36.1c0.8-32.1,37.1-41.6,63.5-44.7L1531.6,89.5L1531.6,89.5z M1531.6,119.3c-14,1.3-24.4,6.6-24.4,22.4
					c0,8.6,4.4,13.1,11.6,13.1c4.5,0,9.4-3.2,12.8-7.7V119.3z"/>
				<path class="st0" d="M1122,125.4c-0.6,11,2.3,29.3,18.4,29.3c9.6,0,17.7-7,19.7-16.9l26.8,9.8c-1.7,5.6-14,33.7-49.4,33.7
					c-38.1,0-55.3-30.7-55.3-64.9c0-34.9,18.2-64.4,54.8-64.4c38.4,0,51.7,33,51.7,65.2v8.4H1122V125.4z M1151.8,101.8
					c0.4-11.5-1.2-24.8-15-24.8c-11.3,0-15.4,13.2-14.8,24.8H1151.8z"/>
				<rect x="1296.2" y="55.1" class="st0" width="39.8" height="123.5"/>
				<rect x="1296.2" y="3.5" class="st0" width="39.8" height="35.4"/>
				<path class="st0" d="M1424.4,100.8c0-4.9-0.3-10.8-2-15.5c-2-4.9-5.2-8.4-11.5-8.4c-13.3,0-14.8,16.2-14.8,40.8
					c0,27.8,4.4,36.9,14.8,36.9c14,0,15.2-14.3,15.2-23.6l31,4.4c-2.9,30-20.1,45.7-49.2,45.7c-35.9,0-54.6-31.5-54.6-62
					c0-33.7,18.7-67.4,56.3-67.4c42.3,0,48.7,36.6,48.7,49h-33.9V100.8z"/>
				<path class="st0" d="M793.3,3.5h58l37.4,175.1h-43l-6.9-35.4h-40.6l-7.6,35.4h-38.4L793.3,3.5z M804.4,112.1h28.3l-12.6-71.3
					h-0.9L804.4,112.1z"/>
				<path class="st0" d="M1205.1,55.1h38.6l0.4,16.7h0.7c8.2-13,23-19.7,38.4-19.7v40.3c-4.5-1.7-9.4-3.5-16.2-3.5
					c-10.2,0-17.2,4-21.9,9.6v79.9h-39.8V55.1H1205.1z"/>
				<path class="st0" d="M1002.9,90.5v88.1h-39.1V93.9c0-6.6-2-11.1-9.4-11.1c-4.2,0-10.1,3.1-13.5,7.6v88.1h-39.1V55.1h38.9
					l0.2,12.6h0.5c8.4-7.8,20.9-15.5,35.7-15.5c12.1,0,20.2,7,23.9,16.5h0.5c7-7.5,18.9-16.5,35.5-16.5s27.8,10.9,27.8,28v98.4
					h-39.1V93.9c0-6.6-2-11.1-9.3-11.1C1011.2,82.9,1005.5,87.1,1002.9,90.5z"/>
			</g>
		</g>
	</g>
</g>
<g>
	<path class="st0" d="M717.2,345.7c15.7,6.2,31.1,12.8,46.4,19.9c-48.6,19.7-95.5,43.1-140.4,69.9c-15.1-8-30.5-15.5-46.1-22.5
		C621.8,386.9,668.6,364.4,717.2,345.7z"/>
	<path class="st0" d="M659.3,325.3c-50.4,16-99,36.9-145.1,62.3c14.7,5.3,29.2,10.9,43.6,17c44.6-26.2,91.8-48.4,140.8-65.9
		C685.6,333.9,672.5,329.4,659.3,325.3z"/>
</g>
<g>
	<g>
		<path class="st0" d="M804.8,537c0-5.6,4.7-10.2,10.6-10.2c5.8,0,10.5,4.6,10.5,10.2c0,5.7-4.7,10.3-10.5,10.3
			C809.5,547.3,804.8,542.7,804.8,537z M806.8,537c0,4.7,3.8,8.3,8.6,8.3c4.7,0,8.5-3.6,8.5-8.3c0-4.5-3.8-8.2-8.5-8.2
			C810.6,528.8,806.8,532.5,806.8,537z"/>
		<path class="st0" d="M820.6,542.8h-2l-3.4-5.3h-2.1v5.3h-1.7v-11.5h5.1c1,0,2,0.1,2.9,0.5c0.9,0.5,1.3,1.5,1.3,2.5
			c0,2.3-1.6,3.1-3.7,3.2L820.6,542.8z M815.1,536.1c1.6,0,3.9,0.3,3.9-1.8c0-1.5-1.3-1.7-2.8-1.7h-3.1v3.5H815.1z"/>
	</g>
	<g>
		<g>
			<path class="st0" d="M822.6,343.8c-39.7-19.2-80.8-35.3-123.2-48.2c-14.9,4.3-29.7,9-44.3,14c43.6,12.9,86,29.3,126.8,48.8
				C795.3,353.2,808.9,348.3,822.6,343.8z"/>
			<path class="st0" d="M887.3,324.5c-40.6-17.7-82.5-32.5-125.4-44.3c-13.7,2.8-27.2,6-40.7,9.4c42.6,12.4,84,28.2,123.9,46.9
				C859,332.2,873.1,328.2,887.3,324.5z"/>
			<path class="st0" d="M991.1,359.4C889.3,393.7,794,442.6,707.7,503.8c21.5,13.2,42.6,27.3,63.1,42.1
				c81.3-64.5,171.6-118.2,268.8-159.1C1023.7,377.2,1007.5,368,991.1,359.4z"/>
			<path class="st0" d="M921.1,326.1c-105.8,28-205.3,73.2-295,132.7c20.2,9.9,40.1,20.6,59.5,31.8
				c87.9-60.8,185.5-108.2,289.5-139.5C957.4,342.2,939.4,333.9,921.1,326.1z"/>
		</g>
	</g>
</g>
</svg>
