<?xml version="1.0" encoding="utf-8"?>
<!-- Generator: Adobe Illustrator 19.2.0, SVG Export Plug-In . SVG Version: 6.00 Build 0)  -->
<svg version="1.1" id="Layer_1" xmlns="http://www.w3.org/2000/svg" xmlns:xlink="http://www.w3.org/1999/xlink" x="0px" y="0px"
	 viewBox="0 0 133.3 45" style="enable-background:new 0 0 133.3 45;" xml:space="preserve">
<style type="text/css">
	.st0{fill:#475267;}
</style>
<path class="st0" d="M127,41.5h2.7V42h-1.1v2.9H128V42H127V41.5L127,41.5z M130.1,41.5h0.8l0.8,2.8l0.8-2.8h0.8v3.5h-0.5v-2.9
	l-0.9,2.9h-0.6l-0.8-2.9v2.9h-0.5L130.1,41.5L130.1,41.5z M120.9,5.3h6.1v28.9h-6.1V5.3L120.9,5.3z M91.6,5.3l2.2,3.2v25.8H96V11.8
	l17.1,25.1V5.3h-2.2v18.3L98.4,5.3H91.6L91.6,5.3z M77.5,24.3c-1.2-0.2-2.5-0.2-3.8-0.1c-1.6,0.2-3.1,0.6-4.5,1.6l4.2-13.2
	L77.5,24.3L77.5,24.3z M70.8,5.3l1,2.8l-8.4,26.1h3.1l2.1-6.6c2.8-1.2,4.9-1.2,6.7-0.9c1.2,0.2,2.3,0.5,3.4,0.8l2.4,6.7h6l-2.2-6.1
	c0.2,0,0.4,0,0.7-0.1c2.4-0.3,4.7-1.3,6.1-3.8c-2.5,1.5-4.3,1.9-5.8,1.7c-0.6-0.1-1.2-0.1-1.7-0.2L76.9,5.3H70.8L70.8,5.3z M62.8,0
	c-4.7,0-12,5.2-12,12.4c0,6.9,5,12,5,19.1c0,3.7-1.3,5.7-5.1,9.1c0.7,0,1.4,0,2,0c3.3-2,8.2-5.5,8.2-11c0-8.4-5.1-11.6-5.1-19.1
	c0-5.6,5.1-9,7-9C62.8,1,62.8,0.5,62.8,0L62.8,0z M38.4,24.3c-1.2-0.2-2.5-0.2-3.8-0.1c-1.6,0.2-3.1,0.6-4.5,1.6l4.2-13.2L38.4,24.3
	L38.4,24.3z M31.7,5.3l1,2.8l-8.4,26.1h3.1l2.1-6.6c2.8-1.2,4.9-1.2,6.6-0.9c1.2,0.2,2.3,0.5,3.4,0.8l2.4,6.7h6l-2.2-6.1
	c0.2,0,0.4,0,0.7-0.1c2.4-0.3,4.7-1.3,6.1-3.8c-2.5,1.5-4.3,1.9-5.8,1.7c-0.6-0.1-1.2-0.1-1.7-0.2L37.8,5.3H31.7L31.7,5.3z
	 M23.6,20.6c0,6.3-6.1,15.7-17.5,15.7c-2,0-4.1,0-6.1,0C0,25.5,0,14.7,0,3.9c2,0,4.1,0,6.1,0C17.5,3.9,23.6,12.8,23.6,20.6z
	 M17.5,20.4c0-9.5-6.2-14.9-11.4-14.9c0,9.6,0,19.3,0,28.9C10.1,34.5,17.5,30.3,17.5,20.4z"/>
</svg>
