<?xml version="1.0" encoding="utf-8"?>
<!-- Generator: Adobe Illustrator 21.0.0, SVG Export Plug-In . SVG Version: 6.00 Build 0)  -->
<svg version="1.1" id="Layer_1" xmlns="http://www.w3.org/2000/svg" xmlns:xlink="http://www.w3.org/1999/xlink" x="0px" y="0px"
	 viewBox="0 0 1578.1 547.3" style="enable-background:new 0 0 1578.1 547.3;" xml:space="preserve">
<style type="text/css">
	.st0{fill:#255AA8;}
	.st1{fill-rule:evenodd;clip-rule:evenodd;fill:#255AA8;}
	.st2{fill-rule:evenodd;clip-rule:evenodd;fill:#D8505C;}
</style>
<g>
	<g>
		<g>
			<g>
				<path class="st0" d="M582.4,50.6c37.2,0,55.7,27.4,55.7,64.3c0,38.4-17.7,65.3-55.7,65.3c-37.9,0-55.7-26.9-55.7-65.3
					C526.7,78,545.2,50.6,582.4,50.6z M582.4,155.1c9.9,0,14.3-8.9,14.3-40.2c0-28.6-3-39.2-14.3-39.2c-11.3,0-14.3,10.6-14.3,39.2
					C568.1,146.3,572.6,155.1,582.4,155.1z"/>
				<path class="st0" d="M663.8,82h-16.2V53.9h16.2V40.1c0-30.3,15-41.4,41.4-41.4c7.9,0,13.8,0.7,20.2,1.5v30.5
					c-2.2-0.5-5.2-1-7.4-1c-10.5,0-14.3,4.1-14.3,11.6v12.5h21.7V82h-21.7v95.6h-39.9V82z"/>
			</g>
			<g>
				<path class="st0" d="M198.4,88.4c0-7.4-3.4-12.3-10.4-12.3c-9.6,0-12.6,9-13,16.3l-34.8-7.1c4.4-24.4,26.6-34.3,49.3-34.3
					c23.9,0,48.8,10.4,48.8,37.7v69c0,14.1,2.2,18.2,3.7,19.9h-41.1c-0.7-3.4-1-9.3-1.2-11.3c-6.8,7.2-18.6,13.7-30.4,13.7
					c-19.9,0-35.1-13.4-34.4-36.2c0.9-32.2,37.2-41.7,63.6-44.8V88.4z M198.4,118.2c-13.9,1.3-24.4,6.6-24.4,22.4
					c0,8.6,4.4,13.1,11.6,13.1c4.5,0,9.4-3.2,12.8-7.7V118.2z"/>
				<path class="st0" d="M301.5,89.2v88.4h-39.9V53.9h39l0.2,12.6h0.5c8.3-8.4,19.2-15.6,34.8-15.6c17.5,0,27.5,11.8,27.5,28.8v97.8
					h-39.9V92.4c0-7-2.5-10.9-9.2-10.9C310,81.5,305.2,84.4,301.5,89.2z"/>
				<polygon class="st0" points="388.4,2.2 428.3,2.2 428.3,91.3 428.8,91.3 458.2,53.9 497.9,53.9 464.5,92 498.1,177.6 
					456.7,177.6 437.2,123.6 436.8,123.6 428.3,133.3 428.3,177.6 388.4,177.6 				"/>
				<path class="st0" d="M92.2,86.3c19,6.3,32.8,21.8,32.8,44.3c0,30-24.1,47-57.4,47H0V2.2h69.3c31.1,0,51.5,18.6,51.5,42.8
					c0,22.9-15.9,35-28.6,40V86.3z M43.1,145.1h16.3c9.6,0,22.4-4.2,22.4-22.2c0-13.1-8.1-21.7-22.4-21.7H43.1V145.1z M43.1,71.7
					h14.5c16,0,22.4-8.6,22.4-19c0-16.8-11.3-19.5-21.4-19.5H43.1V71.7z"/>
			</g>
			<g>
				<path class="st0" d="M1534.5,88.4c0-7.4-3.5-12.3-10.4-12.3c-9.5,0-12.6,9-13,16.3l-34.8-7.1c4.4-24.4,26.6-34.3,49.3-34.3
					c23.9,0,48.8,10.4,48.8,37.7v69c0,14.1,2.2,18.2,3.7,19.9h-41.2c-0.7-3.4-1-9.3-1.2-11.3c-6.9,7.2-18.6,13.7-30.4,13.7
					c-19.9,0-35.1-13.4-34.4-36.2c0.8-32.2,37.2-41.7,63.6-44.8V88.4z M1534.5,118.2c-14,1.3-24.4,6.6-24.4,22.4
					c0,8.6,4.4,13.1,11.6,13.1c4.5,0,9.4-3.2,12.8-7.7V118.2z"/>
				<path class="st0" d="M1124.2,124.3c-0.6,11,2.3,29.3,18.4,29.3c9.6,0,17.7-7,19.8-17l26.9,9.8c-1.7,5.7-14,33.7-49.5,33.7
					c-38.2,0-55.4-30.8-55.4-65.1c0-35,18.2-64.6,54.9-64.6c38.5,0,51.8,33,51.8,65.3v8.4H1124.2z M1154,100.7
					c0.4-11.5-1.2-24.9-15-24.9c-11.3,0-15.4,13.2-14.8,24.9H1154z"/>
				<rect x="1298.6" y="53.9" class="st0" width="39.9" height="123.7"/>
				<rect x="1298.6" y="2.2" class="st0" width="39.9" height="35.5"/>
				<path class="st0" d="M1427.1,99.7c0-4.9-0.3-10.8-2-15.5c-2-4.9-5.2-8.4-11.6-8.4c-13.3,0-14.8,16.3-14.8,40.9
					c0,27.8,4.4,37,14.8,37c14.1,0,15.3-14.3,15.3-23.7l31,4.4c-2.9,30.1-20.2,45.8-49.3,45.8c-36,0-54.7-31.5-54.7-62.1
					c0-33.7,18.7-67.5,56.4-67.5c42.4,0,48.8,36.7,48.8,49.1H1427.1z"/>
				<path class="st0" d="M794.8,2.2H853l37.5,175.4h-43.1l-6.9-35.5h-40.7l-7.6,35.5h-38.4L794.8,2.2z M805.9,111.1h28.3l-12.6-71.4
					h-0.9L805.9,111.1z"/>
				<path class="st0" d="M1207.4,53.9h38.6l0.4,16.7h0.7c8.2-13.1,23-19.7,38.4-19.7v40.4c-4.5-1.8-9.4-3.5-16.3-3.5
					c-10.2,0-17.2,4-21.9,9.6v80.1h-39.9V53.9z"/>
				<path class="st0" d="M1004.7,89.4v88.2h-39.1V92.8c0-6.6-2-11.1-9.4-11.1c-4.2,0-10.2,3.1-13.5,7.6v88.2h-39.1V53.9h38.9
					l0.2,12.6h0.5C951.5,58.6,964,51,978.9,51c12.2,0,20.2,7,24,16.6h0.5c7-7.5,18.9-16.6,35.6-16.6c16.6,0,27.9,11,27.9,28.1v98.6
					h-39.2V92.8c0-6.6-2-11.1-9.3-11.1C1013.1,81.7,1007.4,85.9,1004.7,89.4z"/>
			</g>
		</g>
	</g>
</g>
<g>
	<path class="st1" d="M718.5,345.1c15.7,6.2,31.2,12.8,46.4,19.9c-48.7,19.7-95.7,43.2-140.6,70c-15.2-8-30.6-15.5-46.2-22.6
		C622.9,386.4,669.8,363.8,718.5,345.1z"/>
	<path class="st1" d="M660.5,324.6c-50.5,16-99.2,37-145.4,62.4c14.7,5.3,29.3,11,43.7,17c44.7-26.3,91.9-48.4,141.1-66
		C686.9,333.2,673.8,328.8,660.5,324.6z"/>
</g>
<g>
	<g>
		<path class="st2" d="M806.3,536.7c0-5.6,4.8-10.2,10.6-10.2c5.8,0,10.6,4.6,10.6,10.2c0,5.8-4.7,10.4-10.6,10.4
			C811.1,547.1,806.3,542.5,806.3,536.7z M808.3,536.7c0,4.7,3.8,8.3,8.6,8.3c4.7,0,8.5-3.6,8.5-8.3c0-4.5-3.8-8.2-8.5-8.2
			C812.1,528.5,808.3,532.2,808.3,536.7z"/>
		<path class="st2" d="M822.2,542.5h-2l-3.4-5.3h-2.1v5.3H813V531h5.2c1,0,2,0.1,2.9,0.5c0.9,0.5,1.3,1.5,1.3,2.5
			c0,2.3-1.6,3.1-3.7,3.2L822.2,542.5z M816.7,535.8c1.7,0,3.9,0.3,3.9-1.8c0-1.5-1.3-1.7-2.8-1.7h-3.1v3.5H816.7z"/>
	</g>
	<g>
		<g>
			<path class="st2" d="M824.1,343.1c-39.7-19.2-81-35.4-123.4-48.3c-14.9,4.3-29.7,9-44.4,14.1c43.7,12.9,86.1,29.3,127,48.9
				C796.8,352.6,810.4,347.7,824.1,343.1z"/>
			<path class="st2" d="M888.9,323.8c-40.7-17.7-82.7-32.6-125.7-44.4c-13.7,2.8-27.3,6-40.8,9.5c42.6,12.5,84.1,28.2,124.1,47
				C860.6,331.6,874.7,327.5,888.9,323.8z"/>
			<path class="st2" d="M993,358.8C891,393.1,795.4,442.1,709,503.4c21.6,13.3,42.7,27.3,63.2,42.2c81.5-64.6,172-118.5,269.3-159.4
				C1025.6,376.6,1009.4,367.4,993,358.8z"/>
			<path class="st2" d="M922.9,325.4c-106,28-205.7,73.3-295.6,132.9c20.2,10,40.1,20.6,59.6,31.9
				c88.1-60.9,185.8-108.4,290.1-139.7C959.2,341.6,941.1,333.2,922.9,325.4z"/>
		</g>
	</g>
</g>
</svg>
