<?xml version="1.0" encoding="utf-8"?>
<!-- Generator: Adobe Illustrator 21.0.0, SVG Export Plug-In . SVG Version: 6.00 Build 0)  -->
<svg version="1.1" id="Layer_1" xmlns="http://www.w3.org/2000/svg" xmlns:xlink="http://www.w3.org/1999/xlink" x="0px" y="0px"
	 viewBox="0 0 332.6 155.5" style="enable-background:new 0 0 332.6 155.5;" xml:space="preserve">
<style type="text/css">
	.st0{fill:#FFFFFF;}
</style>
<g>
	<g>
		<g>
			<g>
				<path class="st0" d="M11.9,147.3l-1.2-6.1H5.9l-1,6.1h-3l4.2-22.2h4.4l4.5,22.2H11.9z M8.3,127.1c-0.7,3.9-1.2,7.9-2,11.8h4
					C9.6,135,8.7,131.1,8.3,127.1z"/>
				<path class="st0" d="M24.8,147.3v-12.8c0-1.2-0.4-2.1-1.7-2.1c-1.1,0-2.1,0.8-2.9,1.6v13.3h-2.8v-17.2H20l0.1,1.6
					c1-1,2.2-1.9,3.7-1.9c2.7,0,3.8,1.6,3.8,4.1v13.4L24.8,147.3L24.8,147.3z"/>
				<path class="st0" d="M34.2,146.5c0.8-0.1,1.4-0.4,1.9-1.1c0.3-0.4,0.8-1.4,1.4-2.8l7.4-18.2h0.9l7.4,17.5c0.8,2,1.5,3.2,1.9,3.8
					c0.4,0.6,1,0.8,1.8,0.8v0.8H46.1v-0.8c1.1,0,1.8-0.1,2.1-0.3c0.3-0.1,0.5-0.5,0.5-1.1c0-0.3-0.1-0.7-0.3-1.2
					c-0.1-0.3-0.3-0.7-0.4-1.1l-0.8-2h-7.5c-0.5,1.3-0.8,2.2-0.9,2.6c-0.3,0.9-0.4,1.5-0.4,1.9c0,0.5,0.3,0.8,1,1
					c0.4,0.1,0.9,0.2,1.7,0.2v0.8h-6.8L34.2,146.5L34.2,146.5z M46.7,139.5l-3.2-7.7h-0.3l-3,7.7H46.7z"/>
				<path class="st0" d="M56.9,146.5c0.6-0.1,1.1-0.2,1.3-0.5c0.3-0.3,0.4-0.8,0.4-1.5v-9.8c0-0.7-0.1-1.1-0.3-1.4
					c-0.2-0.3-0.7-0.4-1.4-0.5V132h6.3v2.4c0.5-0.8,1.2-1.5,2-2s1.7-0.8,2.7-0.8c1.4,0,2.5,0.4,3.3,1.1c0.8,0.7,1.2,2,1.2,3.9v8.1
					c0,0.7,0.1,1.2,0.4,1.4c0.3,0.2,0.7,0.4,1.3,0.4v0.8h-7.8v-0.8c0.6-0.1,1-0.3,1.2-0.5c0.2-0.2,0.3-0.7,0.3-1.4v-8.1
					c0-0.8-0.1-1.3-0.2-1.7c-0.3-0.7-0.8-1-1.5-1c-0.6,0-1.1,0.2-1.6,0.6c-0.5,0.4-0.9,0.8-1.1,1.3v8.9c0,0.7,0.1,1.2,0.3,1.4
					c0.2,0.2,0.6,0.4,1.2,0.5v0.8h-8L56.9,146.5L56.9,146.5z"/>
				<path class="st0" d="M75.4,133.5v-0.9c0.3-0.3,0.7-0.6,1.1-1c0.6-0.5,1.1-1.1,1.6-1.6c1-1.1,1.9-2.3,2.8-3.6h0.8v5.6h3.2v1.5
					h-3.2v10c0,0.5,0.1,0.9,0.2,1.2c0.2,0.5,0.6,0.7,1.1,0.7c0.4,0,0.8-0.2,1.1-0.5c0.3-0.3,0.6-0.7,0.9-1.3l0.8,0.4
					c-0.4,0.9-0.9,1.7-1.4,2.2c-1,1-2.1,1.5-3.5,1.5c-0.8,0-1.5-0.1-2-0.4c-1.1-0.6-1.7-1.6-1.7-3.1v-10.8L75.4,133.5L75.4,133.5z"
					/>
				<path class="st0" d="M86.5,146.5c0.6-0.1,1.1-0.2,1.3-0.5c0.3-0.3,0.4-0.8,0.4-1.5v-17c0-0.7-0.1-1.1-0.4-1.4
					c-0.2-0.3-0.7-0.4-1.4-0.5v-0.8H93v9.4c0.7-0.8,1.4-1.5,2.2-1.9c0.8-0.4,1.6-0.7,2.5-0.7c1.3,0,2.3,0.4,3.2,1.1
					c0.8,0.7,1.3,2,1.3,3.8v8c0,0.8,0.1,1.2,0.4,1.5c0.3,0.2,0.7,0.4,1.3,0.5v0.8h-7.8v-0.8c0.6-0.1,1-0.3,1.2-0.5
					c0.2-0.2,0.3-0.7,0.3-1.4v-8.1c0-0.8-0.1-1.3-0.2-1.7c-0.3-0.7-0.8-1-1.5-1c-0.6,0-1.2,0.3-1.8,0.8c-0.6,0.5-0.9,0.9-0.9,1.1
					v8.9c0,0.7,0.1,1.2,0.3,1.4c0.2,0.2,0.6,0.4,1.2,0.5v0.8h-8L86.5,146.5L86.5,146.5z"/>
				<path class="st0" d="M107.3,133.7c1.4-1.4,3-2.1,4.9-2.1c1.1,0,2.1,0.3,3.1,0.9c1,0.6,1.7,1.4,2.2,2.4c0.4,0.8,0.7,1.8,0.8,3
					c0.1,0.6,0.1,1,0.1,1.3H110c0.1,1.3,0.3,2.5,0.7,3.5c0.7,1.8,1.8,2.8,3.4,2.8c0.8,0,1.5-0.2,2.2-0.7c0.4-0.3,1-0.8,1.6-1.5
					l0.8,0.5c-1,1.7-2.2,2.9-3.6,3.5c-0.9,0.4-1.9,0.6-3,0.6c-1.6,0-3.2-0.6-4.6-1.9c-1.4-1.3-2.2-3.4-2.2-6.2
					C105.3,137.1,105.9,135.1,107.3,133.7z M114.4,137.9c0-2-0.2-3.3-0.5-4.1c-0.3-0.8-0.9-1.2-1.7-1.2c-0.9,0-1.5,0.4-1.8,1.4
					c-0.3,0.9-0.5,2.2-0.5,3.9H114.4z"/>
				<path class="st0" d="M119.9,146.5c0.6-0.1,1-0.2,1.3-0.4c0.4-0.3,0.6-0.8,0.6-1.6v-9.8c0-0.7-0.1-1.2-0.4-1.4
					c-0.3-0.3-0.7-0.4-1.4-0.5V132h6.3v2.4c0.6-0.7,1.1-1.3,1.6-1.7c1-0.7,2-1.1,3.2-1.1c1.3,0,2.4,0.3,3.1,0.9
					c0.4,0.4,0.8,0.9,1.2,1.8h0.2c0.6-0.8,1.2-1.3,1.8-1.7c0.9-0.6,1.9-1,3-1c1.2,0,2.2,0.4,3.1,1.1c0.9,0.8,1.3,1.9,1.3,3.6v8.4
					c0,0.8,0.1,1.3,0.4,1.5c0.2,0.2,0.7,0.3,1.3,0.4v0.8h-7.9v-0.8c0.6-0.1,1-0.2,1.3-0.4c0.2-0.2,0.4-0.7,0.4-1.4v-8.1
					c0-0.9-0.1-1.5-0.4-2c-0.3-0.5-0.7-0.7-1.5-0.7c-0.6,0-1.2,0.3-1.8,0.8c-0.6,0.5-1,0.9-1,1.1v8.9c0,0.7,0.1,1.2,0.3,1.4
					c0.2,0.2,0.6,0.4,1.2,0.5v0.8h-7.8v-0.8c0.6-0.1,1-0.2,1.3-0.4c0.3-0.2,0.4-0.7,0.4-1.5v-8.1c0-0.9-0.1-1.5-0.4-2
					c-0.2-0.5-0.7-0.7-1.5-0.7c-0.7,0-1.3,0.3-1.9,0.8c-0.6,0.6-0.9,0.9-0.9,1.1v8.9c0,0.7,0.1,1.2,0.3,1.4c0.2,0.2,0.6,0.4,1.2,0.5
					v0.8h-8L119.9,146.5L119.9,146.5z"/>
				<path class="st0" d="M160.6,147.7c-3.9,0-5.7-2.1-5.7-5.9v-11c0-3.7,1.9-6,5.7-6c3.3,0,5.7,1.7,5.7,5.2v2.5h-2.9
					c0-0.5,0-0.9,0-1.4c0-2-0.3-3.7-2.7-3.7c-2,0-2.9,1.2-2.9,3.1v11c0,1.9,0.6,3.7,2.8,3.7c3.3,0,2.9-3.1,2.9-5.5h3v2.3
					C166.5,145.9,164.4,147.7,160.6,147.7z"/>
				<path class="st0" d="M174.2,147.7c-3.3,0-5.3-1.8-5.3-5.2v-7.7c0-3.3,2.2-5,5.3-5c3.3,0,5.3,1.6,5.3,5v7.7
					C179.6,145.9,177.5,147.7,174.2,147.7z M176.8,134.9c0-1.5-1-2.6-2.5-2.6c-1.6,0-2.5,1-2.5,2.6v7.8c0,1.6,0.9,2.6,2.5,2.6
					s2.5-1,2.5-2.6V134.9z"/>
				<path class="st0" d="M196.1,147.3v-12.5c0-1.1-0.3-2.3-1.7-2.3c-1.1,0-1.9,0.8-2.5,1.6v13.2h-2.8v-12.8c0-1.2-0.5-2-1.8-2
					c-1,0-1.8,0.6-2.4,1.4v13.4h-2.8v-17.2h2.5l0.1,1.5c0.9-1,2.2-1.8,3.6-1.8c1.5,0,2.6,0.7,3.2,2.1c0.9-1.4,2.2-2.1,3.8-2.1
					c2.7,0,3.5,1.9,3.5,4.3v13.2L196.1,147.3L196.1,147.3z"/>
				<path class="st0" d="M209,147.6c-1.5,0-2.8-0.7-3.9-1.7v8h-2.8v-23.8h2.7l0.1,1.4c1.1-1,2.5-1.6,3.9-1.6c2.6,0,3.9,2.2,3.9,4.6
					v8.2C212.9,145.2,211.9,147.6,209,147.6z M210.1,135c0-1.3-0.6-2.6-2.1-2.6c-1.1,0-2.2,0.6-2.9,1.3v10c0.7,0.7,1.9,1.4,2.9,1.4
					c1.8,0,2.1-1.3,2.1-2.8L210.1,135L210.1,135z"/>
				<path class="st0" d="M223,147.3l-0.1-1.4c-1,1-2.3,1.6-3.7,1.6c-2.6,0-4.3-1.7-4.3-4.3v-0.9c0-4.3,4.3-5.3,7.8-5.7v-2.2
					c0-1.5-0.7-2.4-2.2-2.4c-2.1,0-2.4,1.3-2.4,3.1h-2.7v-0.6c0-3.4,1.9-4.8,5.2-4.8c3,0,4.9,1.3,4.9,4.5v13L223,147.3L223,147.3z
					 M222.8,138.6c-2.2,0.3-5,0.9-5,3.6v0.7c0,1.4,0.7,2.3,2.2,2.3c1.1,0,2.1-0.7,2.8-1.4V138.6z"/>
				<path class="st0" d="M236.2,147.3v-12.8c0-1.2-0.4-2.1-1.7-2.1c-1.1,0-2.1,0.8-2.9,1.6v13.3h-2.8v-17.2h2.6l0.1,1.6
					c1-1,2.2-1.9,3.7-1.9c2.7,0,3.8,1.6,3.8,4.1v13.4L236.2,147.3L236.2,147.3z"/>
				<path class="st0" d="M247.5,149.3c-0.8,3-1.8,4.8-5.2,4.8c-0.5,0-1-0.1-1.5-0.2v-2.3c0.4,0.1,0.8,0.1,1.3,0.1
					c1.8,0,2.3-1.1,2.6-2.6l0.5-2.2l-4.4-16.8h2.9c1,4.6,2.1,9.2,2.9,13.8c0.7-4.7,1.9-9.2,2.9-13.8h2.8L247.5,149.3z"/>
			</g>
		</g>
	</g>
</g>
<path class="st0" d="M113.3,68.5c-0.1,0.4-2.7,15.2-2.8,15.7c0.5,0,3.9,0,3.9,0c3.7,0,6.2-2.1,6.2-5.3c0-1.5-0.8-2.6-2.2-3l-0.7-0.2
	l0.6-0.3c2-0.7,2.8-1.8,2.8-3.6c0-2.1-1.8-3.4-4.9-3.4C116.3,68.5,113.6,68.5,113.3,68.5z M114,74.9l0.8-4.9h1.5
	c2.4,0,2.9,1.2,2.9,2.3c0,1.3-0.7,2.9-3.8,2.9H114L114,74.9z M112.7,82.4l1-5.9h1.7c2.2,0,3.2,0.8,3.2,2.5c0,2.4-1.5,3.7-4.2,3.7
	h-1.7L112.7,82.4z"/>
<path class="st0" d="M128.1,84.4h-6.4l2.2-12.4h1.8l-1.9,10.8h4.6L128.1,84.4z"/>
<path class="st0" d="M139.4,79.5c-0.6,3.4-2.6,5.2-5.5,5.2c-2.4,0-3.8-1.5-3.8-4c0-0.4,0-0.9,0.1-1.5l1.3-7.1h1.8l-1.3,7.3
	c-0.1,0.4-0.1,0.9-0.1,1.3c0,1.6,0.8,2.4,2.4,2.4c1.9,0,3.1-1.3,3.5-3.8L139,72h1.8L139.4,79.5z"/>
<path class="st0" d="M149.7,73.6h-4.6l-0.6,3.5h3.1l-0.3,1.5h-3l-0.7,4.2h4.6l-0.3,1.6h-6.4l2.2-12.4h6.4L149.7,73.6z"/>
<path class="st0" d="M155.2,69.9c-2.6,2-4.2,5-4.2,8.3c0,3.8,2.3,6.4,5.8,6.4c1.8,0,3.2-0.4,4.4-1.3c-0.1,0-0.2-1.2-0.3-1.8
	c-1.2,0.8-2.5,1.3-3.9,1.3c-2.4,0-4-1.8-4-4.6c0-4.4,2.9-8,6.5-8c1,0,2,0.4,3,1c0.1-0.3,0.7-1.6,0.9-1.9c-1.1-0.7-2.3-1.1-3.7-1.1
	C158.3,68.2,156.7,68.8,155.2,69.9z"/>
<path class="st0" d="M173,75c0,1.5-0.8,2.5-2.4,3.1v0c1,0.4,1.4,1.1,1.4,2.2c0,0.4,0,0.8-0.1,1.2l-0.5,2.8h-1.8c0.4-2,0.6-3.4,0.6-4
	c0-1-0.7-1.5-2.2-1.5h-1.4l-1,5.5h-1.8l2.2-12.4h2.6C171.4,72,173,73.1,173,75z M171.1,75.1c0-1.1-0.8-1.6-2.7-1.6h-1l-0.7,3.9h1.1
	C170,77.4,171.1,76.6,171.1,75.1z"/>
<path class="st0" d="M184.4,81.6c-1.3,2-3.5,3.1-5.5,3.1c-2.7,0-4.7-2.3-4.7-5.4c0-1.6,0.4-3,1.2-4.2c1.3-2,3.4-3.2,5.6-3.2
	c1.1,0,2,0.4,2.8,1c1.2,1,1.9,2.6,1.9,4.3C185.8,78.8,185.3,80.3,184.4,81.6z M180.9,73.5c-1.1,0-2.4,0.6-3.2,1.6
	c-1.1,1.3-1.6,2.5-1.6,4.1c0,2.3,1.3,3.8,3,3.8c1.1,0,2.4-0.6,3.2-1.6c1.1-1.3,1.6-2.6,1.6-4.2C183.9,75,182.6,73.5,180.9,73.5z"/>
<path class="st0" d="M193.5,74.6c-0.7-0.7-1.5-1.1-2.3-1.1c-1.1,0-1.9,0.7-1.9,1.8c0,0.8,0.4,1.1,1.2,1.5l0.9,0.5
	c1.4,0.8,2.1,1.9,2.1,3.2c0,2.4-1.8,4.1-4.3,4.1c-1.6,0-2.7-0.7-3.4-2l1.5-1.1c0.4,0.9,1.2,1.5,2.2,1.5c1.3,0,2.1-0.9,2.1-2.3
	c0-0.8-0.3-1.3-1.1-1.7l-0.9-0.5c-1.5-0.8-2.2-1.7-2.2-3.2c0-2.1,1.6-3.6,4-3.6c1.1,0,2,0.3,2.8,1.1L193.5,74.6z"/>
<path class="st0" d="M202.4,74.6c-0.7-0.7-1.5-1.1-2.3-1.1c-1.1,0-1.9,0.7-1.9,1.8c0,0.8,0.4,1.1,1.2,1.5l0.9,0.5
	c1.4,0.8,2.1,1.9,2.1,3.2c0,2.4-1.8,4.1-4.3,4.1c-1.6,0-2.7-0.7-3.4-2l1.5-1.1c0.4,0.9,1.2,1.5,2.2,1.5c1.3,0,2.1-0.9,2.1-2.3
	c0-0.8-0.4-1.3-1.1-1.7l-0.9-0.5c-1.5-0.8-2.2-1.7-2.2-3.2c0-2.1,1.6-3.6,4-3.6c1.1,0,2,0.3,2.8,1.1L202.4,74.6z"/>
<path class="st0" d="M216,68.5c-0.1,0.4-2.7,15.2-2.8,15.7c0.5,0,3.9,0,3.9,0c3.7,0,6.2-2.1,6.2-5.3c0-1.5-0.8-2.6-2.2-3l-0.7-0.2
	l0.6-0.3c2-0.7,2.8-1.8,2.8-3.6c0-2.1-1.8-3.4-4.9-3.4C219,68.5,216.3,68.5,216,68.5z M216.7,74.9l0.8-4.9h1.5
	c2.4,0,2.9,1.2,2.9,2.3c0,1.3-0.7,2.9-3.8,2.9h-1.5L216.7,74.9z M215.4,82.4l1-5.9h1.7c2.2,0,3.2,0.8,3.2,2.5c0,2.4-1.5,3.7-4.2,3.7
	h-1.7L215.4,82.4z"/>
<path class="st0" d="M231.3,84.4h-6.4l2.2-12.4h1.8L227,82.8h4.6L231.3,84.4z"/>
<path class="st0" d="M242.6,79.5c-0.6,3.4-2.6,5.2-5.5,5.2c-2.4,0-3.8-1.5-3.8-4c0-0.4,0-0.9,0.1-1.5l1.3-7.1h1.8l-1.3,7.3
	c-0.1,0.4-0.1,0.9-0.1,1.3c0,1.6,0.8,2.4,2.4,2.4c1.9,0,3.1-1.3,3.5-3.8l1.3-7.2h1.8L242.6,79.5z"/>
<path class="st0" d="M252.9,73.6h-4.6l-0.6,3.5h3.1l-0.3,1.5h-3l-0.7,4.2h4.6l-0.3,1.6h-6.4l2.2-12.4h6.4L252.9,73.6z"/>
<path class="st0" d="M256.5,72.7c0,1.8,0.8,2.9,2.7,3.9l1.2,0.6c1,0.5,1.5,1.3,1.5,2.4c0,1.9-1.2,3.2-3,3.2c-1.3,0-2.3-0.7-2.9-1.8
	c-0.2,0.2-1.3,1-1.6,1.2c0.8,1.5,2.1,2.4,4.1,2.4c3.2,0,5.4-2.1,5.4-5.2c0-1.7-0.9-3-2.7-4l-1.2-0.7c-0.9-0.5-1.7-0.9-1.7-2.2
	c0-1.5,1.1-2.6,2.7-2.6c1,0,2,0.5,2.9,1.3c0.2-0.4,1-2,1-2c-0.9-0.7-2-1.1-3.4-1.1C258.6,68.2,256.5,70.1,256.5,72.7z"/>
<path class="st0" d="M274.6,84.4h-1.7l1-5.8h-5.1l-1,5.8h-1.8l2.2-12.4h1.8l-0.9,5.1h5l0.9-5.1h1.8L274.6,84.4z"/>
<path class="st0" d="M280.1,84.4h-1.9l2.2-12.4h1.9L280.1,84.4z"/>
<path class="st0" d="M291.7,73.6h-4.6l-0.6,3.5h3.1l-0.3,1.5h-3.1l-0.7,4.2h4.6l-0.3,1.6h-6.4l2.2-12.4h6.4L291.7,73.6z"/>
<path class="st0" d="M298.6,84.4h-6.4l2.2-12.4h1.8l-1.9,10.8h4.6L298.6,84.4z"/>
<path class="st0" d="M310.4,77.4c0,4.2-2.8,7-7.2,7h-2.9l2.2-12.4h2.4C308.3,72,310.4,74.1,310.4,77.4z M308.5,77.2
	c0-2.2-1.4-3.6-3.6-3.6H304l-1.6,9.2h1.1C306.5,82.8,308.5,80.7,308.5,77.2z"/>
<path class="st0" d="M8.7,10.1c0.9-4.9-0.1-6.6-7.4-7.6L1.5,1h40.9L41,11.5h-2.7c-0.1-4.5,0.5-7.2-6.7-7.2h-9.1
	c-4.9,0-5.5,1-6.3,5.7l-3,17.1h11c7.2,0,8.3-3.1,9.8-7.2h2l-3.2,17.9h-2c0-5,0.2-7.4-7.2-7.4h-11L9,50.9c-0.9,5-0.1,5,6.2,5h9.4
	c5.9,0,6.6-1.8,9-8.4h2.7l-2.7,11.8H0L8.7,10.1z"/>
<path class="st0" d="M45.6,27.3c0.9-5.2-3.1-5.5-5.6-5.7l0.3-1.5L53.9,18l-1.8,10.4h0.2c1.6-3,7.3-10.4,14.3-10.4
	c8.1,0,9.6,4.2,8.5,10.4h0.2C77,25.5,81.9,18,89.7,18c10.3,0,9.1,6.9,7.9,13.8l-4.8,27.5H86l4.6-26.1c1.1-6.4,1.9-10.9-4-10.9
	c-4.5,0-11.9,8-13.3,16l-3.7,21H63l4.9-28c0.8-4.7,1.6-9-4.1-9c-5.5,0-12.3,9.2-13.5,16.4l-3.6,20.6h-6.7L45.6,27.3z"/>
<path class="st0" d="M111.1,35.2c1.1-6.4,6-13.8,12-13.8c8,0,7.6,11.7,6.5,17.8c-1.2,6.8-4.5,17.7-12.5,17.7
	c-7.6,0-8.1-9.6-7.1-15.4L111.1,35.2z M96.9,77.7h6.7l4.3-24.3h0.2c0.6,2.9,3.6,6.8,9.7,6.8c11.3,0,17.2-10,19.2-21.2
	c2.1-12-1.2-21-12.2-21c-5.7,0-10.1,4.1-11.6,6.6h-0.2l1.2-6.6l-13.9,2l-0.3,1.5c2.5,0.3,6.8,0.3,5.8,5.8L96.9,77.7z"/>
<path class="st0" d="M144.3,27.3c0.9-5.2-3.1-5.5-5.5-5.7l0.3-1.5l13.5-2.1l-7.3,41.2h-6.7L144.3,27.3z M146.3,4.9
	c0.5-2.7,3-4.9,5.8-4.9c2.6,0,4.5,2.2,4,4.9c-0.5,2.9-3.1,4.9-5.7,4.9C147.6,9.7,145.9,7.5,146.3,4.9z"/>
<path class="st0" d="M160.4,27.6c1-5.5-3.1-5.7-5.5-6l0.3-1.5l13.6-2.1L167,28.3h0.2c1.8-3.6,5.1-10.3,13.3-10.3
	c0.3,0,0.5,0,0.8,0.1l-1.3,7.2c-0.9-0.3-1.8-0.6-2.7-0.6c-8.4,0-11.1,8.5-12.1,13.8l-3.7,20.8h-6.7L160.4,27.6z"/>
<path class="st0" d="M203.5,31.5h-17.7c0.8-2.9,3.4-10,11.3-10c5.2,0,7.4,4.4,6.5,9.3L203.5,31.5z M205.7,55.8c-2,0.5-4.2,1-6.3,1
	c-12,0-15.9-12.2-14.5-20.6l0.3-1.8h25.3l0.2-1.3C212.6,22.8,207,18,198.8,18c-12.6,0-18.7,7.4-20.9,19.8
	c-2.6,14.5,3.5,22.4,16.2,22.4c5.4,0,9.9-1.1,11-1.6L205.7,55.8z"/>
<g>
	<path class="st0" d="M319.2,57.2c0,1.4,1.1,2.5,2.6,2.5c1.4,0,2.5-1.1,2.5-2.5c0-1.4-1.1-2.6-2.5-2.6
		C320.3,54.7,319.2,55.8,319.2,57.2z M319.6,57.2c0-1.2,1-2.2,2.2-2.2c1.2,0,2.2,1,2.2,2.2c0,1.2-1,2.2-2.2,2.2
		C320.6,59.4,319.6,58.4,319.6,57.2z"/>
</g>
<path class="st0" d="M321.7,57.2"/>
<path class="st0" d="M321.1,58.4h-0.3v-2.5h1.2c0.4,0,0.8,0.1,0.8,0.7c0,0.4-0.2,0.5-0.4,0.6c0.1,0.1,0.3,0.1,0.3,0.5l0,0.5
	c0,0.1,0,0.2,0.1,0.3v0.1h-0.4c-0.1-0.2-0.1-0.5-0.1-0.6c0-0.2,0-0.5-0.5-0.5h-0.8L321.1,58.4L321.1,58.4z M321.1,57h0.8
	c0.2,0,0.5-0.1,0.5-0.4c0-0.4-0.3-0.4-0.5-0.4h-0.9V57z"/>
<g>
	<path class="st0" d="M266,57c0,1.4,1.1,2.5,2.6,2.5c1.4,0,2.5-1.1,2.5-2.5c0-1.4-1.1-2.6-2.5-2.6C267.1,54.4,266,55.6,266,57z
		 M266.3,57c0-1.2,1-2.2,2.2-2.2c1.2,0,2.2,1,2.2,2.2c0,1.2-1,2.2-2.2,2.2C267.3,59.1,266.3,58.2,266.3,57z"/>
</g>
<path class="st0" d="M268.5,57"/>
<path class="st0" d="M267.9,58.2h-0.3v-2.5h1.2c0.4,0,0.8,0.1,0.8,0.7c0,0.4-0.2,0.5-0.4,0.6c0.1,0.1,0.3,0.1,0.3,0.5l0,0.5
	c0,0.1,0,0.2,0.1,0.2v0.1h-0.4c-0.1-0.2-0.1-0.5-0.1-0.6c0-0.2,0-0.5-0.5-0.5h-0.8L267.9,58.2L267.9,58.2z M267.9,56.8h0.8
	c0.2,0,0.5-0.1,0.5-0.4c0-0.4-0.3-0.4-0.5-0.4h-0.8L267.9,56.8L267.9,56.8z"/>
<g>
	<path class="st0" d="M250.6,35c-0.5,0-5.5,8-5.5,8c1.5,0.8,3.4,1.2,5.5,1.2s4-0.4,5.5-1.2C256.1,43,251,35,250.6,35z"/>
	<path class="st0" d="M245.2,28.6c-0.5,0-7.6-0.6-7.6-0.6c-0.9,5.1,0.6,8.7,2.9,11.6c0,0,4.7-8.9,5.3-9.9
		C246.3,28.7,245.8,28.6,245.2,28.6z"/>
	<path class="st0" d="M260.7,22.5c-1.8-1.8-3.8-3.6-6.2-4.2c0.8,2.7-0.8,2.9-0.8,4.2H260.7z"/>
	<path class="st0" d="M246.7,18.4c-2.4,0.5-4.7,2.1-6.2,4.1h7.1C247.5,21.3,245.9,21.1,246.7,18.4z"/>
	<path class="st0" d="M256,28.6c-0.6,0.1-1.1,0.1-0.6,1.1c0.5,1,5.3,9.9,5.3,9.9c2.3-2.9,3.8-6.6,2.9-11.6
		C263.5,28,256.4,28.6,256,28.6z"/>
	<path class="st0" d="M263.9,17.9l0-15h-25.7v14.9H222l0,25.6h16.1v15.5h25.7V43.5h15.5V17.9H263.9z M239.9,20.1
		c2.8-2.8,6.6-4.5,10.9-4.5c4.1,0,7.8,1.6,10.6,4.2c1.4,1.3,2.6,2.9,3.4,4.7l-10.6,0c-1,0-1.8-0.3-2.3-0.8c-0.6-0.6-0.7-1.6,0.2-2.6
		c1.5-1.8,0.2-3.4-1.4-3.5c-1.6-0.1-2.9,1.7-1.4,3.5c0.8,1,0.8,2,0.2,2.6c-0.5,0.5-1.3,0.8-2.3,0.8l-10.3,0
		C237.5,22.9,238.6,21.4,239.9,20.1z M235.4,31c0-1.8,0.3-3.6,0.9-5.2c3.7,0.1,7.1,0.6,9.1,0.8c2.2,0.1,3.8,1.3,2.3,4.1
		c-1.3,2.5-5.6,10.5-6.6,12.4C237.6,40.1,235.4,35.8,235.4,31z M250.7,46.3c-3.2,0-6.2-1-8.7-2.7c1.3-1.9,6.8-9.9,7.2-10.5
		c0.4-0.6,0.7-1,1.4-1c0.6,0,1,0.4,1.4,1c0.4,0.6,7.3,10.6,7.3,10.6C256.8,45.3,253.9,46.3,250.7,46.3z M260.1,43.1
		c-0.2-0.4-5.2-9.7-6.7-12.5c-1.5-2.8,0.1-4,2.3-4.1c2.1-0.1,5.5-0.7,9.4-0.8c0.6,1.6,0.9,3.4,0.9,5.3
		C266,35.9,263.7,40.3,260.1,43.1z"/>
</g>
<g>
	<path class="st0" d="M308.1,19.5c0.3,0,0.4-0.4,0.4-0.4c-0.8-0.4-1.7-0.1-1.7-0.1s0.3,0,0.7,0.3C307.7,19.4,307.8,19.5,308.1,19.5z
		"/>
	<path class="st0" d="M310.7,14.5c-6.1,0-12.4-0.9-15.3-2.5c-1.1,1.6-1.3,5.9-1.2,9c0.5,16.2,7.9,24.1,8.9,25.4
		c1.4,1.7,6.7,6.6,7.6,6.9c0.9-0.2,6.2-5.2,7.6-6.9c1-1.3,8.5-9.2,8.9-25.4c0.1-3.1-0.1-7.4-1.2-9C323.1,13.6,316.8,14.5,310.7,14.5
		z M308.7,48.9c0,0.1-0.1,0.1-0.3,0.1c-0.3-0.2-0.4-0.8-0.4-1c0-0.9,0.6-1.9,1.3-2.2l0,1.5C308.9,47.8,309,48.6,308.7,48.9z
		 M311.3,46.5c0,1.7-0.2,3.3-0.2,3.5c0,0-0.7,0.3-1.3-0.1c0-0.2,0-1.5-0.1-2.5c0-1-0.1-2.8-0.2-4.2c0.3,0.1,0.3,0.1,0.6,0.2
		c0.5,0.1,0.8,0.4,0.9,0.6C311.4,44.3,311.3,45.8,311.3,46.5z M311.7,46.3v-1.9c0-0.4-0.2-0.7-0.4-1c-0.2-0.2-0.4-0.3-0.8-0.6
		c-0.2-0.1-0.4-0.2-1-0.3c-3.9-1-3-4.7-0.6-4.7c0,0.3,0.1,0.6,0.1,0.9c0,0.3,0.1,0.6,0.1,1.1c-0.6,0.3-0.1,0.4,0.1,0.5
		c0.3,0.1,1,0.5,1.5,0.6c0.3,0.1,1,0.4,1.3,0.5C314.1,42.4,313.9,45.1,311.7,46.3z M311.5,39.6c0,0.3,0,0.9,0,1.2
		c-0.3,0-0.7-0.2-1-0.4c-0.5-0.2-0.7-0.4-1-0.6c0-0.1,0-0.5,0-0.5v-0.7l0-0.8c0-0.3,0-1.1,0-1.3c0.4,0,0.5,0.1,1,0.1
		c0.8,0.1,0.8,0,1.2,0.1c0,0.1,0,0.6,0,0.7c0,0.3,0,0.7-0.1,1C311.4,39.1,311.5,39.1,311.5,39.6z M311.8,39.8c0-0.5,0-1,0.1-1.5
		c0-0.3,0-0.4,0.1-0.7c0.3-0.3,0.9-0.4,0.4-1c-0.2-0.3-1.1-0.3-1.9-0.3c-0.4,0-0.8,0-2.2-0.3c-3.1-0.6-2.9-4.6-0.9-5.4l0.6,1.5
		l0.5,1.3c0.9,0.1,1.2,0,2.2,0.2c0.2,0,0.5,0.1,1.1,0.2C316.2,34.6,315.2,39.4,311.8,39.8z M307.7,29.8l1-1.6l2.8,0.2l0,4.8
		l-2.5-0.2l-0.7-1.6L307.7,29.8z M312,32.6c-0.4-1.6-0.2-3-0.2-3c1.3-0.1,0.4-1.5,0-1.6c-0.5-0.1-0.9-0.1-1.8-0.2
		c-0.6-0.1-1.5-0.1-2-0.2c-8.4-1.1-7.1-8.6-3.1-9.3c3-0.5,4.5,0.6,5.1,1.8c0,0-0.9,0.4-1.5,0.3c-1.4-0.2-2.2-0.1-2.2-0.1
		c0.5,0.4,1.9,0.7,2.6,1.2c-0.7,0.3-1.5,0.3-2.2,0.2c-0.6-0.1-1.2-0.2-1.8-0.5c-0.2,0.8-0.7,2.4,3,3.1c0.5,0.1,1.1,0.3,1.8,0.3
		c0.7,0.1,1.3,0.2,1.9,0.3c0.2,0.1,0.5,0.1,0.7,0.2C317.6,26.6,316,32.7,312,32.6z M315.9,20.3c-2.2,2.1-3.2,3.2-3.7,3.8
		c0,0-0.3,0.6-0.5,0.7l-3-0.5c-0.1-0.6-0.1-1.4-0.1-2.1c0.6-0.1,0.8-0.1,1.1-0.4l-0.1-0.4c0.9,0.3,1.7,0.4,2,0.4l-0.4-0.4
		c-0.4-0.1-0.9-0.3-1.4-0.5c0.7-0.1,0.9-0.3,0.9-0.3s-0.1-0.3-0.4-0.9c-0.5-0.9-1.5-1.4-1.5-1.4c-0.2-0.3-0.1-0.5-0.1-0.7
		c0-1.1,0.6-0.8,1.7-0.5c0.2,0.1,0.3,0.2,0.4,0.3c0.7,0.3,1.4,0.7,1.4,0.9c0,0-0.1,2.6,0.2,2.4c0.5-0.3,1.8-1.4,2.3-1.7
		C315.4,18.4,316.7,19.5,315.9,20.3z"/>
	<path class="st0" d="M329.3,3.8c-5.3,2.8-10.7,4.3-18.6,4.3s-13.3-1.5-18.6-4.3c-2.2,3.8-3.4,9.3-3.4,16.1
		c0,18.1,10.2,30.2,12.7,32.9c2.5,2.7,7.5,6.8,9.4,7.2c1.9-0.4,6.9-4.5,9.4-7.2c2.5-2.7,12.7-14.8,12.7-32.9
		C332.8,13.1,331.5,7.6,329.3,3.8z M319.2,47.9c-1.6,1.9-7.4,7.1-8.4,7.4c-1.1-0.2-6.9-5.5-8.4-7.4c-1.2-1.4-9.6-11.9-9.6-28.2
		c0-3.5,0.5-8.5,1.8-10.4c3.3,1.7,9.6,3.4,16.3,3.4c6.7,0,13-1.6,16.3-3.4c1.2,1.8,1.8,6.9,1.8,10.4C328.8,36,320.3,46.5,319.2,47.9
		z"/>
</g>
<g>
	<polygon class="st0" points="0.5,103.5 0.5,109.3 330.6,109.3 332.6,103.5 	"/>
</g>
</svg>
