<?xml version="1.0" encoding="utf-8"?>
<!-- Generator: Adobe Illustrator 21.0.0, SVG Export Plug-In . SVG Version: 6.00 Build 0)  -->
<svg version="1.1" id="without_tagline" xmlns="http://www.w3.org/2000/svg" xmlns:xlink="http://www.w3.org/1999/xlink" x="0px"
	 y="0px" viewBox="0 0 500 83" style="enable-background:new 0 0 500 83;" xml:space="preserve">
<style type="text/css">
	.st0{fill:#AB004F;}
	.st1{fill:#003056;}
</style>
<path class="st0" d="M102.5,76.5c1.1,0.4,1,2.8-0.2,3.2c-4.8-0.2-9.1-0.3-13.5-0.3c-5.2,0-10,0.1-14.9,0.3c-0.9-0.4-1.3-2.5-0.2-3.2
	l3-0.6c4.4-0.8,4.8-1.6,4.8-9.1V21.4h-0.2c-3,6.1-4.6,9.4-6.7,13.9L65,54.9c-3.8,7.8-9.3,20.1-11.3,25.3c-0.4,0.4-2.1,0.4-2.9,0
	c-1.9-6-6.7-16.9-9.2-22.4l-9.9-21.3c-2.1-4.7-5.1-11.7-6.4-15H25c-0.2,5.4-0.4,14.1-0.7,18.8C24.1,47,23.9,56.8,23.9,66
	c0,7.3,0.1,9,4.9,9.9l3.7,0.7c0.8,0.7,0.8,2.8-0.1,3.2c-4.1-0.2-7.6-0.3-11.7-0.3c-3.6,0-7.6,0.1-11.9,0.3c-1-0.5-1-2.7-0.3-3.2
	l1.9-0.2c5.3-0.7,6.1-2.3,6.9-9.1c0.8-7,1.1-14.2,1.7-25.8c0.4-7.6,1.1-16.8,1.1-23.5c0-5.2-1.7-7.4-6-8.2L10.2,9
	c-0.7-0.8-0.6-2.9,0.4-3.2C14,6,17,6.1,21.1,6.1c3.9,0,7.8,0,11.9-0.3c0.4,6.7,3.2,12.4,6.1,18.4l12.2,25.7c0.9,1.9,3.8,7.4,5.2,10
	c1.8-3.2,3.2-6.3,5.8-11.5L72.7,27c3.6-7.3,7.1-13.9,9-21.2c3,0.2,6.7,0.3,9.1,0.3c4.7,0,8.5-0.1,11.7-0.3c1.2,0.4,1.4,2.6,0.3,3.2
	l-3.7,0.6c-4.9,0.8-6,2.6-6,8.4c0,16.4,0.2,32.9,1,49.3c0.3,7.4,1.6,8.1,5.1,8.7L102.5,76.5L102.5,76.5z"/>
<path class="st1" d="M152.9,57c0,15.8-11.1,24-24.3,24c-12.8,0-23.4-8.1-23.4-22.6c0-14.9,11.3-24.2,24.3-24.2
	C142.1,34.1,152.9,42.5,152.9,57L152.9,57z M130,76.5c7.7,0,9.9-9.1,9.9-17.7c0-9.3-3.2-20.3-11.4-20.3c-5.7,0-10.1,5.8-10.1,18.1
	C118.3,66.7,122,76.5,130,76.5L130,76.5z"/>
<path class="st1" d="M174.8,66.2c0,8.2,0.4,9.5,4.2,10.1l1.7,0.2c0.8,0.8,0.7,2.8-0.2,3.2c-3.9-0.2-7.7-0.3-11.8-0.3
	c-3.6,0-7.3,0.1-12,0.3c-0.9-0.4-1-2.4-0.2-3.2l2.4-0.3c3.8-0.6,4.2-1.8,4.2-10V49.9c0-5,0-6.3-2.8-8l-1.3-0.8
	c-0.3-0.4-0.3-2,0.1-2.6c4.8-1.3,10.9-4,14.4-6c0.8,0,1.2,0.4,1.4,0.9c-0.2,2.1-0.2,4.2-0.2,5.1c0,0.8,0.3,1,1,1.1
	c5.2-2.9,8.3-5.6,15.2-5.6c9,0,13.2,6.2,13.2,14.9v17.2c0,8.2,0.4,9.5,4.2,10l2.6,0.3c0.8,0.8,0.7,2.8-0.2,3.2
	c-4.7-0.2-8.4-0.3-12.5-0.3c-3.7,0-7.4,0.1-11.3,0.3c-0.9-0.4-1-2.4-0.2-3.2l1.7-0.2c3.8-0.6,4.2-1.9,4.2-10.1V50.9
	c0-5.7-2.2-10.1-8.9-10.1c-3.4,0-6.2,1.8-7.3,3.4c-1.4,2-1.6,3-1.6,7.1V66.2L174.8,66.2z"/>
<path class="st1" d="M232.7,40.5c-2,0-2.1,0.2-2.1,3.8v17.1c0,7,1,13.2,8.1,13.2c2.2,0,3.6-0.8,5.3-2c1,0.1,1.7,1,1.4,2.2
	c-2.2,3.1-7.3,6.1-14.1,6.1c-10.5,0-12.4-6.1-12.4-13.9V44.5c0-3.9-0.2-4-2-4h-3.9c-1.1-0.6-1.3-2.3-0.3-3c3.8-1.4,6.3-2.9,8.8-4.7
	c2.1-1.6,4.6-3.9,6.1-6.9c1-0.7,2.6-0.3,3.1,0.6v6.7c0,1.8,0,2.1,2.1,2.1h11c0.7,0.3,0.9,1.2,0.9,2.3c-0.1,1.3-0.6,2.3-1.4,2.9
	H232.7L232.7,40.5z"/>
<path class="st1" d="M261.8,53.1c-2.1,0-2.3,0.1-2.3,1.4c0,10,6.9,18,16.8,18c4.4,0,8.1-1.4,10.7-5.6c1.1-0.3,2.3,0.8,2.4,1.8
	c-3.8,8.9-12,12.2-18.8,12.2c-12.9,0-21.4-9.5-21.4-22.2c0-12.5,8.5-24.7,23.4-24.7c8.2,0,16.7,5.3,16.7,15c0,1-0.1,1.7-0.6,2.5
	c-0.7,1-3.2,1.4-7.7,1.4H261.8L261.8,53.1z M272,48.6c3.2,0,4.7-0.3,5.4-0.8c0.7-0.4,1.1-1.3,1.1-2.3c0-4-2.6-7.2-7.3-7.2
	c-7.4,0-10.9,7.2-10.9,9.6c0,0.4,0.2,0.8,1.6,0.8H272L272,48.6z"/>
<path class="st1" d="M462.5,53.1c-2.1,0-2.3,0.1-2.3,1.4c0,10,6.9,18,16.8,18c4.4,0,8.1-1.4,10.7-5.6c1.1-0.3,2.3,0.8,2.4,1.8
	c-3.8,8.9-12,12.2-18.8,12.2c-12.9,0-21.4-9.5-21.4-22.2c0-12.5,8.5-24.7,23.4-24.7c8.2,0,16.7,5.3,16.7,15c0,1-0.1,1.7-0.6,2.5
	c-0.7,1-3.2,1.4-7.7,1.4H462.5L462.5,53.1z M472.7,48.6c3.2,0,4.7-0.3,5.4-0.8c0.7-0.4,1.1-1.3,1.1-2.3c0-4-2.6-7.2-7.3-7.2
	c-7.4,0-10.9,7.2-10.9,9.6c0,0.4,0.2,0.8,1.6,0.8H472.7L472.7,48.6z"/>
<path class="st1" d="M315.2,40.9c-2.3,0-2.3,0.2-2.3,3.4v21.9c0,8.2,0.4,9.4,4.3,9.9l4.3,0.4c0.8,0.8,0.7,2.8-0.2,3.2
	c-5-0.2-9.3-0.3-14.5-0.3c-3.7,0-7.4,0.1-12,0.3c-0.9-0.4-1-2.4-0.2-3.2l2.4-0.3c3.8-0.6,4.2-1.8,4.2-10v-22c0-3-0.1-3.3-2-3.3h-4
	c-0.9-0.4-1.1-1.9-0.3-2.6l4.8-2.4c0.8-0.4,1.6-1.1,1.6-2.4v-2c0-4.8,0.4-10.2,2.3-15.9C306.4,6.8,313.9,0,324.3,0
	C332,0,337,3.4,337,8.1c0,3.1-2.8,5.3-5.4,5.3c-1.7,0-2.6-0.7-3.2-1.6c-3.6-5.1-6-7.3-8.7-7.3c-3.8,0-6.8,7.6-6.8,24.2v3.3
	c0,3.3,0.1,3.6,2.4,3.6H327c0.4,0.3,0.7,1,0.7,1.8c0,1.9-0.7,2.9-1.6,3.4H315.2L315.2,40.9z"/>
<path class="st1" d="M350.4,66.2c0,8.2,0.4,9.3,4.2,10l2,0.3c0.8,0.8,0.7,2.8-0.2,3.2c-4.1-0.2-7.9-0.3-12-0.3
	c-3.7,0-7.4,0.1-11.7,0.3c-0.9-0.4-1-2.4-0.2-3.2l2-0.3c3.8-0.7,4.2-1.8,4.2-10V49.9c0-5,0-6.3-2.8-8l-1.3-0.8
	c-0.3-0.4-0.3-2,0.1-2.6c5.8-1.7,11.3-4.1,14.4-6c0.7,0.1,1.2,0.3,1.6,0.9c-0.2,3.7-0.3,9-0.3,13.5V66.2L350.4,66.2z M337.4,17.2
	c0-3.8,2.8-6.7,6.8-6.7c4,0,6.8,2.9,6.8,6.7c0,3.8-2.8,6.7-6.8,6.7C340.2,23.9,337.4,21,337.4,17.2L337.4,17.2z"/>
<path class="st1" d="M408.3,57c0,15.8-11.1,24-24.3,24c-12.8,0-23.4-8.1-23.4-22.6c0-14.9,11.3-24.2,24.3-24.2
	C397.4,34.1,408.3,42.5,408.3,57L408.3,57z M385.3,76.5c7.7,0,9.9-9.1,9.9-17.7c0-9.3-3.2-20.3-11.4-20.3c-5.7,0-10.1,5.8-10.1,18.1
	C373.7,66.7,377.3,76.5,385.3,76.5L385.3,76.5z"/>
<path class="st1" d="M418.5,49.9c0-5,0-6.3-2.8-8l-1.3-0.8c-0.3-0.4-0.3-2,0.1-2.6c4.8-1.6,10.7-4,14-6c0.7,0,1.3,0.3,1.6,1
	c-0.1,2.1-0.2,4-0.2,5c0,0.8,0.4,1.3,1.1,1.3c3.4-2.4,7.1-5.8,10.9-5.8c3.9,0,6.1,2.6,6.1,5.4c0,4.3-3.2,6.4-6.2,6.4
	c-1.1,0-2.1-0.3-3-0.9c-2.8-1.9-4.7-2.1-5.3-2.1c-2.6,0-3.2,2.6-3.2,8v15.2c0,8.2,0.4,9.4,4.3,9.9l4.3,0.4c0.8,0.8,0.7,2.8-0.2,3.2
	c-6.7-0.2-10.4-0.3-14.5-0.3c-3.7,0-7.3,0.1-11.5,0.3c-0.9-0.4-1-2.4-0.2-3.2l2-0.3c3.8-0.7,4.2-1.8,4.2-10V49.9L418.5,49.9z"/>
</svg>
