<?xml version="1.0" encoding="utf-8"?>
<!-- Generator: Adobe Illustrator 21.0.0, SVG Export Plug-In . SVG Version: 6.00 Build 0)  -->
<svg version="1.1" id="Layer_1" xmlns="http://www.w3.org/2000/svg" xmlns:xlink="http://www.w3.org/1999/xlink" x="0px" y="0px"
	 viewBox="0 0 645 255.3" style="enable-background:new 0 0 645 255.3;" xml:space="preserve">
<style type="text/css">
	.st0{fill:#003868;stroke:#003868;stroke-width:0.381;}
	.st1{fill:#FFFFFF;}
</style>
<path class="st0" d="M377,139.5"/>
<path class="st1" d="M187.5,136.5l1-0.2c-2.3-11.1-2.7-13.3-3.3-19.7c0,0-14.6-8.5-22.1-11.1c-3.2-1.1-5.8-1.8-8.1-2.4l0.4,9.6
	C169.3,117.1,183.4,125.6,187.5,136.5"/>
<path class="st1" d="M74.8,134.8c-2.3-4.8-3.2-6.6-3.2-6.6c-11.2,13.2-18.2,30.7-18.2,51.5c0,45.4,32.4,75.6,79.9,75.6
	c17,0,28.7-3.8,37.3-6.4l19.6-6.4l4.7-24.7l-1-0.6c-2.7,5.8-5.5,9.4-13.9,15.9c-11.7,9-27.8,13.9-43,13.9c-38.9,0-68-29.6-68-67.4
	c0-13.7,3.4-26.4,9.4-37.2C78.4,142.3,77,139.6,74.8,134.8"/>
<path class="st1" d="M20.2,17.6c0.4,3.5,0.5,7.6,0.3,12.4l-3.3,101.8c-0.4,9.5-0.6,18.9-12.5,19.7v1h37v-1
	c-12.3-2.2-12.1-7.6-11.5-22.7L33,38.9c0,0-3.7-7.8-7-13.4C22.3,19.2,20.2,17.6,20.2,17.6"/>
<path class="st1" d="M98.1,117.1l38.2-85.6h0.4l3.7,97.2c0.8,19.1-3.9,21.3-11.9,22.9v1h44.2v-1c-15.8-2.6-16.2-10.1-16.8-25.7
	l-0.5-13.1l-0.4-9.6l-2.9-75.9c-0.8-20.9,8.4-23.3,17.6-24.5v-1h-30.4L92.8,105.5L98.1,117.1"/>
<g>
	<path class="st1" d="M0,0.5c0,0,19.5,5.1,28.1,17c10.6,14.7,19.5,41.2,33.6,73.6c15.8,36.1,29,67.7,46.7,86.5
		c22.2,23.6,37.4,20.6,37.4,20.6s-10.9-5.7-25.8-27.6c-19.7-28.7-40.6-80.8-57.5-120.8c-12-28.6-22.7-44.9-40-48.4
		C10.8-1.1,0,0.5,0,0.5"/>
</g>
<g>
	<path class="st1" d="M189,115.6v-3.1l3.6-0.3c2.5-0.1,4.3-0.7,5-1.2c1.3-1.2,1.6-3.8,1.6-16.6V47.3c0-8.2-0.1-12.1-0.5-14.2
		c-0.4-2.6-1.6-3.4-6-3.6l-3.6-0.3v-3.1h58.4c0.9,5.2,1.5,11.1,1.5,16.4c0,1.2,0,2-0.1,4l-3.2,0.5c-1.9-9.1-3.1-12.2-5.8-14.2
		c-2.4-1.9-6.2-2.4-16.6-2.4h-11.3v36.4h11.5c3.9,0,7.2-0.1,9.7-0.5c3.1-0.4,4.4-1.6,4.8-5.2l0.5-5h3.5v25.6h-3.5l-0.7-4.7
		c-0.4-2.8-1.1-3.9-2.4-4.6c-1.7-0.8-5.5-1.2-11.5-1.2h-11.9v38.9c7.1,1.3,10.1,1.7,15.4,1.7c7.1,0,12.9-1.1,16.5-3.2
		c2-1.1,3.6-2.8,4.8-5c1.7-3.2,2.1-4.6,3.8-11.1l3.4,0.5c-0.5,5.6-0.9,7.9-1.9,12.5c-0.8,4-1.3,5.8-2.7,10.1H189z"/>
	<path class="st1" d="M287.5,94.4v5l0.1,5c0.1,6.6,0.8,7.5,6.3,7.9l3.6,0.3v3.1h-32.9v-3.1l3.6-0.3c2.5-0.1,4.3-0.7,5-1.2
		c0.9-0.9,1.3-2.7,1.5-6.7c0.1-4,0.1-7.1,0.1-9.9V47.3c0-1.6,0-3.2,0-5c-0.1-6.4-0.1-7.4-0.5-9.3c-0.4-2.6-1.6-3.4-6-3.6l-3.6-0.3
		v-3.1h34.6c10.3,0,14.9,0.8,20.5,3.5c6.8,3.2,10.9,9.9,10.9,18c0,6.6-2.5,12.5-7.4,17c-3.2,3.2-5,4.4-10.9,7.5
		c1.2,2.6,2.2,4.3,2.8,5.5c4.2,8.3,8.6,15.7,14.5,24.7c3.8,5.6,6,8,9,9.4c1.6,0.7,2.7,0.8,5.8,0.8v3.1H334c-9.8,0-15-5.1-25.1-24
		l-4.7-8.9c-1.2-2.1-2.3-3.6-3.4-4.6c-1.7-1.3-2.8-1.5-8.5-1.5h-5V94.4z M295.2,72.4c5.2,0,8.3-0.4,11.3-1.7
		c6.6-2.8,11-10.7,11-19.6c0-13-8.2-20.5-22.1-20.5c-2.7,0-4.2,0.1-7.9,0.7v41.2H295.2z"/>
	<path class="st1" d="M424.7,89.5c-0.5,5.6-0.9,7.8-2.1,12.6c-1.2,4.8-1.7,6.4-3.5,10.5c-4,1.7-5.5,2.3-9.3,3.1
		c-5.8,1.3-13.6,2.1-19.7,2.1c-30.6,0-49.4-17.7-49.4-46.4c0-29.1,19.7-47.5,51-47.5c5.9,0,12.6,0.7,18.4,2.1c3.8,0.9,5.2,1.5,9,3.4
		c0.9,4,1.2,5.6,1.6,9.8c0.4,3.9,0.5,5.6,0.5,10.3l-3.6,0.8c-1.1-5-1.5-6.4-2.8-9.4c-3.6-8.3-11.8-12.6-23.7-12.6
		c-22.7,0-36.1,15-36.1,40.1c0,27.4,14.1,44.8,36,44.8c7.1,0,13.7-1.6,18-4.6c1.7-1.2,3.3-2.8,4.7-4.6c3.4-4.3,4.7-7.1,7.4-15.3
		L424.7,89.5z"/>
	<path class="st1" d="M508,26.1v3.1l-3.5,0.7c-2.4,0.4-3.8,1.2-5.2,3.1c-3,3.5-8,11.8-14.5,23.1c-5.9,10.6-9.9,18.5-10.9,21.6
		c-0.8,3.1-1.3,7.9-1.3,14.6v2.1c0,8.2,0.1,11.8,0.5,13.9c0.4,2.4,1.3,3.1,4.7,3.4l1.5,0.3l5.8,0.7v3h-37.6v-3l5.9-0.7
		c2.3-0.3,2.5-0.3,3.4-0.5c2.4-0.5,2.9-2,3.1-7.2l0.1-5v-4.8V93c0-6.7,0-8-0.4-9.9c-0.4-1.6-1.1-3.5-2-5.6
		c-2.4-5.1-7.4-14.6-10.6-20.3l-7.5-13.3c-1.5-2.5-2.9-5.2-4.3-7.9c-2.3-4.3-3.5-5.2-7.5-6.2l-3.1-0.7v-3.1h34.3v3.1l-7,1.2
		c-1.5,0.3-2.4,0.5-2.5,0.5c-0.9,0.1-1.6,0.9-1.6,1.6c0,0.7,0.3,1.5,0.8,2.3c0.1,0.5,0.9,2,2.1,4.6c0.9,2.3,3.1,6.4,6.3,12.5
		c7,13.5,7.8,15,12.5,22.4c4.8-8.6,6.3-11.3,11.9-22.7c2.4-4.8,4.2-8.4,5.5-11.3c2.4-5.2,2.8-6.3,2.8-7.5c0-1.3-1.1-2-4.6-2.5
		l-6.8-1.1v-3.1H508z"/>
	<path class="st1" d="M285.8,171.6c0,27.2-19,45.9-46.6,45.9c-26.9,0-44.4-17.3-44.4-44.1c0-26.4,19.7-45.7,46.8-45.7
		C268.1,127.7,285.8,145.3,285.8,171.6z M208.6,171c0,25.6,13,42.3,33.1,42.3c18.7,0,30.4-14.6,30.4-38.2
		c0-25.8-13.1-43.1-32.6-43.1C220.8,132,208.6,147.4,208.6,171z"/>
	<path class="st1" d="M289.6,215.3v-2.8l3.5-0.4c2.4-0.3,4.1-0.5,4.7-1.2c1.3-1.2,1.5-3.6,1.5-15.9v-45c0-7.8-0.1-11.5-0.5-13.6
		c-0.4-2.4-1.5-3.2-5.8-3.5l-3.5-0.3v-2.9h33.1v2.9l-5.1,0.6l-1.4,0.1c-3.1,0.3-4,1-4.4,3.2c-0.3,2.1-0.4,5.6-0.4,13.3v60.1
		c6.7,1.3,9.4,1.5,14.2,1.5c7.7,0,13.5-1.3,16.4-3.9c2.4-2,4.7-7.2,6.5-14.4l3.5,0.5c-0.8,5.8-1,7.7-1.7,11
		c-0.9,4.5-1.4,6.2-2.8,10.3H289.6z"/>
	<path class="st1" d="M357.3,215.3v-2.8l3.5-0.4c2.4-0.3,4.1-0.5,4.7-1.2c1.3-1.2,1.5-3.6,1.5-15.9v-45c0-7.8-0.1-11.5-0.5-13.6
		c-0.4-2.4-1.5-3.2-5.8-3.5l-3.5-0.3v-2.9h33.1v2.9l-5.1,0.6l-1.4,0.1c-3.1,0.3-4,1-4.4,3.2c-0.3,2.1-0.4,5.6-0.4,13.3v60.1
		c6.7,1.3,9.4,1.5,14.2,1.5c7.7,0,13.5-1.3,16.4-3.9c2.4-2,4.7-7.2,6.5-14.4l3.5,0.5c-0.8,5.8-1,7.7-1.7,11
		c-0.9,4.5-1.4,6.2-2.8,10.3H357.3z"/>
	<path class="st1" d="M425,215.3v-3l3.5-0.3c2.4-0.1,4.1-0.6,4.7-1.2c1.3-1.2,1.5-3.6,1.5-15.9v-45c0-7.8-0.1-11.5-0.5-13.6
		c-0.4-2.4-1.5-3.2-5.8-3.5l-3.5-0.3v-2.9h55.8c0.9,5,1.4,10.6,1.4,15.6c0,1.2,0,1.9-0.1,3.8l-3.1,0.5c-1.8-8.7-2.9-11.7-5.5-13.6
		c-2.3-1.8-5.9-2.3-15.9-2.3h-10.8v34.8h11c3.7,0,6.9-0.1,9.2-0.5c2.9-0.4,4.2-1.5,4.6-5l0.5-4.7h3.3v24.5h-3.3l-0.6-4.5
		c-0.4-2.7-1-3.7-2.3-4.4c-1.7-0.8-5.3-1.2-11-1.2h-11.4v37.2c6.8,1.3,9.6,1.7,14.7,1.7c6.8,0,12.3-1,15.8-3.1
		c1.9-1,3.5-2.7,4.6-4.8c1.7-3.1,2.1-4.4,3.6-10.6l3.2,0.5c-0.5,5.4-0.9,7.6-1.8,11.9c-0.8,3.9-1.3,5.5-2.6,9.6H425z"/>
	<path class="st1" d="M577.7,186.4v3l-2.8,0.3c-3.8,0.4-4.4,1.3-4.4,9.4c0,4.6,0.3,7.7,0.8,8.7c0.1,0.4,0.5,0.5,1.3,0.5h1.4l0.9,2.6
		c-7.4,3.1-10.5,4-18.2,5.4c-5.5,0.9-10.5,1.4-15.1,1.4c-9.2,0-18.1-1.7-25-4.7c-14.6-6.4-24.1-22.1-24.1-39.9
		c-0.1-27.7,19.5-45.1,50.5-45.1c10.3,0,18.3,1.4,24.6,4.5c1.2,4.2,1.5,5.8,2.2,10.4c0.5,4.2,0.6,5.9,0.9,10.1l-3.8,0.5
		c-0.9-5.3-1.4-7-3.1-10.1c-3.8-7.4-11.7-11.2-23.2-11.2c-22.2,0-34.5,14-34.5,39c0,26.3,14.5,42.2,38.6,42.2
		c5.4,0,7.7-0.3,13.7-1.4v-10.6l-0.1-4.4c-0.1-3.2-0.4-4.6-1.7-5.5c-0.9-0.6-1.4-0.8-4.7-1.2l-6.9-0.8v-3H577.7z"/>
	<path class="st1" d="M581.3,215.3v-3l3.5-0.3c2.4-0.1,4.1-0.6,4.7-1.2c1.3-1.2,1.5-3.6,1.5-15.9v-45c0-7.8-0.1-11.5-0.5-13.6
		c-0.4-2.4-1.5-3.2-5.8-3.5l-3.5-0.3v-2.9h55.8c0.9,5,1.4,10.6,1.4,15.6c0,1.2,0,1.9-0.1,3.8l-3.1,0.5c-1.8-8.7-3-11.7-5.5-13.6
		c-2.3-1.8-5.9-2.3-15.9-2.3h-10.8v34.8h11c3.7,0,6.9-0.1,9.2-0.5c2.9-0.4,4.2-1.5,4.6-5l0.5-4.7h3.3v24.5h-3.3l-0.6-4.5
		c-0.4-2.7-1-3.7-2.3-4.4c-1.7-0.8-5.2-1.2-11-1.2h-11.4v37.2c6.8,1.3,9.6,1.7,14.7,1.7c6.8,0,12.3-1,15.8-3.1
		c1.9-1,3.5-2.7,4.6-4.8c1.7-3.1,2.1-4.4,3.6-10.6l3.2,0.5c-0.5,5.4-0.9,7.6-1.8,11.9c-0.8,3.9-1.3,5.5-2.6,9.6H581.3z"/>
</g>
</svg>
