<?xml version="1.0" encoding="utf-8"?>
<!-- Generator: Adobe Illustrator 21.0.0, SVG Export Plug-In . SVG Version: 6.00 Build 0)  -->
<svg version="1.1" id="Layer_1" xmlns="http://www.w3.org/2000/svg" xmlns:xlink="http://www.w3.org/1999/xlink" x="0px" y="0px"
	 viewBox="0 0 500 375.9" style="enable-background:new 0 0 500 375.9;" xml:space="preserve">
<style type="text/css">
	.st0{fill:#FFFFFF;}
</style>
<title>logo-abc</title>
<g>
	<path d="M102.3,215.2c7.6,0,13.8-6.1,13.8-13.7c0-2.2-0.6-4.3-1.5-6.1c-2.2-4.5-6.9-7.7-12.3-7.7c-7.6,0-13.8,6.1-13.8,13.7
		c0,3.4,1.3,6.6,3.4,9C94.5,213.3,98.2,215.2,102.3,215.2z"/>
	<g>
		<path class="st0" d="M30.8,188.3c-2.8,1.2-5.2,2.8-6.8,5.6c-1.8,3.2-2.7,6.7-2.1,10.3c0.5,2.9,1.6,5.4,3.6,7.6
			c1,1.1,1.9,1.9,3.1,2.7c1.3,0.9,2.7,1.4,4.1,1.8c4.7,1.5,9.8,0.1,13.6-3.2c6.5-5.6,6.4-16,0.3-21.9
			C42.4,187.1,36,186.1,30.8,188.3z"/>
		<path class="st0" d="M100.3,187c-8.5,1.3-14.2,9.7-12.1,18.2c1.1,4.5,4,8.1,8.1,10c5.6,2.6,12.2,1.6,16.7-2.7
			c3.4-3.3,5-7.9,4.4-12.5C116.5,191.9,108.7,185.7,100.3,187z"/>
		<path class="st0" d="M312.2,0c-74.7,0-139.1,44-169.1,107.6c-12.5-5.4-26.3-8.5-40.8-8.5C45.8,99.1,0,144.9,0,201.4
			s45.8,102.3,102.3,102.3c19.1,0,37-5.3,52.3-14.4c33.3,52.1,91.4,86.6,157.5,86.6c103.3,0,187.1-84.1,187.1-188S415.5,0,312.2,0z
			 M313.5,45.8C355.4,45.8,393,64,419,92.9H208C234,64,271.7,45.8,313.5,45.8z M67.6,232.8c-5.4-0.3-10.9,0.4-16.3-0.3
			c-0.2-2.8,0-5.6,0-8.4c-3.1,5.6-9.1,8.6-15.3,8.9c-12.4,0.7-23.7-7.8-28.2-19c-3.2-8.1-3.2-17.1,0.3-25
			c4.4-10.1,14.3-17.2,25.3-18.3C45,169.4,56.6,174.9,63,185c2.5,3.9,4.1,8,4.6,12.6L67.6,232.8z M131,215.7
			c-6.2,12.6-20.2,19.9-34.1,17c-5.6-1.2-10.5-3.3-14.8-7c-4.6-4.1-7.8-8.9-9.6-14.8c-1.2-3.9-1.5-7.8-1.4-11.8l-0.1-50.7h17
			l-0.2,30.4c2.8-3.9,6.8-6.8,11.7-7.8c11.3-2.4,21.7,3.2,28.6,12C135.4,192.4,136.3,205,131,215.7z M166,233.1
			c-7-0.4-13.5-3.3-18.8-8c-7-6.3-10.6-15.4-10.3-24.6c0.5-14,10.6-26.5,24.8-29.7c16.8-3.7,34.7,7.3,37.4,23.9
			c-5.8,0.1-11.6,0-17.4-0.1c-3.5-6.7-11.9-9.5-18.8-6.8c-6.1,2.3-9.7,8.7-9.3,15c0.4,5.1,3.4,9.9,8.1,12.2c3.7,1.8,8,2,11.9,0.6
			c3.6-1.3,6.4-4,8.3-7.3c5.8,0.2,15.8,0,17.2,0.1c-1.6,7.4-5.8,13.9-12.2,18.6C180.6,231.7,173.5,233.5,166,233.1z M279.2,327.3
			c-39.2-9.8-72-35.9-90.8-70.8c10.2-15.9,16.2-34.8,16.2-55.2c0-23.1-7.6-44.4-20.5-61.5h165.1
			C332.5,152.4,267.1,209.4,279.2,327.3z M327.9,330.8l-1.7-3.8c0,0-26.4-143,121.1-187c5.5,15.2,8.5,31.6,8.5,48.7
			C455.7,262.7,399.7,323.6,327.9,330.8z"/>
	</g>
</g>
</svg>
