<?xml version="1.0" encoding="utf-8"?>
<!-- Generator: Adobe Illustrator 21.0.0, SVG Export Plug-In . SVG Version: 6.00 Build 0)  -->
<svg version="1.1" id="Layer_1" xmlns="http://www.w3.org/2000/svg" xmlns:xlink="http://www.w3.org/1999/xlink" x="0px" y="0px"
	 viewBox="0 0 534.8 143.6" style="enable-background:new 0 0 534.8 143.6;" xml:space="preserve">
<style type="text/css">
	.st0{fill:#FFFFFF;}
</style>
<g>
	<path class="st0" d="M292.7,59.6c11.5,0,21.1,3.9,28.8,11.8c7.7,7.9,11.5,17.7,11.5,29.6c0,11.7-3.8,21.5-11.5,29.5
		c-7.7,7.9-17.3,11.8-28.8,11.8s-21.2-3.9-28.9-11.8c-7.7-7.8-11.6-17.6-11.6-29.5s3.9-21.7,11.6-29.6
		C271.5,63.5,281.1,59.6,292.7,59.6z M292.7,133.9c8.9,0,16.3-3.1,22.4-9.3c6-6.3,9-14.1,9-23.5c0-9.3-3-17.3-9-23.5
		c-6-6.4-13.5-9.5-22.4-9.5c-9,0-16.4,3.2-22.5,9.5c-6,6.3-9,14.2-9,23.7s3,17.3,9,23.5C276.1,130.7,283.7,133.9,292.7,133.9z"/>
	<path class="st0" d="M382.7,59.6c11.5,0,21.1,3.9,28.8,11.8S423,89.2,423,101c0,11.7-3.8,21.5-11.5,29.5s-17.3,11.8-28.8,11.8
		s-21.2-3.9-28.9-11.8c-7.7-7.8-11.6-17.6-11.6-29.5s3.9-21.7,11.6-29.6S371.3,59.6,382.7,59.6z M382.7,133.9
		c8.9,0,16.3-3.1,22.4-9.3s9-14.1,9-23.5c0-9.3-3-17.3-9-23.5c-6-6.4-13.5-9.5-22.4-9.5c-9,0-16.4,3.2-22.5,9.5
		c-6,6.3-9,14.2-9,23.7s3,17.3,9,23.5C366.3,130.7,373.8,133.9,382.7,133.9z"/>
	<path class="st0" d="M450.3,34.8v26.4h22.2V68h-22.2v47.2c0,7.6,0.6,12.5,1.9,15c1.2,2.4,4.6,3.5,9.9,3.5c4.1,0,9-1.3,14.6-3.9v8.2
		c-5.6,2.7-11,4-16.4,4c-5.2,0-9.6-1.5-13.1-4.5s-5.3-7.1-5.3-12.4V68h-21.4v-6.9h21.4V42.2l5.8-7.5L450.3,34.8L450.3,34.8z"/>
	<path class="st0" d="M532.4,66.4v9.1c-8-5.4-15.3-8.2-21.8-8.2c-4.7,0-8.8,1.3-12.1,3.9c-3.3,2.6-5,5.8-5,9.6c0,2.7,0.9,5.2,3,7.5
		c2,2.2,7.5,5.1,16.4,8.6c9,3.4,14.9,7.1,17.6,10.9c2.7,3.8,4.1,7.9,4.1,12.5c0,6.2-2.5,11.4-7.6,15.6c-5,4.3-11.2,6.4-18.6,6.4
		c-8,0-16-2.4-23.8-7.2v-8.3c9.3,4.9,17.7,7.2,25,7.2c4.9,0,8.9-1.3,12.1-3.9c3.2-2.6,4.7-5.9,4.7-9.9c0-2.7-1.1-5.3-3.1-7.7
		c-2-2.4-7.6-5.3-16.6-8.9s-14.9-7.1-17.5-10.5c-2.7-3.4-4-7.3-4-11.6c0-6,2.5-11.2,7.5-15.4c5-4.3,11-6.4,18.2-6.4
		C517.6,59.6,524.7,61.9,532.4,66.4z"/>
	<path class="st0" d="M29.9,96.4C19.4,92.3,16.3,90,15.4,89c-1.5-1.7-2.2-3.4-2.2-5.4c0-2.8,1.2-5.1,3.7-7.1
		c2.7-2.1,5.9-3.1,9.8-3.1c5.6,0,11.9,2.5,19.2,7.2l3.8,2.6V68.5l-1.2-0.7c-7.6-4.4-14.7-6.6-21.2-6.6c-7.3,0-13.6,2.2-18.7,6.5
		C3.3,72.2,0.6,77.6,0.6,84c0,4.5,1.4,8.8,4.3,12.4c2.8,3.7,8.5,7.2,17.5,10.8c10.5,4.1,13.7,6.6,14.7,7.7c1.5,1.8,2.2,3.5,2.2,5.6
		c0,3.1-1.2,5.4-3.5,7.5c-2.5,2.1-5.7,3.1-9.8,3.1c-6.4,0-14-2.2-22.4-6.5L0,122.6v13.1l1.2,0.7c7.8,4.7,15.7,7.2,23.7,7.2
		c7.5,0,13.8-2.2,19-6.5c5.3-4.5,7.9-10.1,7.9-16.6c0-4.9-1.4-9.3-4.4-13.3C44.7,103.4,38.9,99.9,29.9,96.4z"/>
	<path class="st0" d="M123,63.2l-1.8-0.5c-4.9-1.5-7.6-2.4-14-2.4c-13.4,0-26.3,5.4-34.5,14.4c-8.8,9.6-13.1,21.8-13.1,36.4
		c0,8.6,2.5,16.1,7.2,22.2c4.5,5.8,12.5,9.5,20.5,9.5c8.4,0,16.6-2.7,22.8-7.5v5.9H123V64.8V63.2z M75.8,125.9
		c-2.4-3.3-3.3-7.8-3.3-15.4c0-9.3,3.1-18,9-25.6c6.7-8.6,17.9-10.8,23.8-11.2c1.2-0.1,2.5-0.1,3.8-0.1c0.5,0,0.9,0,1.3,0l-0.1,45.6
		c-0.6,1.1-3.4,3.3-8.2,6.6c-6.3,4.5-11.4,6.2-16.8,5.7C81.2,131,78.3,129.4,75.8,125.9z"/>
	<polygon class="st0" points="148.2,141.4 148.2,106.2 183.9,141.4 201.1,141.4 159.1,100 195.9,62.1 179.2,62.1 148.2,93.7 
		148.2,0 135.5,0 135.5,141.4 	"/>
	<path class="st0" d="M215.1,76.8L215.1,76.8V62h-8.5v79.5h8.5V97.6v0.1c0-21.1,13.5-33.4,33.6-29v-7.1
		C236.2,58.2,221.6,62.1,215.1,76.8z"/>
</g>
</svg>
