<?xml version="1.0" encoding="utf-8"?>
<!-- Generator: Adobe Illustrator 21.0.0, SVG Export Plug-In . SVG Version: 6.00 Build 0)  -->
<svg version="1.1" id="Layer_1_copy" xmlns="http://www.w3.org/2000/svg" xmlns:xlink="http://www.w3.org/1999/xlink" x="0px"
	 y="0px" viewBox="0 0 224.5 34.5" style="enable-background:new 0 0 224.5 34.5;" xml:space="preserve">
<style type="text/css">
	.st0{fill:#0082C3;}
	.st1{fill:#4C6B8B;}
</style>
<path class="st0" d="M24,24.9h-14c-4.1,0-7.5-3.4-7.5-7.5c0-4.1,3.4-7.5,7.5-7.5h14V7.2h-14C4.5,7.2,0,11.7,0,17.3
	c0,5.6,4.5,10.1,10.1,10.1h14V24.9"/>
<path class="st0" d="M4.5,17.4c0,3.2,2.6,5.8,5.8,5.8H24v-2.6H10.3c-1.8,0-3.2-1.4-3.2-3.2c0-1.8,1.4-3.2,3.2-3.2H24v-2.6H10.3
	C7.1,11.5,4.5,14.1,4.5,17.4"/>
<path class="st0" d="M24,16H10.2c-0.7,0-1.3,0.6-1.3,1.3c0,0.7,0.6,1.3,1.3,1.3H24V16"/>
<path class="st0" d="M36.1,19.9c-0.1,0.9-0.8,3.3-3.9,3.3c-3.2,0-3.9-2.4-3.9-4.2c0-2.8,1.2-4.7,4.1-4.7c1.3,0,3.5,0.6,3.7,3.3h-2.3
	c-0.1-0.6-0.4-1.4-1.5-1.4c-1.4,0-1.8,1.4-1.8,2.5c0,0.9,0,2.8,1.7,2.8c1.1,0,1.5-1.1,1.5-1.5H36.1"/>
<path class="st0" d="M45.3,18.8c0-3.1-2.1-4.5-4.3-4.5c-2.3,0-4.3,1.4-4.3,4.5c0,3.1,2.1,4.5,4.3,4.5C43.3,23.3,45.3,21.9,45.3,18.8
	 M43,18.8c0,1.1-0.3,2.6-2,2.6c-1.7,0-2-1.5-2-2.6c0-1.1,0.3-2.6,2-2.6C42.7,16.2,43,17.7,43,18.8"/>
<path class="st0" d="M54.1,23h-2.2v-5.2c0-0.6,0-1.7-1.4-1.7c-1,0-1.8,0.7-1.8,2V23h-2.2v-8.5h2.1v1.2h0c0.3-0.5,0.9-1.5,2.5-1.5
	c1.7,0,2.9,1,2.9,2.8V23"/>
<polyline class="st0" points="64.2,13.6 58.2,13.6 58.2,16 63.7,16 63.7,18 58.2,18 58.2,21 64.5,21 64.5,23 55.8,23 55.8,11.6 
	64.2,11.6 64.2,13.6 "/>
<path class="st0" d="M73.5,11.6h-2.2v4.1h0c-0.3-0.5-1-1.3-2.4-1.3c-1.9,0-3.5,1.4-3.5,4.4c0,2.3,1,4.6,3.6,4.6
	c0.9,0,1.9-0.3,2.4-1.3h0V23h2.2V11.6 M67.6,18.9c0-1.3,0.5-2.6,1.9-2.6c1.5,0,1.9,1.4,1.9,2.7c0,1.3-0.6,2.4-2,2.4
	C68,21.4,67.6,19.9,67.6,18.9"/>
<path class="st0" d="M77.3,11.5v2.1h-2.2v-2.1H77.3z M77.3,14.5v8.5h-2.2v-8.5H77.3z"/>
<path class="st0" d="M83.7,17.1c-0.1-0.5-0.3-1.1-1.5-1.1c-1.2,0-1.4,0.5-1.4,0.8c0,1.3,5.3,0.4,5.3,3.5c0,2.5-2.4,2.9-3.7,2.9
	c-1.9,0-4-0.7-4.1-2.9h2.3c0,0.7,0.4,1.2,1.8,1.2c1.1,0,1.4-0.6,1.4-0.9c0-1.4-5.2-0.4-5.2-3.5c0-1.2,0.8-2.8,3.4-2.8
	c1.7,0,3.6,0.4,3.8,2.8H83.7"/>
<path class="st0" d="M95.5,18.8c0-3.1-2.1-4.5-4.3-4.5c-2.3,0-4.3,1.4-4.3,4.5c0,3.1,2.1,4.5,4.3,4.5C93.4,23.3,95.5,21.9,95.5,18.8
	 M93.2,18.8c0,1.1-0.3,2.6-2,2.6c-1.7,0-2-1.5-2-2.6c0-1.1,0.3-2.6,2-2.6C92.9,16.2,93.2,17.7,93.2,18.8"/>
<path class="st0" d="M104.2,23H102v-5.2c0-0.6,0-1.7-1.4-1.7c-1,0-1.8,0.7-1.8,2V23h-2.2v-8.5h2.1v1.2h0c0.3-0.5,0.9-1.5,2.5-1.5
	c1.7,0,2.9,1,2.9,2.8V23"/>
<path class="st1" d="M112.7,34.1c0,0.2,0.2,0.4,0.4,0.4c0.2,0,0.4-0.2,0.4-0.4c0-0.2-0.2-0.4-0.4-0.4
	C112.9,33.7,112.7,33.8,112.7,34.1"/>
<path class="st1" d="M112.7,29.3c0,0.2,0.2,0.4,0.4,0.4c0.2,0,0.4-0.2,0.4-0.4c0-0.2-0.2-0.4-0.4-0.4
	C112.9,28.9,112.7,29,112.7,29.3"/>
<path class="st1" d="M112.7,26.9c0,0.2,0.2,0.4,0.4,0.4c0.2,0,0.4-0.2,0.4-0.4c0-0.2-0.2-0.4-0.4-0.4
	C112.9,26.5,112.7,26.6,112.7,26.9"/>
<path class="st1" d="M112.7,24.4c0,0.2,0.2,0.4,0.4,0.4c0.2,0,0.4-0.2,0.4-0.4c0-0.2-0.2-0.4-0.4-0.4
	C112.9,24,112.7,24.2,112.7,24.4"/>
<path class="st1" d="M112.7,22c0,0.2,0.2,0.4,0.4,0.4c0.2,0,0.4-0.2,0.4-0.4c0-0.2-0.2-0.4-0.4-0.4C112.9,21.6,112.7,21.8,112.7,22"
	/>
<path class="st1" d="M112.7,19.6c0,0.2,0.2,0.4,0.4,0.4c0.2,0,0.4-0.2,0.4-0.4c0-0.2-0.2-0.4-0.4-0.4
	C112.9,19.2,112.7,19.4,112.7,19.6"/>
<path class="st1" d="M112.7,17.2c0,0.2,0.2,0.4,0.4,0.4c0.2,0,0.4-0.2,0.4-0.4c0-0.2-0.2-0.4-0.4-0.4
	C112.9,16.8,112.7,17,112.7,17.2"/>
<path class="st1" d="M112.7,14.8c0,0.2,0.2,0.4,0.4,0.4c0.2,0,0.4-0.2,0.4-0.4c0-0.2-0.2-0.4-0.4-0.4
	C112.9,14.4,112.7,14.6,112.7,14.8"/>
<path class="st1" d="M112.7,12.4c0,0.2,0.2,0.4,0.4,0.4c0.2,0,0.4-0.2,0.4-0.4c0-0.2-0.2-0.4-0.4-0.4
	C112.9,12,112.7,12.2,112.7,12.4"/>
<path class="st1" d="M112.7,10c0,0.2,0.2,0.4,0.4,0.4c0.2,0,0.4-0.2,0.4-0.4c0-0.2-0.2-0.4-0.4-0.4C112.9,9.6,112.7,9.8,112.7,10"/>
<path class="st1" d="M112.7,7.6c0,0.2,0.2,0.4,0.4,0.4c0.2,0,0.4-0.2,0.4-0.4c0-0.2-0.2-0.4-0.4-0.4C112.9,7.2,112.7,7.4,112.7,7.6"
	/>
<path class="st1" d="M112.7,5.2c0,0.2,0.2,0.4,0.4,0.4c0.2,0,0.4-0.2,0.4-0.4c0-0.2-0.2-0.4-0.4-0.4C112.9,4.8,112.7,5,112.7,5.2"/>
<path class="st1" d="M112.7,2.8c0,0.2,0.2,0.4,0.4,0.4c0.2,0,0.4-0.2,0.4-0.4c0-0.2-0.2-0.4-0.4-0.4C112.9,2.4,112.7,2.6,112.7,2.8"
	/>
<path class="st1" d="M112.7,0.4c0,0.2,0.2,0.4,0.4,0.4c0.2,0,0.4-0.2,0.4-0.4c0-0.2-0.2-0.4-0.4-0.4C112.9,0,112.7,0.2,112.7,0.4"/>
<path class="st1" d="M112.7,31.7c0,0.2,0.2,0.4,0.4,0.4c0.2,0,0.4-0.2,0.4-0.4c0-0.2-0.2-0.4-0.4-0.4
	C112.9,31.3,112.7,31.4,112.7,31.7"/>
<polyline class="st1" points="122,14.5 124.9,14.5 124.9,15.8 123.3,15.8 123.3,18.1 124.4,18.1 124.4,19.4 123.3,19.4 123.3,21.8 
	124.9,21.8 124.9,23 122,23 122,14.5 "/>
<polyline class="st1" points="129.9,14.5 131.1,14.5 129.8,23 128.6,23 127.3,14.5 128.5,14.5 129.1,19.2 129.2,19.6 129.3,19.6 
	129.3,19.2 129.9,14.5 "/>
<polyline class="st1" points="133.7,14.5 136.5,14.5 136.5,15.8 134.9,15.8 134.9,18.1 136.1,18.1 136.1,19.4 134.9,19.4 
	134.9,21.8 136.5,21.8 136.5,23 133.7,23 133.7,14.5 "/>
<path class="st1" d="M141.3,23l-0.6-3.6h-0.3V23h-1.3v-8.5h1.3c1.5,0,2.1,0.9,2.1,2.5c0,0.8-0.2,1.6-0.7,1.9l0.8,4.1H141.3
	 M140.4,15.8v2.5c0.3,0,0.9,0,0.9-1.3C141.3,15.8,140.7,15.8,140.4,15.8z"/>
<polyline class="st1" points="146.5,17.3 146.5,17.3 146.5,17.3 146.6,17.3 147.2,14.5 148.4,14.5 147.2,19.4 147.2,23 145.9,23 
	145.9,19.4 144.6,14.5 145.9,14.5 146.5,17.3 "/>
<polyline class="st1" points="150.6,15.8 150.6,14.5 154.2,14.5 154.2,15.8 153,15.8 153,23 151.8,23 151.8,15.8 150.6,15.8 "/>
<path class="st1" d="M159,19.3h-1V23h-1.2c0,0,0-8.4,0-8.5h1.2v3.5h1v-3.5h1.2V23H159V19.3"/>
<rect x="163.2" y="14.5" class="st1" width="1.3" height="8.5"/>
<polyline class="st1" points="168.8,18.6 168.7,18.2 168.6,18.2 168.6,23 167.5,23 167.5,14.5 168.6,14.5 169.8,19 169.9,19.4 
	170,19.4 170,14.5 171.1,14.5 171.1,23 170,23 168.8,18.6 "/>
<path class="st1" d="M176.1,17.6v-1.3c0,0,0-0.6-0.4-0.6c-0.4,0-0.4,0.6-0.4,0.6v5.1c0,0,0,0.6,0.4,0.6c0.4,0,0.4-0.6,0.4-0.6v-1.5
	h-0.5v-1.1h1.7V23h-0.7l-0.2-0.4c-0.2,0.3-0.6,0.5-1,0.5c-1.6,0-1.5-1.8-1.5-1.8v-5c0,0,0-1.8,1.7-1.8c1.7,0,1.7,1.8,1.7,1.8v1.3
	H176.1"/>
<polyline class="st1" points="186.3,23 185.5,17.7 185.5,17.3 185.4,17.3 185.4,23 184.2,23 184.2,14.5 185.8,14.5 186.5,18.4 
	186.6,18.9 186.6,18.9 186.6,18.4 187.4,14.5 188.9,14.5 188.9,23 187.8,23 187.8,17.3 187.7,17.3 187.6,17.7 186.8,23 186.3,23 "/>
<path class="st1" d="M191.6,23l1.3-8.5h1.5l1.3,8.5h-1.2l-0.2-1.7H193l-0.2,1.7H191.6 M193.7,17.3l0-0.2h-0.1l0,0.2l-0.4,2.7h0.9
	L193.7,17.3z"/>
<polyline class="st1" points="197.6,15.8 197.6,14.5 201.2,14.5 201.2,15.8 200.1,15.8 200.1,23 198.8,23 198.8,15.8 197.6,15.8 "/>
<polyline class="st1" points="203.4,15.8 203.4,14.5 207.1,14.5 207.1,15.8 205.9,15.8 205.9,23 204.6,23 204.6,15.8 203.4,15.8 "/>
<polyline class="st1" points="209.6,14.5 212.5,14.5 212.5,15.8 210.9,15.8 210.9,18.1 212,18.1 212,19.4 210.9,19.4 210.9,21.8 
	212.5,21.8 212.5,23 209.6,23 209.6,14.5 "/>
<path class="st1" d="M217.3,23l-0.6-3.6h-0.3V23h-1.2v-8.5h1.2c1.5,0,2.1,0.9,2.1,2.5c0,0.8-0.2,1.6-0.7,1.9l0.8,4.1H217.3
	 M216.3,15.8v2.5c0.3,0,0.9,0,0.9-1.3C217.2,15.8,216.7,15.8,216.3,15.8z"/>
<path class="st1" d="M222.7,14.5c1.5,0,1.7,1.3,1.7,2.3l-1.2,0.1c0-0.6-0.1-1.2-0.5-1.2c-0.3,0-0.4,0.4-0.4,0.8c0,0.6,0.5,1.2,1,1.9
	c0.6,0.9,1.2,1.7,1.2,2.6c0,1.1-0.4,2.1-1.7,2.1c-1.6,0-1.8-1.2-1.8-2.5l1.2-0.1c0,0.7,0.1,1.4,0.6,1.4c0.4,0,0.5-0.4,0.5-0.9
	c0-0.6-0.5-1.2-1-2c-0.6-0.9-1.1-1.7-1.1-2.7C221.1,15.5,221.5,14.5,222.7,14.5"/>
</svg>
