<?xml version="1.0" encoding="utf-8"?>
<!-- Generator: Adobe Illustrator 16.0.4, SVG Export Plug-In . SVG Version: 6.00 Build 0)  -->
<!DOCTYPE svg PUBLIC "-//W3C//DTD SVG 1.1//EN" "http://www.w3.org/Graphics/SVG/1.1/DTD/svg11.dtd">
<svg version="1.1" id="Layer_1" xmlns="http://www.w3.org/2000/svg" xmlns:xlink="http://www.w3.org/1999/xlink" x="0px" y="0px"
	 width="50px" height="50px" viewBox="0.25 0.25 50 50" enable-background="new 0.25 0.25 50 50" xml:space="preserve">
<path fill="#FFFFFF" d="M50.118,27.077h-4.52v4.521h-4.519v-4.521h-4.52V22.56h4.52v-4.519h4.519v4.519h4.52V27.077z M31.727,22.56
	H16.146v5.298h9.35c-1.247,3.894-4.987,6.857-9.35,6.857c-5.455,0-9.818-4.363-9.818-9.82c0-5.455,4.363-9.818,9.818-9.818
	c2.337,0,4.519,0.779,6.233,2.34l0,0l4.366-4.366C23.937,10.561,20.197,9,16.146,9C7.418,9,0.25,16.168,0.25,24.896
	c0,8.729,7.168,15.897,15.896,15.897c7.947,0,14.648-5.922,15.737-13.56v-4.675h-0.156V22.56z"/>
</svg>
