<?xml version="1.0" encoding="utf-8"?>
<!-- Generator: Adobe Illustrator 16.0.4, SVG Export Plug-In . SVG Version: 6.00 Build 0)  -->
<!DOCTYPE svg PUBLIC "-//W3C//DTD SVG 1.1//EN" "http://www.w3.org/Graphics/SVG/1.1/DTD/svg11.dtd">
<svg version="1.1" id="Layer_1" xmlns="http://www.w3.org/2000/svg" xmlns:xlink="http://www.w3.org/1999/xlink" x="0px" y="0px"
	 width="50px" height="50px" viewBox="0 0 50 50" enable-background="new 0 0 50 50" xml:space="preserve">
<path fill="#FFFFFF" d="M40.032,0H9.589C4.303,0,0,4.303,0,9.589v10.13v20.316c0,5.289,4.303,9.59,9.589,9.59h30.446
	c5.289,0,9.59-4.301,9.59-9.59V19.716V9.586C49.622,4.298,45.318,0,40.032,0z M42.786,5.719l1.096-0.003v1.092v7.32l-8.384,0.024
	l-0.023-8.408L42.786,5.719z M17.728,19.716c1.592-2.199,4.169-3.638,7.084-3.638c2.914,0,5.494,1.442,7.081,3.641
	c1.033,1.433,1.654,3.188,1.654,5.093c0,4.815-3.926,8.735-8.738,8.735c-4.817,0-8.734-3.92-8.734-8.735
	C16.079,22.907,16.695,21.152,17.728,19.716z M44.785,40.035c0,2.623-2.133,4.756-4.753,4.756H9.589
	c-2.623,0-4.757-2.136-4.757-4.756V19.716h7.409c-0.638,1.577-0.998,3.294-0.998,5.096c0,7.484,6.085,13.569,13.569,13.569
	s13.569-6.088,13.569-13.569c0-1.802-0.36-3.517-1.003-5.093h7.412v20.316H44.785z"/>
</svg>
