<?xml version="1.0" encoding="utf-8"?>
<!-- Generator: Adobe Illustrator 16.0.4, SVG Export Plug-In . SVG Version: 6.00 Build 0)  -->
<!DOCTYPE svg PUBLIC "-//W3C//DTD SVG 1.1//EN" "http://www.w3.org/Graphics/SVG/1.1/DTD/svg11.dtd">
<svg version="1.1" id="Layer_1" xmlns="http://www.w3.org/2000/svg" xmlns:xlink="http://www.w3.org/1999/xlink" x="0px" y="0px"
	 width="25px" height="16px" viewBox="0 0 25 16" enable-background="new 0 0 25 16" xml:space="preserve">
<path fill="#FFFFFF" d="M25,1c0,0.552-0.447,1-1,1H1C0.448,2,0,1.552,0,1l0,0c0-0.552,0.448-1,1-1h23C24.553,0,25,0.448,25,1L25,1z"
	/>
<path fill="#FFFFFF" d="M25,15c0,0.553-0.447,1-1,1H1c-0.552,0-1-0.447-1-1l0,0c0-0.553,0.448-1,1-1h23C24.553,14,25,14.447,25,15
	L25,15z"/>
<path fill="#FFFFFF" d="M25,8c0,0.553-0.447,1-1,1H1C0.448,9,0,8.553,0,8l0,0c0-0.553,0.448-1,1-1h23C24.553,7,25,7.447,25,8L25,8z"
	/>
</svg>
