<?xml version="1.0" encoding="utf-8"?>
<!-- Generator: Adobe Illustrator 16.0.4, SVG Export Plug-In . SVG Version: 6.00 Build 0)  -->
<!DOCTYPE svg PUBLIC "-//W3C//DTD SVG 1.1//EN" "http://www.w3.org/Graphics/SVG/1.1/DTD/svg11.dtd">
<svg version="1.1" id="Layer_1" xmlns="http://www.w3.org/2000/svg" xmlns:xlink="http://www.w3.org/1999/xlink" x="0px" y="0px"
	 width="612.458px" height="155.455px" viewBox="0 0 612.458 155.455" enable-background="new 0 0 612.458 155.455"
	 xml:space="preserve">
<path fill="#475267" d="M208.012,125.711c-0.112,0.646-4.938,27.985-5.096,28.898c0.85,0,7.227,0,7.227,0
	c6.824,0,11.41-3.91,11.41-9.727c0-2.817-1.418-4.699-4.101-5.444l-1.219-0.338l1.186-0.533c3.607-1.33,5.221-3.365,5.221-6.591
	c0-3.922-3.396-6.265-9.084-6.265C213.555,125.711,208.617,125.711,208.012,125.711z M209.347,137.446l1.542-8.941h2.666
	c4.461,0,5.398,2.266,5.398,4.166c0,2.396-1.211,5.25-6.978,5.25h-2.711L209.347,137.446z M206.88,151.339l1.882-10.917h3.06
	c3.989,0,5.846,1.45,5.846,4.558c0,4.471-2.686,6.833-7.773,6.833h-3.097L206.88,151.339z M235.198,154.888h-11.679l4.005-22.721
	h3.33l-3.516,19.85h8.433L235.198,154.888z M255.995,145.894c-1.095,6.163-4.727,9.489-10.167,9.489
	c-4.387,0-7.032-2.76-7.032-7.372c0-0.794,0.07-1.742,0.266-2.759l2.338-13.083h3.218l-2.384,13.349
	c-0.149,0.792-0.228,1.623-0.228,2.382c0,2.987,1.476,4.495,4.312,4.495c3.516,0,5.671-2.301,6.5-6.952l2.384-13.273h3.213
	L255.995,145.894z M274.822,135.041h-8.504l-1.136,6.466h5.639l-0.535,2.796h-5.593l-1.363,7.714h8.47l-0.489,2.871h-11.758
	l4.038-22.721h11.766L274.822,135.041z M293.35,125.265c2.479,0,4.693,0.688,6.775,2.008c-0.257,0.549-1.376,2.932-1.609,3.42
	c-1.849-1.158-3.69-1.888-5.456-1.888c-6.576,0-11.933,6.613-11.933,14.744c0,5.033,2.944,8.415,7.326,8.415
	c2.467,0,4.834-0.86,7.077-2.386c0.125,1.095,0.39,3.318,0.527,3.343c-2.239,1.623-4.797,2.383-8.048,2.383
	c-6.376,0-10.664-4.725-10.664-11.754c0-6.134,2.786-11.711,7.642-15.299C287.654,126.298,290.547,125.265,293.35,125.265z
	 M317.535,137.729c0,2.794-1.473,4.607-4.499,5.632v0.074c1.778,0.645,2.496,1.93,2.496,4.119c0,0.68-0.074,1.441-0.22,2.271
	l-0.917,5.064h-3.246c0.677-3.706,1.091-6.158,1.091-7.334c0-1.851-1.318-2.722-4.08-2.722h-2.57l-1.775,10.056h-3.25l4.039-22.721
	h4.694C314.703,132.167,317.535,134.134,317.535,137.729z M314.171,137.881c0-2.083-1.55-2.956-4.913-2.956h-1.927l-1.245,7.11h2.04
	C312.132,142.036,314.171,140.56,314.171,137.881z M338.591,149.71c-2.45,3.59-6.351,5.707-10.091,5.707
	c-4.913,0-8.619-4.193-8.619-9.977c0-2.875,0.75-5.481,2.269-7.792c2.378-3.667,6.243-5.819,10.239-5.819
	c1.933,0,3.752,0.681,5.142,1.891c2.198,1.888,3.483,4.801,3.483,7.974C341.014,144.683,340.185,147.405,338.591,149.71z
	 M332.094,134.926c-2.043,0-4.424,1.175-5.865,2.956c-1.966,2.377-2.91,4.646-2.91,7.519c0,4.197,2.304,6.953,5.521,6.953
	c2.007,0,4.421-1.171,5.904-2.984c1.957-2.419,2.944-4.798,2.944-7.674C337.689,137.729,335.305,134.926,332.094,134.926z
	 M355.308,136.934c-1.33-1.324-2.727-1.967-4.162-1.967c-2.039,0-3.52,1.359-3.52,3.288c0,1.477,0.8,1.967,2.229,2.761l1.705,0.945
	c2.565,1.435,3.897,3.44,3.897,5.938c0,4.456-3.254,7.557-7.898,7.557c-2.923,0-5.03-1.245-6.173-3.665l2.731-2.08
	c0.75,1.739,2.268,2.683,4.079,2.683c2.344,0,3.89-1.583,3.89-4.159c0-1.395-0.644-2.377-2.001-3.097l-1.696-0.91
	c-2.726-1.433-3.969-3.1-3.969-5.784c0-3.815,3.019-6.652,7.367-6.652c2.004,0,3.67,0.64,5.071,2.004L355.308,136.934z
	 M371.562,136.934c-1.322-1.324-2.721-1.967-4.155-1.967c-2.048,0-3.52,1.359-3.52,3.288c0,1.477,0.792,1.967,2.23,2.761
	l1.705,0.945c2.565,1.435,3.892,3.44,3.892,5.938c0,4.456-3.25,7.557-7.906,7.557c-2.906,0-5.017-1.245-6.159-3.665l2.73-2.08
	c0.747,1.739,2.269,2.683,4.08,2.683c2.338,0,3.897-1.583,3.897-4.159c0-1.395-0.651-2.377-2.011-3.097l-1.695-0.91
	c-2.725-1.433-3.978-3.1-3.978-5.784c0-3.815,3.027-6.652,7.376-6.652c2.003,0,3.665,0.64,5.063,2.004L371.562,136.934z
	 M396.538,125.711c-0.112,0.646-4.93,27.985-5.092,28.898c0.851,0,7.222,0,7.222,0c6.83,0,11.415-3.91,11.415-9.727
	c0-2.819-1.421-4.702-4.108-5.444l-1.22-0.338l1.186-0.533c3.616-1.328,5.228-3.36,5.228-6.591c0-3.922-3.394-6.265-9.083-6.265
	C402.084,125.711,397.143,125.711,396.538,125.711z M397.877,137.446l1.537-8.941h2.67c4.461,0,5.399,2.266,5.399,4.166
	c0,2.396-1.211,5.25-6.983,5.25h-2.703L397.877,137.446z M395.407,151.339l1.89-10.917h3.062c3.986,0,5.843,1.45,5.843,4.558
	c0,4.471-2.686,6.833-7.775,6.833h-3.1L395.407,151.339z M424.653,154.888h-11.675l4.008-22.721h3.325l-3.52,19.85h8.433
	L424.653,154.888z M445.448,145.894c-1.095,6.163-4.725,9.489-10.165,9.489c-4.383,0-7.032-2.76-7.032-7.372
	c0-0.794,0.075-1.742,0.266-2.759l2.347-13.083h3.218l-2.389,13.349c-0.148,0.792-0.228,1.623-0.228,2.382
	c0,2.987,1.473,4.495,4.312,4.495c3.52,0,5.668-2.301,6.502-6.952l2.378-13.273h3.218L445.448,145.894z M464.284,135.041h-8.512
	l-1.132,6.466h5.64l-0.541,2.796h-5.592l-1.365,7.714h8.472l-0.488,2.871h-11.758l4.04-22.721h11.763L464.284,135.041z
	 M480.176,125.213c2.534,0,4.606,0.821,6.26,2.038c0,0-1.477,2.992-1.815,3.678c-1.658-1.516-3.426-2.372-5.282-2.372
	c-2.897,0-5.005,1.98-5.005,4.708c0,2.23,1.377,2.996,3.115,3.966l2.229,1.234c3.241,1.812,4.889,4.303,4.889,7.407
	c0,5.58-4.08,9.479-9.926,9.479c-3.562,0-6.037-1.5-7.477-4.32c0.495-0.377,2.471-1.889,2.923-2.235
	c1.095,2.083,2.974,3.362,5.387,3.362c3.347,0,5.506-2.294,5.506-5.843c0-1.961-0.928-3.405-2.837-4.412l-2.229-1.188
	c-3.527-1.863-4.967-3.951-4.967-7.206C470.947,128.702,474.828,125.213,480.176,125.213z M504.219,154.888h-3.168l1.846-10.622
	h-9.301l-1.854,10.622h-3.254l4.014-22.721h3.25l-1.662,9.376h9.263l1.666-9.376h3.242L504.219,154.888z M514.166,154.888h-3.441
	l4.005-22.721h3.441L514.166,154.888z M535.604,135.041h-8.516l-1.127,6.466h5.635l-0.536,2.796h-5.597l-1.355,7.714h8.462
	l-0.493,2.871h-11.746l4.042-22.721h11.749L535.604,135.041z M548.151,154.888h-11.688l4.015-22.721h3.324l-3.512,19.85h8.429
	L548.151,154.888z M569.925,142.074c0,7.678-5.187,12.814-13.155,12.814h-5.373l4.051-22.721h4.498
	C566.032,132.167,569.925,136.101,569.925,142.074z M566.455,141.733c0-4.004-2.652-6.657-6.624-6.657h-1.7l-2.989,16.864h1.932
	C562.745,151.94,566.455,148.085,566.455,141.733z M15.938,18.456c1.6-9.066-0.1-12.087-13.595-13.993l0.469-2.708h75.085
	l-2.629,19.408h-4.925c-0.137-8.278,0.896-13.205-12.305-13.205H41.329c-9.064,0-10.042,1.905-11.551,10.498L24.25,49.794h20.208
	c13.197,0,15.327-5.728,17.915-13.207h3.653l-5.801,32.932h-3.665c0.041-9.225,0.323-13.523-13.201-13.523h-20.2l-6.592,37.381
	c-1.63,9.225-0.191,9.225,11.418,9.225h17.172c10.822,0,12.206-3.337,16.56-15.428h4.934l-4.926,21.63H0L15.938,18.456z
	 M83.684,50.11c1.683-9.541-5.705-10.024-10.236-10.496l0.477-2.705l25.017-3.813l-3.367,19.078h0.315
	c2.886-5.563,13.388-19.078,26.277-19.078c14.952,0,17.556,7.791,15.557,19.078h0.319c3.342-5.402,12.276-19.078,26.584-19.078
	c18.936,0,16.697,12.718,14.475,25.292l-8.889,50.418h-12.244l8.438-47.873c2.081-11.771,3.537-20.046-7.285-20.046
	c-8.271,0-21.821,14.638-24.429,29.431l-6.804,38.488h-12.238l9.062-51.375c1.51-8.586,2.911-16.544-7.586-16.544
	c-10.179,0-22.539,16.858-24.865,30.069l-6.67,37.85H73.335L83.684,50.11z M203.937,64.59c2.077-11.773,10.979-25.293,21.966-25.293
	c14.631,0,13.864,21.47,11.899,32.61c-2.214,12.562-8.263,32.453-22.902,32.453c-13.993,0-14.856-17.664-12.978-28.317
	L203.937,64.59z M177.916,142.693h12.248l7.881-44.701h0.324c1.14,5.25,6.695,12.571,17.824,12.571
	c20.689,0,31.54-18.3,35.192-38.979c3.893-22.104-2.281-38.488-22.484-38.488c-10.502,0-18.5,7.473-21.223,12.085h-0.319
	l2.14-12.085l-25.465,3.653l-0.481,2.707c4.541,0.475,12.455,0.63,10.693,10.654L177.916,142.693z M264.875,50.11
	c1.675-9.541-5.713-10.024-10.083-10.496l0.477-2.705l24.856-3.813l-13.355,75.709h-12.251L264.875,50.11z M268.636,8.908
	C269.502,3.989,274.183,0,279.27,0c4.776,0,8.209,3.989,7.347,8.908c-0.928,5.245-5.712,8.908-10.481,8.908
	C271.044,17.815,267.761,13.846,268.636,8.908z M294.528,50.584c1.766-10.016-5.622-10.499-10.158-10.971l0.489-2.705l25.009-3.813
	l-3.342,18.923h0.318c3.247-6.678,9.384-18.923,24.486-18.923c0.49,0,0.959,0,1.406,0.156l-2.322,13.205
	c-1.666-0.483-3.304-1.116-5.05-1.116c-15.431,0-20.406,15.592-22.119,25.293l-6.733,38.171h-12.243L294.528,50.584z
	 M373.601,57.745h-32.446c1.427-5.401,6.277-18.448,20.747-18.448c9.54,0,13.517,8.107,11.953,17.027L373.601,57.745z
	 M377.644,102.443c-3.657,0.959-7.803,1.917-11.634,1.917c-22.115,0-29.284-22.436-26.563-37.865l0.596-3.338h46.433l0.439-2.39
	c3.334-18.924-6.899-27.671-21.85-27.671c-23.231,0-34.358,13.515-38.396,36.423c-4.686,26.563,6.442,41.044,29.813,41.044
	c9.881,0,18.2-2.073,20.24-2.867L377.644,102.443z M497.273,104.601c0,2.366-1.907,4.271-4.261,4.271
	c-2.372,0-4.279-1.905-4.279-4.271c0-2.361,1.907-4.27,4.279-4.27C495.366,100.331,497.273,102.239,497.273,104.601z
	 M493.012,104.601 M491.814,106.782h-0.617v-4.592h2.122c0.747,0,1.502,0.27,1.502,1.237c0,0.683-0.342,0.933-0.651,1.094
	c0.273,0.112,0.538,0.228,0.564,0.874l0.035,0.833c0.009,0.25,0.043,0.345,0.237,0.454v0.099h-0.759
	c-0.104-0.284-0.113-0.975-0.113-1.148c0-0.373-0.087-0.817-0.815-0.817h-1.505V106.782z M491.814,104.286h1.434
	c0.456,0,0.922-0.116,0.922-0.799c0-0.708-0.502-0.767-0.817-0.767h-1.538V104.286z M594.93,104.993c0,2.354-1.906,4.27-4.278,4.27
	c-2.354,0-4.263-1.915-4.263-4.27c0-2.364,1.908-4.273,4.263-4.273C593.024,100.72,594.93,102.629,594.93,104.993z M589.64,107.208
	h-0.631v-4.586h2.14c0.747,0,1.514,0.263,1.514,1.229c0,0.683-0.354,0.925-0.642,1.099c0.252,0.11,0.534,0.226,0.539,0.858
	l0.058,0.844c0,0.257,0.028,0.359,0.211,0.458v0.099h-0.754c-0.092-0.285-0.108-0.973-0.108-1.141c0-0.384-0.079-0.824-0.817-0.824
	h-1.509V107.208z M589.64,104.708h1.439c0.447,0,0.941-0.115,0.941-0.797c0-0.707-0.535-0.759-0.839-0.759h-1.542V104.708z
	 M484.392,32.903l0.028-27.451h-47.152v27.366h-29.69l0.01,47.083h29.569v28.54h47.235v-28.54h28.546V32.903H484.392z
	 M460.491,86.244c-16.148,0-29.229-13.097-29.229-29.225c0-16.141,13.081-29.23,29.229-29.23c16.128,0,29.216,13.089,29.216,29.23
	C489.707,73.147,476.619,86.244,460.491,86.244z M453.566,33.251c-0.658,2.115-0.936,4.52,1.099,7.577h-13.172
	C442.662,37.698,451.721,33.104,453.566,33.251z M479.77,40.829h-13.022c2.026-3.058,1.745-5.462,1.085-7.577
	C469.695,33.104,478.604,37.698,479.77,40.829z M450.805,52.024c1.883,0.142,0.809,2.484,0.721,2.625
	c0.588-1.018-10.465,17.607-10.465,17.607s-9.179-7.86-4.958-21.398L450.805,52.024z M485.161,51.301
	c3.519,12.656-5.84,21.979-5.84,21.979s-10.634-19.532-10.082-18.498c-0.078-0.143-1.082-2.513,0.799-2.6L485.161,51.301z
	 M489.078,46.646l-16.299,1.017c-3.524,0.25-8.44,0.973-8.44,3.93c0,3.277,1.164,4.88,2.992,8.516l12.148,21.604l-1.753,1.459
	l-15.42-23.278c-0.438-0.876-2.766-2.191-4.234,0.282L442.22,82.879l-1.748-1.455l12.741-21.032c2.319-3.688,3.69-5.379,3.501-8.578
	c-0.18-2.944-4.869-3.802-8.385-4.152l-17.176-1.159l0.874-1.456h24.097c6.024-1.639,1.887-5.852,1.085-9.459
	c-0.397-1.783,0.794-3.862,2.982-4.011c4.328-0.284,4.383,3.015,4.217,4.08c-0.249,1.648-5.905,8.483,1.385,9.39l21.97-0.042
	L489.078,46.646z M470.313,79.974c-3.317,3.138-16.447,3.354-20.391-0.583l10.48-14.994L470.313,79.974z M605.495,6.625
	c0,0-36.677,19.207-71.018-1.173c-25.76,46.773,18.624,98.966,35.519,104.217C593.857,99.763,627.046,49.703,605.495,6.625z
	 M569.996,100.347c-10.19-3.781-46.285-38.422-32.02-84.124c37.828,14.857,64.024,0,64.024,0
	C612.49,47.371,595.017,86.958,569.996,100.347z M565.163,33.749c0.589-0.364,1.214-0.074,1.67,0.085
	c0.134,0.052,0.369,0.861-0.079,0.707C566.172,34.358,565.78,33.944,565.163,33.749C565.128,33.734,565.163,33.848,565.163,33.749
	C565.216,33.801,565.145,33.76,565.163,33.749z M598.794,20.587c0,0-24.434,13.105-57.614,0.292
	c-9.034,43.668,20.08,70.153,28.509,75.096C591.236,80.851,606.374,50.859,598.794,20.587z M567.306,88.881
	c-0.104,0.3-0.142,0.367-0.52,0.334c-1.675-1.606-1.139-3.956-0.974-4.263c0.406-0.833,0.842-1.833,2.023-2.137
	c0.078-0.027,0.289,0.039,0.34,0c0.258,3.238-0.36,2.745-0.87,4.036C567.078,87.393,567.545,88.193,567.306,88.881z M571.778,81.173
	c0,0-0.186,9.272-0.547,9.935c-0.369,0.655-1.964,0.655-2.264-0.154c-0.281-0.798-0.185-11.172-0.185-11.172
	c-0.054-0.329,0.068-0.673,0.316-0.825c0.378-0.205,0.789-0.064,1.188,0.101C570.542,79.175,571.982,79.468,571.778,81.173z
	 M572.38,83.831c0.058-0.719,0.182-2.469,0.235-3.196c-0.116,1.812,0.286-1.208-0.51-1.394c-0.933-0.207-7.267-3.98-7.289-4.004
	c-0.928-0.724-2.018-2.074-1.359-3.997c0.283-0.87,1.936-3.636,4.42-3.28v4.154l-0.643,0.359c-0.656,1.957,6.704,2.764,8.569,6.188
	C577.402,81.571,572.327,84.903,572.38,83.831z M568.608,67.163c-0.059-0.782,0.33-0.968,0.8-1.084
	c0.48-0.123,2.424-0.183,2.84,0.036c0,0,0.469,8.331-0.319,8.399c-0.627,0.049-2.628-0.575-3.18-1.673
	C568.463,72.257,568.608,67.163,568.608,67.163z M577.857,69.349c-1.062,1.491-4.868,3.174-4.814,2.15
	c0.034-0.729-0.069-3.229,0.191-3.97c0.074-0.259,1.349-1.09,0.427-1.675c-1.742-1.097-4.158-0.077-6.065-0.583
	c-2.558-0.673-3.104-0.923-4.954-3.239c-0.958-1.208-1.054-2.555-0.876-4.038c0.097-0.748,0.342-1.482,0.802-2.031
	c0.436-0.514,2.007-2.174,2.296-1.64c0.95,1.707,0.785,3.737,1.924,5.819c0.219,0.4,0.485,0.495,0.738,0.581
	c2.728,1.058,6.742,0.568,9.295,2.084C576.647,62.68,581.195,64.632,577.857,69.349z M565.622,52.284l1.095-0.586l0.448-1.054
	c0.501-0.141,4.104-0.174,4.817,0.042c0.734,0.216,0.779-0.068,0.842,0.761c0.149,2.108,0.149,9.096,0.149,9.096
	c-0.655,0.152-3.637-0.254-3.637-0.254s-1.053-0.146-1.413-0.503c-0.439-0.434-0.817-1.896-0.817-1.896
	c-0.319-1.059-0.294-1.078-0.676-2.151C565.742,53.849,565.32,52.731,565.622,52.284z M573.922,59.455v-6.988l0.879-0.147
	c0.712-1.157,0.286-1.157-0.597-1.882c-1.521-1.275-9.594-0.149-12.51-1.609c1.281,0.651-9.009-3.945-7.855-9.899
	c0.981-5.019,3.858-6.084,5.385-6.834c0.485-0.249,4.263-0.583,6.169,0.215c1.099,0.616,1.037,0.367,2.132,1.132
	c0.493,0.342,1.442,1.274,1.883,1.832c0.184,0.227,0.712,0.775,0.658,0.825c-1.021,0.865-4.286,0.215-6.325,0.249
	c1.076,0.282,2.001,0.657,3.109,0.907c0.493,0.106,2.117,0.266,1.933,0.842c-0.054,0.215-2.066,0.831-2.353,0.906
	c-0.722,0.187-4.058-0.075-4.24-0.139c-1.289-0.552-3.343,0.243-1.651,1.963c4.51,4.646,12.928,2.581,17.162,5.087
	C584.828,50.142,579.868,57.222,573.922,59.455z M581.555,35.805l-7.546,6.763l-0.165,1.24c-1.064-0.075-5.826-0.657-6.839-0.799
	l0.072-3.389c-0.087,0,0.456-0.224,0.447-0.216c0.241-0.289,0.282-0.141,0.805-0.434c0.245-0.105,0.759-0.4,1.111-0.624
	c0.373-0.217,0.248-0.576,0.248-0.576l2.994,0.912l0.066-0.178c0,0-2.62-0.95-2.911-1.605c-0.29-0.659,0.809-0.183,1.086-0.551
	c0.307-0.365-2.748-3.456-3.188-3.671c-0.431-0.218-0.502-1.532-0.212-2.331c0.282-0.799,1.662-0.51,1.662-0.51l4.876,2.333
	c0.738,0.724-0.219,3.555,0.078,4.072c0.362,0.626,0.143,0.433,0.718,0.583c0.59,0.141,2.04-1.67,3.139-2.697
	C579.079,33.113,582.215,33.693,581.555,35.805z"/>
</svg>
