<?xml version="1.0" encoding="utf-8"?>
<!-- Generator: Adobe Illustrator 21.0.0, SVG Export Plug-In . SVG Version: 6.00 Build 0)  -->
<svg version="1.1" id="Layer_1" xmlns="http://www.w3.org/2000/svg" xmlns:xlink="http://www.w3.org/1999/xlink" x="0px" y="0px"
	 viewBox="0 0 332.6 155.5" style="enable-background:new 0 0 332.6 155.5;" xml:space="preserve">
<style type="text/css">
	.st0{fill:#231F20;}
	.st1{fill:#0072BC;}
	.st2{fill:#FFFFFF;}
	.st3{opacity:0.8;}
	.st4{fill:#58595B;}
</style>
<g>
	<g>
		<path class="st0" d="M115.7,73.6c-0.1,0.3-2.7,15.1-2.7,15.6c0.5,0,3.9,0,3.9,0c3.7,0,6.1-2.1,6.1-5.2c0-1.5-0.8-2.5-2.2-2.9
			l-0.7-0.2l0.6-0.3c1.9-0.7,2.8-1.8,2.8-3.5c0-2.1-1.8-3.4-4.9-3.4C118.7,73.6,116,73.6,115.7,73.6z M116.4,79.9l0.8-4.8h1.4
			c2.4,0,2.9,1.2,2.9,2.2c0,1.3-0.7,2.8-3.8,2.8h-1.5L116.4,79.9z M115.1,87.3l1-5.9h1.6c2.1,0,3.1,0.8,3.1,2.5
			c0,2.4-1.4,3.7-4.2,3.7H115L115.1,87.3z"/>
		<path class="st0" d="M130.3,89.3H124l2.2-12.2h1.8l-1.9,10.7h4.5L130.3,89.3z"/>
		<path class="st0" d="M141.5,84.4c-0.6,3.3-2.5,5.1-5.5,5.1c-2.4,0-3.8-1.5-3.8-4c0-0.4,0-0.9,0.1-1.5l1.3-7h1.7l-1.3,7.2
			c-0.1,0.4-0.1,0.9-0.1,1.3c0,1.6,0.8,2.4,2.3,2.4c1.9,0,3.1-1.2,3.5-3.7l1.3-7.1h1.7L141.5,84.4z"/>
		<path class="st0" d="M151.6,78.6h-4.6l-0.6,3.5h3l-0.3,1.5h-3l-0.7,4.2h4.6l-0.3,1.5h-6.3l2.2-12.2h6.3L151.6,78.6z"/>
		<path class="st0" d="M157.1,74.9c-2.6,1.9-4.1,4.9-4.1,8.2c0,3.8,2.3,6.3,5.7,6.3c1.7,0,3.1-0.4,4.3-1.3c-0.1,0-0.2-1.2-0.3-1.8
			c-1.2,0.8-2.5,1.3-3.8,1.3c-2.4,0-3.9-1.8-3.9-4.5c0-4.4,2.9-7.9,6.4-7.9c1,0,1.9,0.4,2.9,1c0.1-0.3,0.7-1.5,0.9-1.8
			c-1.1-0.7-2.3-1.1-3.6-1.1C160.1,73.3,158.6,73.9,157.1,74.9z"/>
		<path class="st0" d="M174.6,80c0,1.5-0.8,2.5-2.4,3v0c1,0.3,1.3,1,1.3,2.2c0,0.4,0,0.8-0.1,1.2l-0.5,2.7h-1.8
			c0.4-2,0.6-3.3,0.6-3.9c0-1-0.7-1.5-2.2-1.5h-1.4l-1,5.4h-1.8l2.2-12.2h2.5C173.1,77,174.6,78.1,174.6,80z M172.8,80.1
			c0-1.1-0.8-1.6-2.6-1.6h-1l-0.7,3.8h1.1C171.7,82.3,172.8,81.5,172.8,80.1z"/>
		<path class="st0" d="M186,86.5c-1.3,1.9-3.4,3.1-5.4,3.1c-2.6,0-4.6-2.3-4.6-5.4c0-1.5,0.4-2.9,1.2-4.2c1.3-2,3.4-3.1,5.5-3.1
			c1,0,2,0.4,2.8,1c1.2,1,1.9,2.6,1.9,4.3C187.3,83.8,186.8,85.2,186,86.5z M182.5,78.5c-1.1,0-2.4,0.6-3.2,1.6
			c-1.1,1.3-1.6,2.5-1.6,4c0,2.3,1.2,3.7,3,3.7c1.1,0,2.4-0.6,3.2-1.6c1.1-1.3,1.6-2.6,1.6-4.1C185.5,80,184.2,78.5,182.5,78.5z"/>
		<path class="st0" d="M195,79.6c-0.7-0.7-1.5-1.1-2.2-1.1c-1.1,0-1.9,0.7-1.9,1.8c0,0.8,0.4,1.1,1.2,1.5l0.9,0.5
			c1.4,0.8,2.1,1.9,2.1,3.2c0,2.4-1.8,4.1-4.3,4.1c-1.6,0-2.7-0.7-3.3-2l1.5-1.1c0.4,0.9,1.2,1.4,2.2,1.4c1.3,0,2.1-0.9,2.1-2.2
			c0-0.8-0.3-1.3-1.1-1.7l-0.9-0.5c-1.5-0.8-2.1-1.7-2.1-3.1c0-2.1,1.6-3.6,4-3.6c1.1,0,2,0.3,2.7,1.1L195,79.6z"/>
		<path class="st0" d="M203.7,79.6c-0.7-0.7-1.5-1.1-2.2-1.1c-1.1,0-1.9,0.7-1.9,1.8c0,0.8,0.4,1.1,1.2,1.5l0.9,0.5
			c1.4,0.8,2.1,1.9,2.1,3.2c0,2.4-1.8,4.1-4.3,4.1c-1.6,0-2.7-0.7-3.3-2l1.5-1.1c0.4,0.9,1.2,1.4,2.2,1.4c1.3,0,2.1-0.9,2.1-2.2
			c0-0.8-0.3-1.3-1.1-1.7l-0.9-0.5c-1.5-0.8-2.1-1.7-2.1-3.1c0-2.1,1.6-3.6,4-3.6c1.1,0,2,0.3,2.7,1.1L203.7,79.6z"/>
		<path class="st0" d="M217.2,73.6c-0.1,0.3-2.7,15.1-2.7,15.6c0.5,0,3.9,0,3.9,0c3.7,0,6.1-2.1,6.1-5.2c0-1.5-0.8-2.5-2.2-2.9
			l-0.7-0.2l0.6-0.3c1.9-0.7,2.8-1.8,2.8-3.5c0-2.1-1.8-3.4-4.9-3.4C220.2,73.6,217.5,73.6,217.2,73.6z M217.9,79.9l0.8-4.8h1.4
			c2.4,0,2.9,1.2,2.9,2.2c0,1.3-0.7,2.8-3.8,2.8h-1.5L217.9,79.9z M216.6,87.3l1-5.9h1.7c2.1,0,3.1,0.8,3.1,2.5
			c0,2.4-1.4,3.7-4.2,3.7h-1.7L216.6,87.3z"/>
		<path class="st0" d="M232.3,89.3H226l2.2-12.2h1.8l-1.9,10.7h4.5L232.3,89.3z"/>
		<path class="st0" d="M243.5,84.4c-0.6,3.3-2.5,5.1-5.5,5.1c-2.4,0-3.8-1.5-3.8-4c0-0.4,0-0.9,0.1-1.5l1.3-7h1.7l-1.3,7.2
			c-0.1,0.4-0.1,0.9-0.1,1.3c0,1.6,0.8,2.4,2.3,2.4c1.9,0,3-1.2,3.5-3.7l1.3-7.1h1.7L243.5,84.4z"/>
		<path class="st0" d="M253.6,78.6h-4.6l-0.6,3.5h3l-0.3,1.5h-3l-0.7,4.2h4.6l-0.3,1.5h-6.3l2.2-12.2h6.3L253.6,78.6z"/>
		<path class="st0" d="M257.2,77.8c0,1.8,0.8,2.9,2.7,3.9l1.2,0.6c1,0.5,1.5,1.3,1.5,2.4c0,1.9-1.2,3.1-3,3.1
			c-1.3,0-2.3-0.7-2.9-1.8c-0.2,0.2-1.3,1-1.6,1.2c0.8,1.5,2.1,2.3,4,2.3c3.1,0,5.3-2.1,5.3-5.1c0-1.7-0.9-3-2.6-4l-1.2-0.7
			c-0.9-0.5-1.7-0.9-1.7-2.1c0-1.5,1.1-2.5,2.7-2.5c1,0,1.9,0.5,2.8,1.3c0.2-0.4,1-2,1-2c-0.9-0.7-2-1.1-3.4-1.1
			C259.3,73.3,257.2,75.2,257.2,77.8z"/>
		<path class="st0" d="M275.1,89.3h-1.7l1-5.7h-5l-1,5.7h-1.8l2.2-12.2h1.8l-0.9,5h5l0.9-5h1.7L275.1,89.3z"/>
		<path class="st0" d="M280.5,89.3h-1.9l2.2-12.2h1.9L280.5,89.3z"/>
		<path class="st0" d="M292,78.6h-4.6l-0.6,3.5h3l-0.3,1.5h-3l-0.7,4.2h4.6l-0.3,1.5h-6.3L286,77h6.3L292,78.6z"/>
		<path class="st0" d="M298.8,89.3h-6.3l2.2-12.2h1.8l-1.9,10.7h4.5L298.8,89.3z"/>
		<path class="st0" d="M310.5,82.4c0,4.1-2.8,6.9-7.1,6.9h-2.9l2.2-12.2h2.4C308.4,77,310.5,79.1,310.5,82.4z M308.6,82.2
			c0-2.2-1.4-3.6-3.6-3.6h-0.9l-1.6,9.1h1C306.6,87.7,308.6,85.6,308.6,82.2z"/>
		<path class="st0" d="M12.3,15.8c0.9-4.9-0.1-6.5-7.3-7.5l0.3-1.5h40.4l-1.4,10.4h-2.7c-0.1-4.5,0.5-7.1-6.6-7.1h-9
			c-4.9,0-5.4,1-6.2,5.7l-3,16.9h10.9c7.1,0,8.3-3.1,9.6-7.1h2l-3.1,17.7h-2c0-5,0.2-7.3-7.1-7.3H16.2l-3.5,20.1c-0.9,5-0.1,5,6.2,5
			H28c5.8,0,6.6-1.8,8.9-8.3h2.7l-2.7,11.6H3.7L12.3,15.8z"/>
		<path class="st0" d="M48.8,32.9c0.9-5.1-3.1-5.4-5.5-5.7l0.3-1.5L57,23.7L55.2,34h0.2c1.6-3,7.2-10.3,14.1-10.3
			c8,0,9.4,4.2,8.4,10.3H78c1.8-2.9,6.6-10.3,14.3-10.3c10.2,0,9,6.8,7.8,13.6l-4.8,27.1h-6.6l4.5-25.8c1.1-6.3,1.9-10.8-3.9-10.8
			c-4.5,0-11.7,7.9-13.2,15.8l-3.7,20.7H66l4.9-27.7c0.8-4.6,1.6-8.9-4.1-8.9c-5.5,0-12.1,9.1-13.4,16.2l-3.6,20.4h-6.6L48.8,32.9z"
			/>
		<path class="st0" d="M113.5,40.7c1.1-6.3,5.9-13.6,11.8-13.6c7.9,0,7.5,11.6,6.4,17.6c-1.2,6.8-4.4,17.5-12.3,17.5
			c-7.5,0-8-9.5-7-15.2L113.5,40.7z M99.5,82.7h6.6l4.2-24.1h0.2c0.6,2.8,3.6,6.8,9.6,6.8c11.1,0,17-9.9,18.9-21
			c2.1-11.9-1.2-20.7-12.1-20.7c-5.7,0-10,4-11.4,6.5h-0.2l1.2-6.5l-13.7,2l-0.3,1.5c2.4,0.3,6.7,0.3,5.8,5.7L99.5,82.7z"/>
		<path class="st0" d="M146.3,32.9c0.9-5.1-3.1-5.4-5.4-5.7l0.3-1.5l13.4-2.1l-7.2,40.8h-6.6L146.3,32.9z M148.3,10.7
			c0.5-2.6,3-4.8,5.7-4.8c2.6,0,4.4,2.1,4,4.8c-0.5,2.8-3.1,4.8-5.6,4.8C149.6,15.5,147.8,13.3,148.3,10.7z"/>
		<path class="st0" d="M162.3,33.1c1-5.4-3-5.7-5.5-5.9l0.3-1.5l13.5-2.1l-1.8,10.2h0.2c1.7-3.6,5.1-10.2,13.2-10.2
			c0.3,0,0.5,0,0.8,0.1l-1.3,7.1c-0.9-0.3-1.8-0.6-2.7-0.6c-8.3,0-11,8.4-11.9,13.6l-3.6,20.5h-6.6L162.3,33.1z"/>
		<path class="st0" d="M204.8,37h-17.5c0.8-2.9,3.4-9.9,11.2-9.9c5.1,0,7.3,4.4,6.4,9.2L204.8,37z M207,61c-2,0.5-4.2,1-6.3,1
			c-11.9,0-15.8-12.1-14.3-20.4l0.3-1.8h25l0.2-1.3c1.8-10.2-3.7-14.9-11.8-14.9c-12.5,0-18.5,7.3-20.7,19.6
			c-2.5,14.3,3.5,22.1,16,22.1c5.3,0,9.8-1.1,10.9-1.5L207,61z"/>
		<path class="st1" d="M264.5,23.6l0-14.8h-25.4v14.7h-16l0,25.3H239v15.4h25.4V48.9h15.4V23.6H264.5z"/>
		<g>
			<path class="st1" d="M319.2,62.4c0,1.4,1.1,2.5,2.5,2.5c1.4,0,2.5-1.1,2.5-2.5c0-1.4-1.1-2.5-2.5-2.5
				C320.3,59.9,319.2,61,319.2,62.4z M319.5,62.4c0-1.2,1-2.1,2.1-2.1c1.2,0,2.1,1,2.1,2.1c0,1.2-1,2.1-2.1,2.1
				C320.5,64.6,319.5,63.6,319.5,62.4z"/>
		</g>
		<path class="st1" d="M321.7,62.4"/>
		<path class="st1" d="M321,63.6h-0.3v-2.5h1.2c0.4,0,0.8,0.1,0.8,0.7c0,0.4-0.2,0.5-0.3,0.6c0.1,0.1,0.3,0.1,0.3,0.5l0,0.5
			c0,0.1,0,0.2,0.1,0.2v0.1h-0.4c-0.1-0.2-0.1-0.5-0.1-0.6c0-0.2,0-0.4-0.5-0.4H321V63.6z M321,62.2h0.8c0.2,0,0.5-0.1,0.5-0.4
			c0-0.4-0.3-0.4-0.4-0.4H321V62.2z"/>
		<g>
			<path class="st1" d="M266.5,62.2c0,1.4,1.1,2.5,2.5,2.5c1.4,0,2.5-1.1,2.5-2.5c0-1.4-1.1-2.5-2.5-2.5
				C267.7,59.7,266.5,60.8,266.5,62.2z M266.9,62.2c0-1.2,1-2.1,2.1-2.1c1.2,0,2.1,1,2.1,2.1c0,1.2-1,2.1-2.1,2.1
				C267.9,64.3,266.9,63.4,266.9,62.2z"/>
		</g>
		<path class="st1" d="M269.1,62.2"/>
		<path class="st1" d="M268.4,63.4h-0.3v-2.5h1.2c0.4,0,0.8,0.1,0.8,0.7c0,0.4-0.2,0.5-0.3,0.6c0.1,0.1,0.3,0.1,0.3,0.5l0,0.5
			c0,0.1,0,0.2,0.1,0.2v0.1h-0.4c-0.1-0.2-0.1-0.5-0.1-0.6c0-0.2,0-0.4-0.5-0.4h-0.8V63.4z M268.4,62h0.8c0.2,0,0.5-0.1,0.5-0.4
			c0-0.4-0.3-0.4-0.4-0.4h-0.8V62z"/>
		<g>
			<g>
				<path class="st2" d="M251.3,37.6c-0.6,0-1,0.4-1.3,1c-0.3,0.6-5.8,8.5-7.1,10.4c2.4,1.7,5.4,2.7,8.6,2.7c3.1,0,6-0.9,8.4-2.5
					c0,0-6.8-9.9-7.2-10.5C252.3,37.9,252,37.6,251.3,37.6z M251.3,49.5c-2.1,0-4-0.4-5.4-1.2c0,0,5-7.9,5.4-7.9
					c0.4,0,5.5,7.9,5.5,7.9C255.3,49.1,253.5,49.5,251.3,49.5z M246.2,32c-2-0.1-5.3-0.7-9-0.7c-0.6,1.6-0.9,3.4-0.9,5.2
					c0,4.8,2.2,9,5.7,11.8c1-1.8,5.2-9.7,6.5-12.2C250,33.3,248.4,32.2,246.2,32z M246.6,35.2c-0.5,1-5.2,9.8-5.2,9.8
					c-2.3-2.9-3.8-6.5-2.9-11.5c0,0,7.1,0.6,7.5,0.6C246.6,34.2,247.1,34.2,246.6,35.2z M265.7,31.3c-3.8,0.1-7.2,0.6-9.3,0.8
					c-2.2,0.1-3.8,1.3-2.3,4c1.5,2.8,6.4,12,6.6,12.4c3.6-2.8,5.9-7.1,5.9-12C266.6,34.6,266.3,32.9,265.7,31.3z M261.3,45
					c0,0-4.7-8.8-5.2-9.8c-0.5-1,0-1,0.6-1.1c0.4,0,7.5-0.6,7.5-0.6C265.1,38.5,263.6,42.1,261.3,45z M250.2,29.3
					c0.6-0.6,0.6-1.5-0.2-2.6c-1.5-1.8-0.2-3.5,1.3-3.5c1.5,0.1,2.8,1.7,1.3,3.5c-0.8,1-0.8,1.9-0.2,2.6c0.5,0.5,1.3,0.8,2.3,0.8
					l10.4,0c-0.8-1.8-1.9-3.3-3.3-4.6c-2.7-2.6-6.4-4.2-10.4-4.2c-4.2,0-8,1.7-10.7,4.5c-1.3,1.3-2.3,2.7-3,4.4l10.2,0
					C248.9,30.1,249.7,29.8,250.2,29.3z M255.2,24c2.4,0.5,4.4,2.3,6.2,4.1h-7C254.4,26.9,256,26.7,255.2,24z M247.5,24
					c-0.8,2.7,0.8,2.9,0.8,4.1h-7C242.9,26.1,245.1,24.5,247.5,24z"/>
			</g>
		</g>
		<g>
			<path class="st1" d="M329.2,9.6c-5.3,2.8-10.5,4.3-18.4,4.3c-7.8,0-13.1-1.5-18.4-4.3c-2.2,3.8-3.4,9.2-3.4,15.9
				c0,17.9,10,29.8,12.5,32.5c2.5,2.6,7.4,6.7,9.3,7.1c1.9-0.4,6.8-4.5,9.3-7.1c2.5-2.6,12.5-14.6,12.5-32.5
				C332.6,18.8,331.3,13.4,329.2,9.6z"/>
			<path class="st2" d="M308.8,54.2c0,0.1-0.1,0.1-0.3,0.1c-0.3-0.2-0.4-0.8-0.4-1c0-0.9,0.6-1.9,1.2-2.2l0,1.5
				C309,53.1,309.1,53.9,308.8,54.2z M311.2,55.3c0,0-0.7,0.3-1.3-0.1c0-0.2,0-1.5-0.1-2.5c0-1-0.1-2.7-0.1-4.2
				c0.3,0.1,0.3,0.1,0.6,0.2c0.5,0.1,0.8,0.4,0.9,0.6c0.3,0.3,0.2,1.8,0.2,2.5C311.3,53.6,311.2,55.1,311.2,55.3z M311.7,51.6v-1.9
				c0-0.4-0.2-0.7-0.4-1c-0.2-0.2-0.4-0.3-0.8-0.5c-0.2-0.1-0.4-0.2-1-0.3c-3.9-1-2.9-4.6-0.5-4.6c0,0.3,0.1,0.6,0.1,0.9
				c0,0.3,0.1,0.6,0.1,1.1c-0.6,0.3-0.1,0.4,0.1,0.5c0.3,0.1,1,0.5,1.4,0.6c0.3,0.1,1,0.4,1.3,0.5C314.2,47.8,313.9,50.5,311.7,51.6
				z M309.4,43.3c0-0.3,0-1,0-1.3c0.4,0,0.5,0.1,1,0.1c0.8,0.1,0.8,0,1.2,0.1c0,0.1,0,0.6,0,0.7c0,0.3,0,0.7-0.1,1
				c0,0.6,0,0.6,0,1.1c0,0.3,0,0.9,0,1.2c-0.3,0-0.7-0.2-1-0.4c-0.5-0.2-0.7-0.4-1-0.6c0-0.1,0-0.4,0-0.5l0-0.6L309.4,43.3z
				 M311.9,45.2c0-0.5,0-1,0.1-1.5c0-0.3,0-0.4,0.1-0.7c0.3-0.3,0.8-0.4,0.4-1c-0.2-0.3-1.1-0.3-1.9-0.3c-0.4,0-0.8,0-2.1-0.3
				c-3.1-0.6-2.9-4.6-0.9-5.3l0.6,1.5l0.5,1.2c0.9,0.1,1.2,0,2.2,0.2c0.2,0,0.5,0.1,1.1,0.2C316.2,40.1,315.2,44.9,311.9,45.2z
				 M307.8,35.3l1-1.6l2.8,0.2l0,4.7l-2.4-0.2l-0.7-1.5L307.8,35.3z M312.1,38.1c-0.4-1.6-0.2-3-0.2-3c1.3-0.1,0.4-1.5,0-1.6
				c-0.5-0.1-0.9-0.1-1.8-0.2c-0.6-0.1-1.5-0.1-2-0.2c-8.3-1.1-7.1-8.5-3-9.2c2.9-0.5,4.5,0.6,5,1.8c0,0-0.8,0.4-1.5,0.3
				c-1.3-0.2-2.1-0.1-2.1-0.1c0.4,0.4,1.9,0.6,2.5,1.2c-0.7,0.3-1.5,0.3-2.2,0.2c-0.6-0.1-1.2-0.2-1.8-0.4c-0.2,0.7-0.7,2.3,3,3.1
				c0.5,0.1,1.1,0.3,1.8,0.3c0.7,0.1,1.3,0.2,1.9,0.3c0.2,0.1,0.5,0.1,0.7,0.2C317.6,32.2,316,38.2,312.1,38.1z M315.9,25.9
				c-2.1,2.1-3.2,3.1-3.7,3.7c0,0-0.3,0.6-0.5,0.7l-3-0.5c-0.1-0.6-0.1-1.4-0.1-2.1c0.6-0.1,0.8-0.1,1.1-0.4l-0.1-0.4
				c0.9,0.3,1.7,0.4,2,0.4l-0.4-0.4c-0.4-0.1-0.9-0.3-1.4-0.5c0.7-0.1,0.9-0.3,0.9-0.3s-0.1-0.3-0.4-0.9c-0.5-0.9-1.5-1.4-1.5-1.4
				c-0.2-0.3-0.1-0.5-0.1-0.7c0-1.1,0.6-0.8,1.7-0.5c0.2,0.1,0.3,0.2,0.4,0.3c0.7,0.3,1.4,0.7,1.4,0.9c0,0-0.1,2.5,0.2,2.4
				c0.5-0.2,1.8-1.4,2.2-1.7C315.4,24,316.7,25.1,315.9,25.9z"/>
		</g>
		<g>
			<g>
				<path class="st2" d="M326.9,15.1c-3.3,1.7-9.5,3.3-16.1,3.3c-6.6,0-12.9-1.6-16.1-3.3c-1.2,1.8-1.7,6.8-1.7,10.3
					c0,16.1,8.4,26.5,9.5,27.9c1.5,1.9,7.3,7.1,8.3,7.3c1-0.2,6.8-5.4,8.3-7.3c1.1-1.4,9.5-11.8,9.5-27.9
					C328.7,21.9,328.1,16.9,326.9,15.1z M318.3,51.7c-1.4,1.7-6.6,6.6-7.5,6.8c-0.9-0.2-6.1-5.1-7.5-6.8c-1-1.3-8.4-9.1-8.8-25.1
					c-0.1-3.1,0.1-7.3,1.2-8.9c2.9,1.6,9.2,2.4,15.1,2.4c6,0,12.2-0.9,15.1-2.4c1.1,1.6,1.3,5.8,1.2,8.9
					C326.7,42.6,319.3,50.5,318.3,51.7z"/>
			</g>
		</g>
		<g>
			<path class="st1" d="M308.6,24.7c0,0-0.1,0.4-0.4,0.4c-0.2,0-0.4-0.1-0.6-0.2c-0.4-0.3-0.7-0.3-0.7-0.3S307.8,24.3,308.6,24.7z"
				/>
		</g>
	</g>
	<g>
		<g>
			<g class="st3">
				<path class="st4" d="M11.9,146.6l-0.7-3.8h-3l-0.6,3.8H5.7l2.6-13.8h2.7l2.8,13.8H11.9z M9.7,134c-0.4,2.4-0.7,4.9-1.2,7.3H11
					C10.5,138.9,10,136.5,9.7,134z"/>
				<path class="st4" d="M20,146.6v-7.9c0-0.7-0.2-1.3-1.1-1.3c-0.7,0-1.3,0.5-1.8,1v8.3h-1.7v-10.7H17l0.1,1
					c0.6-0.6,1.4-1.2,2.3-1.2c1.7,0,2.4,1,2.4,2.6v8.3H20z"/>
				<path class="st4" d="M27.1,146.1c0.5,0,0.9-0.3,1.2-0.7c0.2-0.3,0.5-0.8,0.8-1.7l4.6-11.3h0.6l4.6,10.9c0.5,1.2,0.9,2,1.2,2.4
					c0.3,0.4,0.6,0.5,1.1,0.5v0.5h-6.7v-0.5c0.7,0,1.1-0.1,1.3-0.2s0.3-0.3,0.3-0.7c0-0.2-0.1-0.4-0.2-0.7c-0.1-0.2-0.2-0.4-0.3-0.7
					l-0.5-1.3h-4.7c-0.3,0.8-0.5,1.4-0.6,1.6c-0.2,0.5-0.3,0.9-0.3,1.2c0,0.3,0.2,0.5,0.6,0.6c0.2,0.1,0.6,0.1,1.1,0.1v0.5h-4.2
					V146.1z M34.8,141.7l-2-4.8h-0.2l-1.9,4.8H34.8z"/>
				<path class="st4" d="M42,146.1c0.4,0,0.7-0.1,0.8-0.3c0.2-0.2,0.3-0.5,0.3-0.9v-6.1c0-0.4-0.1-0.7-0.2-0.9
					c-0.1-0.2-0.4-0.3-0.9-0.3v-0.5h3.9v1.5c0.3-0.5,0.8-0.9,1.3-1.2c0.5-0.3,1.1-0.5,1.7-0.5c0.9,0,1.6,0.2,2.1,0.7
					c0.5,0.5,0.7,1.3,0.7,2.4v5c0,0.5,0.1,0.8,0.2,0.9c0.2,0.1,0.4,0.2,0.8,0.3v0.5h-4.9v-0.5c0.4-0.1,0.6-0.2,0.8-0.3
					c0.1-0.1,0.2-0.4,0.2-0.9v-5c0-0.5,0-0.8-0.1-1.1c-0.2-0.4-0.5-0.6-1-0.6c-0.4,0-0.7,0.1-1,0.4c-0.3,0.3-0.5,0.5-0.7,0.8v5.6
					c0,0.5,0.1,0.7,0.2,0.9c0.1,0.1,0.4,0.2,0.8,0.3v0.5h-5V146.1z"/>
				<path class="st4" d="M53.5,138v-0.6c0.2-0.2,0.4-0.4,0.7-0.6c0.4-0.3,0.7-0.7,1-1c0.6-0.7,1.2-1.4,1.7-2.2h0.5v3.5h2v0.9h-2v6.2
					c0,0.3,0,0.5,0.1,0.7c0.1,0.3,0.4,0.5,0.7,0.5c0.3,0,0.5-0.1,0.7-0.3c0.2-0.2,0.4-0.5,0.5-0.8l0.5,0.2c-0.2,0.6-0.5,1-0.9,1.4
					c-0.6,0.6-1.3,0.9-2.2,0.9c-0.5,0-0.9-0.1-1.3-0.3c-0.7-0.4-1.1-1-1.1-1.9V138H53.5z"/>
				<path class="st4" d="M60.4,146.1c0.4,0,0.7-0.1,0.8-0.3c0.2-0.2,0.3-0.5,0.3-0.9v-10.6c0-0.4-0.1-0.7-0.2-0.9
					c-0.1-0.2-0.4-0.3-0.9-0.3v-0.5h4v5.8c0.4-0.5,0.9-0.9,1.3-1.2c0.5-0.3,1-0.4,1.6-0.4c0.8,0,1.5,0.2,2,0.7
					c0.5,0.5,0.8,1.2,0.8,2.4v5c0,0.5,0.1,0.8,0.2,0.9c0.2,0.1,0.4,0.3,0.8,0.3v0.5h-4.9v-0.5c0.4-0.1,0.6-0.2,0.8-0.3
					c0.1-0.1,0.2-0.4,0.2-0.9v-5c0-0.5,0-0.8-0.1-1.1c-0.2-0.4-0.5-0.6-1-0.6c-0.4,0-0.7,0.2-1.1,0.5s-0.6,0.6-0.6,0.7v5.6
					c0,0.5,0.1,0.7,0.2,0.9c0.1,0.1,0.4,0.2,0.8,0.3v0.5h-5V146.1z"/>
				<path class="st4" d="M73.4,138.1c0.8-0.9,1.9-1.3,3.1-1.3c0.7,0,1.3,0.2,1.9,0.5c0.6,0.4,1.1,0.9,1.4,1.5
					c0.2,0.5,0.4,1.1,0.5,1.9c0,0.4,0.1,0.6,0.1,0.8H75c0,0.8,0.2,1.5,0.4,2.2c0.4,1.1,1.1,1.7,2.1,1.7c0.5,0,0.9-0.2,1.4-0.5
					c0.3-0.2,0.6-0.5,1-0.9l0.5,0.3c-0.6,1.1-1.4,1.8-2.2,2.2c-0.5,0.3-1.2,0.4-1.9,0.4c-1,0-2-0.4-2.9-1.2
					c-0.9-0.8-1.3-2.1-1.3-3.8C72.1,140.3,72.5,139,73.4,138.1z M77.8,140.8c0-1.2-0.1-2.1-0.3-2.6c-0.2-0.5-0.5-0.7-1.1-0.7
					c-0.5,0-0.9,0.3-1.1,0.8c-0.2,0.6-0.3,1.4-0.3,2.4H77.8z"/>
				<path class="st4" d="M81.2,146.1c0.4,0,0.6-0.1,0.8-0.2c0.2-0.2,0.3-0.5,0.3-1v-6.1c0-0.4-0.1-0.7-0.2-0.9
					c-0.2-0.2-0.5-0.3-0.9-0.3v-0.5h3.9v1.5c0.3-0.5,0.7-0.8,1-1.1c0.6-0.5,1.3-0.7,2-0.7c0.8,0,1.5,0.2,1.9,0.6
					c0.3,0.2,0.5,0.6,0.7,1.1h0.1c0.4-0.5,0.8-0.8,1.1-1.1c0.6-0.4,1.2-0.6,1.9-0.6c0.7,0,1.4,0.2,1.9,0.7c0.6,0.5,0.8,1.2,0.8,2.2
					v5.2c0,0.5,0.1,0.8,0.2,0.9c0.2,0.1,0.4,0.2,0.8,0.3v0.5h-4.9v-0.5c0.4-0.1,0.6-0.1,0.8-0.3c0.1-0.1,0.2-0.4,0.2-0.9v-5
					c0-0.5-0.1-1-0.2-1.3c-0.2-0.3-0.5-0.4-0.9-0.4c-0.4,0-0.7,0.2-1.1,0.5c-0.4,0.3-0.6,0.6-0.6,0.7v5.6c0,0.5,0.1,0.7,0.2,0.9
					c0.1,0.1,0.4,0.2,0.8,0.3v0.5H87v-0.5c0.4,0,0.6-0.1,0.8-0.3c0.2-0.1,0.2-0.4,0.2-0.9v-5c0-0.5-0.1-0.9-0.2-1.2
					c-0.1-0.3-0.5-0.5-0.9-0.5c-0.4,0-0.8,0.2-1.2,0.5c-0.4,0.3-0.5,0.6-0.5,0.7v5.6c0,0.5,0.1,0.7,0.2,0.9c0.1,0.1,0.4,0.2,0.8,0.3
					v0.5h-5V146.1z"/>
				<path class="st4" d="M106.9,146.8c-2.4,0-3.5-1.3-3.5-3.7v-6.8c0-2.3,1.2-3.8,3.6-3.8c2.1,0,3.5,1.1,3.5,3.2v1.6h-1.8
					c0-0.3,0-0.6,0-0.9c0-1.3-0.2-2.3-1.7-2.3c-1.3,0-1.8,0.7-1.8,1.9v6.8c0,1.2,0.4,2.3,1.8,2.3c2.1,0,1.8-1.9,1.8-3.4h1.8v1.5
					C110.6,145.7,109.3,146.8,106.9,146.8z"/>
				<path class="st4" d="M115.8,146.8c-2.1,0-3.3-1.1-3.3-3.2v-4.8c0-2,1.3-3.1,3.3-3.1c2.1,0,3.3,1,3.3,3.1v4.8
					C119.1,145.7,117.9,146.8,115.8,146.8z M117.4,138.9c0-1-0.6-1.6-1.6-1.6c-1,0-1.6,0.6-1.6,1.6v4.8c0,1,0.6,1.6,1.6,1.6
					c1,0,1.6-0.6,1.6-1.6V138.9z"/>
				<path class="st4" d="M129.8,146.6v-7.8c0-0.7-0.2-1.4-1-1.4c-0.7,0-1.2,0.5-1.6,1v8.2h-1.7v-7.9c0-0.7-0.3-1.3-1.1-1.3
					c-0.6,0-1.1,0.4-1.5,0.9v8.4h-1.7v-10.7h1.6l0.1,0.9c0.6-0.6,1.3-1.1,2.2-1.1c0.9,0,1.6,0.4,2,1.3c0.5-0.9,1.4-1.3,2.4-1.3
					c1.7,0,2.2,1.2,2.2,2.7v8.2H129.8z"/>
				<path class="st4" d="M137.8,146.8c-1,0-1.7-0.4-2.4-1v5h-1.7v-14.8h1.7l0,0.9c0.7-0.6,1.5-1,2.4-1c1.6,0,2.4,1.3,2.4,2.8v5.1
					C140.3,145.3,139.6,146.8,137.8,146.8z M138.5,138.9c0-0.8-0.4-1.6-1.3-1.6c-0.7,0-1.3,0.4-1.8,0.8v6.2c0.5,0.4,1.2,0.9,1.8,0.9
					c1.1,0,1.3-0.8,1.3-1.7V138.9z"/>
				<path class="st4" d="M147,146.6l0-0.9c-0.6,0.6-1.4,1-2.3,1c-1.6,0-2.7-1-2.7-2.7v-0.6c0-2.7,2.7-3.3,4.8-3.5v-1.4
					c0-0.9-0.4-1.5-1.4-1.5c-1.3,0-1.5,0.8-1.5,1.9h-1.7v-0.4c0-2.1,1.2-3,3.2-3c1.9,0,3,0.8,3,2.8v8.1H147z M146.8,141.2
					c-1.3,0.2-3.1,0.6-3.1,2.3v0.4c0,0.9,0.4,1.4,1.3,1.4c0.7,0,1.3-0.4,1.7-0.9V141.2z"/>
				<path class="st4" d="M155.2,146.6v-7.9c0-0.7-0.2-1.3-1.1-1.3c-0.7,0-1.3,0.5-1.8,1v8.3h-1.7v-10.7h1.6l0.1,1
					c0.6-0.6,1.4-1.2,2.3-1.2c1.7,0,2.4,1,2.4,2.6v8.3H155.2z"/>
				<path class="st4" d="M162.6,147.9c-0.5,1.9-1.1,3-3.2,3c-0.3,0-0.6,0-1-0.1v-1.4c0.2,0,0.5,0.1,0.8,0.1c1.1,0,1.4-0.7,1.6-1.6
					l0.3-1.4l-2.8-10.5h1.8c0.6,2.9,1.3,5.7,1.8,8.6c0.5-2.9,1.2-5.7,1.8-8.6h1.7L162.6,147.9z"/>
			</g>
		</g>
	</g>
	<g>
		<polygon class="st1" points="4.2,108.2 4.2,113.9 330.4,113.9 332.4,108.2 		"/>
	</g>
</g>
</svg>
