<svg id="Layer_1" data-name="Layer 1" xmlns="http://www.w3.org/2000/svg" viewBox="0 0 64.02 47.64"><defs><style>.cls-1{fill:#475267;}</style></defs><title>logo-abc</title><ellipse class="cls-1" cx="5" cy="33.06" rx="2.19" ry="2.2"/><ellipse class="cls-1" cx="14.34" cy="33.06" rx="2.19" ry="2.2"/><path class="cls-1" d="M40.24,0A23.82,23.82,0,0,0,16.91,19.2a14.34,14.34,0,1,0,8.47,23.12A23.77,23.77,0,1,0,40.24,0Zm0,5.8a18,18,0,0,1,13.64,6.28H26.6A18,18,0,0,1,40.24,5.8Zm-33,31.65V36.26A2.89,2.89,0,0,1,5,37.4a4.34,4.34,0,0,1,0-8.68A4.44,4.44,0,0,1,9.44,33v4.39Zm7.12,0.07a4.44,4.44,0,0,1-4.46-4.32v-7.3h2.17V30a2.89,2.89,0,0,1,2.3-1.13A4.34,4.34,0,0,1,14.39,37.52Zm9.29-.1a4.34,4.34,0,0,1,0-8.68,4.38,4.38,0,0,1,4.24,3.5H25.75a2.19,2.19,0,1,0,0,1.76h2.17A4.32,4.32,0,0,1,23.69,37.42Zm12.39-2h0v5.81a18,18,0,0,1-8-4.28,14.29,14.29,0,0,0-5.65-15.49,17.87,17.87,0,0,1,.81-3.56H44.31A23.74,23.74,0,0,0,36.08,35.46Zm5.8,6.22V36.34h0V35.6A18,18,0,0,1,56.24,18.31c0.35-.07.71-0.13,1.07-0.18A18,18,0,0,1,41.88,41.69Z"/></svg>