<?xml version="1.0" encoding="utf-8"?>
<!-- Generator: Adobe Illustrator 21.0.0, SVG Export Plug-In . SVG Version: 6.00 Build 0)  -->
<svg version="1.1" id="Layer_1" xmlns="http://www.w3.org/2000/svg" xmlns:xlink="http://www.w3.org/1999/xlink" x="0px" y="0px"
	 viewBox="0 0 154.9 198.1" style="enable-background:new 0 0 154.9 198.1;" xml:space="preserve">
<style type="text/css">
	.st0{fill:#005B7F;}
	.st1{fill:#0098D7;}
	.st2{fill:#00688F;}
</style>
<g>
	<g>
		<g>
			<g>
				<path class="st0" d="M39.9,196.8L38.2,185l-0.1-0.8h-0.2v0.8v11.8h-2.6V178h3.4l1.6,8.6l0.1,1h0.1l0.1-1l1.6-8.6h3.4v18.8h-2.6
					V185v-0.8H43l-0.1,0.8l-1.8,11.8H39.9z"/>
				<path class="st0" d="M50.9,196.8l2.8-18.8h3.4l2.8,18.8h-2.7l-0.5-3.8h-2.7l-0.5,3.8H50.9z M55.6,184.1l-0.1-0.5h-0.2l-0.1,0.5
					l-0.8,5.9h1.9L55.6,184.1z"/>
				<path class="st0" d="M63.6,180.8V178h8v2.8H69v15.9h-2.8v-15.9H63.6z"/>
				<path class="st0" d="M75.8,180.8V178h8v2.8h-2.6v15.9h-2.8v-15.9H75.8z"/>
				<path class="st0" d="M88.8,178h6.3v2.8h-3.6v4.9h2.6v3h-2.6v5.2h3.6v2.8h-6.3V178z"/>
				<path class="st0" d="M105.1,196.8l-1.4-7.9h-0.7v7.9h-2.8V178h2.8c3.3,0,4.7,1.9,4.7,5.4c0,1.9-0.5,3.6-1.5,4.3l1.8,9.1H105.1z
					 M102.9,180.7v5.6c0.8,0,2-0.1,2-2.8C105,180.8,103.7,180.7,102.9,180.7z"/>
				<path class="st0" d="M116.4,177.8c3.3-0.1,3.9,2.9,3.9,5l-2.7,0.3c0-1.3-0.2-2.7-1.1-2.7c-0.7,0-0.9,0.8-0.9,1.9
					c0,1.3,1.1,2.7,2.2,4.3c1.3,1.9,2.6,3.8,2.6,5.8c0,2.5-0.8,4.7-3.8,4.7c-3.6,0-4-2.7-4-5.5l2.7-0.3c0,1.6,0.2,3.2,1.3,3.2
					c0.8,0,1.1-0.9,1.1-2.1c0-1.3-1.2-2.8-2.2-4.3c-1.3-1.9-2.5-3.8-2.5-5.8C112.8,180.1,113.8,177.9,116.4,177.8z"/>
			</g>
			<g>
				<path class="st0" d="M19.6,143h6.3v2.8h-3.6v4.9h2.6v3h-2.6v5.2h3.6v2.8h-6.3V143z"/>
				<path class="st0" d="M36.4,143H39l-2.9,18.8h-2.8L30.6,143h2.7l1.4,10.3l0.1,0.8h0.2l0.1-0.8L36.4,143z"/>
				<path class="st0" d="M44,143h6.3v2.8h-3.6v4.9h2.6v3h-2.6v5.2h3.6v2.8H44V143z"/>
				<path class="st0" d="M60.3,161.8l-1.4-7.9h-0.7v7.9h-2.8V143h2.8c3.3,0,4.7,1.9,4.7,5.4c0,1.9-0.5,3.6-1.5,4.3l1.8,9.1H60.3z
					 M58.1,145.7v5.6c0.8,0,2-0.1,2-2.8C60.2,145.8,58.9,145.7,58.1,145.7z"/>
				<path class="st0" d="M71,149l0.1,0.2h0.1l0.1-0.2l1.4-6h2.7l-2.8,10.8v8h-2.8v-8L66.9,143h2.7L71,149z"/>
				<path class="st0" d="M79.5,145.8V143h8v2.8h-2.6v15.9h-2.8v-15.9H79.5z"/>
				<path class="st0" d="M97.3,153.6h-2.1v8.2h-2.8c0,0,0-18.6,0-18.8h2.8v7.8h2.1V143h2.8v18.8h-2.8V153.6z"/>
				<path class="st0" d="M106.1,143h2.8v18.8h-2.8V143z"/>
				<path class="st0" d="M117.7,152l-0.2-0.9h-0.2v0.9v9.8h-2.5V143h2.5l2.7,9.8l0.2,0.9h0.2v-0.9V143h2.5v18.8h-2.5L117.7,152z"/>
				<path class="st0" d="M133.2,149.7v-2.9c0,0,0.1-1.4-0.9-1.4c-1,0-0.9,1.4-0.9,1.4v11.3c0,0-0.1,1.4,0.9,1.4c1,0,0.9-1.4,0.9-1.4
					v-3.4h-1.1v-2.3h3.9v9.3h-1.6l-0.3-0.9c-0.5,0.6-1.3,1.1-2.1,1.1c-3.5,0-3.2-4.1-3.2-4.1v-11.1c0,0,0-4.1,3.7-4.1
					c3.7,0,3.7,4.1,3.7,4.1v2.9H133.2z"/>
			</g>
		</g>
		<g>
			<path class="st1" d="M31.5,87.1c-0.1,1.3-1.2,5.1-5.9,5.1c-4.9,0-6-3.7-6-6.5c0-4.2,1.8-7.2,6.2-7.2c2,0,5.4,0.9,5.7,5h-3.5
				c-0.1-0.9-0.7-2.2-2.3-2.1c-2.1,0-2.7,2.1-2.7,3.8c0,1.4,0,4.2,2.6,4.2c1.7,0,2.3-1.7,2.3-2.3H31.5z"/>
			<path class="st1" d="M42.2,85.3c0,1.7-0.5,3.9-3.1,3.9c-2.6,0-3.1-2.3-3.1-3.9c0-1.7,0.5-4,3.1-4C41.7,81.4,42.2,83.6,42.2,85.3
				 M45.7,85.3c0-4.7-3.1-6.8-6.6-6.8c-3.5,0-6.6,2.1-6.6,6.8c0,4.7,3.1,6.8,6.6,6.8C42.6,92.1,45.7,90,45.7,85.3"/>
			<path class="st1" d="M59.1,91.8h-3.4v-7.9c0-0.9,0-2.6-2.2-2.6c-1.5,0-2.7,1-2.7,3v7.4h-3.4v-13h3.3v1.9h0
				c0.5-0.8,1.4-2.2,3.9-2.2c2.5,0,4.5,1.5,4.5,4.3V91.8z"/>
			<polygon class="st1" points="74.7,77.4 65.4,77.4 65.4,81.1 73.9,81.1 73.9,84.2 65.4,84.2 65.4,88.7 75.1,88.7 75.1,91.8 
				61.8,91.8 61.8,74.3 74.7,74.3 			"/>
			<path class="st1" d="M79.8,85.4c0-2,0.7-4,2.9-4c2.3,0,2.9,2.1,2.9,4.2c0,1.9-0.9,3.7-3,3.7C80.4,89.3,79.8,86.9,79.8,85.4
				 M88.9,74.3h-3.4v6.2h0c-0.5-0.8-1.6-2-3.8-2c-2.9,0-5.4,2.2-5.4,6.7c0,3.6,1.6,7,5.5,7c1.4,0,2.9-0.5,3.8-2h0v1.6h3.3V74.3z"/>
			<path class="st1" d="M94.7,91.8h-3.4v-13h3.4V91.8z M94.7,77.3h-3.4v-3.2h3.4V77.3z"/>
			<path class="st1" d="M104.6,82.8c-0.1-0.8-0.4-1.7-2.3-1.7c-1.9,0-2.1,0.7-2.1,1.3c0,2,8.1,0.6,8.1,5.3c0,3.8-3.7,4.5-5.7,4.5
				c-3,0-6.1-1-6.2-4.5h3.5c0,1.1,0.7,1.9,2.8,1.9c1.8,0,2.2-0.9,2.2-1.3c0-2.2-8-0.5-8-5.4c0-1.9,1.2-4.3,5.2-4.3
				c2.5,0,5.6,0.6,5.8,4.3H104.6z"/>
			<path class="st1" d="M119.1,85.3c0,1.7-0.5,3.9-3.1,3.9c-2.6,0-3.1-2.3-3.1-3.9c0-1.7,0.5-4,3.1-4
				C118.6,81.4,119.1,83.6,119.1,85.3 M122.6,85.3c0-4.7-3.1-6.8-6.6-6.8c-3.5,0-6.6,2.1-6.6,6.8c0,4.7,3.1,6.8,6.6,6.8
				C119.4,92.1,122.6,90,122.6,85.3"/>
			<path class="st1" d="M136,91.8h-3.4v-7.9c0-0.9,0-2.6-2.2-2.6c-1.5,0-2.7,1-2.7,3v7.4h-3.4v-13h3.3v1.9h0
				c0.5-0.8,1.4-2.2,3.9-2.2c2.5,0,4.5,1.5,4.5,4.3V91.8z"/>
			<path class="st1" d="M113,54.5H69.6c-12.8,0-23.2-10.4-23.2-23.2c0-12.8,10.4-23.2,23.2-23.2H113V0H69.6
				C52.4,0,38.4,14,38.4,31.3c0,17.3,14,31.3,31.3,31.3H113V54.5z"/>
			<path class="st1" d="M52.3,31.4c0,9.9,8.1,18,18,18h42.6v-8.1H70.3c-5.5,0-9.9-4.4-9.9-9.9c0-5.5,4.4-9.9,9.9-9.9h42.6v-8.1H70.3
				C60.4,13.4,52.3,21.4,52.3,31.4"/>
			<path class="st1" d="M113,27.3H70.1c-2.2,0-4,1.8-4,4c0,2.2,1.8,4,4,4H113V27.3z"/>
		</g>
	</g>
	<path class="st2" d="M10.9,117.4c0,0.7-0.6,1.2-1.2,1.2c-0.7,0-1.2-0.6-1.2-1.2c0-0.7,0.6-1.2,1.2-1.2
		C10.3,116.2,10.9,116.7,10.9,117.4z M2.1,116.2c-0.7,0-1.2,0.6-1.2,1.2c0,0.7,0.6,1.2,1.2,1.2c0.7,0,1.2-0.6,1.2-1.2
		C3.3,116.7,2.8,116.2,2.1,116.2z M17.2,116.2c-0.7,0-1.2,0.6-1.2,1.2c0,0.7,0.6,1.2,1.2,1.2c0.7,0,1.2-0.6,1.2-1.2
		C18.5,116.7,17.9,116.2,17.2,116.2z M24.8,116.2c-0.7,0-1.2,0.6-1.2,1.2c0,0.7,0.6,1.2,1.2,1.2c0.7,0,1.2-0.6,1.2-1.2
		C26,116.7,25.5,116.2,24.8,116.2z M32.4,116.2c-0.7,0-1.2,0.6-1.2,1.2c0,0.7,0.6,1.2,1.2,1.2c0.7,0,1.2-0.6,1.2-1.2
		C33.6,116.7,33.1,116.2,32.4,116.2z M39.9,116.2c-0.7,0-1.2,0.6-1.2,1.2c0,0.7,0.6,1.2,1.2,1.2c0.7,0,1.2-0.6,1.2-1.2
		C41.2,116.7,40.6,116.2,39.9,116.2z M47.5,116.2c-0.7,0-1.2,0.6-1.2,1.2c0,0.7,0.6,1.2,1.2,1.2c0.7,0,1.2-0.6,1.2-1.2
		C48.7,116.7,48.2,116.2,47.5,116.2z M55.1,116.2c-0.7,0-1.2,0.6-1.2,1.2c0,0.7,0.6,1.2,1.2,1.2c0.7,0,1.2-0.6,1.2-1.2
		C56.3,116.7,55.8,116.2,55.1,116.2z M62.7,116.2c-0.7,0-1.2,0.6-1.2,1.2c0,0.7,0.6,1.2,1.2,1.2c0.7,0,1.2-0.6,1.2-1.2
		C63.9,116.7,63.3,116.2,62.7,116.2z M70.2,116.2c-0.7,0-1.2,0.6-1.2,1.2c0,0.7,0.6,1.2,1.2,1.2c0.7,0,1.2-0.6,1.2-1.2
		C71.5,116.7,70.9,116.2,70.2,116.2z M77.8,116.2c-0.7,0-1.2,0.6-1.2,1.2c0,0.7,0.6,1.2,1.2,1.2c0.7,0,1.2-0.6,1.2-1.2
		C79,116.7,78.5,116.2,77.8,116.2z M85.4,116.2c-0.7,0-1.2,0.6-1.2,1.2c0,0.7,0.6,1.2,1.2,1.2c0.7,0,1.2-0.6,1.2-1.2
		C86.6,116.7,86.1,116.2,85.4,116.2z M92.9,116.2c-0.7,0-1.2,0.6-1.2,1.2c0,0.7,0.6,1.2,1.2,1.2c0.7,0,1.2-0.6,1.2-1.2
		C94.2,116.7,93.6,116.2,92.9,116.2z M100.5,116.2c-0.7,0-1.2,0.6-1.2,1.2c0,0.7,0.6,1.2,1.2,1.2c0.7,0,1.2-0.6,1.2-1.2
		C101.8,116.7,101.2,116.2,100.5,116.2z M108.1,116.2c-0.7,0-1.2,0.6-1.2,1.2c0,0.7,0.6,1.2,1.2,1.2c0.7,0,1.2-0.6,1.2-1.2
		C109.3,116.7,108.8,116.2,108.1,116.2z M115.7,116.2c-0.7,0-1.2,0.6-1.2,1.2c0,0.7,0.6,1.2,1.2,1.2c0.7,0,1.2-0.6,1.2-1.2
		C116.9,116.7,116.3,116.2,115.7,116.2z M123.2,116.2c-0.7,0-1.2,0.6-1.2,1.2c0,0.7,0.6,1.2,1.2,1.2c0.7,0,1.2-0.6,1.2-1.2
		C124.5,116.7,123.9,116.2,123.2,116.2z M130.8,116.2c-0.7,0-1.2,0.6-1.2,1.2c0,0.7,0.6,1.2,1.2,1.2c0.7,0,1.2-0.6,1.2-1.2
		C132,116.7,131.5,116.2,130.8,116.2z M138.4,116.2c-0.7,0-1.2,0.6-1.2,1.2c0,0.7,0.6,1.2,1.2,1.2c0.7,0,1.2-0.6,1.2-1.2
		C139.6,116.7,139.1,116.2,138.4,116.2z M153.5,116.2c-0.7,0-1.2,0.6-1.2,1.2c0,0.7,0.6,1.2,1.2,1.2c0.7,0,1.2-0.6,1.2-1.2
		C154.8,116.7,154.2,116.2,153.5,116.2z M145.9,116.2c-0.7,0-1.2,0.6-1.2,1.2c0,0.7,0.6,1.2,1.2,1.2s1.2-0.6,1.2-1.2
		C147.2,116.7,146.6,116.2,145.9,116.2z"/>
</g>
</svg>
