<?xml version="1.0" encoding="utf-8"?>
<!-- Generator: Adobe Illustrator 16.0.4, SVG Export Plug-In . SVG Version: 6.00 Build 0)  -->
<!DOCTYPE svg PUBLIC "-//W3C//DTD SVG 1.1//EN" "http://www.w3.org/Graphics/SVG/1.1/DTD/svg11.dtd">
<svg version="1.1" id="Layer_1" xmlns="http://www.w3.org/2000/svg" xmlns:xlink="http://www.w3.org/1999/xlink" x="0px" y="0px"
	 width="154.927px" height="198.089px" viewBox="0 0 154.927 198.089" enable-background="new 0 0 154.927 198.089"
	 xml:space="preserve">
<g>
	<g>
		<g>
			<g>
				<path fill="#475267" d="M39.34,198.089l-1.773-11.878l-0.103-0.796h-0.155v0.796v11.878h-2.57v-18.896h3.395l1.644,8.638
					l0.129,1.003h0.053l0.128-1.003l1.645-8.638h3.394v18.896h-2.57v-11.878v-0.796h-0.154l-0.103,0.796l-1.774,11.878H39.34z"/>
				<path fill="#475267" d="M50.372,198.089l2.854-18.896h3.393l2.855,18.896h-2.7l-0.515-3.855h-2.674l-0.515,3.855H50.372z
					 M55.077,185.338L55,184.849h-0.153l-0.078,0.489l-0.797,5.964h1.902L55.077,185.338z"/>
				<path fill="#475267" d="M63.178,182.046v-2.853H71.2v2.853h-2.623v16.043h-2.776v-16.043H63.178z"/>
				<path fill="#475267" d="M75.469,182.046v-2.853h8.022v2.853h-2.623v16.043h-2.776v-16.043H75.469z"/>
				<path fill="#475267" d="M88.533,179.193h6.351v2.853H91.31v4.962h2.57v3.034h-2.57v5.194h3.574v2.853h-6.351V179.193z"/>
				<path fill="#475267" d="M104.963,198.089l-1.438-7.97h-0.748v7.97h-2.775v-18.896h2.775c3.292,0,4.731,1.901,4.731,5.449
					c0,1.878-0.488,3.574-1.542,4.294l1.773,9.152H104.963z M102.776,181.943v5.604c0.772,0,2.058-0.103,2.058-2.802
					C104.834,182.046,103.549,181.943,102.776,181.943z"/>
				<path fill="#475267" d="M116.303,178.987c3.343-0.077,3.883,2.905,3.883,5.013l-2.726,0.258c0-1.26-0.18-2.726-1.104-2.726
					c-0.722,0.026-0.953,0.798-0.953,1.878c0,1.285,1.106,2.724,2.187,4.293c1.285,1.929,2.597,3.804,2.597,5.836
					c0,2.52-0.822,4.756-3.856,4.756c-3.574,0-4.037-2.7-4.037-5.503l2.726-0.256c0,1.568,0.155,3.214,1.312,3.214
					c0.822,0,1.131-0.9,1.131-2.083c0-1.26-1.183-2.776-2.236-4.37c-1.312-1.928-2.545-3.856-2.545-5.887
					C112.679,181.353,113.68,179.038,116.303,178.987z"/>
			</g>
			<g>
				<path fill="#475267" d="M18.899,143.944h6.351v2.854h-3.574v4.962h2.571v3.034h-2.571v5.191h3.574v2.855h-6.351V143.944z"/>
				<path fill="#475267" d="M35.749,143.944h2.7l-2.88,18.897h-2.777l-2.88-18.897h2.7L34,154.331l0.104,0.797h0.154l0.104-0.797
					L35.749,143.944z"/>
				<path fill="#475267" d="M43.412,143.944h6.351v2.854h-3.574v4.962h2.571v3.034h-2.571v5.191h3.574v2.855h-6.351V143.944z"/>
				<path fill="#475267" d="M59.844,162.842l-1.44-7.971h-0.745v7.971h-2.776v-18.897h2.776c3.29,0,4.73,1.903,4.73,5.451
					c0,1.877-0.489,3.574-1.544,4.293l1.775,9.153H59.844z M57.658,146.695v5.605c0.771,0,2.057-0.103,2.057-2.803
					C59.715,146.799,58.43,146.695,57.658,146.695z"/>
				<path fill="#475267" d="M70.618,149.985l0.076,0.182h0.053l0.076-0.182l1.389-6.041h2.726l-2.829,10.851v8.047h-2.776v-8.047
					l-2.828-10.851h2.726L70.618,149.985z"/>
				<path fill="#475267" d="M79.13,146.799v-2.854h8.022v2.854h-2.623v16.043h-2.776v-16.043H79.13z"/>
				<path fill="#475267" d="M97.129,154.613h-2.16v8.229h-2.776c0,0,0-18.77,0-18.897h2.776v7.816h2.16v-7.816h2.776v18.897h-2.776
					V154.613z"/>
				<path fill="#475267" d="M105.925,143.944h2.775v18.897h-2.775V143.944z"/>
				<path fill="#475267" d="M117.649,152.995l-0.231-0.875h-0.155v0.875v9.847h-2.545v-18.897h2.468l2.7,9.847l0.231,0.875h0.155
					v-0.875v-9.847h2.544v18.897h-2.468L117.649,152.995z"/>
				<path fill="#475267" d="M133.25,150.732v-2.905c0,0,0.053-1.39-0.925-1.39s-0.927,1.39-0.927,1.39v11.363
					c0,0-0.051,1.389,0.927,1.389s0.925-1.389,0.925-1.389v-3.42h-1.105v-2.34h3.882v9.411h-1.645l-0.334-0.9
					c-0.514,0.643-1.285,1.105-2.16,1.105c-3.521,0-3.266-4.088-3.266-4.088v-11.132c0,0-0.025-4.088,3.703-4.088
					c3.728,0,3.701,4.088,3.701,4.088v2.905H133.25z"/>
			</g>
		</g>
		<g>
			<path fill="#475267" d="M30.9,87.644c-0.123,1.35-1.178,5.104-5.963,5.104c-4.908,0-6.038-3.754-6.038-6.503
				c0-4.222,1.841-7.239,6.257-7.239c2.062,0,5.45,0.933,5.768,5.006h-3.484c-0.147-0.856-0.687-2.208-2.283-2.111
				c-2.158,0-2.723,2.162-2.723,3.78c0,1.424,0.048,4.245,2.65,4.245c1.74,0,2.33-1.668,2.33-2.281H30.9z"/>
			<path fill="#475267" d="M41.624,85.876c0,1.669-0.492,3.976-3.142,3.976c-2.651,0-3.142-2.307-3.142-3.976
				s0.49-3.978,3.142-3.978C41.132,81.898,41.624,84.207,41.624,85.876 M45.157,85.876c0-4.711-3.165-6.87-6.675-6.87
				s-6.675,2.159-6.675,6.87s3.165,6.871,6.675,6.871S45.157,90.587,45.157,85.876"/>
			<path fill="#475267" d="M58.629,92.403h-3.436v-7.927c0-0.955-0.049-2.577-2.232-2.577c-1.522,0-2.699,1.031-2.699,3.02v7.484
				h-3.437V79.349h3.289v1.914h0.05c0.466-0.785,1.447-2.257,3.926-2.257c2.553,0,4.539,1.497,4.539,4.367V92.403z"/>
			<polygon fill="#475267" points="74.311,77.899 64.96,77.899 64.96,81.605 73.548,81.605 73.548,84.722 64.96,84.722 
				64.96,89.288 74.728,89.288 74.728,92.404 61.352,92.404 61.352,74.783 74.311,74.783 			"/>
			<path fill="#475267" d="M79.487,85.974c0-2.061,0.736-4,2.92-4c2.356,0,2.944,2.111,2.944,4.197c0,1.939-0.857,3.754-3.042,3.754
				C80.102,89.925,79.487,87.521,79.487,85.974 M88.641,74.783h-3.436v6.259h-0.048c-0.541-0.834-1.574-2.036-3.782-2.036
				c-2.869,0-5.423,2.208-5.423,6.722c0,3.584,1.621,7.02,5.498,7.02c1.425,0,2.947-0.515,3.779-1.988h0.05v1.646h3.361V74.783z"/>
			<path fill="#475267" d="M94.506,92.403H91.07V79.349h3.436V92.403z M94.506,77.802H91.07v-3.189h3.436V77.802z"/>
			<path fill="#475267" d="M104.443,83.325c-0.146-0.836-0.442-1.72-2.306-1.72c-1.864,0-2.111,0.711-2.111,1.276
				c0,2.062,8.172,0.564,8.172,5.374c0,3.806-3.681,4.49-5.717,4.49c-2.972,0-6.185-1.03-6.282-4.515h3.534
				c0,1.104,0.688,1.914,2.846,1.914c1.768,0,2.185-0.858,2.185-1.35c0-2.183-8.1-0.54-8.1-5.423c0-1.914,1.203-4.368,5.277-4.368
				c2.55,0,5.596,0.638,5.865,4.32H104.443z"/>
			<path fill="#475267" d="M119.021,85.876c0,1.669-0.49,3.976-3.142,3.976s-3.141-2.307-3.141-3.976s0.489-3.978,3.141-3.978
				S119.021,84.207,119.021,85.876 M122.556,85.876c0-4.711-3.168-6.87-6.676-6.87c-3.509,0-6.674,2.159-6.674,6.87
				s3.165,6.871,6.674,6.871C119.388,92.747,122.556,90.587,122.556,85.876"/>
			<path fill="#475267" d="M136.026,92.403h-3.435v-7.927c0-0.955-0.049-2.577-2.234-2.577c-1.521,0-2.699,1.031-2.699,3.02v7.484
				h-3.435V79.349h3.289v1.914h0.048c0.465-0.785,1.446-2.257,3.926-2.257c2.554,0,4.54,1.497,4.54,4.367V92.403z"/>
			<path fill="#475267" d="M112.881,54.862H69.257c-12.884,0-23.367-10.479-23.367-23.365c0-12.883,10.483-23.367,23.367-23.367
				h43.624V0H69.257c-17.368,0-31.5,14.128-31.5,31.497C37.757,48.863,51.889,63,69.257,63h43.624V54.862z"/>
			<path fill="#475267" d="M51.83,31.565c0,9.979,8.121,18.104,18.105,18.104h42.886v-8.13H69.936c-5.496,0-9.973-4.476-9.973-9.975
				c0-5.504,4.477-9.979,9.973-9.979h42.886v-8.135H69.936C59.951,13.451,51.83,21.578,51.83,31.565"/>
			<path fill="#475267" d="M112.881,27.47H69.667c-2.244,0-4.062,1.819-4.062,4.062c0,2.247,1.818,4.066,4.062,4.066h43.214V27.47z"
				/>
		</g>
	</g>
	<path fill="#475267" d="M10.11,118.171c0,0.688-0.558,1.244-1.244,1.244c-0.688,0-1.245-0.556-1.245-1.244
		c0-0.687,0.558-1.244,1.245-1.244C9.553,116.927,10.11,117.484,10.11,118.171z M1.244,116.927c-0.687,0-1.244,0.558-1.244,1.244
		c0,0.688,0.558,1.244,1.244,1.244s1.244-0.556,1.244-1.244C2.488,117.484,1.931,116.927,1.244,116.927z M16.487,116.927
		c-0.687,0-1.243,0.558-1.243,1.244c0,0.688,0.557,1.244,1.243,1.244c0.688,0,1.244-0.556,1.244-1.244
		C17.731,117.484,17.176,116.927,16.487,116.927z M24.11,116.927c-0.687,0-1.245,0.558-1.245,1.244c0,0.688,0.559,1.244,1.245,1.244
		s1.244-0.556,1.244-1.244C25.354,117.484,24.797,116.927,24.11,116.927z M31.731,116.927c-0.688,0-1.245,0.558-1.245,1.244
		c0,0.688,0.558,1.244,1.245,1.244c0.687,0,1.243-0.556,1.243-1.244C32.975,117.484,32.418,116.927,31.731,116.927z M39.354,116.927
		c-0.687,0-1.244,0.558-1.244,1.244c0,0.688,0.558,1.244,1.244,1.244c0.688,0,1.243-0.556,1.243-1.244
		C40.597,117.484,40.041,116.927,39.354,116.927z M46.975,116.927c-0.686,0-1.244,0.558-1.244,1.244
		c0,0.688,0.559,1.244,1.244,1.244c0.688,0,1.244-0.556,1.244-1.244C48.219,117.484,47.662,116.927,46.975,116.927z M54.597,116.927
		c-0.687,0-1.244,0.558-1.244,1.244c0,0.688,0.558,1.244,1.244,1.244c0.688,0,1.244-0.556,1.244-1.244
		C55.841,117.484,55.284,116.927,54.597,116.927z M62.219,116.927c-0.687,0-1.244,0.558-1.244,1.244
		c0,0.688,0.558,1.244,1.244,1.244c0.688,0,1.244-0.556,1.244-1.244C63.463,117.484,62.906,116.927,62.219,116.927z M69.841,116.927
		c-0.687,0-1.244,0.558-1.244,1.244c0,0.688,0.558,1.244,1.244,1.244c0.688,0,1.244-0.556,1.244-1.244
		C71.085,117.484,70.528,116.927,69.841,116.927z M77.463,116.927c-0.687,0-1.244,0.558-1.244,1.244
		c0,0.688,0.558,1.244,1.244,1.244c0.688,0,1.244-0.556,1.244-1.244C78.707,117.484,78.15,116.927,77.463,116.927z M85.085,116.927
		c-0.687,0-1.244,0.558-1.244,1.244c0,0.688,0.558,1.244,1.244,1.244c0.688,0,1.244-0.556,1.244-1.244
		C86.329,117.484,85.772,116.927,85.085,116.927z M92.707,116.927c-0.687,0-1.244,0.558-1.244,1.244
		c0,0.688,0.558,1.244,1.244,1.244c0.688,0,1.244-0.556,1.244-1.244C93.951,117.484,93.395,116.927,92.707,116.927z
		 M100.329,116.927c-0.687,0-1.244,0.558-1.244,1.244c0,0.688,0.558,1.244,1.244,1.244c0.688,0,1.244-0.556,1.244-1.244
		C101.573,117.484,101.017,116.927,100.329,116.927z M107.951,116.927c-0.687,0-1.244,0.558-1.244,1.244
		c0,0.688,0.558,1.244,1.244,1.244c0.688,0,1.244-0.556,1.244-1.244C109.195,117.484,108.639,116.927,107.951,116.927z
		 M115.572,116.927c-0.687,0-1.243,0.558-1.243,1.244c0,0.688,0.557,1.244,1.243,1.244c0.688,0,1.244-0.556,1.244-1.244
		C116.816,117.484,116.261,116.927,115.572,116.927z M123.195,116.927c-0.687,0-1.244,0.558-1.244,1.244
		c0,0.688,0.558,1.244,1.244,1.244c0.688,0,1.244-0.556,1.244-1.244C124.439,117.484,123.883,116.927,123.195,116.927z
		 M130.816,116.927c-0.687,0-1.244,0.558-1.244,1.244c0,0.688,0.558,1.244,1.244,1.244c0.688,0,1.244-0.556,1.244-1.244
		C132.061,117.484,131.504,116.927,130.816,116.927z M138.438,116.927c-0.687,0-1.244,0.558-1.244,1.244
		c0,0.688,0.558,1.244,1.244,1.244c0.688,0,1.244-0.556,1.244-1.244C139.683,117.484,139.126,116.927,138.438,116.927z
		 M153.683,116.927c-0.687,0-1.244,0.558-1.244,1.244c0,0.688,0.558,1.244,1.244,1.244c0.688,0,1.244-0.556,1.244-1.244
		C154.927,117.484,154.37,116.927,153.683,116.927z M146.062,116.927c-0.687,0-1.245,0.558-1.245,1.244
		c0,0.688,0.559,1.244,1.245,1.244s1.243-0.556,1.243-1.244C147.305,117.484,146.748,116.927,146.062,116.927z"/>
</g>
</svg>
