<?xml version="1.0" encoding="utf-8"?>
<!-- Generator: Adobe Illustrator 16.0.4, SVG Export Plug-In . SVG Version: 6.00 Build 0)  -->
<!DOCTYPE svg PUBLIC "-//W3C//DTD SVG 1.1//EN" "http://www.w3.org/Graphics/SVG/1.1/DTD/svg11.dtd">
<svg version="1.1" id="without_tagline" xmlns="http://www.w3.org/2000/svg" xmlns:xlink="http://www.w3.org/1999/xlink" x="0px"
	 y="0px" width="500px" height="152.207px" viewBox="0 0 500 152.207" enable-background="new 0 0 500 152.207"
	 xml:space="preserve">
<g>
	<g>
		<rect x="160.695" y="112.348" fill="#475267" width="4.393" height="30.639"/>
		<g>
			<path fill="#475267" d="M171.126,120.597h3.995v3.561h0.088c1.231-2.55,4.214-4.085,7.331-4.085c5.796,0,8.385,3.596,8.385,9.609
				v13.306h-4.127v-11.587c0-5.225-1.142-7.774-4.741-7.994c-4.697,0-6.802,3.772-6.802,9.221v10.36h-4.128V120.597z"/>
			<path fill="#475267" d="M195.138,138.595c1.625,1.057,3.949,1.583,5.134,1.583c1.89,0,4.218-0.791,4.218-3.204
				c0-4.082-9.704-3.729-9.704-10.008c0-4.654,3.471-6.894,7.904-6.894c1.93,0,3.507,0.392,5.135,0.877l-0.355,3.6
				c-0.917-0.568-3.379-1.144-4.344-1.144c-2.106,0-3.95,0.877-3.95,2.723c0,4.563,9.705,3.25,9.705,10.403
				c0,4.783-3.822,6.98-7.818,6.98c-2.106,0-4.258-0.219-6.144-1.23L195.138,138.595z"/>
			<path fill="#475267" d="M224.404,123.405c-4.483,0-6.629,4.262-6.629,8.429c0,3.733,1.933,8.343,6.582,8.343
				c4.437,0,6.277-4.963,6.191-8.476C230.634,127.667,228.876,123.405,224.404,123.405 M213.189,120.597h3.951v3.161h0.086
				c1.101-1.665,3.646-3.686,7.598-3.686c6.49,0,9.656,5.312,9.656,11.328c0,6.139-2.854,12.112-9.616,12.112
				c-3.95,0-6.19-1.536-7.459-3.6h-0.088v12.295h-4.128V120.597z"/>
		</g>
		<path fill="#475267" d="M238.922,120.597h4.13v22.39h-4.13V120.597z M243.312,115.595h-4.65v-4.657h4.65V115.595z"/>
		<g>
			<path fill="#475267" d="M249.457,120.597h3.866v3.467h0.086c1.097-2.327,3.467-3.992,5.837-3.992
				c1.229,0,1.841,0.133,2.726,0.309v3.683c-0.744-0.306-1.582-0.396-2.287-0.396c-3.686,0-6.103,3.51-6.103,9.13v10.188h-4.125
				V120.597z"/>
			<path fill="#475267" d="M279.414,129.638c0-3.42-2.023-6.232-5.58-6.232c-4.038,0-5.707,3.341-6.013,6.232H279.414z
				 M282.084,142.062c-1.575,0.575-3.373,1.449-7.06,1.449c-7.95,0-11.594-4.83-11.594-12.115c0-6.627,4.174-11.324,10.49-11.324
				c7.46,0,9.875,5.445,9.875,12.647h-15.975c0,4.427,3.469,7.458,7.376,7.458c2.723,0,5.883-1.406,6.887-2.24V142.062z"/>
			<path fill="#475267" d="M297.036,140.178c4.655,0,6.589-4.61,6.589-8.343c0-4.167-2.151-8.429-6.63-8.429
				c-4.476,0-6.237,4.218-6.144,8.296C290.758,135.215,292.606,140.178,297.036,140.178 M303.805,139.825h-0.094
				c-1.097,1.668-3.646,3.686-7.639,3.686c-6.76,0-9.612-6.013-9.612-12.115c0-6.013,3.163-11.324,9.659-11.324
				c3.905,0,6.143,1.536,7.412,3.6h0.094V110.06h4.124v32.926h-3.944V139.825z"/>
		</g>
		<polygon fill="#475267" points="325.485,112.348 332.731,112.348 342.34,137.808 351.78,112.348 359.022,112.348 359.022,142.986 
			354.632,142.986 354.632,116.472 354.542,116.472 344.408,142.986 340.104,142.986 329.959,116.472 329.872,116.472 
			329.872,142.986 325.485,142.986 		"/>
		<g>
			<path fill="#475267" d="M378.904,129.638c0-3.42-2.018-6.232-5.577-6.232c-4.039,0-5.707,3.341-6.013,6.232H378.904z
				 M381.584,142.062c-1.583,0.575-3.385,1.449-7.07,1.449c-7.943,0-11.589-4.83-11.589-12.115c0-6.627,4.175-11.324,10.488-11.324
				c7.466,0,9.875,5.445,9.875,12.647h-15.974c0,4.427,3.467,7.458,7.372,7.458c2.726,0,5.883-1.406,6.897-2.24V142.062z"/>
			<path fill="#475267" d="M396.767,140.178c4.649,0,6.584-4.61,6.584-8.343c0-4.167-2.153-8.429-6.624-8.429
				c-4.484,0-6.235,4.218-6.149,8.296C390.491,135.215,392.332,140.178,396.767,140.178 M403.53,139.825h-0.097
				c-1.094,1.668-3.643,3.686-7.635,3.686c-6.757,0-9.612-6.013-9.612-12.115c0-6.013,3.161-11.324,9.655-11.324
				c3.906,0,6.146,1.536,7.423,3.6h0.086V110.06h4.125v32.926h-3.945V139.825z"/>
		</g>
		<path fill="#475267" d="M413.754,120.597h4.133v22.39h-4.133V120.597z M418.146,115.595h-4.65v-4.657h4.65V115.595z"/>
		<g>
			<path fill="#475267" d="M438.287,124.376c-1.579-0.666-3.161-0.971-4.478-0.971c-4.61,0-7.199,4.132-7.199,8.39
				c0,3.996,2.15,8.383,7.458,8.383c1.41,0,3.161-0.439,4.438-1.27l0.306,3.686c-1.712,0.791-3.687,0.917-5.183,0.917
				c-6.761,0-11.41-5.315-11.41-11.716c0-6.807,4.563-11.723,11.41-11.723c1.669,0,3.819,0.392,5.01,0.877L438.287,124.376z"/>
		</g>
		<path fill="#475267" d="M443.627,120.597h4.125v22.39h-4.125V120.597z M448.015,115.595h-4.646v-4.657h4.646V115.595z"/>
		<path fill="#475267" d="M453.477,120.597h3.999v3.561h0.086c1.226-2.55,4.214-4.085,7.334-4.085c5.79,0,8.383,3.596,8.383,9.609
			v13.306h-4.129v-11.587c0-5.225-1.14-7.774-4.739-7.994c-4.698,0-6.802,3.772-6.802,9.221v10.36h-4.132V120.597z"/>
		<path fill="#475267" d="M492.484,129.638c0-3.42-2.017-6.232-5.57-6.232c-4.038,0-5.714,3.341-6.02,6.232H492.484z
			 M495.164,142.062c-1.582,0.575-3.384,1.449-7.07,1.449c-7.94,0-11.583-4.83-11.583-12.115c0-6.627,4.168-11.324,10.49-11.324
			c7.454,0,9.867,5.445,9.867,12.647h-15.974c0,4.427,3.467,7.458,7.379,7.458c2.719,0,5.876-1.406,6.891-2.24V142.062z"/>
	</g>
	<g>
		<path fill="#475267" d="M97.906,78.364c1.152,0.46,1.036,2.877-0.231,3.337c-4.945-0.23-9.431-0.345-14.031-0.345
			c-5.407,0-10.353,0.115-15.414,0.345c-0.921-0.46-1.38-2.646-0.231-3.337l3.107-0.575c4.6-0.806,4.946-1.611,4.946-9.433V21.312
			h-0.231c-3.104,6.326-4.715,9.778-6.902,14.381l-9.892,20.243c-3.909,8.051-9.662,20.817-11.732,26.226
			c-0.46,0.46-2.185,0.46-2.99,0c-1.955-6.214-6.902-17.484-9.546-23.234L24.52,36.84c-2.186-4.83-5.292-12.076-6.67-15.528h-0.231
			c-0.229,5.639-0.459,14.607-0.69,19.44c-0.23,7.016-0.46,17.254-0.46,26.687c0,7.591,0.114,9.313,5.062,10.234l3.796,0.69
			c0.805,0.69,0.805,2.877-0.115,3.337c-4.255-0.23-7.821-0.345-12.078-0.345c-3.681,0-7.821,0.115-12.309,0.345
			c-1.034-0.575-1.034-2.762-0.343-3.337l1.955-0.23c5.521-0.69,6.325-2.417,7.132-9.432c0.805-7.247,1.151-14.723,1.726-26.683
			c0.459-7.825,1.149-17.369,1.149-24.385c0-5.405-1.724-7.709-6.211-8.513l-3.91-0.688C1.63,7.626,1.746,5.439,2.781,5.094
			c3.45,0.23,6.557,0.345,10.813,0.345c4.025,0,8.052,0,12.307-0.345c0.46,6.9,3.336,12.884,6.327,19.095l12.652,26.568
			c0.92,1.957,3.911,7.71,5.407,10.353c1.84-3.333,3.335-6.556,5.981-11.964L67.08,27.062c3.68-7.591,7.361-14.374,9.317-21.968
			c3.104,0.23,6.9,0.345,9.431,0.345c4.832,0,8.857-0.115,12.078-0.345c1.265,0.46,1.495,2.647,0.346,3.337l-3.796,0.575
			c-5.062,0.804-6.212,2.643-6.212,8.741c0,17.021,0.23,34.044,1.035,51.068c0.345,7.707,1.61,8.397,5.291,8.973L97.906,78.364z"/>
		<path fill="#475267" d="M126.354,78.364c7.936,0,10.236-9.429,10.236-18.286c0-9.663-3.335-21.052-11.848-21.052
			c-5.866,0-10.467,5.98-10.467,18.75C114.274,68.245,118.072,78.364,126.354,78.364 M150.164,58.122
			c0,16.333-11.503,24.846-25.19,24.846c-13.229,0-24.272-8.397-24.272-23.468c0-15.413,11.732-25.076,25.192-25.076
			C138.891,34.423,150.164,43.166,150.164,58.122"/>
		<path fill="#475267" d="M172.774,67.669c0,8.508,0.46,9.889,4.371,10.468l1.726,0.227c0.804,0.806,0.688,2.877-0.232,3.337
			c-4.025-0.23-7.937-0.345-12.191-0.345c-3.681,0-7.592,0.115-12.422,0.345c-0.922-0.46-1.036-2.531-0.23-3.337l2.531-0.345
			c3.91-0.576,4.37-1.841,4.37-10.35V50.757c0-5.175,0-6.556-2.875-8.278l-1.381-0.806c-0.345-0.46-0.345-2.071,0.114-2.646
			c4.946-1.381,11.274-4.143,14.954-6.21c0.805,0,1.266,0.46,1.496,0.92c-0.23,2.183-0.23,4.37-0.23,5.29
			c0,0.806,0.345,1.036,1.035,1.151c5.407-2.992,8.627-5.754,15.76-5.754c9.316,0,13.687,6.444,13.687,15.417v17.83
			c0,8.508,0.46,9.889,4.372,10.35l2.644,0.345c0.806,0.806,0.689,2.877-0.23,3.337c-4.831-0.23-8.741-0.345-12.999-0.345
			c-3.795,0-7.706,0.115-11.731,0.345c-0.92-0.46-1.036-2.531-0.229-3.337l1.725-0.227c3.91-0.579,4.37-1.96,4.37-10.468V51.792
			c0-5.865-2.3-10.464-9.202-10.464c-3.565,0-6.441,1.837-7.591,3.563c-1.495,2.071-1.61,3.107-1.61,7.365V67.669z"/>
		<path fill="#475267" d="M232.835,41.098c-2.072,0-2.186,0.23-2.186,3.909v17.714c0,7.246,1.034,13.687,8.396,13.687
			c2.301,0,3.681-0.805,5.521-2.071c1.036,0.119,1.726,1.036,1.496,2.302c-2.301,3.222-7.592,6.329-14.61,6.329
			c-10.926,0-12.881-6.329-12.881-14.377V45.237c0-4.024-0.229-4.139-2.069-4.139h-4.026c-1.152-0.575-1.382-2.417-0.347-3.107
			c3.913-1.496,6.557-2.992,9.088-4.83c2.185-1.611,4.714-4.028,6.325-7.131c1.036-0.69,2.645-0.346,3.221,0.575v6.901
			c0,1.837,0,2.183,2.185,2.183h11.389c0.689,0.345,0.919,1.266,0.919,2.417c-0.116,1.381-0.576,2.417-1.496,2.992H232.835z"/>
		<path fill="#475267" d="M273.493,49.495c3.333,0,4.833-0.349,5.635-0.806c0.692-0.46,1.154-1.381,1.154-2.417
			c0-4.139-2.65-7.476-7.595-7.476c-7.705,0-11.272,7.476-11.272,9.893c0,0.457,0.232,0.806,1.609,0.806H273.493z M262.911,54.094
			c-2.185,0-2.415,0.115-2.415,1.496c0,10.354,7.132,18.632,17.369,18.632c4.6,0,8.394-1.493,11.04-5.75
			c1.151-0.341,2.417,0.806,2.532,1.841c-3.913,9.203-12.421,12.655-19.438,12.655c-13.344,0-22.2-9.893-22.2-23.008
			c0-12.997,8.856-25.533,24.27-25.533c8.512,0,17.254,5.521,17.254,15.528c0,1.036-0.115,1.723-0.575,2.643
			c-0.69,1.036-3.337,1.496-7.937,1.496H262.911z"/>
		<path fill="#475267" d="M481.459,49.495c3.337,0,4.833-0.349,5.639-0.806c0.69-0.46,1.151-1.381,1.151-2.417
			c0-4.139-2.647-7.476-7.596-7.476c-7.706,0-11.27,7.476-11.27,9.893c0,0.457,0.229,0.806,1.61,0.806H481.459z M470.88,54.094
			c-2.19,0-2.417,0.115-2.417,1.496c0,10.354,7.131,18.632,17.365,18.632c4.604,0,8.4-1.493,11.044-5.75
			c1.15-0.341,2.417,0.806,2.531,1.841c-3.912,9.203-12.424,12.655-19.437,12.655c-13.345,0-22.204-9.893-22.204-23.008
			c0-12.997,8.859-25.533,24.271-25.533c8.513,0,17.255,5.521,17.255,15.528c0,1.036-0.115,1.723-0.576,2.643
			c-0.69,1.036-3.337,1.496-7.937,1.496H470.88z"/>
		<path fill="#475267" d="M318.265,41.439c-2.415,0-2.415,0.233-2.415,3.567v22.663c0,8.508,0.458,9.774,4.486,10.234l4.484,0.46
			c0.806,0.806,0.69,2.877-0.229,3.337c-5.177-0.23-9.665-0.345-15.069-0.345c-3.796,0-7.705,0.115-12.421,0.345
			c-0.921-0.46-1.036-2.531-0.232-3.337l2.532-0.345c3.91-0.576,4.369-1.841,4.369-10.35V44.892c0-3.104-0.113-3.452-2.07-3.452
			h-4.141c-0.921-0.457-1.148-1.953-0.344-2.643l4.945-2.532c0.806-0.457,1.609-1.147,1.609-2.528v-2.071
			c0-4.948,0.46-10.583,2.414-16.448c2.992-9.087,10.699-16.104,21.513-16.104c7.937,0,13.111,3.565,13.111,8.399
			c0,3.218-2.874,5.519-5.636,5.519c-1.726,0-2.646-0.69-3.337-1.607c-3.679-5.293-6.21-7.594-8.973-7.594
			c-3.908,0-7.014,7.821-7.014,25.075v3.452c0,3.452,0.115,3.679,2.529,3.679h12.076c0.464,0.346,0.69,1.036,0.69,1.841
			c0,1.957-0.69,2.989-1.607,3.564H318.265z"/>
		<path fill="#475267" d="M341.305,16.939c0-3.909,2.873-6.898,7.013-6.898c4.143,0,7.02,2.989,7.02,6.898
			c0,3.913-2.877,6.905-7.02,6.905C344.178,23.844,341.305,20.852,341.305,16.939 M354.736,67.669c0,8.508,0.46,9.663,4.369,10.35
			l2.071,0.345c0.806,0.806,0.69,2.877-0.23,3.337c-4.254-0.23-8.167-0.345-12.425-0.345c-3.793,0-7.702,0.115-12.075,0.345
			c-0.921-0.46-1.036-2.531-0.23-3.337l2.071-0.345c3.913-0.687,4.369-1.841,4.369-10.35V50.757c0-5.175,0-6.556-2.873-8.278
			l-1.381-0.806c-0.345-0.46-0.345-2.071,0.115-2.646c5.98-1.726,11.73-4.258,14.952-6.21c0.69,0.115,1.267,0.345,1.611,0.92
			c-0.229,3.794-0.345,9.314-0.345,14.032V67.669z"/>
		<path fill="#475267" d="M390.916,78.364c7.937,0,10.237-9.429,10.237-18.286c0-9.663-3.333-21.052-11.846-21.052
			c-5.868,0-10.468,5.98-10.468,18.75C378.84,68.245,382.638,78.364,390.916,78.364 M414.726,58.122
			c0,16.333-11.501,24.846-25.188,24.846c-13.229,0-24.272-8.397-24.272-23.468c0-15.413,11.733-25.076,25.189-25.076
			C403.455,34.423,414.726,43.166,414.726,58.122"/>
		<path fill="#475267" d="M425.259,50.757c0-5.175,0-6.556-2.874-8.278l-1.381-0.806c-0.345-0.46-0.345-2.071,0.115-2.646
			c4.944-1.611,11.04-4.143,14.492-6.21c0.69,0,1.381,0.345,1.611,1.036c-0.115,2.183-0.23,4.139-0.23,5.175
			c0,0.806,0.461,1.381,1.151,1.381c3.563-2.532,7.357-5.984,11.27-5.984c4.028,0,6.326,2.647,6.326,5.639
			c0,4.484-3.334,6.671-6.441,6.671c-1.15,0-2.186-0.345-3.103-0.92c-2.877-1.953-4.83-2.187-5.524-2.187
			c-2.643,0-3.337,2.646-3.337,8.282v15.762c0,8.508,0.464,9.774,4.488,10.234l4.484,0.46c0.806,0.806,0.69,2.877-0.227,3.337
			c-6.905-0.23-10.811-0.345-15.068-0.345c-3.797,0-7.595,0.115-11.964,0.345c-0.921-0.46-1.036-2.531-0.227-3.337l2.067-0.345
			c3.909-0.687,4.37-1.841,4.37-10.35V50.757z"/>
	</g>
</g>
</svg>
