<?xml version="1.0" encoding="utf-8"?>
<!-- Generator: Adobe Illustrator 16.0.4, SVG Export Plug-In . SVG Version: 6.00 Build 0)  -->
<!DOCTYPE svg PUBLIC "-//W3C//DTD SVG 1.1//EN" "http://www.w3.org/Graphics/SVG/1.1/DTD/svg11.dtd">
<svg version="1.1" id="Layer_1" xmlns="http://www.w3.org/2000/svg" xmlns:xlink="http://www.w3.org/1999/xlink" x="0px" y="0px"
	 width="1584px" height="633.286px" viewBox="0 0 1584 633.286" enable-background="new 0 0 1584 633.286" xml:space="preserve">
<path fill="#475267" d="M1582.479,30.038v58.641h-148.554c-10.026-21.977-23.895-41.833-40.799-58.641H1582.479z M532.911,483.59
	c0,86.553-62.103,147.57-147.933,147.57c-85.85,0-147.942-61.02-147.942-147.57c0-80.875,70.935-137.623,147.942-137.623
	C461.913,345.967,532.911,402.715,532.911,483.59z M460.523,483.948c0-36.904-34.034-70.604-75.545-70.604
	c-41.522,0-75.557,33.699-75.557,70.604c0,46.143,34.034,79.793,75.557,79.793C426.49,563.741,460.523,530.09,460.523,483.948z
	 M1375.091,466.881h-104.534v51.143h39.459v53.408c-6.17,3.098-14.854,4.65-23.889,4.65c-49.162,0-84.283-32.15-84.283-85.18
	c0-63.125,44.85-87.531,99.506-87.531c15.862,0,40.494,4.273,61.464,17.479l5.417-58.904
	c-24.581-10.056-59.666-11.996-76.316-11.996c-92.639,0-159.553,39.106-159.553,140.953c0,102.232,77.785,138.629,145.08,138.629
	c23.175,0,54.985-0.771,97.649-12.395V466.881z M1581.048,404.024v-56.781h-175.416V624.85h175.416v-56.734H1470.93v-56.557h105.305
	v-56.777H1470.93v-50.758H1581.048L1581.048,404.024z M1123.091,404.024v-56.781H947.677V624.85h175.414v-56.734h-110.118v-56.557
	h95.188v-56.777h-95.188v-50.758H1123.091L1123.091,404.024z M821.004,347.354h-69.739v277.574h173.034v-61.094H821.004V347.354z
	 M624.841,347.354h-69.766v277.574H728.11v-61.094h-103.27V347.354z M224.113,524.342c-12.995,25.002-38.141,40.982-66.819,40.982
	c-41.859,0-76.202-33.996-76.202-80.496c0-37.209,34.343-71.209,76.202-71.209c28.678,0,53.824,15.977,66.819,37.984v-91.09
	c-20.518-9.555-43.38-14.857-66.819-14.857c-77.636,0-149.172,57.25-149.172,138.826c0,87.281,62.605,148.803,149.172,148.803
	c24.517,0,46.992-5.111,66.819-14.158V524.342z M8.952,296.384h65.443L95.56,143.091h0.654l58.078,153.292h26.178l60.722-153.292
	h0.679l18.463,153.292h65.784L287.863,30.038h-65.461L168.039,172.38L116.685,30.038H51.919L8.952,296.384z M624.918,158.276
	c0,86.186-61.836,146.93-147.303,146.93c-85.475,0-147.312-60.744-147.312-146.93c0-80.536,70.647-137.058,147.312-137.058
	C554.255,21.218,624.918,77.74,624.918,158.276z M552.837,158.621c0-36.726-33.895-70.307-75.222-70.307
	c-41.354,0-75.248,33.581-75.248,70.307c0,45.947,33.894,79.458,75.248,79.458C518.942,238.079,552.837,204.568,552.837,158.621z
	 M644.038,296.384h65.851V133.195h0.681l120.645,163.188h65.874V30.038h-65.874v162.861h-0.669L709.888,30.038h-65.851
	L644.038,296.384L644.038,296.384z M1263.092,286.178c60.406,0,109.342-54.941,109.342-122.734
	c0-67.772-48.936-122.734-109.342-122.734c44.236,0,80.07,53.905,80.07,120.313c0,66.467-35.991,125.19-80.195,125.19
	L1263.092,286.178z M1137.324,162.866c0-75.344,56.13-136.44,125.377-136.44c19.507,0,37.998,4.838,54.472,13.49
	c2.818,1.23,5.535,2.521,8.312,3.998c-56.591-49.971-139.839-46.33-192.457,10.956c-56.257,61.208-56.257,160.439,0,221.594
	c56.214,61.23,147.398,61.23,203.663,0c3.546-3.893,6.942-7.983,10.095-12.194c-0.509,0.394-0.989,0.762-1.445,1.179
	c-22.057,21.062-50.98,33.891-82.639,33.891C1193.454,299.339,1137.324,238.214,1137.324,162.866z M1428.347,166.184
	c0-82.578-60.837-151.324-141.271-166.197c64.06,21.731,110.683,88.262,110.683,166.988c0,74.882-42.174,138.695-101.31,163.492
	C1372.15,312.135,1428.347,245.586,1428.347,166.184z M1111.561,296.384h-42.812l-65.302-102.424h-0.723v102.424h-69.229V30.038
	h103.488c28.077,0,52.45,7.227,69.148,22.505c-24.588,33.053-39.171,74.042-39.171,118.43
	C1066.961,218.541,1083.707,262.178,1111.561,296.384z M1057.461,116.241c0-28.988-25.416-33.234-48.074-33.234h-6.663v66.433h6.663
	C1032.045,149.44,1057.461,145.197,1057.461,116.241z M1573.91,191.807v-58.611h-125.752c2.355,12.229,3.614,24.864,3.614,37.777
	c0,7.046-0.363,13.987-1.06,20.834H1573.91z M1407.181,296.384h175.298v-58.635h-142.217
	C1432.598,259.246,1421.325,279.036,1407.181,296.384z"/>
</svg>
