<?xml version="1.0" encoding="utf-8"?>
<!-- Generator: Adobe Illustrator 16.0.4, SVG Export Plug-In . SVG Version: 6.00 Build 0)  -->
<!DOCTYPE svg PUBLIC "-//W3C//DTD SVG 1.1//EN" "http://www.w3.org/Graphics/SVG/1.1/DTD/svg11.dtd">
<svg version="1.1" id="Layer_1" xmlns="http://www.w3.org/2000/svg" xmlns:xlink="http://www.w3.org/1999/xlink" x="0px" y="0px"
	 width="500px" height="104.247px" viewBox="0 0 500 104.247" enable-background="new 0 0 500 104.247" xml:space="preserve">
<g>
	<path fill="#475267" d="M81.365,94.077c-23.17,0-41.954-18.781-41.954-41.955c0-23.17,18.784-41.953,41.954-41.953
		c8.167,0,15.79,2.333,22.236,6.37L81.365,52.122l41.86-24.167c-4.545-7.252-11.069-13.5-18.976-18.238
		C94.229,3.713,80.271,0,64.839,0C42.806,0,23.494,7.989,12.714,19.977C4.75,28.833,0,39.994,0,52.122
		c0,12.13,4.749,23.292,12.713,32.149c10.805,12.017,29.831,19.976,51.488,19.976c21.658,0,40.676-7.967,51.489-19.976
		c0.589-0.658,1.163-1.328,1.72-2.007l-1.643-6.125C108.186,86.985,95.603,94.077,81.365,94.077z"/>
	<path fill="#475267" d="M220.131,101.704L202.569,36.17c-2.828-10.58-12.476-18.375-23.948-18.375c-2.979,0-5.835,0.528-8.48,1.491
		l-37.822,13.768h38.902l6.652,24.819c-6.453-5.562-14.853-8.93-24.042-8.93c-18.257,0-33.055,12.238-33.055,27.333
		c0,15.097,14.798,27.334,33.055,27.334c13.135,0,24.766-6.429,31.929-16.31l3.858,14.402H220.131L220.131,101.704z M166.545,91.534
		c-8.426,0-15.256-6.83-15.256-15.256c0-8.425,6.83-15.255,15.256-15.255c8.425,0,15.255,6.83,15.255,15.255
		C181.8,84.704,174.97,91.534,166.545,91.534z"/>
	<path fill="#475267" d="M291.768,17.797c-2.303,0-4.485,0.512-6.444,1.429L261.05,30.544c-1.196-7.231-7.473-12.748-15.046-12.748
		c-2.304,0-4.488,0.512-6.446,1.429l-29.652,13.827h20.841v68.65h30.513V40.68c0-4.211,3.414-7.627,7.627-7.627
		c4.215,0,7.629,3.416,7.629,7.627v61.023h30.512V33.054C307.025,24.627,300.195,17.797,291.768,17.797z"/>
	<path fill="#475267" d="M483.104,17.797c-2.303,0-4.487,0.512-6.446,1.429l-24.273,11.318c-1.196-7.231-7.475-12.748-15.045-12.748
		c-2.306,0-4.49,0.512-6.45,1.429L401.24,33.052h20.842v68.65h30.514V40.68c0-4.211,3.411-7.627,7.627-7.627
		c4.215,0,7.626,3.416,7.626,7.627l0.002,61.023h30.511V33.054C498.359,24.627,491.531,17.797,483.104,17.797z"/>
	<path fill="#475267" d="M406.188,61.023c0,23.872-19.35,43.224-43.224,43.224c-23.872,0-43.224-19.352-43.224-43.224
		c0-23.874,19.352-43.226,43.224-43.226C386.839,17.797,406.188,37.149,406.188,61.023z M364.771,30.926
		c-1.364-5.088-6.594-8.106-11.678-6.744c-5.088,1.363-8.107,6.59-6.743,11.678l14.807,55.26c1.362,5.09,6.593,8.106,11.68,6.741
		c5.087-1.362,8.105-6.589,6.742-11.676L364.771,30.926z"/>
</g>
</svg>
