<?xml version="1.0" encoding="utf-8"?>
<!-- Generator: Adobe Illustrator 16.0.4, SVG Export Plug-In . SVG Version: 6.00 Build 0)  -->
<!DOCTYPE svg PUBLIC "-//W3C//DTD SVG 1.1//EN" "http://www.w3.org/Graphics/SVG/1.1/DTD/svg11.dtd">
<svg version="1.1" id="Layer_1" xmlns="http://www.w3.org/2000/svg" xmlns:xlink="http://www.w3.org/1999/xlink" x="0px" y="0px"
	 width="500px" height="375.911px" viewBox="0 0 500 375.911" enable-background="new 0 0 500 375.911" xml:space="preserve">
<title>logo-abc</title>
<g>
	<path fill-rule="evenodd" clip-rule="evenodd" d="M102.321,215.211c7.6,0.012,13.772-6.139,13.784-13.739
		c0.002-2.207-0.562-4.264-1.484-6.115c-2.247-4.521-6.862-7.659-12.254-7.668c-7.601-0.014-13.771,6.139-13.784,13.738
		c-0.006,3.444,1.3,6.557,3.39,8.977C94.49,213.317,98.167,215.202,102.321,215.211z"/>
	<g>
		<path fill-rule="evenodd" clip-rule="evenodd" fill="#475267" d="M30.806,188.256c-2.765,1.162-5.242,2.804-6.841,5.57
			c-1.848,3.206-2.733,6.657-2.052,10.282c0.532,2.874,1.627,5.38,3.608,7.583c0.954,1.057,1.949,1.876,3.144,2.708
			c1.313,0.916,2.692,1.356,4.111,1.803c4.719,1.487,9.808,0.11,13.615-3.178c6.526-5.642,6.444-15.984,0.273-21.858
			C42.396,187.106,36.05,186.054,30.806,188.256z"/>
		<path fill-rule="evenodd" clip-rule="evenodd" fill="#475267" d="M100.271,187.043c-8.5,1.338-14.187,9.729-12.145,18.174
			c1.095,4.548,4.038,8.053,8.139,9.979c5.566,2.619,12.199,1.611,16.73-2.732c3.444-3.301,4.958-7.883,4.42-12.547
			C116.482,191.874,108.65,185.722,100.271,187.043z"/>
		<path fill-rule="evenodd" clip-rule="evenodd" fill="#475267" d="M312.178,0C237.473,0,173.063,44.011,143.06,107.592
			c-12.491-5.435-26.271-8.466-40.763-8.466C45.801,99.126,0,144.929,0,201.429s45.801,102.296,102.298,102.296
			c19.128,0,37.021-5.262,52.335-14.398c33.274,52.062,91.379,86.584,157.545,86.584c103.349,0,187.13-84.15,187.13-187.955
			S415.526,0,312.178,0z M313.513,45.846c41.855,0,79.487,18.164,105.513,47.071H208.001
			C234.027,64.01,271.656,45.846,313.513,45.846z M67.565,232.817c-5.428-0.326-10.872,0.37-16.294-0.329
			c-0.171-2.807-0.018-5.611-0.03-8.417c-3.074,5.626-9.128,8.571-15.333,8.935c-12.387,0.732-23.74-7.783-28.232-19.04
			c-3.217-8.081-3.196-17.069,0.285-25.035c4.426-10.125,14.267-17.16,25.292-18.296c11.735-1.207,23.371,4.239,29.749,14.397
			c2.457,3.924,4.144,8.036,4.633,12.641L67.565,232.817z M131,215.677c-6.208,12.578-20.169,19.913-34.127,17.042
			c-5.602-1.153-10.53-3.272-14.829-7.046c-4.637-4.062-7.823-8.942-9.649-14.775c-1.211-3.879-1.521-7.845-1.432-11.839
			l-0.067-50.739h16.986l-0.248,30.374c2.798-3.912,6.765-6.782,11.701-7.812c11.289-2.352,21.732,3.228,28.619,11.977
			C135.438,192.385,136.253,205.037,131,215.677z M166.044,233.103c-7.034-0.391-13.539-3.252-18.836-7.976
			c-7.024-6.253-10.627-15.359-10.309-24.595c0.474-13.965,10.619-26.522,24.825-29.674c16.835-3.743,34.686,7.339,37.401,23.916
			c-5.801,0.081-11.594,0.017-17.388-0.12c-3.509-6.708-11.888-9.477-18.818-6.807c-6.08,2.346-9.719,8.656-9.275,15.006
			c0.36,5.128,3.379,9.937,8.119,12.215c3.741,1.797,8.008,2.042,11.878,0.605c3.584-1.336,6.352-4.028,8.255-7.296
			c5.804,0.233,15.777-0.025,17.206,0.125c-1.605,7.448-5.777,13.86-12.181,18.577C180.644,231.703,173.488,233.515,166.044,233.103
			z M279.222,327.348c-39.235-9.758-71.994-35.902-90.79-70.759c10.217-15.917,16.167-34.839,16.167-55.16
			c0-23.071-7.643-44.354-20.525-61.466H349.14C332.472,152.449,267.138,209.414,279.222,327.348z M327.854,330.816L326.159,327
			c0,0-26.387-142.963,121.086-187.013c5.488,15.201,8.486,31.601,8.486,48.706C455.731,262.719,399.665,323.594,327.854,330.816z"
			/>
	</g>
</g>
</svg>
