<?xml version="1.0" encoding="utf-8"?>
<!-- Generator: Adobe Illustrator 19.2.0, SVG Export Plug-In . SVG Version: 6.00 Build 0)  -->
<svg version="1.1" id="Layer_1" xmlns="http://www.w3.org/2000/svg" xmlns:xlink="http://www.w3.org/1999/xlink" x="0px" y="0px"
	 viewBox="0 0 480 256" style="enable-background:new 0 0 480 256;" xml:space="preserve">
<style type="text/css">
	.st0{fill:#475267;}
</style>
<path class="st0" d="M0,253c1.8-0.1,3-0.4,3.5-0.8c0.5-0.5,0.8-1.5,0.8-3.2V229c0-1.6-0.3-2.7-0.8-3.2C3,225.4,1.8,225.1,0,225v-0.8
	h12.5c3.6,0,6.4,0.6,8.5,1.7c2.1,1.2,3.2,3.1,3.2,5.9c0,2.1-0.7,3.7-2.2,4.8c-0.8,0.6-2.1,1.1-3.7,1.6c2.1,0.5,3.8,1.3,5.3,2.5
	c1.5,1.2,2.2,2.8,2.2,4.9c0,3.5-1.6,5.9-4.8,7.2c-1.7,0.7-3.8,1-6.3,1H0V253z M16.8,236.7c1.9-0.9,2.8-2.4,2.8-4.7
	c0-2.7-1.1-4.5-3.3-5.4c-1.2-0.5-3-0.8-5.5-0.8c-0.9,0-1.5,0.1-1.7,0.2c-0.2,0.2-0.3,0.6-0.3,1.3v10.1l4.3-0.1
	C14.6,237.4,15.8,237.2,16.8,236.7z M18.3,250.8c1.5-0.9,2.3-2.6,2.3-5.1c0-2.5-0.9-4.2-2.7-5.1c-1.8-0.9-4.1-1.4-6.9-1.4
	c-0.7,0-1.1,0-1.3,0c-0.2,0-0.5,0-0.8,0v11.1c0,0.8,0.2,1.3,0.7,1.5c0.4,0.2,1.4,0.3,3,0.3C14.8,252.2,16.7,251.7,18.3,250.8z
	 M31.8,253c1.6-0.2,2.7-0.5,3.2-0.9c0.5-0.4,0.7-1.5,0.7-3.1V229c0-1.6-0.2-2.6-0.7-3.1c-0.5-0.5-1.6-0.8-3.2-0.9v-0.8h23.8l0.2,6.4
	h-1.1c-0.4-2-0.9-3.2-1.7-3.8c-0.8-0.6-2.4-0.9-5.1-0.9h-6.1c-0.7,0-1.1,0.1-1.2,0.3c-0.2,0.2-0.2,0.6-0.2,1.2v10h6.9
	c1.9,0,3.1-0.3,3.6-0.8c0.5-0.6,0.9-1.7,1.3-3.4h1v10.3h-1c-0.3-1.7-0.8-2.9-1.3-3.4c-0.5-0.6-1.7-0.8-3.6-0.8h-6.9v11.1
	c0,0.9,0.3,1.4,0.8,1.6c0.6,0.2,2.2,0.2,5,0.2c3,0,5.3-0.3,6.7-1c1.4-0.7,2.7-2.3,3.9-4.8H58l-2,7.6H31.8V253z M61.4,253
	c1.6-0.2,2.7-0.5,3.2-0.9c0.5-0.4,0.7-1.5,0.7-3.1V229c0-1.6-0.2-2.6-0.7-3.1s-1.6-0.8-3.2-0.9v-0.8h23.8l0.2,6.4h-1.1
	c-0.4-2-0.9-3.2-1.7-3.8c-0.8-0.6-2.4-0.9-5.1-0.9h-6.1c-0.7,0-1.1,0.1-1.2,0.3c-0.2,0.2-0.2,0.6-0.2,1.2v10h6.9
	c1.9,0,3.1-0.3,3.6-0.8c0.5-0.6,0.9-1.7,1.3-3.4h1v10.3h-1c-0.3-1.7-0.8-2.9-1.3-3.4c-0.5-0.6-1.7-0.8-3.6-0.8h-6.9v11.1
	c0,0.9,0.3,1.4,0.8,1.6c0.6,0.2,2.2,0.2,5,0.2c3,0,5.3-0.3,6.7-1c1.4-0.7,2.7-2.3,3.9-4.8h1.2l-2,7.6H61.4V253z M93.6,253
	c1.7-0.2,2.8-0.5,3.2-1c0.4-0.5,0.6-1.7,0.6-3.5V229c0-1.6-0.2-2.6-0.7-3.1c-0.5-0.5-1.5-0.8-3.1-0.9v-0.8H106c2.6,0,4.7,0.3,6.4,1
	c3.3,1.2,4.9,3.5,4.9,6.8c0,2.2-0.7,3.9-2.2,5.1c-1.4,1.2-3.4,2-5.9,2.4l9.2,11.4c0.6,0.7,1.1,1.2,1.7,1.5s1.3,0.5,2.2,0.6v0.8h-7.2
	L104,240l-2,0.1v8.8c0,1.7,0.3,2.7,0.8,3.1c0.5,0.4,1.6,0.7,3.3,0.9v0.8H93.6V253z M108.9,237.4c2.4-1,3.6-2.8,3.6-5.5
	c0-2.6-1.1-4.4-3.2-5.3c-1.1-0.5-2.6-0.8-4.5-0.8c-1.3,0-2,0.1-2.3,0.3c-0.3,0.2-0.4,0.6-0.4,1.3v11
	C105.2,238.3,107.5,238,108.9,237.4z M135.7,253c1.6-0.2,2.7-0.5,3.2-0.9c0.5-0.4,0.7-1.5,0.7-3.1V229c0-1.6-0.2-2.7-0.7-3.1
	c-0.5-0.5-1.6-0.8-3.2-0.9v-0.8h12.1c4.1,0,7.5,0.7,10.3,2c5.1,2.4,7.6,6.7,7.6,12.9c0,2.2-0.5,4.3-1.4,6.4c-0.9,2-2.3,3.7-4.1,5.1
	c-1.2,0.9-2.4,1.5-3.6,2c-2.3,0.8-5.1,1.3-8.4,1.3h-12.4V253z M144.7,251.8c0.4,0.2,1.1,0.3,2.2,0.3c3.5,0,6.4-0.7,8.6-2.1
	c3.5-2.1,5.2-5.8,5.2-10.9c0-4.6-1.4-8-4.3-10.4c-2.4-2-5.7-3-9.7-3c-1,0-1.7,0.1-2,0.3c-0.4,0.2-0.5,0.7-0.5,1.4v22.8
	C144.2,251.1,144.4,251.5,144.7,251.8z M170.3,253c1.8-0.1,3-0.4,3.5-0.8c0.5-0.4,0.8-1.5,0.8-3.2V229c0-1.6-0.3-2.7-0.8-3.2
	c-0.5-0.5-1.7-0.8-3.5-0.8v-0.8h13.2v0.8c-1.8,0.1-3,0.4-3.5,0.8c-0.5,0.5-0.8,1.5-0.8,3.2v19.9c0,1.7,0.3,2.8,0.8,3.2
	c0.5,0.4,1.7,0.7,3.5,0.8v0.8h-13.2V253z M188.7,244.8c0.8,2,1.6,3.6,2.7,4.8c1.8,2.1,4,3.1,6.6,3.1c1.4,0,2.7-0.5,3.7-1.4
	c1-0.9,1.6-2.2,1.6-3.8c0-1.5-0.5-2.7-1.6-3.8c-0.7-0.7-2.1-1.7-4.3-3.1l-3.8-2.4c-1.1-0.7-2.1-1.5-2.7-2.2c-1.3-1.4-1.9-3-1.9-4.7
	c0-2.3,0.7-4.1,2.2-5.6c1.5-1.5,3.5-2.2,6-2.2c1,0,2.2,0.3,3.7,0.8c1.4,0.5,2.3,0.8,2.5,0.8c0.6,0,0.9-0.1,1.1-0.4
	c0.2-0.3,0.4-0.6,0.5-1.1h0.9l1,9.5h-1.1c-0.7-2.9-1.9-4.9-3.5-6c-1.6-1.1-3.2-1.7-4.8-1.7c-1.2,0-2.3,0.4-3.2,1.1
	c-0.9,0.7-1.4,1.7-1.4,3c0,1.1,0.3,2.1,1,3c0.7,0.8,1.8,1.7,3.3,2.6l3.9,2.4c2.5,1.5,4.2,2.9,5.2,4.2c1,1.3,1.5,2.8,1.5,4.5
	c0,2.3-0.9,4.3-2.7,5.9c-1.8,1.6-4,2.4-6.8,2.4c-1.4,0-2.8-0.3-4.3-0.8c-1.5-0.5-2.4-0.8-2.6-0.8c-0.5,0-0.9,0.2-1.1,0.5
	c-0.2,0.3-0.3,0.7-0.4,1h-1l-1.3-9.5H188.7z M213.8,224.2h25.3l0.2,7.6h-1.1c-0.5-2.4-1.2-3.9-2-4.7c-0.8-0.7-2.5-1.1-5.1-1.1h-2.5
	v22.9c0,1.7,0.3,2.8,0.8,3.2c0.5,0.4,1.7,0.7,3.5,0.8v0.8h-13V253c1.9-0.1,3.1-0.5,3.5-0.9c0.5-0.5,0.7-1.7,0.7-3.6V226h-2.5
	c-2.5,0-4.2,0.4-5.1,1.1c-0.9,0.7-1.6,2.3-2,4.7h-1.1L213.8,224.2z M244.8,253c1.7-0.2,2.8-0.5,3.2-1c0.4-0.5,0.6-1.7,0.6-3.5V229
	c0-1.6-0.2-2.6-0.7-3.1c-0.5-0.5-1.5-0.8-3.1-0.9v-0.8h12.4c2.6,0,4.7,0.3,6.4,1c3.3,1.2,4.9,3.5,4.9,6.8c0,2.2-0.7,3.9-2.2,5.1
	s-3.4,2-5.9,2.4l9.2,11.4c0.6,0.7,1.1,1.2,1.7,1.5c0.6,0.3,1.3,0.5,2.2,0.6v0.8h-7.2L255.1,240l-2,0.1v8.8c0,1.7,0.3,2.7,0.8,3.1
	c0.5,0.4,1.6,0.7,3.3,0.9v0.8h-12.4V253z M260.1,237.4c2.4-1,3.6-2.8,3.6-5.5c0-2.6-1.1-4.4-3.2-5.3c-1.1-0.5-2.6-0.8-4.5-0.8
	c-1.3,0-2,0.1-2.3,0.3c-0.3,0.2-0.4,0.6-0.4,1.3v11C256.4,238.3,258.7,238,260.1,237.4z M277.1,253c1.8-0.1,3-0.4,3.5-0.8
	c0.5-0.4,0.8-1.5,0.8-3.2V229c0-1.6-0.3-2.7-0.8-3.2c-0.5-0.5-1.7-0.8-3.5-0.8v-0.8h13.2v0.8c-1.8,0.1-3,0.4-3.5,0.8
	c-0.5,0.5-0.8,1.5-0.8,3.2v19.9c0,1.7,0.3,2.8,0.8,3.2c0.5,0.4,1.7,0.7,3.5,0.8v0.8h-13.2V253z M295.2,253c1.8-0.1,3-0.4,3.5-0.8
	c0.5-0.5,0.8-1.5,0.8-3.2V229c0-1.6-0.3-2.7-0.8-3.2c-0.5-0.5-1.7-0.8-3.5-0.8v-0.8h12.5c3.6,0,6.4,0.6,8.5,1.7
	c2.1,1.2,3.2,3.1,3.2,5.9c0,2.1-0.7,3.7-2.2,4.8c-0.8,0.6-2.1,1.1-3.7,1.6c2.1,0.5,3.8,1.3,5.3,2.5c1.5,1.2,2.2,2.8,2.2,4.9
	c0,3.5-1.6,5.9-4.8,7.2c-1.7,0.7-3.8,1-6.3,1h-14.6V253z M312,236.7c1.9-0.9,2.8-2.4,2.8-4.7c0-2.7-1.1-4.5-3.3-5.4
	c-1.2-0.5-3-0.8-5.5-0.8c-0.9,0-1.5,0.1-1.7,0.2c-0.2,0.2-0.3,0.6-0.3,1.3v10.1l4.3-0.1C309.7,237.4,311,237.2,312,236.7z
	 M313.4,250.8c1.5-0.9,2.3-2.6,2.3-5.1c0-2.5-0.9-4.2-2.7-5.1c-1.8-0.9-4.1-1.4-6.9-1.4c-0.7,0-1.1,0-1.3,0c-0.2,0-0.5,0-0.8,0v11.1
	c0,0.8,0.2,1.3,0.7,1.5c0.4,0.2,1.4,0.3,3,0.3C310,252.2,311.9,251.7,313.4,250.8z M338,224.2v0.8c-1.7,0.1-2.8,0.4-3.3,0.9
	c-0.5,0.5-0.8,1.5-0.8,3.2v14.3c0,2.3,0.3,4.2,1,5.5c1.2,2.4,3.5,3.6,6.8,3.6c3.7,0,6.1-1.2,7.4-3.7c0.7-1.4,1-3.5,1-6.3v-11.6
	c0-2.4-0.3-4-0.9-4.6c-0.6-0.6-1.7-1-3.3-1.2v-0.8h10.4v0.8c-1.7,0.2-2.9,0.6-3.4,1.3c-0.5,0.6-0.8,2.1-0.8,4.5v11.6
	c0,3.1-0.5,5.5-1.4,7.2c-1.7,3.2-5.1,4.8-10,4.8c-4.8,0-8.1-1.6-9.9-4.7c-0.9-1.7-1.4-3.9-1.4-6.7v-14c0-1.6-0.3-2.7-0.8-3.1
	c-0.5-0.5-1.6-0.8-3.3-0.9v-0.8H338z M359.2,224.2h25.3l0.2,7.6h-1.1c-0.5-2.4-1.2-3.9-2-4.7c-0.8-0.7-2.5-1.1-5.1-1.1h-2.5v22.9
	c0,1.7,0.3,2.8,0.8,3.2c0.5,0.4,1.7,0.7,3.5,0.8v0.8h-13V253c1.9-0.1,3.1-0.5,3.5-0.9c0.5-0.5,0.7-1.7,0.7-3.6V226h-2.5
	c-2.5,0-4.2,0.4-5.1,1.1c-0.9,0.7-1.6,2.3-2,4.7h-1.1L359.2,224.2z M394.7,227.5c2.8-2.6,6.1-4,10.2-4c4,0,7.4,1.3,10.2,4
	c3,2.9,4.5,6.7,4.5,11.5c0,4.9-1.5,8.7-4.6,11.6c-2.8,2.6-6.1,3.8-10,3.8c-4.2,0-7.7-1.4-10.4-4.3c-2.8-2.9-4.2-6.6-4.2-11.2
	C390.2,234.2,391.7,230.4,394.7,227.5z M398,249.4c1.9,2.2,4.1,3.4,6.8,3.4c2.6,0,4.9-1.1,6.8-3.3c1.9-2.2,2.8-5.7,2.8-10.5
	c0-4.9-0.9-8.4-2.8-10.6c-1.9-2.2-4.1-3.3-6.7-3.3c-2.7,0-5,1.1-6.8,3.4c-1.9,2.2-2.8,5.7-2.8,10.5
	C395.3,243.7,396.2,247.2,398,249.4z M425.7,253c1.7-0.2,2.8-0.5,3.2-1c0.4-0.5,0.6-1.7,0.6-3.5V229c0-1.6-0.2-2.6-0.7-3.1
	c-0.5-0.5-1.5-0.8-3.1-0.9v-0.8h12.4c2.6,0,4.7,0.3,6.4,1c3.3,1.2,4.9,3.5,4.9,6.8c0,2.2-0.7,3.9-2.2,5.1s-3.4,2-5.9,2.4l9.2,11.4
	c0.6,0.7,1.1,1.2,1.7,1.5c0.6,0.3,1.3,0.5,2.2,0.6v0.8h-7.2L436,240l-2,0.1v8.8c0,1.7,0.3,2.7,0.8,3.1c0.5,0.4,1.6,0.7,3.3,0.9v0.8
	h-12.4V253z M441,237.4c2.4-1,3.6-2.8,3.6-5.5c0-2.6-1.1-4.4-3.2-5.3c-1.1-0.5-2.6-0.8-4.5-0.8c-1.3,0-2,0.1-2.3,0.3
	c-0.3,0.2-0.4,0.6-0.4,1.3v11C437.3,238.3,439.6,238,441,237.4z M459.3,244.8c0.8,2,1.6,3.6,2.7,4.8c1.8,2.1,4,3.1,6.6,3.1
	c1.4,0,2.7-0.5,3.7-1.4c1-0.9,1.6-2.2,1.6-3.8c0-1.5-0.5-2.7-1.6-3.8c-0.7-0.7-2.1-1.7-4.3-3.1l-3.8-2.4c-1.1-0.7-2.1-1.5-2.8-2.2
	c-1.3-1.4-1.9-3-1.9-4.7c0-2.3,0.7-4.1,2.2-5.6c1.5-1.5,3.5-2.2,6-2.2c1,0,2.2,0.3,3.7,0.8c1.4,0.5,2.3,0.8,2.5,0.8
	c0.6,0,0.9-0.1,1.1-0.4c0.2-0.3,0.4-0.6,0.5-1.1h0.9l1,9.5h-1.1c-0.7-2.9-1.9-4.9-3.5-6c-1.6-1.1-3.2-1.7-4.8-1.7
	c-1.2,0-2.3,0.4-3.2,1.1c-0.9,0.7-1.4,1.7-1.4,3c0,1.1,0.3,2.1,1,3c0.7,0.8,1.8,1.7,3.3,2.6l3.9,2.4c2.5,1.5,4.2,2.9,5.2,4.2
	c1,1.3,1.5,2.8,1.5,4.5c0,2.3-0.9,4.3-2.7,5.9c-1.8,1.6-4,2.4-6.8,2.4c-1.4,0-2.8-0.3-4.3-0.8c-1.5-0.5-2.4-0.8-2.6-0.8
	c-0.5,0-0.9,0.2-1.1,0.5c-0.2,0.3-0.3,0.7-0.4,1h-1l-1.3-9.5H459.3z M212.4,215.4v-84.5h7.6v84.5h46.3l3.3-23h18.7l3.3,23h39.1V88
	H343v127.4h34.2l5.1-23h18.7l5.1,23h29.2V174l16.8,41.4h27V36.3l-20.6,18.8v45.5L441.9,60H421v77.2L403.6,60h-1.1v-2.8h-2.7v-2.4
	h-1.1v-1.5h-1.6V30.9c0-1.3-1.1-2.4-2.4-2.4s-2.4,1.1-2.4,2.4v22.5h-1.6v1.5h-1.1v2.4H387v2.5H282.4l-2.2-19.3h-1.4v-2.7h-1.3v-1.8
	h-1.8L274,4.1l-1.7,31.8h-1.8v1.8h-1.3v2.7h-1.4L265.6,60h-3.3L248.6,148V1.2H220v109.3h-7.6V1.2h-28.6v214.3H212.4z M392.2,115.1
	l9.6,47.4h-19.2L392.2,115.1z M363.3,88h13.5l-13.5,61.1V88z M306.8,88V157L292.2,88H306.8z M277.7,115.1l8.4,47.4h-16.9
	L277.7,115.1z M26.2,215.4v-22.1l7.3,22.1H43l7.3-22.1v22.1h33.4l3.6-23h18.7l3.6,23h37.6v-32.4l12.2,32.4H179V59.8h-20.6v33.5
	l-13.6-33.5h-11.7l-11.6,11.6v69.2L106.9,38h-1.4v-2.6h-3.4v-33c0-1.3-1.1-2.4-2.4-2.4c-1.3,0-2.4,1.1-2.4,2.4v33H94V38h-1.4
	l-17,118.7V59.8h-25L38.2,85.1L25.8,59.8h-25v155.7H26.2z M98.6,115.1l8.4,47.4H90.2L98.6,115.1z"/>
</svg>
