<?xml version="1.0" encoding="utf-8"?>
<!-- Generator: Adobe Illustrator 21.0.0, SVG Export Plug-In . SVG Version: 6.00 Build 0)  -->
<svg version="1.1" id="Layer_1" xmlns="http://www.w3.org/2000/svg" xmlns:xlink="http://www.w3.org/1999/xlink" x="0px" y="0px"
	 viewBox="0 0 675.8 267.5" style="enable-background:new 0 0 675.8 267.5;" xml:space="preserve">
<style type="text/css">
	.st0{fill:#003868;stroke:#003868;stroke-width:0.381;}
	.st1{fill:#002B54;}
</style>
<path class="st0" d="M395,146.1"/>
<path class="st1" d="M196.4,143l1-0.2c-2.5-11.6-2.9-13.9-3.5-20.6c0,0-15.3-8.9-23.2-11.7c-3.3-1.2-6-1.9-8.5-2.5l0.4,10
	C177.4,122.7,192.1,131.6,196.4,143"/>
<path class="st1" d="M78.3,141.2c-2.4-5-3.3-6.9-3.3-6.9c-11.7,13.8-19.1,32.2-19.1,54c0,47.6,34,79.2,83.8,79.2
	c17.8,0,30.1-4,39.1-6.7l20.5-6.8l4.9-25.9l-1-0.6c-2.9,6.1-5.7,9.9-14.5,16.6c-12.3,9.5-29.1,14.5-45.1,14.5
	c-40.8,0-71.3-31-71.3-70.6c0-14.4,3.5-27.7,9.8-39C82.1,149.1,80.7,146.2,78.3,141.2"/>
<path class="st1" d="M21.1,18.5c0.5,3.6,0.5,8,0.3,13L18,138.1c-0.4,9.9-0.6,19.8-13.1,20.6v1.1h38.8v-1.1
	c-12.9-2.3-12.7-8-12.1-23.8l3.1-94.1c0,0-3.9-8.2-7.4-14C23.3,20.1,21.1,18.5,21.1,18.5"/>
<path class="st1" d="M102.7,122.7l40-89.7h0.4l3.9,101.8c0.8,20-4.1,22.3-12.5,24v1.1h46.3v-1.1c-16.6-2.7-17-10.5-17.6-27
	l-0.5-13.8l-0.4-10l-3-79.5c-0.8-21.9,8.8-24.5,18.4-25.7V1.8h-31.8L97.2,110.5L102.7,122.7"/>
<g>
	<path class="st1" d="M0,0.6c0,0,20.5,5.3,29.4,17.8c11.1,15.4,20.4,43.1,35.2,77.1c16.6,37.9,30.4,71,48.9,90.6
		c23.3,24.7,39.2,21.6,39.2,21.6s-11.4-6-27.1-28.9c-20.6-30.1-42.5-84.6-60.2-126.6c-12.6-30-23.8-47-41.9-50.7
		C11.3-1.2,0,0.6,0,0.6"/>
</g>
<g>
	<path class="st1" d="M198,121.1v-3.2l3.8-0.3c2.7-0.1,4.5-0.7,5.2-1.3c1.4-1.3,1.7-3.9,1.7-17.4V49.5c0-8.6-0.1-12.6-0.6-14.9
		c-0.4-2.7-1.7-3.5-6.3-3.8l-3.8-0.3v-3.2h61.1c1,5.5,1.5,11.7,1.5,17.1c0,1.3,0,2.1-0.1,4.2l-3.4,0.6c-2-9.6-3.2-12.8-6-14.9
		c-2.5-2-6.5-2.5-17.4-2.5h-11.8v38.1H234c4.1,0,7.6-0.1,10.1-0.6c3.2-0.4,4.6-1.7,5.1-5.5l0.6-5.2h3.7v26.8h-3.7l-0.7-4.9
		c-0.4-3-1.1-4.1-2.5-4.8c-1.8-0.8-5.8-1.3-12.1-1.3h-12.5v40.8c7.4,1.4,10.5,1.8,16.2,1.8c7.5,0,13.5-1.1,17.3-3.4
		c2.1-1.1,3.8-3,5.1-5.2c1.8-3.4,2.2-4.8,3.9-11.7l3.5,0.6c-0.6,5.9-1,8.3-2,13.1c-0.8,4.2-1.4,6-2.8,10.5H198z"/>
	<path class="st1" d="M301.2,98.9v5.2l0.1,5.2c0.1,6.9,0.8,7.9,6.6,8.3l3.8,0.3v3.2h-34.4v-3.2l3.8-0.3c2.7-0.1,4.5-0.7,5.2-1.3
		c1-1,1.4-2.8,1.5-7c0.1-4.2,0.1-7.4,0.1-10.4V49.5c0-1.7,0-3.4,0-5.2c-0.1-6.8-0.1-7.7-0.6-9.7c-0.4-2.7-1.7-3.5-6.3-3.8l-3.8-0.3
		v-3.2h36.3c10.8,0,15.6,0.8,21.5,3.7c7.2,3.4,11.4,10.4,11.4,18.8c0,6.9-2.7,13.1-7.7,17.8c-3.4,3.4-5.2,4.6-11.4,7.9
		c1.3,2.7,2.3,4.5,3,5.8c4.4,8.7,9,16.4,15.2,25.9c3.9,5.9,6.3,8.4,9.4,9.8c1.7,0.7,2.8,0.8,6,0.8v3.2h-11
		c-10.3,0-15.7-5.3-26.3-25.2l-4.9-9.3c-1.3-2.3-2.4-3.8-3.5-4.8c-1.8-1.4-3-1.5-8.9-1.5h-5.2V98.9z M309.3,75.8
		c5.5,0,8.7-0.4,11.8-1.8c6.9-2.9,11.5-11.2,11.5-20.5c0-13.6-8.6-21.5-23.2-21.5c-2.8,0-4.4,0.1-8.3,0.7v43.1H309.3z"/>
	<path class="st1" d="M445,93.8c-0.6,5.9-1,8.2-2.2,13.2c-1.3,5.1-1.8,6.8-3.7,11c-4.2,1.8-5.8,2.4-9.7,3.2
		c-6,1.4-14.2,2.2-20.7,2.2c-32,0-51.7-18.6-51.7-48.6c0-30.5,20.7-49.8,53.4-49.8c6.2,0,13.2,0.7,19.3,2.2c3.9,1,5.5,1.6,9.4,3.5
		c1,4.2,1.3,5.9,1.7,10.3c0.4,4.1,0.6,5.9,0.6,10.8l-3.8,0.8c-1.1-5.2-1.5-6.7-2.9-9.8c-3.8-8.7-12.4-13.2-24.9-13.2
		c-23.8,0-37.8,15.7-37.8,42c0,28.7,14.8,46.9,37.7,46.9c7.4,0,14.3-1.7,18.8-4.8c1.8-1.3,3.5-3,4.9-4.8c3.5-4.5,4.9-7.4,7.7-16
		L445,93.8z"/>
	<path class="st1" d="M532.3,27.3v3.2l-3.7,0.7c-2.5,0.4-3.9,1.3-5.5,3.2c-3.1,3.7-8.4,12.4-15.2,24.2
		c-6.2,11.1-10.4,19.4-11.4,22.6c-0.8,3.2-1.4,8.3-1.4,15.3v2.2c0,8.6,0.1,12.4,0.6,14.6c0.4,2.5,1.4,3.2,4.9,3.5l1.6,0.3l6,0.7v3.1
		h-39.3V118l6.2-0.7c2.4-0.3,2.7-0.3,3.5-0.6c2.5-0.6,3.1-2.1,3.2-7.6l0.1-5.2v-5.1v-1.4c0-7,0-8.4-0.4-10.4
		c-0.4-1.7-1.1-3.7-2.1-5.9c-2.5-5.3-7.7-15.3-11.1-21.2L460.5,46c-1.5-2.7-3.1-5.5-4.5-8.3c-2.4-4.5-3.7-5.5-7.9-6.5l-3.2-0.7v-3.2
		h36v3.2l-7.3,1.3c-1.5,0.3-2.5,0.6-2.7,0.6c-1,0.1-1.7,1-1.7,1.7c0,0.7,0.3,1.5,0.8,2.4c0.1,0.6,1,2.1,2.2,4.8
		c1,2.4,3.2,6.7,6.6,13.1c7.3,14.2,8.2,15.7,13.1,23.5c5.1-9,6.6-11.8,12.5-23.7c2.5-5.1,4.4-8.9,5.8-11.8c2.5-5.5,3-6.6,3-7.9
		c0-1.4-1.1-2.1-4.8-2.7l-7.2-1.1v-3.2H532.3z"/>
	<path class="st1" d="M299.4,179.8c0,28.5-19.9,48.1-48.8,48.1c-28.2,0-46.5-18.1-46.5-46.2c0-27.7,20.7-47.8,49-47.8
		C280.9,133.8,299.4,152.3,299.4,179.8z M218.6,179.1c0,26.9,13.6,44.3,34.7,44.3c19.6,0,31.8-15.3,31.8-40
		c0-27-13.7-45.1-34.1-45.1C231.3,138.3,218.6,154.4,218.6,179.1z"/>
	<path class="st1" d="M303.4,225.6v-3l3.6-0.4c2.6-0.3,4.3-0.5,5-1.2c1.3-1.2,1.6-3.8,1.6-16.7v-47.2c0-8.2-0.1-12.1-0.5-14.2
		c-0.4-2.6-1.6-3.4-6-3.6l-3.6-0.3V136h34.7v3.1l-5.4,0.7l-1.5,0.1c-3.2,0.3-4.2,1.1-4.6,3.4c-0.3,2.1-0.4,5.9-0.4,14v63
		c7,1.3,9.8,1.6,14.9,1.6c8.1,0,14.1-1.3,17.2-4c2.5-2.1,5-7.5,6.9-15l3.6,0.5c-0.8,6-1.1,8.1-1.7,11.6c-0.9,4.7-1.5,6.4-3,10.7
		H303.4z"/>
	<path class="st1" d="M374.4,225.6v-3l3.6-0.4c2.5-0.3,4.3-0.5,5-1.2c1.3-1.2,1.6-3.8,1.6-16.7v-47.2c0-8.2-0.1-12.1-0.5-14.2
		c-0.4-2.6-1.6-3.4-6-3.6l-3.6-0.3V136H409v3.1l-5.4,0.7l-1.5,0.1c-3.2,0.3-4.2,1.1-4.6,3.4c-0.3,2.1-0.4,5.9-0.4,14v63
		c7,1.3,9.8,1.6,14.9,1.6c8.1,0,14.1-1.3,17.2-4c2.6-2.1,5-7.5,6.8-15l3.6,0.5c-0.8,6-1.1,8.1-1.7,11.6c-0.9,4.7-1.5,6.4-3,10.7
		H374.4z"/>
	<path class="st1" d="M445.3,225.6v-3.1l3.6-0.3c2.6-0.1,4.3-0.7,5-1.2c1.3-1.2,1.6-3.8,1.6-16.7v-47.2c0-8.2-0.1-12.1-0.5-14.2
		c-0.4-2.6-1.6-3.4-6-3.6l-3.6-0.3V136h58.4c0.9,5.2,1.5,11.2,1.5,16.4c0,1.2,0,2-0.1,4l-3.2,0.5c-1.9-9.1-3.1-12.2-5.8-14.2
		c-2.4-1.9-6.2-2.4-16.7-2.4h-11.3v36.4h11.6c3.9,0,7.3-0.1,9.7-0.5c3.1-0.4,4.4-1.6,4.8-5.2l0.5-5h3.5v25.7h-3.5l-0.7-4.7
		c-0.4-2.8-1.1-3.9-2.4-4.6c-1.8-0.8-5.5-1.2-11.6-1.2h-12v39c7.1,1.3,10.1,1.7,15.5,1.7c7.1,0,12.9-1.1,16.5-3.2
		c2-1.1,3.6-2.8,4.8-5c1.8-3.2,2.2-4.6,3.8-11.2l3.4,0.5c-0.5,5.6-0.9,7.9-1.9,12.5c-0.8,4-1.3,5.8-2.7,10.1H445.3z"/>
	<path class="st1" d="M605.2,195.2v3.1l-3,0.3c-4,0.4-4.6,1.4-4.6,9.8c0,4.8,0.3,8.1,0.8,9.1c0.1,0.4,0.5,0.5,1.3,0.5h1.5l0.9,2.7
		c-7.8,3.2-11,4.2-19.1,5.6c-5.8,1-11,1.5-15.9,1.5c-9.7,0-18.9-1.7-26.2-5c-15.3-6.7-25.3-23.1-25.3-41.8
		c-0.1-29,20.4-47.3,52.9-47.3c10.7,0,19.2,1.5,25.8,4.7c1.2,4.4,1.6,6,2.3,10.9c0.5,4.4,0.7,6.2,0.9,10.6l-4,0.5
		c-0.9-5.5-1.5-7.4-3.2-10.6c-4-7.8-12.2-11.7-24.3-11.7c-23.2,0-36.1,14.6-36.1,40.8c0,27.5,15.2,44.2,40.4,44.2
		c5.6,0,8.1-0.3,14.4-1.5v-11.1l-0.1-4.6c-0.1-3.4-0.4-4.8-1.7-5.8c-0.9-0.7-1.5-0.8-5-1.2l-7.3-0.8v-3.1H605.2z"/>
	<path class="st1" d="M609,225.6v-3.1l3.6-0.3c2.5-0.1,4.3-0.7,5-1.2c1.4-1.2,1.6-3.8,1.6-16.7v-47.2c0-8.2-0.1-12.1-0.5-14.2
		c-0.4-2.6-1.6-3.4-6-3.6l-3.6-0.3V136h58.4c0.9,5.2,1.5,11.2,1.5,16.4c0,1.2,0,2-0.1,4l-3.2,0.5c-1.9-9.1-3.1-12.2-5.8-14.2
		c-2.4-1.9-6.2-2.4-16.7-2.4h-11.3v36.4h11.6c3.9,0,7.3-0.1,9.7-0.5c3.1-0.4,4.4-1.6,4.8-5.2l0.5-5h3.5v25.7h-3.5l-0.7-4.7
		c-0.4-2.8-1.1-3.9-2.4-4.6c-1.7-0.8-5.5-1.2-11.5-1.2h-12v39c7.1,1.3,10.1,1.7,15.4,1.7c7.1,0,12.9-1.1,16.5-3.2
		c2-1.1,3.6-2.8,4.8-5c1.7-3.2,2.1-4.6,3.8-11.2l3.4,0.5c-0.5,5.6-0.9,7.9-1.9,12.5c-0.8,4-1.3,5.8-2.7,10.1H609z"/>
</g>
</svg>
