<svg id="Layer_1" data-name="Layer 1" xmlns="http://www.w3.org/2000/svg" viewBox="0 0 612 426.41"><defs><style>.cls-1{fill:#475267;}</style></defs><title>logo-arcwear</title><path class="cls-1" d="M469.56,256.51l-35.13-32.37a19.62,19.62,0,0,1-4.5-7.32L374.83,29.59c1.16-.36,3.58-0.91,4.74-1.31a111.84,111.84,0,0,0,17.69-8,124.39,124.39,0,0,0,12.06-7.74c1.36-1,2.7-2,4-3,0.86-.63,1.65-0.95,1.47-2.21-0.19-1.44-2.94-5.35-3.5-6-1.08-1.18-3.1.28-4.23,0.79s-2.18.93-3.3,1.36A77.79,77.79,0,0,1,396.2,6c-3,.8-6.05,1.44-9.12,2-3.61.65-7.25,1.17-10.89,1.61-4.29.52-8.6,0.92-12.91,1.26-5,.38-10.1.69-15.15,0.92-5.88.28-11.76,0.47-17.65,0.61q-10.17.24-20.36,0.31-8,.06-16,0.06t-16-.06q-10.18-.08-20.36-0.31c-5.89-.15-11.77-0.34-17.65-0.61-5.05-.23-10.11-0.54-15.15-0.92-4.31-.33-8.62-0.74-12.91-1.26-3.64-.44-7.28-1-10.89-1.61-3.07-.55-6.11-1.2-9.12-2a77.83,77.83,0,0,1-7.6-2.4c-1.12-.42-2.21-0.87-3.3-1.36s-3.15-2-4.23-.79c-0.57.62-3.32,4.53-3.5,6C173.2,8.68,174,9,174.85,9.63c1.35,1,2.69,2,4,3A124.46,124.46,0,0,0,191,20.33a111.84,111.84,0,0,0,17.69,8c1.16,0.4,3.57.94,4.74,1.31l-55.1,187.23a19.62,19.62,0,0,1-4.5,7.32l-35.13,32.37c-1.58,1.87-.89,3.11,1.53,2.74l38.34-5.68a7.62,7.62,0,0,0,5.7-4.88L193,154c0.71-2.34,2.17-2.45,3.24-.27l41.92,86.09a7.81,7.81,0,0,0,6.4,4h7.18a7.8,7.8,0,0,0,6.4-4s35.9-73.74,36-73.87c0.09,0.13,36,73.87,36,73.87a7.8,7.8,0,0,0,6.4,4h7.18a7.81,7.81,0,0,0,6.4-4L392,153.7c1.07-2.18,2.53-2.07,3.24.27L424,248.69a7.62,7.62,0,0,0,5.7,4.88L468,259.25C470.45,259.61,471.14,258.38,469.56,256.51ZM224.29,44.21A17.69,17.69,0,0,1,225,42.3c0.18-.43.31-0.88,0.52-1.3s0.54-.88.8-1.33a18.68,18.68,0,0,1,1-1.64,20.89,20.89,0,0,1,16.8-8.62H344A20.89,20.89,0,0,1,360.82,38a18.69,18.69,0,0,1,1,1.64c0.26,0.44.56,0.86,0.8,1.33s0.34,0.87.52,1.3a17.59,17.59,0,0,1,.75,1.91L367.68,57H220.52Zm148.06,78.64h0a29.13,29.13,0,0,1,3.67,30.54l-3.82,7.83L342,223.28c-1.07,2.2-2.83,2.2-3.9,0l-32.21-66.16-3.77-7.74,10-20.53v0.08c0.07-.16.18-0.3,0.25-0.46h0a29.19,29.19,0,0,1,26.32-16.59v-9H297.14v9h7.17l-10.21,21-10.2-21h7.17v-9H249.46v9a29.19,29.19,0,0,1,26.32,16.59h0c0.07,0.16.18,0.29,0.25,0.46v-0.08l10,20.53-3.77,7.74-32.21,66.16c-1.07,2.2-2.83,2.2-3.9,0L216,161.22l-3.82-7.83a29.13,29.13,0,0,1,3.67-30.54h0a29.15,29.15,0,0,1,22.79-11v-9H208.05l8.36-30.7a6.15,6.15,0,0,1,5-4.1H366.79a6.15,6.15,0,0,1,5,4.1l8.36,30.7H349.56v9A29.15,29.15,0,0,1,372.35,122.85Z" transform="translate(0 -1)"/><path class="cls-1" d="M75.49,427H62L54.7,411.65H20.48L13,427H0l31.85-63.86H43.64Zm-38-50.55L25.13,401.77H50.05Z" transform="translate(0 -1)"/><path class="cls-1" d="M142.61,427l-17.79-22.1H108.9V427H96.18V363.54h32.27c16.65,0,26.89,7.7,26.89,20.11,0,10.51-7.13,16.85-17.27,19.29l19.54,24h-15Zm-15.2-53.26H108.9V395h18.61c9.1,0,14.89-4.17,14.89-10.69C142.4,377.31,136.82,373.69,127.41,373.69Z" transform="translate(0 -1)"/><path class="cls-1" d="M243.33,427H227.92l-24.71-28.54-11.27,10.15V427H179.22V363.54h12.72v31.89l34.44-31.89H242L211.9,390.81Z" transform="translate(0 -1)"/><path class="cls-1" d="M302.59,363.36h10.76l17.79,47.2,17.27-47h13.34L336.5,427.41h-11l-17.79-45.57L290,427.41H279l-25.23-63.86h13.75l17.27,47Z" transform="translate(0 -1)"/><path class="cls-1" d="M436.71,373.51h-41V390h36.29v10H395.76v17h41.47v10H383V363.54h53.67v10Z" transform="translate(0 -1)"/><path class="cls-1" d="M529.89,427H516.45l-7.35-15.31H474.87L467.43,427h-13l31.85-63.86H498Zm-38-50.55-12.41,25.36h24.92Z" transform="translate(0 -1)"/><path class="cls-1" d="M597,427l-17.79-22.1H563.29V427H550.57V363.54h32.27c16.65,0,26.89,7.7,26.89,20.11,0,10.51-7.13,16.85-17.27,19.29L612,427H597Zm-15.2-53.26H563.29V395h18.61c9.1,0,14.89-4.17,14.89-10.69C596.8,377.31,591.22,373.69,581.8,373.69Z" transform="translate(0 -1)"/></svg>