<?xml version="1.0" encoding="utf-8"?>
<!-- Generator: Adobe Illustrator 16.0.4, SVG Export Plug-In . SVG Version: 6.00 Build 0)  -->
<!DOCTYPE svg PUBLIC "-//W3C//DTD SVG 1.1//EN" "http://www.w3.org/Graphics/SVG/1.1/DTD/svg11.dtd">
<svg version="1.1" id="Layer_1" xmlns="http://www.w3.org/2000/svg" xmlns:xlink="http://www.w3.org/1999/xlink" x="0px" y="0px"
	 width="332.565px" height="155.455px" viewBox="0 0 332.565 155.455" enable-background="new 0 0 332.565 155.455"
	 xml:space="preserve">
<g>
	<g>
		<g>
			<g>
				<path fill="#475267" d="M11.886,147.342l-1.198-6.071H5.921l-0.97,6.071H1.917l4.17-22.246h4.368l4.537,22.246H11.886z
					 M8.254,127.099c-0.665,3.933-1.201,7.901-2.002,11.803h4.037C9.555,134.968,8.721,131.064,8.254,127.099z"/>
				<path fill="#475267" d="M24.756,147.342v-12.776c0-1.165-0.399-2.135-1.733-2.135c-1.133,0-2.135,0.808-2.869,1.57v13.341
					h-2.801v-17.209h2.603l0.101,1.6c0.964-0.999,2.233-1.901,3.7-1.901c2.703,0,3.803,1.57,3.803,4.138v13.373H24.756z"/>
				<path fill="#475267" d="M34.196,146.493c0.801-0.054,1.446-0.42,1.937-1.092c0.313-0.423,0.766-1.354,1.352-2.801l7.405-18.25
					h0.929l7.441,17.52c0.834,1.961,1.458,3.229,1.872,3.801c0.411,0.57,0.997,0.843,1.759,0.822v0.849H46.097v-0.849
					c1.085-0.042,1.801-0.137,2.138-0.278c0.343-0.142,0.515-0.5,0.515-1.073c0-0.261-0.085-0.657-0.26-1.189
					c-0.109-0.313-0.254-0.694-0.44-1.139l-0.849-2.02h-7.485c-0.488,1.325-0.805,2.188-0.943,2.591
					c-0.296,0.854-0.444,1.481-0.444,1.872c0,0.476,0.322,0.825,0.961,1.041c0.381,0.118,0.949,0.187,1.712,0.195v0.849h-6.805
					V146.493z M46.712,139.475l-3.208-7.716h-0.278l-3.011,7.716H46.712z"/>
				<path fill="#475267" d="M56.874,146.543c0.609-0.077,1.056-0.242,1.343-0.497c0.29-0.257,0.432-0.766,0.432-1.522v-9.801
					c0-0.681-0.115-1.15-0.349-1.411c-0.233-0.266-0.709-0.438-1.425-0.526v-0.798h6.317v2.393c0.532-0.799,1.207-1.465,2.026-1.994
					s1.73-0.789,2.727-0.789c1.435,0,2.543,0.372,3.333,1.105c0.784,0.74,1.177,2.038,1.177,3.893v8.059
					c0,0.748,0.13,1.233,0.384,1.446c0.254,0.219,0.68,0.366,1.278,0.443v0.799h-7.831v-0.799c0.6-0.121,1.002-0.284,1.221-0.487
					c0.216-0.211,0.325-0.675,0.325-1.402v-8.073c0-0.764-0.077-1.331-0.228-1.713c-0.26-0.683-0.775-1.023-1.547-1.023
					c-0.574,0-1.106,0.207-1.585,0.627c-0.485,0.417-0.858,0.837-1.118,1.26v8.923c0,0.728,0.11,1.191,0.326,1.402
					c0.219,0.203,0.624,0.366,1.221,0.487v0.799h-8.026V146.543z"/>
				<path fill="#475267" d="M75.417,133.454v-0.932c0.296-0.27,0.656-0.589,1.094-0.959c0.574-0.532,1.115-1.079,1.626-1.641
					c1.008-1.112,1.925-2.298,2.75-3.57h0.849v5.635h3.173v1.467h-3.173v10.028c0,0.464,0.068,0.854,0.21,1.171
					c0.216,0.488,0.574,0.733,1.074,0.733c0.435,0,0.798-0.153,1.088-0.464c0.298-0.311,0.585-0.736,0.884-1.281l0.795,0.391
					c-0.391,0.914-0.858,1.656-1.399,2.232c-0.952,1.009-2.118,1.515-3.499,1.515c-0.778,0-1.464-0.147-2.046-0.438
					c-1.127-0.568-1.695-1.594-1.701-3.082v-10.806H75.417z"/>
				<path fill="#475267" d="M86.521,146.543c0.606-0.077,1.056-0.242,1.343-0.497c0.287-0.257,0.432-0.766,0.432-1.522v-16.981
					c0-0.665-0.118-1.136-0.358-1.402c-0.24-0.269-0.71-0.446-1.417-0.535v-0.795h6.447v9.375c0.683-0.825,1.401-1.461,2.156-1.914
					c0.754-0.449,1.606-0.674,2.549-0.674c1.28,0,2.339,0.372,3.173,1.115c0.834,0.745,1.254,2.011,1.254,3.8v8.012
					c0,0.751,0.127,1.239,0.384,1.473c0.251,0.233,0.68,0.417,1.278,0.547v0.799h-7.832v-0.799c0.598-0.121,1.003-0.284,1.219-0.487
					c0.219-0.211,0.328-0.675,0.328-1.402v-8.073c0-0.764-0.077-1.331-0.228-1.713c-0.263-0.683-0.778-1.023-1.547-1.023
					c-0.574,0-1.171,0.267-1.783,0.796c-0.615,0.532-0.92,0.896-0.92,1.091v8.923c0,0.728,0.106,1.191,0.325,1.402
					c0.216,0.203,0.624,0.366,1.225,0.487v0.799h-8.029V146.543z"/>
				<path fill="#475267" d="M107.306,133.723c1.363-1.419,3.007-2.126,4.933-2.126c1.094,0,2.126,0.287,3.094,0.863
					c0.97,0.571,1.712,1.372,2.235,2.393c0.391,0.771,0.663,1.771,0.813,2.993c0.077,0.579,0.115,1.014,0.115,1.321h-8.514
					c0.074,1.337,0.293,2.49,0.65,3.47c0.654,1.83,1.801,2.75,3.442,2.75c0.784,0,1.523-0.245,2.218-0.733
					c0.423-0.293,0.952-0.783,1.582-1.481l0.769,0.47c-1.035,1.695-2.23,2.872-3.587,3.534c-0.881,0.423-1.893,0.636-3.031,0.636
					c-1.644,0-3.179-0.645-4.613-1.939c-1.435-1.29-2.153-3.351-2.153-6.185C105.259,137.127,105.939,135.14,107.306,133.723z
					 M114.392,137.929c-0.021-1.961-0.175-3.333-0.456-4.117c-0.284-0.78-0.852-1.174-1.701-1.174c-0.869,0-1.47,0.449-1.789,1.352
					c-0.319,0.898-0.503,2.212-0.547,3.939H114.392z"/>
				<path fill="#475267" d="M119.863,146.543c0.609-0.077,1.026-0.21,1.254-0.394c0.37-0.289,0.55-0.834,0.55-1.626v-9.801
					c0-0.701-0.121-1.177-0.37-1.429c-0.251-0.251-0.728-0.42-1.434-0.509v-0.798h6.317v2.393c0.553-0.725,1.091-1.293,1.612-1.692
					c0.964-0.728,2.041-1.091,3.223-1.091c1.334,0,2.372,0.313,3.108,0.943c0.414,0.36,0.805,0.946,1.171,1.76h0.228
					c0.633-0.772,1.236-1.349,1.81-1.742c0.911-0.642,1.904-0.961,2.978-0.961c1.174,0,2.206,0.375,3.102,1.121
					c0.896,0.751,1.343,1.934,1.343,3.552v8.384c0,0.771,0.124,1.26,0.375,1.476c0.246,0.21,0.689,0.347,1.319,0.414v0.799h-7.914
					v-0.799c0.609-0.089,1.032-0.239,1.271-0.446c0.24-0.213,0.358-0.695,0.358-1.443v-8.073c0-0.87-0.127-1.544-0.384-2.021
					c-0.254-0.476-0.743-0.716-1.455-0.716c-0.58,0-1.18,0.264-1.816,0.793c-0.636,0.521-0.952,0.89-0.952,1.094v8.923
					c0,0.728,0.106,1.191,0.325,1.402c0.216,0.203,0.624,0.366,1.221,0.487v0.799h-7.798v-0.799
					c0.585-0.077,1.002-0.219,1.254-0.432c0.251-0.21,0.373-0.698,0.373-1.458v-8.073c0-0.85-0.118-1.518-0.358-2.006
					c-0.237-0.487-0.73-0.73-1.481-0.73c-0.684,0-1.319,0.281-1.905,0.837c-0.585,0.56-0.878,0.908-0.878,1.05v8.923
					c0,0.728,0.104,1.191,0.308,1.402c0.207,0.203,0.615,0.366,1.225,0.487v0.799h-7.979V146.543z"/>
				<path fill="#475267" d="M160.572,147.673c-3.901,0-5.667-2.132-5.667-5.936v-10.972c0-3.7,1.931-6.036,5.734-6.036
					c3.3,0,5.669,1.7,5.669,5.17v2.531h-2.869c0-0.462,0-0.932,0-1.399c0-2.034-0.299-3.731-2.736-3.731
					c-2.035,0-2.869,1.2-2.869,3.132v10.972c0,1.934,0.604,3.699,2.836,3.699c3.333,0,2.901-3.135,2.869-5.465h2.966v2.33
					C166.507,145.872,164.375,147.673,160.572,147.673z"/>
				<path fill="#475267" d="M174.241,147.708c-3.301,0-5.335-1.836-5.335-5.205V134.8c0-3.269,2.171-5.034,5.335-5.034
					c3.303,0,5.335,1.636,5.335,5.034v7.703C179.576,145.872,177.544,147.708,174.241,147.708z M176.778,134.867
					c0-1.535-0.97-2.6-2.537-2.6c-1.6,0-2.535,1.032-2.535,2.6v7.772c0,1.6,0.935,2.566,2.535,2.566c1.6,0,2.537-0.967,2.537-2.566
					V134.867z"/>
				<path fill="#475267" d="M196.113,147.342V134.8c0-1.133-0.331-2.263-1.665-2.263c-1.067,0-1.901,0.795-2.499,1.6v13.205h-2.804
					v-12.776c0-1.197-0.503-2.028-1.804-2.028c-0.997,0-1.798,0.63-2.398,1.363v13.441h-2.801v-17.209h2.535l0.101,1.502
					c0.932-1.035,2.165-1.769,3.602-1.769c1.5,0,2.635,0.701,3.232,2.103c0.867-1.401,2.203-2.103,3.839-2.103
					c2.665,0,3.463,1.935,3.463,4.303v13.173H196.113z"/>
				<path fill="#475267" d="M208.981,147.604c-1.535,0-2.768-0.662-3.871-1.668v8.038h-2.798v-23.842h2.667l0.068,1.366
					c1.067-0.967,2.466-1.633,3.933-1.633c2.635,0,3.901,2.165,3.901,4.566v8.207C212.882,145.171,211.882,147.604,208.981,147.604z
					 M210.114,134.968c0-1.301-0.601-2.566-2.064-2.566c-1.07,0-2.17,0.63-2.939,1.33v9.973c0.736,0.701,1.869,1.369,2.901,1.369
					c1.836,0,2.103-1.271,2.103-2.804V134.968z"/>
				<path fill="#475267" d="M222.984,147.342l-0.065-1.438c-1.003,0.967-2.269,1.636-3.67,1.636c-2.6,0-4.268-1.668-4.268-4.271
					v-0.932c0-4.3,4.335-5.335,7.769-5.702V134.4c0-1.464-0.665-2.369-2.197-2.369c-2.073,0-2.372,1.337-2.372,3.105h-2.7v-0.571
					c0-3.368,1.934-4.8,5.169-4.8c3.034,0,4.9,1.334,4.9,4.534v13.042H222.984z M222.75,138.638
					c-2.167,0.302-4.968,0.899-4.968,3.632v0.701c0,1.435,0.698,2.269,2.171,2.269c1.097,0,2.067-0.701,2.797-1.438V138.638z"/>
				<path fill="#475267" d="M236.222,147.342v-12.776c0-1.165-0.399-2.135-1.733-2.135c-1.136,0-2.135,0.808-2.869,1.57v13.341
					h-2.804v-17.209h2.603l0.104,1.6c0.964-0.999,2.233-1.901,3.7-1.901c2.7,0,3.8,1.57,3.8,4.138v13.373H236.222z"/>
				<path fill="#475267" d="M247.492,149.341c-0.766,3.034-1.801,4.8-5.205,4.8c-0.497,0-1.032-0.065-1.532-0.166v-2.265
					c0.399,0.062,0.834,0.133,1.269,0.133c1.798,0,2.298-1.104,2.632-2.635l0.5-2.236l-4.433-16.839h2.934
					c1,4.599,2.103,9.203,2.937,13.841c0.73-4.673,1.901-9.242,2.901-13.841h2.801L247.492,149.341z"/>
			</g>
		</g>
	</g>
</g>
<path fill="#475267" d="M113.302,68.476c-0.058,0.352-2.687,15.244-2.773,15.741c0.461,0,3.934,0,3.934,0
	c3.717,0,6.216-2.129,6.216-5.299c0-1.533-0.772-2.561-2.233-2.965l-0.662-0.184l0.642-0.291c1.967-0.725,2.845-1.832,2.845-3.589
	c0-2.137-1.849-3.414-4.948-3.414C116.323,68.476,113.633,68.476,113.302,68.476z M114.031,74.868l0.84-4.869h1.452
	c2.431,0,2.942,1.233,2.942,2.268c0,1.304-0.66,2.861-3.803,2.861h-1.479L114.031,74.868z M112.686,82.437l1.026-5.947h1.668
	c2.173,0,3.182,0.789,3.182,2.482c0,2.436-1.463,3.722-4.234,3.722h-1.687L112.686,82.437z"/>
<path fill="#475267" d="M128.113,84.368h-6.363l2.183-12.375h1.812l-1.913,10.813h4.591L128.113,84.368z"/>
<path fill="#475267" d="M139.441,79.469c-0.597,3.358-2.574,5.168-5.539,5.168c-2.39,0-3.83-1.502-3.83-4.015
	c0-0.432,0.039-0.948,0.144-1.503l1.276-7.126h1.75l-1.298,7.271c-0.083,0.432-0.123,0.885-0.123,1.298
	c0,1.627,0.804,2.449,2.35,2.449c1.915,0,3.087-1.255,3.54-3.789l1.298-7.229h1.75L139.441,79.469z"/>
<path fill="#475267" d="M149.694,73.557h-4.631l-0.617,3.523h3.068l-0.29,1.524h-3.047l-0.742,4.202h4.615l-0.266,1.562h-6.407
	l2.202-12.375h6.407L149.694,73.557z"/>
<path fill="#475267" d="M155.233,69.859c-2.647,1.955-4.164,4.992-4.164,8.333c0,3.831,2.336,6.404,5.812,6.404
	c1.771,0,3.161-0.414,4.383-1.299c-0.074-0.013-0.219-1.224-0.287-1.82c-1.223,0.83-2.511,1.299-3.856,1.299
	c-2.385,0-3.988-1.841-3.988-4.583c0-4.429,2.915-8.03,6.499-8.03c0.964,0,1.965,0.397,2.972,1.028
	c0.127-0.268,0.737-1.565,0.875-1.862c-1.136-0.72-2.339-1.095-3.688-1.095C158.262,68.233,156.686,68.795,155.233,69.859z"/>
<path fill="#475267" d="M172.96,75.022c0,1.521-0.801,2.508-2.449,3.067v0.04c0.969,0.352,1.36,1.052,1.36,2.244
	c0,0.371-0.041,0.785-0.121,1.237l-0.497,2.757h-1.771c0.37-2.018,0.598-3.354,0.598-3.994c0-1.008-0.719-1.482-2.221-1.482h-1.403
	l-0.965,5.477h-1.771l2.202-12.375h2.555C171.419,71.993,172.96,73.064,172.96,75.022z M171.131,75.105
	c0-1.135-0.844-1.61-2.678-1.61h-1.047l-0.68,3.873h1.109C170.018,77.368,171.131,76.564,171.131,75.105z"/>
<path fill="#475267" d="M184.435,81.55c-1.339,1.954-3.46,3.107-5.5,3.107c-2.677,0-4.696-2.286-4.696-5.436
	c0-1.564,0.413-2.985,1.236-4.244c1.298-1.996,3.401-3.169,5.581-3.169c1.05,0,2.041,0.372,2.801,1.031
	c1.198,1.028,1.896,2.615,1.896,4.344C185.751,78.811,185.301,80.293,184.435,81.55z M180.892,73.495
	c-1.11,0-2.407,0.641-3.194,1.61c-1.07,1.295-1.585,2.53-1.585,4.095c0,2.287,1.257,3.788,3.007,3.788
	c1.091,0,2.409-0.638,3.215-1.625c1.071-1.317,1.606-2.614,1.606-4.18C183.941,75.022,182.64,73.495,180.892,73.495z"/>
<path fill="#475267" d="M193.541,74.588c-0.728-0.721-1.491-1.071-2.269-1.071c-1.112,0-1.919,0.742-1.919,1.791
	c0,0.805,0.438,1.071,1.215,1.504l0.929,0.516c1.396,0.782,2.124,1.873,2.124,3.234c0,2.427-1.774,4.115-4.306,4.115
	c-1.588,0-2.739-0.678-3.36-1.995l1.488-1.132c0.408,0.946,1.236,1.461,2.221,1.461c1.277,0,2.117-0.864,2.117-2.266
	c0-0.76-0.346-1.296-1.088-1.688l-0.925-0.494c-1.482-0.782-2.159-1.689-2.159-3.151c0-2.079,1.645-3.623,4.013-3.623
	c1.091,0,2,0.347,2.762,1.091L193.541,74.588z"/>
<path fill="#475267" d="M202.392,74.588c-0.722-0.721-1.482-1.071-2.263-1.071c-1.118,0-1.919,0.742-1.919,1.791
	c0,0.805,0.432,1.071,1.215,1.504l0.929,0.516c1.396,0.782,2.12,1.873,2.12,3.234c0,2.427-1.771,4.115-4.306,4.115
	c-1.585,0-2.733-0.678-3.357-1.995l1.488-1.132c0.405,0.946,1.236,1.461,2.221,1.461c1.274,0,2.123-0.864,2.123-2.266
	c0-0.76-0.352-1.296-1.094-1.688l-0.925-0.494c-1.482-0.782-2.162-1.689-2.162-3.151c0-2.079,1.647-3.623,4.013-3.623
	c1.094,0,1.999,0.347,2.759,1.091L202.392,74.588z"/>
<path fill="#475267" d="M215.996,68.476c-0.062,0.352-2.688,15.244-2.774,15.741c0.461,0,3.936,0,3.936,0
	c3.714,0,6.216-2.129,6.216-5.299c0-1.535-0.771-2.561-2.239-2.965l-0.662-0.184l0.645-0.291c1.97-0.723,2.845-1.829,2.845-3.589
	c0-2.137-1.846-3.414-4.945-3.414C219.019,68.476,216.327,68.476,215.996,68.476z M216.727,74.868l0.837-4.869h1.455
	c2.428,0,2.939,1.233,2.939,2.268c0,1.304-0.66,2.861-3.803,2.861h-1.473L216.727,74.868z M215.378,82.437l1.029-5.947h1.671
	c2.167,0,3.179,0.789,3.179,2.482c0,2.436-1.461,3.722-4.232,3.722h-1.689L215.378,82.437z"/>
<path fill="#475267" d="M231.31,84.368h-6.361l2.185-12.375h1.813l-1.919,10.813h4.593L231.31,84.368z"/>
<path fill="#475267" d="M242.639,79.469c-0.598,3.358-2.576,5.168-5.542,5.168c-2.384,0-3.827-1.502-3.827-4.015
	c0-0.432,0.039-0.948,0.145-1.503l1.274-7.126h1.754l-1.301,7.271c-0.08,0.432-0.121,0.885-0.121,1.298
	c0,1.627,0.801,2.449,2.351,2.449c1.911,0,3.082-1.255,3.54-3.789l1.295-7.229h1.753L242.639,79.469z"/>
<path fill="#475267" d="M252.898,73.557h-4.637l-0.615,3.523h3.07l-0.293,1.524h-3.049l-0.742,4.202h4.613l-0.266,1.562h-6.406
	l2.206-12.375h6.403L252.898,73.557z"/>
<path fill="#475267" d="M256.524,72.725c0,1.773,0.79,2.909,2.706,3.924l1.216,0.647c1.041,0.548,1.546,1.334,1.546,2.402
	c0,1.934-1.174,3.184-3.001,3.184c-1.311,0-2.333-0.696-2.931-1.831c-0.248,0.188-1.325,1.01-1.594,1.217
	c0.787,1.535,2.132,2.353,4.072,2.353c3.185,0,5.409-2.123,5.409-5.163c0-1.691-0.899-3.048-2.667-4.035l-1.213-0.672
	c-0.946-0.528-1.694-0.945-1.694-2.16c0-1.486,1.147-2.565,2.724-2.565c1.011,0,1.973,0.466,2.877,1.291
	c0.187-0.373,0.988-2.002,0.988-2.002c-0.896-0.663-2.026-1.11-3.41-1.11C258.639,68.204,256.524,70.104,256.524,72.725z"/>
<path fill="#475267" d="M274.65,84.368h-1.724l1.002-5.785h-5.063l-1.011,5.785h-1.771l2.186-12.375h1.774l-0.911,5.107h5.045
	l0.908-5.107h1.766L274.65,84.368z"/>
<path fill="#475267" d="M280.068,84.368h-1.875l2.18-12.375h1.878L280.068,84.368z"/>
<path fill="#475267" d="M291.747,73.557h-4.637l-0.615,3.523h3.067l-0.287,1.524h-3.052l-0.739,4.202h4.61l-0.269,1.562h-6.397
	l2.201-12.375h6.399L291.747,73.557z"/>
<path fill="#475267" d="M298.581,84.368h-6.37l2.188-12.375h1.813l-1.914,10.813h4.59L298.581,84.368z"/>
<path fill="#475267" d="M310.443,77.388c0,4.183-2.827,6.98-7.166,6.98h-2.931l2.209-12.375h2.446
	C308.32,71.993,310.443,74.136,310.443,77.388z M308.55,77.204c0-2.181-1.446-3.626-3.608-3.626h-0.929l-1.626,9.187h1.056
	C306.531,82.765,308.55,80.663,308.55,77.204z"/>
<path fill="#475267" d="M8.68,10.053c0.869-4.938-0.054-6.583-7.409-7.622l0.26-1.475H42.43l-1.431,10.573h-2.683
	c-0.077-4.509,0.485-7.193-6.705-7.193h-9.1c-4.939,0-5.471,1.038-6.293,5.717l-3.011,17.07h11.008c7.186,0,8.349-3.12,9.759-7.194
	h1.987l-3.159,17.938h-1.995c0.019-5.026,0.176-7.366-7.191-7.366H12.613L9.02,50.863c-0.886,5.025-0.104,5.025,6.224,5.025h9.354
	c5.893,0,6.646-1.818,9.019-8.404h2.688l-2.682,11.782H0L8.68,10.053z"/>
<path fill="#475267" d="M45.582,27.295c0.917-5.197-3.106-5.46-5.578-5.718l0.264-1.473l13.625-2.077L52.059,28.42h0.17
	c1.575-3.031,7.293-10.393,14.315-10.393c8.142,0,9.561,4.244,8.476,10.393h0.17c1.82-2.943,6.687-10.393,14.481-10.393
	c10.315,0,9.097,6.928,7.886,13.776l-4.841,27.463h-6.673l4.597-26.075c1.134-6.412,1.927-10.92-3.967-10.92
	c-4.504,0-11.886,7.973-13.307,16.03l-3.704,20.965h-6.666l4.934-27.983c0.824-4.677,1.587-9.012-4.133-9.012
	c-5.545,0-12.275,9.183-13.545,16.379l-3.63,20.616h-6.676L45.582,27.295z"/>
<path fill="#475267" d="M111.084,35.182c1.13-6.413,5.981-13.777,11.964-13.777c7.97,0,7.553,11.695,6.481,17.764
	c-1.207,6.843-4.5,17.677-12.473,17.677c-7.625,0-8.095-9.622-7.068-15.424L111.084,35.182z M96.911,77.726h6.672l4.292-24.349
	h0.176c0.623,2.859,3.648,6.847,9.71,6.847c11.268,0,17.178-9.968,19.17-21.231c2.118-12.041-1.242-20.965-12.25-20.965
	c-5.72,0-10.076,4.071-11.559,6.583h-0.176l1.165-6.583l-13.87,1.99l-0.263,1.475c2.474,0.258,6.784,0.343,5.825,5.803
	L96.911,77.726z"/>
<path fill="#475267" d="M144.279,27.295c0.912-5.197-3.116-5.46-5.492-5.718l0.257-1.473l13.539-2.077l-7.275,41.239h-6.672
	L144.279,27.295z M146.324,4.853C146.799,2.173,149.345,0,152.119,0c2.6,0,4.472,2.173,4.003,4.853
	c-0.509,2.856-3.113,4.852-5.709,4.852C147.637,9.705,145.851,7.542,146.324,4.853z"/>
<path fill="#475267" d="M160.431,27.554c0.962-5.456-3.062-5.719-5.532-5.977l0.266-1.473l13.619-2.077l-1.82,10.307h0.176
	c1.767-3.637,5.11-10.307,13.337-10.307c0.266,0,0.523,0,0.768,0.085l-1.267,7.192c-0.908-0.262-1.8-0.607-2.749-0.607
	c-8.409,0-11.115,8.494-12.05,13.778l-3.668,20.792h-6.669L160.431,27.554z"/>
<path fill="#475267" d="M203.504,31.454h-17.676c0.778-2.942,3.422-10.049,11.303-10.049c5.193,0,7.361,4.416,6.509,9.275
	L203.504,31.454z M205.701,55.802c-1.99,0.521-4.25,1.043-6.334,1.043c-12.045,0-15.949-12.222-14.468-20.625l0.325-1.819h25.289
	l0.239-1.302c1.816-10.309-3.759-15.072-11.903-15.072c-12.649,0-18.714,7.362-20.913,19.84
	c-2.551,14.469,3.512,22.356,16.24,22.356c5.382,0,9.913-1.129,11.025-1.562L205.701,55.802z"/>
<g>
	<path fill="#475267" d="M319.191,57.207c0,1.405,1.145,2.549,2.553,2.549c1.404,0,2.549-1.144,2.549-2.549
		c0-1.408-1.145-2.552-2.549-2.552C320.335,54.655,319.191,55.799,319.191,57.207z M319.579,57.207c0-1.192,0.973-2.163,2.165-2.163
		c1.188,0,2.158,0.971,2.158,2.163c0,1.19-0.97,2.159-2.158,2.159C320.551,59.366,319.579,58.397,319.579,57.207z"/>
</g>
<path fill="#475267" d="M321.744,57.207"/>
<path fill="#475267" d="M321.086,58.408h-0.343v-2.533h1.168c0.417,0,0.831,0.149,0.831,0.685c0,0.375-0.186,0.515-0.354,0.604
	c0.15,0.06,0.293,0.125,0.308,0.481l0.021,0.459c0.006,0.14,0.026,0.19,0.133,0.251v0.053h-0.42
	c-0.056-0.156-0.062-0.534-0.062-0.631c0-0.209-0.045-0.451-0.456-0.451h-0.825V58.408z M321.086,57.033h0.793
	c0.248,0,0.509-0.064,0.509-0.44c0-0.391-0.284-0.424-0.452-0.424h-0.85V57.033z"/>
<g>
	<path fill="#475267" d="M265.958,56.961c0,1.405,1.145,2.549,2.552,2.549c1.405,0,2.546-1.144,2.546-2.549
		c0-1.408-1.142-2.554-2.546-2.554C267.103,54.407,265.958,55.553,265.958,56.961z M266.346,56.961c0-1.193,0.973-2.163,2.165-2.163
		c1.189,0,2.159,0.97,2.159,2.163c0,1.19-0.97,2.158-2.159,2.158C267.318,59.119,266.346,58.151,266.346,56.961z"/>
</g>
<path fill="#475267" d="M268.51,56.961"/>
<path fill="#475267" d="M267.854,58.162h-0.343v-2.533h1.165c0.42,0,0.834,0.148,0.834,0.684c0,0.376-0.186,0.516-0.354,0.604
	c0.148,0.06,0.292,0.126,0.308,0.481l0.021,0.46c0.006,0.139,0.026,0.189,0.13,0.25v0.053h-0.417
	c-0.056-0.156-0.062-0.534-0.062-0.631c0-0.209-0.044-0.451-0.458-0.451h-0.822V58.162z M267.854,56.787h0.792
	c0.246,0,0.509-0.065,0.509-0.441c0-0.391-0.284-0.423-0.453-0.423h-0.849V56.787z"/>
<g>
	<path fill="#475267" d="M250.574,34.971c-0.456,0-5.513,7.98-5.513,7.98c1.491,0.777,3.375,1.166,5.513,1.166
		s4.022-0.388,5.516-1.166C256.089,42.951,251.029,34.971,250.574,34.971z"/>
	<path fill="#475267" d="M245.188,28.551c-0.456,0-7.589-0.582-7.589-0.582c-0.911,5.057,0.583,8.692,2.919,11.608
		c0,0,4.738-8.949,5.255-9.924C246.292,28.683,245.774,28.617,245.188,28.551z"/>
	<path fill="#475267" d="M260.694,22.518c-1.78-1.781-3.83-3.634-6.228-4.152c0.778,2.726-0.843,2.92-0.843,4.152H260.694z"/>
	<path fill="#475267" d="M246.682,18.368c-2.405,0.518-4.673,2.075-6.231,4.15h7.074C247.525,21.285,245.904,21.091,246.682,18.368z
		"/>
	<path fill="#475267" d="M255.956,28.551c-0.58,0.066-1.1,0.132-0.58,1.102c0.515,0.976,5.252,9.924,5.252,9.924
		c2.336-2.919,3.827-6.551,2.919-11.608C263.548,27.969,256.412,28.551,255.956,28.551z"/>
	<path fill="#475267" d="M263.85,17.923l0.015-14.954h-25.682v14.907h-16.174l0.006,25.646h16.106v15.546h25.729V43.522h15.55
		V17.923H263.85z M239.853,20.114c2.777-2.781,6.61-4.505,10.851-4.507c4.09,0,7.813,1.605,10.563,4.218
		c1.402,1.33,2.555,2.925,3.375,4.701l-10.567,0.003c-1.023,0-1.842-0.296-2.321-0.787c-0.615-0.627-0.657-1.566,0.18-2.587
		c1.491-1.817,0.195-3.437-1.36-3.501c-1.559-0.066-2.854,1.684-1.363,3.501c0.84,1.021,0.795,1.96,0.184,2.587
		c-0.479,0.491-1.301,0.787-2.322,0.787l-10.292-0.005C237.543,22.875,238.587,21.384,239.853,20.114z M235.361,30.952
		c0-1.83,0.319-3.602,0.905-5.229c3.735,0.081,7.068,0.633,9.118,0.75c2.206,0.133,3.827,1.299,2.336,4.088
		c-1.342,2.511-5.634,10.509-6.616,12.356C237.603,40.106,235.361,35.788,235.361,30.952z M250.704,46.293
		c-3.224,0-6.214-0.993-8.686-2.691c1.298-1.876,6.849-9.938,7.192-10.509c0.391-0.649,0.716-1.04,1.363-1.04
		c0.648,0,0.973,0.39,1.36,1.04c0.391,0.646,7.284,10.624,7.284,10.624C256.781,45.343,253.854,46.293,250.704,46.293z
		 M260.105,43.074c-0.192-0.391-5.184-9.723-6.681-12.512c-1.491-2.79,0.136-3.956,2.339-4.088c2.091-0.121,5.524-0.717,9.363-0.776
		c0.601,1.639,0.92,3.407,0.92,5.255C266.047,35.88,263.719,40.264,260.105,43.074z"/>
</g>
<g>
	<path fill="#475267" d="M308.078,19.452c0.266-0.034,0.393-0.408,0.393-0.408c-0.801-0.437-1.727-0.118-1.727-0.118
		s0.293,0.048,0.748,0.337C307.661,19.372,307.826,19.479,308.078,19.452z"/>
	<path fill="#475267" d="M310.718,14.47c-6.051,0-12.365-0.89-15.328-2.463c-1.088,1.644-1.307,5.875-1.215,9.011
		c0.47,16.182,7.884,24.119,8.931,25.389c1.408,1.721,6.663,6.637,7.615,6.886c0.949-0.249,6.208-5.166,7.612-6.886
		c1.044-1.27,8.461-9.21,8.929-25.391c0.092-3.134-0.125-7.366-1.213-9.009C323.083,13.58,316.769,14.468,310.718,14.47z
		 M308.737,48.917c-0.05,0.072-0.142,0.139-0.26,0.077c-0.326-0.163-0.367-0.844-0.37-1.009c-0.009-0.862,0.559-1.917,1.263-2.189
		l0.035,1.536C308.915,47.75,308.97,48.562,308.737,48.917z M311.319,46.526c-0.027,1.71-0.157,3.292-0.175,3.45
		c0,0-0.73,0.333-1.316-0.061c0-0.235-0.029-1.475-0.053-2.487c-0.023-1.031-0.092-2.77-0.151-4.221
		c0.255,0.101,0.261,0.072,0.56,0.161c0.47,0.136,0.777,0.418,0.917,0.6C311.402,44.274,311.331,45.826,311.319,46.526z
		 M311.656,46.305v-1.888c0-0.417-0.153-0.728-0.408-0.965c-0.201-0.188-0.363-0.331-0.796-0.556
		c-0.236-0.123-0.414-0.181-0.984-0.324c-3.93-0.991-2.963-4.68-0.553-4.698c0.026,0.321,0.073,0.643,0.073,0.911
		c0.016,0.337,0.065,0.639,0.089,1.075c-0.597,0.311-0.147,0.377,0.127,0.469c0.302,0.102,1.032,0.467,1.452,0.648
		c0.329,0.143,1.015,0.403,1.281,0.516C314.137,42.447,313.913,45.127,311.656,46.305z M311.452,39.63c-0.006,0.293,0,0.919,0,1.204
		c-0.308-0.043-0.73-0.245-1.044-0.363c-0.47-0.181-0.722-0.423-0.997-0.571c-0.006-0.089-0.015-0.45-0.021-0.536v-0.656
		l-0.047-0.845c-0.021-0.254-0.045-1.056-0.036-1.342c0.361,0.016,0.548,0.066,0.977,0.112c0.783,0.086,0.789-0.028,1.183,0.082
		c-0.003,0.118,0.029,0.592,0.021,0.745c-0.021,0.309-0.05,0.725-0.056,1.031C311.419,39.076,311.458,39.061,311.452,39.63z
		 M311.813,39.788c0.006-0.49,0.018-1.011,0.067-1.537c0.021-0.326,0.021-0.429,0.112-0.664c0.281-0.303,0.852-0.418,0.432-1.021
		c-0.233-0.335-1.085-0.257-1.872-0.344c-0.414-0.046-0.815-0.021-2.173-0.278c-3.135-0.6-2.905-4.609-0.879-5.395l0.612,1.503
		l0.541,1.259c0.879,0.055,1.201,0.035,2.242,0.167c0.183,0.021,0.503,0.098,1.097,0.225
		C316.193,34.603,315.196,39.449,311.813,39.788z M307.661,29.764l0.987-1.602l2.798,0.217l0.006,4.754l-2.455-0.227l-0.688-1.554
		L307.661,29.764z M312.046,32.633c-0.379-1.578-0.163-3.032-0.163-3.032c1.305-0.138,0.358-1.511-0.003-1.577
		c-0.506-0.094-0.914-0.094-1.78-0.179c-0.556-0.051-1.511-0.118-2.002-0.184c-8.37-1.085-7.139-8.642-3.067-9.317
		c2.955-0.492,4.545,0.638,5.051,1.846c0,0-0.852,0.397-1.538,0.315c-1.357-0.157-2.167-0.051-2.167-0.051
		c0.45,0.416,1.949,0.653,2.561,1.185c-0.687,0.306-1.473,0.281-2.209,0.188c-0.621-0.079-1.21-0.22-1.831-0.454
		c-0.233,0.755-0.73,2.368,2.999,3.124c0.509,0.102,1.15,0.286,1.83,0.337c0.71,0.075,1.349,0.188,1.917,0.331
		c0.245,0.062,0.47,0.148,0.695,0.2C317.591,26.65,315.958,32.688,312.046,32.633z M315.861,20.273
		c-2.167,2.104-3.196,3.183-3.738,3.759c-0.029,0.034-0.292,0.572-0.55,0.719l-3.022-0.51c-0.109-0.627-0.147-1.386-0.121-2.082
		c0.618-0.062,0.771-0.141,1.133-0.437l-0.133-0.411c0.91,0.292,1.732,0.403,2.037,0.368l-0.388-0.427
		c-0.42-0.073-0.863-0.285-1.393-0.459c0.689-0.102,0.929-0.299,0.929-0.299s-0.077-0.329-0.354-0.862
		c-0.474-0.898-1.544-1.429-1.544-1.429c-0.198-0.322-0.121-0.536-0.127-0.707c-0.033-1.064,0.576-0.83,1.688-0.466
		c0.216,0.088,0.325,0.234,0.414,0.27c0.713,0.296,1.393,0.732,1.372,0.944c0,0-0.057,2.562,0.207,2.43
		c0.518-0.252,1.824-1.429,2.26-1.72C315.388,18.374,316.68,19.475,315.861,20.273z"/>
	<path fill="#475267" d="M329.327,3.79c-5.321,2.822-10.674,4.315-18.608,4.315s-13.288-1.494-18.605-4.315
		c-2.191,3.818-3.439,9.294-3.439,16.098c0,18.091,10.165,30.204,12.667,32.861c2.502,2.658,7.465,6.765,9.381,7.176
		c1.913-0.412,6.879-4.521,9.378-7.178c2.502-2.655,12.667-14.771,12.667-32.859C332.766,13.084,331.511,7.608,329.327,3.79z
		 M319.162,47.937c-1.562,1.905-7.388,7.148-8.44,7.397c-1.056-0.25-6.879-5.492-8.446-7.397
		c-1.159-1.417-9.647-11.896-9.647-28.213c0-3.486,0.541-8.549,1.751-10.374c3.297,1.749,9.614,3.381,16.339,3.381
		c6.722,0,13.045-1.632,16.34-3.381c1.209,1.825,1.751,6.888,1.751,10.374C328.809,36.042,320.321,46.518,319.162,47.937z"/>
</g>
<g>
	<polygon fill="#475267" points="0.485,103.519 0.485,109.294 330.619,109.294 332.565,103.519 	"/>
</g>
</svg>
