<?xml version="1.0" encoding="utf-8"?>
<!-- Generator: Adobe Illustrator 21.0.0, SVG Export Plug-In . SVG Version: 6.00 Build 0)  -->
<svg version="1.1" id="Layer_1" xmlns="http://www.w3.org/2000/svg" xmlns:xlink="http://www.w3.org/1999/xlink" x="0px" y="0px"
	 viewBox="0 0 234.4 71.8" style="enable-background:new 0 0 234.4 71.8;" xml:space="preserve">
<style type="text/css">
	.st0{fill:#FFFFFF;}
</style>
<path class="st0" d="M101.6,73.5C96,69.6,89.2,67.8,83,68.1c-6.3,0.3-9.1,4.9-9.1,4.9c-2.8-4.9-8.4-8-17.1-7.9
	c-14,0.2-27.8,6.6-38.8,6.6c-10.5,0-18.2-6.6-18-18.4C0.4,32.8,17.9,14.2,30.9,5.9C38.3,1,44.6-0.4,48.7,0.1c3,0.3,6.6,3.8,4.3,8.9
	c-3.3,7.5-7.9,6.8-7.8,3.3c0.1-2.3,1.6-3.8,2.8-4.6C48.7,7.2,50,7,50.7,7c0.7-0.6,1.2-4.6-4.2-3.3s-11.8,6.6-18,13.4
	S12.8,36.7,10.4,50.2c-1,6.3-0.2,17.7,14.6,17.5c12.6-0.1,31.1-8.4,48.1-8.2c6.6,0.1,12.4,1.8,16.9,4.6
	C94.4,66.8,99.7,70.8,101.6,73.5z M105.6,36.2h2.6c0,0-12.9,18.7-20.2,17.8c-4.1-0.5-2.9-5.5-2.9-5.5s-5.7,6.7-11,5.4
	c-4.8-1.2-1.7-9.1-1.7-9.1c-0.5,0.2-10.8,11.8-18.1,9.1c-7.6-2.9-3.7-12.7-2.2-15.6c1.2-2.5,2.6-4.9,2.6-4.9s-1.2,0.3-1.9,0.5
	C52.1,34,51,34.2,51,34.2s-3.6,5.8-5.8,8.7s-11.5,12.9-17,10.9s-4.1-9.7-1.1-15.8c5-9.9,16.9-22,24-20.2c7.2,1.8,1.2,13.5,1.2,13.5
	s1.4,0.2,4.9-2.2c5-3.4,11.5-12.5,18.6-11.4c3.3,0.5,6.4,3.9,2.2,10.4c-1.4,2.1-3.6,3.9-5.4,2.1c-1.1-1.1-0.1-3.2,1-4.7
	c1.6-2,3.8-1.7,3.8-1.7s1.2-2.7-1.8-2.6c-2.4,0-8.5,5.7-11.9,11.3c-3.2,5.2-7.9,14.1-3.1,16c4.4,1.8,12.8-8.2,16.7-13.4
	s12.7-17,20.1-17.5c2.5-0.2,4.1,2.2,4.1,2.2l0.9-1.4h7.4c0,0-14,23.3-15,25.1c-0.9,1.4-2,4.5,1.2,2.7C99,44.6,105.6,36.2,105.6,36.2
	z M48.1,33.8c-0.1,0-2-0.6-3.8-1.7c-1.8-1.2-2.7-2.9-2.7-3c-0.1-0.1-0.1,0-0.2,0.1c-0.1,0.1-0.5,0.6-3.1,4.5s-6.6,11.8-2.9,13.2
	c2.3,0.9,6.3-3.3,8.4-6c2-2.5,4.3-6.4,4.4-6.7C48.3,33.9,48.2,33.8,48.1,33.8z M51,21.4c-1.9-1.5-6.9,2-6.9,5.5c0,3.6,4.5,4.6,5,4.7
	c0,0,0.5,0.1,0.7-0.3c0.1-0.3,0.7-1.4,1.4-3.2C52,26.3,52.9,22.8,51,21.4z M88.8,40.8c3-4.1,11.2-18.5,11.2-18.5s-0.1-1-1.1-1.1
	c-1.1-0.1-3,0.3-6.8,5.1c-3.8,4.7-6.7,8.5-8.9,12.4c-2.3,4.3-3.4,7.3-2,8.1c0.4,0.2,1,0.3,1.4,0.1c0.9-0.2,2-1.1,3.6-2.9
	C87,43.3,87.8,42.2,88.8,40.8z M122.1,18.6h-7l-4,6.4h7L122.1,18.6z M212.9,67.5c-0.6,0-1,0.2-1.5,0.6c-0.4,0.4-0.6,0.9-0.6,1.5
	s0.2,1.1,0.6,1.5c0.4,0.4,0.9,0.6,1.5,0.6s1.1-0.2,1.5-0.6s0.6-0.9,0.6-1.5s-0.2-1.1-0.6-1.5C213.9,67.7,213.5,67.5,212.9,67.5z
	 M215.3,69.5c0,0.7-0.2,1.2-0.7,1.7s-1,0.7-1.7,0.7s-1.2-0.2-1.7-0.7s-0.7-1-0.7-1.7s0.2-1.2,0.7-1.7s1-0.7,1.7-0.7s1.2,0.2,1.7,0.7
	S215.3,68.9,215.3,69.5z M213.5,69c0-0.2-0.1-0.3-0.2-0.4c-0.1-0.1-0.3-0.1-0.6-0.1h-0.4v1h0.4c0.2,0,0.3,0,0.4-0.1
	C213.4,69.3,213.5,69.2,213.5,69z M211.9,68.2h0.9c0.3,0,0.6,0,0.7,0.1c0.3,0.1,0.4,0.3,0.4,0.7c0,0.2-0.1,0.4-0.3,0.5
	c-0.1,0.1-0.2,0.1-0.4,0.1c0.2,0,0.4,0.1,0.5,0.2s0.1,0.3,0.1,0.4v0.2c0,0.1,0,0.1,0,0.2s0,0.1,0,0.1l0,0h-0.4l0,0l0,0v-0.1v-0.2
	c0-0.3-0.1-0.5-0.2-0.6c-0.1-0.1-0.3-0.1-0.5-0.1h-0.4v1h-0.5L211.9,68.2L211.9,68.2z M225.9,7c-5.2,3.3-12.4,6.4-19.3,5.7
	c-1.8,1.8-3.6,3.9-5.5,6.2c12,2.4,22.5-5.1,28.1-11.4c3.5-4,5.2-7.5,5.2-7.5S231,3.7,225.9,7z M205.3,61.5c-1,1.6-2.1,4.6,1.2,2.7
	c4-2.3,9.7-11,9.7-11h2.6c0,0-3.4,5.4-7.8,10.3c-4.1,4.5-9,8.6-12.5,8.2c-4.1-0.5-2.8-5.8-2.8-5.8s-5.8,6.2-9.9,5.8
	c-5.4-0.6-3.8-7.3-3.8-7.3s-6.2,7.6-10.3,7.3c-6.6-0.4-4.9-8.4-3.1-14c1-3,1.9-5.4,1.9-5.4s-0.7,0.2-2.1,0.4
	c-0.7,0.1-2.1,0.2-2.1,0.2s-2.7,4.8-4.9,7.7s-11.5,12.9-17,10.9c-5.1-1.8-3.4-9.6-0.4-15.8c4.3-9,16.4-21.9,23.4-20.2
	c7.2,1.8,0.2,15,0.2,15s0,0.1,0.1,0.1c0.1,0.1,0.5,0.1,1.4-0.1c1.4-0.3,2.6-0.8,2.6-0.8S179,34.5,187,24.5s24.1-27.1,30.4-23
	c1.5,1,0.8,4.5-1.2,8.8c-0.9,0.3-1.9,0.5-2.8,0.7c1.4-2.5,2.3-4.6,2.6-6.1c0.9-5.2-11.1,5.7-19.7,17.4s-13.7,22.3-13.7,22.3
	s1.7-1,4.4-3.2c2.8-2.3,6.7-5.8,10.9-10.2c2.8-2.9,6.2-6.6,9.3-10.7c0.9,0,1.8-0.1,2.7-0.3c-3.5,4.7-7.1,9-10.2,12.1
	c-3.4,3.5-7.1,7.2-10.4,9.9c-5.1,4.3-9.1,6.8-9.1,6.8s-7.5,15.1-3.4,16.1c2.4,0.6,7.1-6.7,7.1-6.7s6.2-9.5,9.9-13.7
	c5.1-5.8,9.5-9.1,13.9-9.2c2.6,0,4.1,2.7,4.1,2.7l1.2-1.9h7.4C220.2,36.3,206.4,59.8,205.3,61.5z M163.7,52.3
	c-0.1,0-1.7-0.8-3.4-2.2s-2.5-3-2.6-3.1s-0.1,0-0.2,0.1c-0.1,0.1-0.4,0.4-3,4.2c-2.6,3.9-6.7,11.9-3,13.2c2.3,0.9,6.3-3.2,8.4-6
	c2-2.5,3.8-5.8,3.9-6C163.9,52.4,163.8,52.4,163.7,52.3z M167.5,45.8c0.7-1.8,1.5-5.3-0.3-6.7c-1.9-1.5-6.9,2-6.9,5.5
	c0,3.6,3.5,5.2,4.3,5.5c0.5,0.1,0.6,0.1,0.9-0.3C165.6,49.5,166.8,47.6,167.5,45.8z M209.9,40.8c0.2-0.3,0.2-0.5,0.2-0.5
	s-0.1-1-1.1-1.1c-1.1-0.1-2.7,0.2-6.8,4.7s-6.5,8.4-8.7,12.3c-2.3,4.3-3.3,7.5-1.9,8.3c0.4,0.2,1,0.3,1.4,0.1
	c0.9-0.2,1.9-1.1,3.5-2.9c0.7-0.9,1.6-2.1,2.5-3.4C201.8,54.8,208.6,43.2,209.9,40.8z M225.9,7c-5.2,3.3-12.4,6.4-19.3,5.7
	c-1.8,1.8-3.6,3.9-5.5,6.2c12,2.4,22.5-5.1,28.1-11.4c3.5-4,5.2-7.5,5.2-7.5S231,3.7,225.9,7z M192.1,15.7
	c-5.7-2.9-9.8-6.5-14.1-8.7c-4.1-2.1-6.8-3-10.1-2.5c-0.6,0.1-1.4,0.3-1.4,0.3s1.7,5.9-5.1,15.7c-6.9,10-13.2,9.9-15,7.2
	c-1.9-2.9,0.5-8.8,4.6-14c4.2-5.5,11.6-10,11.6-10s-2.4-1.4-8.2,1.8C148.8,8.7,139,16.3,130,29.2s-10.8,19.9-12.1,25.5
	c-1.3,5.6-0.1,11.5,6.1,11.5s13.4-9.4,15.4-12.7c3.8-6.1,6.2-15.5,1.1-14.2c-2.5,0.6-4.6,3.4-5.9,6.1c-1.3,2.8-1.9,5.4-1.9,5.4
	s-2.1,0.8-5,2.9c-2.9,2.1-4.7,4.2-4.7,4.2s0-4.4,3.6-11.7c3.5-7.2,10.1-10.5,13.7-10.8c3.3-0.3,7.6,2.5,4,13
	c-3.7,10.4-14.5,23.1-25.8,23.2c-10.5,0.2-17.4-13.2-2.8-36.6c16.1-25.8,35.1-33.7,41.2-34.6c6.2-0.9,8.1,1.8,8.1,1.8
	s5.2-2.4,11.7-1.9c7.5,0.5,13.3,5.8,21,9.5C195.8,11.9,193.9,13.8,192.1,15.7z M164.2,5.6c0,0-4.4,1.8-9.5,7.4
	c-5.1,5.7-8.1,12-5.9,13.6c0.8,0.6,2.8,0.7,6.3-2.4c2.8-2.5,5.6-5.7,7.5-10.4C164.9,8.2,164.2,5.7,164.2,5.6z"/>
</svg>
