<?xml version="1.0" encoding="utf-8"?>
<!-- Generator: Adobe Illustrator 19.2.0, SVG Export Plug-In . SVG Version: 6.00 Build 0)  -->
<svg version="1.1" id="Layer_1" xmlns="http://www.w3.org/2000/svg" xmlns:xlink="http://www.w3.org/1999/xlink" x="0px" y="0px"
	 viewBox="0 0 295.7 71.4" style="enable-background:new 0 0 295.7 71.4;" xml:space="preserve">
<style type="text/css">
	.st0{fill:#475267;}
	.st1{fill-rule:evenodd;clip-rule:evenodd;fill:#475267;}
</style>
<g>
	<path class="st0" d="M161.4,49.7c-1.2,0-3,0.8-3,4.1c0,3.4,1.8,4.1,3,4.1c1.2,0,3-0.8,3-4.1C164.4,50.5,162.6,49.7,161.4,49.7z"/>
	<path class="st0" d="M32.3,50.2h-2.1v3.1H32c1.2,0,2.5-0.1,2.5-1.6C34.5,50.3,33.4,50.2,32.3,50.2z"/>
	<path class="st0" d="M195.5,50.2H194v7.4h1.8c2.9,0,3.3-2.3,3.3-3.8C199.2,52.8,198.9,50.2,195.5,50.2z"/>
	<path class="st0" d="M179.2,49.7c-1.2,0-3,0.8-3,4.1c0,3.4,1.8,4.1,3,4.1c1.2,0,3-0.8,3-4.1C182.2,50.5,180.4,49.7,179.2,49.7z"/>
	<path class="st0" d="M49,49.7c-1.2,0-3,0.8-3,4.1c0,3.4,1.8,4.1,3,4.1c1.2,0,3-0.8,3-4.1C52,50.5,50.2,49.7,49,49.7z"/>
	<path class="st0" d="M62.4,16.6c-4.5,0-5.8,4.7-5.8,8.7c0,4,1.2,9.1,5.9,9.1c4.3,0,6-3.9,6-9.1C68.5,21.1,66.8,16.5,62.4,16.6z"/>
	<path class="st0" d="M65.9,49.9h-2.2v3h2.4c0.9,0,2.1-0.1,2.1-1.5C68.2,50.5,67.7,49.9,65.9,49.9z"/>
	<path class="st0" d="M221.9,47.5c-0.1,0-0.2,0-0.2,0v0.6h0.2c0.2,0,0.4-0.1,0.4-0.3C222.3,47.6,222.1,47.5,221.9,47.5z"/>
	<path class="st0" d="M0,0v71.3h229.8V0H0z M181.2,22c1.2-0.2,2.1-0.7,2.6-1.4c0.5-0.7,0.8-1.7,0.8-2.9h-3.4v-8h7.7v6.9
		c0.2,5.4-3.6,9-7.7,8.9V22z M139.4,9.7h9.9V34h13.6v7.4h-23.5V9.7z M111.8,9.7h24.7v7.4h-14.8v4.5h12.5V29h-12.5v5h15.3v7.4h-25.3
		V9.7z M80.6,9.7h13.3c9.8,0,15.8,4.7,15.8,15.1c0,11.9-6.3,16.5-16.1,16.5h-13V9.7z M16.1,61.8c-1.7,0-6.6-0.6-6.6-5.4h4.7
		c0,0.4,0.1,0.7,0.2,1c0.3,0.9,1.4,1.1,2.2,1.1c0.8,0,1.9-0.3,1.9-1.4c0-0.8-0.7-1-3.3-1.7c-2.4-0.7-5.1-1.3-5.1-4.4
		c0-3.5,3-5,6.1-5c3.3,0,6.2,1.2,6.3,4.9h-4.4c0.1-0.6-0.2-1-0.5-1.2c-0.4-0.3-0.9-0.4-1.4-0.4c-0.6,0-1.7,0.2-1.7,1
		c0.1,1.1,2.2,1.3,4.4,1.9c2.1,0.6,4.2,1.6,4.2,4.4C23.1,60.5,19.5,61.8,16.1,61.8z M18.3,21.1L18.3,21.1l0.3,4.7l0.2,4.9v10.7H9.9
		V9.7h12l5.3,19.7l5.3-19.7h12v31.6h-8.9v-9.7l0.1-4.9l0.5-5.7h-0.1l-5.5,20.3h-6.9L18.3,21.1z M32.9,56.9h-2.7v4.6h-4.7V46.3h7.8
		c4.1,0,5.5,3,5.5,5.2C38.9,55.2,36.4,56.9,32.9,56.9z M49,61.8c-4.6,0-7.7-3.3-7.7-7.9c0-4.6,3.1-7.9,7.7-7.9
		c4.6,0,7.7,3.3,7.7,7.9C56.6,58.5,53.6,61.8,49,61.8z M68.7,61.4c-0.2-0.8-0.3-1.5-0.4-2.3c-0.1-1.4-0.3-2.9-2.1-2.9h-2.5v5.3h-4.7
		V46.3h8.9c2.6,0,4.9,1.5,4.9,4.3c0,1.6-0.7,3.2-2.3,3.8c1.3,0.5,2.1,1.9,2.2,3.8c0.1,0.7,0.1,2.5,0.5,3.2H68.7z M62.5,42.2
		c-9.5,0-15.8-6.1-15.8-16.9c0-9.9,6.4-16.4,15.8-16.4c10.8,0,15.9,8.1,15.9,16.5C78.4,36.1,71.5,42.2,62.5,42.2z M88.9,50.2h-4.2
		v11.2H80V50.2h-4.2v-3.9h13.1V50.2z M96,61.4h-4.7V46.3H96V61.4z M112.1,61.4h-4.5l-4.6-8.2h0v8.2h-4.4V46.3h4.8l4.4,8.1h0v-8.1
		h4.4V61.4z M129.1,61.4h-2.9l-0.1-1.5c-1,1.3-2.6,1.9-4.3,1.9c-4.5,0-7.2-3.5-7.2-7.8c0-5.8,4-8.1,7.4-8.1c3.8,0,6.3,2.1,7,5.6
		h-4.5c-0.2-1.1-1.1-1.9-2.2-1.9c-3.2,0-3.1,3.4-3.1,4.4c0,1.4,0.6,3.9,3.4,3.9c1.1,0,2.2-0.5,2.4-1.7h-2.1v-3.2h6.2V61.4z
		 M151.3,61.4h-2.9l-0.1-1.5c-1,1.3-2.6,1.9-4.3,1.9c-4.5,0-7.2-3.5-7.2-7.8c0-5.8,4-8.1,7.4-8.1c3.8,0,6.3,2.1,7,5.6h-4.5
		c-0.2-1.1-1.1-1.9-2.2-1.9c-3.2,0-3.1,3.4-3.1,4.4c0,1.4,0.6,3.9,3.4,3.9c1.1,0,2.2-0.5,2.4-1.7h-2.1v-3.2h6.2V61.4z M161.4,61.8
		c-4.6,0-7.7-3.3-7.7-7.9c0-4.6,3.1-7.9,7.7-7.9c4.6,0,7.7,3.3,7.7,7.9C169.1,58.5,166,61.8,161.4,61.8z M179.2,61.8
		c-4.6,0-7.7-3.3-7.7-7.9c0-4.6,3.1-7.9,7.7-7.9c4.6,0,7.7,3.3,7.7,7.9C186.9,58.5,183.8,61.8,179.2,61.8z M188.9,41.4h-23.5V9.7
		h9.9V34h13.6V41.4z M196.1,61.4h-6.7V46.3h7.6c5,0,6.8,3.7,6.8,7.5C203.8,58.5,201.4,61.4,196.1,61.4z M192.3,31.6h9.5
		c0.2,1.1,0.8,2,1.6,2.5c0.8,0.5,1.8,0.8,2.8,0.8c2.5,0,4.1-0.8,4.1-2.3c0-4.8-17.4-1.5-17.4-13.6c0-6.7,5.5-10.1,13.1-10.1
		c8.4,0,12.2,4.5,12.9,10h-9.4c-0.2-1.1-0.7-1.8-1.4-2.2c-0.7-0.4-1.6-0.6-2.6-0.6c-2.2,0-3.2,0.7-3.2,1.8c0,4.7,17.4,1.8,17.4,13.3
		c0,7.3-5.8,10.9-14.2,10.9C197.8,42.2,192.6,37.3,192.3,31.6z M212.9,61.8c-1.7,0-6.6-0.6-6.6-5.4h4.7c0,0.4,0.1,0.7,0.2,1
		c0.3,0.9,1.4,1.1,2.2,1.1c0.8,0,1.9-0.3,1.9-1.4c0-0.8-0.7-1-3.3-1.7c-2.4-0.7-5.1-1.3-5.1-4.4c0-3.5,3-5,6.1-5
		c3.3,0,6.2,1.2,6.3,4.9h-4.4c0.1-0.6-0.2-1-0.5-1.2c-0.4-0.3-0.9-0.4-1.4-0.4c-0.6,0-1.7,0.2-1.7,1c0.1,1.1,2.2,1.3,4.4,1.9
		c2.1,0.6,4.2,1.6,4.2,4.4C219.9,60.5,216.3,61.8,212.9,61.8z M221.9,50.1c-1.1,0-2-0.9-2-1.9c0-1.1,0.9-1.9,2-1.9
		c1.1,0,2,0.8,2,1.9C223.9,49.2,223,50.1,221.9,50.1z"/>
	<path class="st0" d="M221.9,46.6c-0.8,0-1.5,0.7-1.5,1.5c0,0.9,0.6,1.5,1.5,1.5c0.8,0,1.5-0.7,1.5-1.5
		C223.4,47.3,222.7,46.6,221.9,46.6z M222.4,49.2c-0.1-0.1-0.1-0.2-0.2-0.5c0-0.2-0.2-0.3-0.4-0.3h-0.2v0.8h-0.4v-1.9
		c0.2,0,0.4-0.1,0.7-0.1c0.4,0,0.5,0.1,0.7,0.2c0.1,0.1,0.2,0.2,0.2,0.4c0,0.2-0.2,0.4-0.4,0.5v0c0.2,0.1,0.3,0.2,0.3,0.5
		c0.1,0.3,0.1,0.4,0.1,0.5H222.4z"/>
	<path class="st0" d="M99.8,25.5c0-6.6-2.1-8.3-7.4-8.3h-1.9V34h2.1C97.3,34,99.8,31.4,99.8,25.5z"/>
</g>
<g>
	<path class="st0" d="M265.6,45.4c-0.9,0-1.5,0.6-1.5,1.4c0,1.1,0.6,1.5,1.5,1.5c0.9,0,1.4-0.5,1.4-1.5
		C267,46,266.4,45.4,265.6,45.4z"/>
	<path class="st0" d="M284.5,39.6c-0.1,0-0.2,0-0.2,0v0.4h0.2c0.2,0,0.3-0.1,0.3-0.2C284.8,39.7,284.7,39.6,284.5,39.6z"/>
	<path class="st0" d="M257.8,14.3c0.9,0,1.4-0.5,1.4-1.5c0-0.9-0.6-1.4-1.4-1.4c-0.9,0-1.5,0.6-1.5,1.4
		C256.3,13.9,256.9,14.3,257.8,14.3z"/>
	<path class="st0" d="M284.5,38.9c-0.7,0-1.2,0.5-1.2,1.2c0,0.7,0.5,1.2,1.2,1.2c0.6,0,1.1-0.5,1.1-1.2
		C285.6,39.5,285.2,38.9,284.5,38.9z M284.8,40.9c0-0.1-0.1-0.2-0.1-0.4c0-0.2-0.1-0.2-0.3-0.2h-0.2v0.6h-0.3v-1.5
		c0.1,0,0.3,0,0.6,0c0.3,0,0.4,0,0.5,0.1c0.1,0.1,0.2,0.2,0.2,0.3c0,0.2-0.1,0.3-0.3,0.4v0c0.1,0,0.2,0.2,0.3,0.4
		c0,0.2,0.1,0.3,0.1,0.4H284.8z"/>
	<path class="st0" d="M258.2,28.4c-0.9,0-1.5,0.6-1.5,1.4c0,1.1,0.6,1.5,1.5,1.5c0.9,0,1.4-0.5,1.4-1.5
		C259.6,29,259.1,28.4,258.2,28.4z"/>
	<path class="st0" d="M284.7,28.4c-0.9,0-1.5,0.6-1.5,1.4c0,1.1,0.6,1.5,1.5,1.5c0.9,0,1.4-0.5,1.4-1.5
		C286.1,29,285.6,28.4,284.7,28.4z"/>
	<path class="st0" d="M233.1,0v55.7h62.6V0H233.1z M271.6,8.4c0-0.1,0-0.2,0.1-0.2h1l0-3c0-0.2,0-0.3,0.1-0.3h3.5
		c0.1,0,0.4,0,0.4,0.1l0,3.1h1.9c0.1,0,0.2,0.1,0.2,0.1v2.8c0,0.2,0,0.3-0.2,0.3c-0.4,0-1.4,0-1.9,0v2c0,0.8,0.4,1.2,1.4,1
		c0.2-0.1,0.4,0,0.4,0.2c0,0.2,0.2,2.2,0.2,2.4c0,0.1-0.1,0.2-0.2,0.3c-0.5,0.1-1.4,0.4-2.1,0.4c-3.3,0-3.7-2-3.7-3.9v-2.4h-0.9
		c-0.1,0-0.2,0-0.2-0.2V8.4z M263.8,8.4c0-0.1,0-0.2,0.1-0.2h1l0-3c0-0.2,0-0.3,0.1-0.3h3.5c0.1,0,0.4,0,0.4,0.1l0,3.1h1.9
		c0.1,0,0.2,0.1,0.2,0.1v2.8c0,0.2,0,0.3-0.2,0.3c-0.4,0-1.4,0-1.9,0v2c0,0.8,0.4,1.2,1.4,1c0.2-0.1,0.4,0,0.4,0.2
		c0,0.2,0.2,2.2,0.2,2.4c0,0.1-0.1,0.2-0.2,0.3c-0.5,0.1-1.4,0.4-2.1,0.4c-3.3,0-3.7-2-3.7-3.9v-2.4H264c-0.1,0-0.2,0-0.2-0.2V8.4z
		 M257.9,7.8c3.1,0,5.1,2.1,5.1,5.1c0,3-2.1,5.1-5.1,5.1c-3.1,0-5.3-2.1-5.3-5.1C252.7,9.8,254.8,7.8,257.9,7.8z M263.4,29.8
		c0,3-2.1,5.1-5.1,5.1c-3.1,0-5.3-2.1-5.3-5.1c0-3,2.1-5.1,5.2-5.1C261.4,24.8,263.4,26.9,263.4,29.8z M245.4,4.6
		c3.2,0,5.1,1.6,6,3.8c0.1,0.2,0.1,0.3-0.1,0.3l-3.5,1.5c-0.1,0.1-0.2,0-0.3-0.2c-0.4-0.8-1.3-1.2-2.2-1.2c-1.5,0-2.5,1-2.5,2.4
		c0,1.6,0.9,2.5,2.5,2.5c1.1,0,1.8-0.5,2.2-1.4c0.1-0.1,0.1-0.2,0.1-0.2h3.7c0.1,0,0.1,0,0.1,0.1v5.5c0,0,0,0.1-0.2,0.1
		c-0.1,0-0.1,0-0.2-0.1l-2.2-1.2c-0.9,0.6-1.9,1.4-3.8,1.4c-3.7,0-6.7-2.5-6.7-6.7C238.6,7.3,241.4,4.6,245.4,4.6z M238.9,28.2
		c0-3.9,2.9-6.6,6.8-6.6c3.2,0,5.1,1.6,6,3.8c0.1,0.2,0.1,0.3-0.1,0.3l-3.5,1.5c-0.1,0.1-0.2,0-0.3-0.2c-0.4-0.8-1.3-1.2-2.2-1.2
		c-1.5,0-2.5,1-2.5,2.4c0,1.6,0.9,2.5,2.5,2.5c1.1,0,1.8-0.5,2.2-1.4c0.1-0.1,0.1-0.2,0.1-0.2h3.7c0.1,0,0.1,0,0.1,0.1v5.5
		c0,0,0,0.1-0.2,0.1c-0.1,0-0.1,0-0.2-0.1l-2.2-1.2c-0.9,0.6-1.9,1.4-3.8,1.4C241.9,34.9,238.9,32.4,238.9,28.2z M258.8,51.5H255
		c-0.1,0-0.2-0.1-0.2-0.1l-0.2-4.8c0,0-2.1,1.7-2.8,2.3c-0.2,0.1-0.2,0.1-0.3,0c-0.8-0.7-2.6-2.3-2.6-2.3l-0.1,4.7
		c0,0.2,0,0.3-0.2,0.3h-3.4c-0.2,0-0.2,0.1-0.2-0.1c0-4,0.2-8.8,0.4-12.5c0-0.2,0.1-0.3,0.3-0.1c2.1,1.5,5.3,4.2,6.2,5
		c0.9-0.8,4.2-3.6,6.4-5.1c0.2-0.1,0.2-0.1,0.3,0.1c0.3,4.9,0.4,8,0.6,12.5C258.9,51.4,259,51.5,258.8,51.5z M265.7,52
		c-3.1,0-5.3-2.1-5.3-5.1c0-3,2.1-5.1,5.2-5.1c3.1,0,5.1,2.1,5.1,5.1C270.8,49.8,268.7,52,265.7,52z M271.8,34.4v-9.1l-3.4,0.2
		c-0.1,0-0.1,0-0.1-0.1v-3.2c0-0.1,0-0.2,0.1-0.2h11c0.1,0,0.1,0,0.1,0.2v3.2c0,0.1,0,0.1-0.1,0.1l-3.3-0.2v9.1c0,0.1,0,0.2-0.2,0.2
		h-4C271.8,34.5,271.8,34.5,271.8,34.4z M272.2,44.6v-5.5c0-0.2,0.1-0.2,0.2-0.2h4.2c0.1,0,0.1,0.5,0.1,0.5
		c-1.6,2.2-2.4,3.6-3.7,5.3C272.8,44.8,272.2,44.7,272.2,44.6z M279.2,52c-2.2,0-3.6-0.8-4.2-2.2c-0.1-0.2-0.1-0.2,0.1-0.3l2.3-0.8
		c0.1,0,0.1,0,0.2,0.1c0.3,0.5,0.7,0.9,1.5,0.9c0.7,0,1-0.2,1-0.6c0-0.4-0.3-0.6-1.2-0.7c-0.1,0-0.3,0-0.4-0.1
		c-1.2-0.1-3.2-0.6-3.2-3c0-2.2,1.8-3.6,4.5-3.6c2.2,0,3.5,0.8,3.9,2c0.1,0.2,0.1,0.2-0.1,0.2l-2.3,0.8c-0.1,0.1-0.1,0.1-0.2-0.1
		c-0.3-0.5-0.7-0.8-1.3-0.8c-0.6,0-0.9,0.2-0.9,0.5c0,0.4,0.3,0.4,1.4,0.6c0.2,0,0.4,0,0.6,0.1c1.9,0.3,3.2,1.1,3.2,3.1
		C283.9,50.4,281.7,52,279.2,52z M284.5,41.6c-0.9,0-1.5-0.7-1.5-1.5c0-0.8,0.7-1.5,1.6-1.5c0.9,0,1.5,0.7,1.5,1.5
		C286,41,285.4,41.6,284.5,41.6z M284.8,34.9c-3.1,0-5.3-2.1-5.3-5.1c0-3,2.1-5.1,5.2-5.1c3.1,0,5.1,2.1,5.1,5.1
		C289.9,32.8,287.9,34.9,284.8,34.9z M290.3,17.3c0,0.3,0,0.3-0.1,0.3h-2.9c-0.2,0-0.3-0.1-0.3-0.2v-0.8c-0.5,0.7-1.4,1.3-2.8,1.3
		c-2.5,0-4.5-1.7-4.5-5c0-3,1.8-5,4.4-5c1.1,0,2.1,0.4,2.6,1.3V8.4c0-0.2,0-0.2,0.2-0.2h3.3c0.1,0,0.1,0,0.1,0.2V17.3z"/>
	<path class="st0" d="M285,11.4c-0.9,0-1.5,0.6-1.5,1.5c0,0.9,0.6,1.5,1.5,1.5c0.9,0,1.4-0.6,1.4-1.5C286.4,12,285.9,11.4,285,11.4z
		"/>
</g>
<g>
	<path class="st1" d="M258.1,64.9c-0.5,0-0.7,0.4-0.8,0.8h1.6C258.9,65.2,258.6,64.9,258.1,64.9z"/>
	<path class="st1" d="M252.3,65.2c-0.5,0-0.9,0.4-0.9,1c0,0.6,0.4,1,1,1c0.5,0,0.9-0.4,0.9-1C253.2,65.6,252.8,65.2,252.3,65.2z"/>
	<path class="st1" d="M282.6,65.1c-0.5,0-1,0.4-1,1c0,0.6,0.4,1,1,1c0.5,0,0.9-0.4,0.9-1C283.6,65.5,283.2,65.1,282.6,65.1z"/>
	<path class="st1" d="M246.5,65.1c-0.5,0-1,0.4-1,1c0,0.6,0.4,1,1,1c0.5,0,0.9-0.4,0.9-1C247.4,65.5,247,65.1,246.5,65.1z"/>
	<path class="st1" d="M233.1,59v12.5h62.6V59H233.1z M243,68.4c0,0.1,0,0.1-0.1,0.1c-0.5,0-0.9,0-1.4,0c-0.1,0-0.1,0-0.1-0.1v-2.7
		c0-0.5-0.2-0.7-0.6-0.7c-0.3,0-0.6,0.2-0.6,0.4v3c0,0.1,0,0.1-0.1,0.1c-0.5,0-0.9,0-1.4,0c-0.1,0-0.1,0-0.1-0.1v-2.7
		c0-0.5-0.3-0.7-0.6-0.7c-0.3,0-0.6,0.2-0.6,0.4v3c0,0.1,0,0.1-0.1,0.1c-0.5,0-0.9,0-1.5,0c-0.1,0-0.1,0-0.1-0.1c0-1.7,0-2.8,0-4.5
		c0-0.1,0-0.1,0.1-0.1c0.5,0,0.9,0,1.4,0c0.1,0,0.1,0,0.1,0.1v0.6c0.2-0.5,0.7-0.9,1.4-0.9c0.8,0,1.2,0.3,1.4,0.9
		c0.2-0.6,0.8-0.9,1.4-0.9c0.8,0,1.5,0.3,1.5,1.5V68.4z M246.5,68.7c-1.4,0-2.5-1-2.5-2.5c0-1.4,1-2.5,2.5-2.5c1.5,0,2.5,1,2.5,2.5
		C249,67.6,248,68.7,246.5,68.7z M254.7,68.4c0,0.1,0,0.2-0.1,0.2c-0.6,0-0.8,0-1.3,0c-0.1,0-0.1,0-0.1-0.2v-0.3
		c-0.2,0.3-0.7,0.5-1.2,0.5c-1.4,0-2.3-0.9-2.3-2.4c0-1.5,0.9-2.4,2.2-2.4c0.5,0,1,0.2,1.2,0.5v-2.1c0-0.1,0-0.1,0.1-0.1
		c0.5,0,0.8,0,1.4,0c0.1,0,0.1,0,0.1,0.1C254.7,63.9,254.7,66.6,254.7,68.4z M260.3,66.4c0,0.1,0,0.1-0.2,0.1c-0.8,0-2.8,0-2.8,0
		c0,0.5,0.4,0.8,1,0.8c0.4,0,0.7-0.3,0.9-0.5c0,0,0.1,0,0.1,0c0.2,0.3,0.5,0.6,0.6,0.9c0.1,0.1,0,0.2,0,0.2
		c-0.3,0.3-0.9,0.6-1.7,0.6c-1.4,0-2.5-0.9-2.5-2.5c0-1.4,0.9-2.5,2.5-2.5c1.2,0,2.1,0.8,2.1,2.1C260.4,66.1,260.4,66.3,260.3,66.4z
		 M262.9,68.4c0,0.1,0,0.1-0.1,0.1c-0.5,0-0.9,0-1.4,0c-0.1,0-0.1,0-0.1-0.1c0-1.7,0-4.5,0-6.3c0-0.1,0-0.1,0.1-0.1
		c0.5,0,0.9,0,1.4,0c0.1,0,0.1,0,0.1,0.1V68.4z M265.8,68.4c0,0.1,0,0.1-0.1,0.1c-0.5,0-0.9,0-1.4,0c-0.1,0-0.1,0-0.1-0.1
		c0-1.7,0-4.5,0-6.3c0-0.1,0-0.1,0.1-0.1c0.5,0,0.9,0,1.4,0c0.1,0,0.1,0,0.1,0.1V68.4z M268.9,68.7c-1.2,0-1.8-0.4-2.1-1.1
		c0-0.1,0-0.1,0-0.1l1-0.4c0,0,0.1,0,0.1,0c0.1,0.3,0.4,0.5,0.8,0.5c0.4,0,0.6-0.2,0.6-0.4c0-0.3-0.2-0.4-0.9-0.6
		c-0.9-0.2-1.5-0.5-1.5-1.5c0-1,0.8-1.5,2.1-1.5c1,0,1.7,0.4,1.9,1c0,0.1,0,0.1,0,0.1l-1,0.4c-0.1,0-0.1,0-0.1,0
		c-0.2-0.3-0.4-0.4-0.7-0.4c-0.4,0-0.5,0.1-0.5,0.3c0,0.2,0.2,0.3,1,0.4c0.9,0.2,1.6,0.6,1.6,1.5C271,68,270.2,68.7,268.9,68.7z
		 M273.7,68.3c0,0.2,0,0.2-0.2,0.2c-0.3,0-1,0-1.3,0c-0.1,0-0.2,0-0.2-0.2c0-0.2,0-1.1,0-1.3c0-0.2,0.1-0.2,0.2-0.2
		c0.4,0,1.1,0,1.3,0c0.1,0,0.2,0,0.2,0.2C273.7,67.5,273.7,67.8,273.7,68.3z M279.5,67.3c-0.4,0.9-1.1,1.4-2.2,1.4
		c-1.5,0-2.5-1-2.5-2.5c0-1.4,1-2.6,2.5-2.6c1,0,1.9,0.5,2.2,1.4c0,0.1,0,0.1-0.1,0.1l-1.2,0.5c0,0-0.1,0-0.1-0.1
		c-0.1-0.3-0.5-0.5-0.8-0.5c-0.6,0-1,0.4-1,1c0,0.6,0.4,1,1,1c0.4,0,0.7-0.2,0.8-0.5c0-0.1,0.1-0.1,0.1,0l1.2,0.5
		C279.6,67.2,279.6,67.2,279.5,67.3z M282.6,68.7c-1.4,0-2.5-1-2.5-2.5c0-1.4,1-2.5,2.5-2.5c1.5,0,2.5,1,2.5,2.5
		C285.1,67.6,284.1,68.7,282.6,68.7z M293.4,68.4c0,0.1,0,0.1-0.1,0.1c-0.5,0-0.9,0-1.4,0c-0.1,0-0.1,0-0.1-0.1v-2.7
		c0-0.5-0.2-0.7-0.6-0.7c-0.3,0-0.6,0.2-0.6,0.4v3c0,0.1,0,0.1-0.1,0.1c-0.5,0-0.9,0-1.4,0c-0.1,0-0.1,0-0.1-0.1v-2.7
		c0-0.5-0.3-0.7-0.6-0.7c-0.3,0-0.6,0.2-0.6,0.4v3c0,0.1,0,0.1-0.1,0.1c-0.5,0-0.9,0-1.5,0c-0.1,0-0.1,0-0.1-0.1c0-1.7,0-2.8,0-4.5
		c0-0.1,0-0.1,0.1-0.1c0.5,0,0.9,0,1.4,0c0.1,0,0.1,0,0.1,0.1v0.6c0.2-0.5,0.7-0.9,1.4-0.9c0.8,0,1.2,0.3,1.4,0.9
		c0.2-0.6,0.8-0.9,1.4-0.9c0.8,0,1.5,0.3,1.5,1.5V68.4z"/>
</g>
</svg>
