<?xml version="1.0" encoding="utf-8"?>
<!-- Generator: Adobe Illustrator 16.0.4, SVG Export Plug-In . SVG Version: 6.00 Build 0)  -->
<!DOCTYPE svg PUBLIC "-//W3C//DTD SVG 1.1//EN" "http://www.w3.org/Graphics/SVG/1.1/DTD/svg11.dtd">
<svg version="1.1" id="Layer_1" xmlns="http://www.w3.org/2000/svg" xmlns:xlink="http://www.w3.org/1999/xlink" x="0px" y="0px"
	 width="500px" height="135.845px" viewBox="0 0 500 135.845" enable-background="new 0 0 500 135.845" xml:space="preserve">
<path fill-rule="evenodd" clip-rule="evenodd" fill="#475267" d="M268.776,72.447c-1.396,0.726-2.516,1.318-3.643,1.892
	c-3.396,1.729-6.883,3.195-10.728,3.577c-1.953,0.194-3.929-1.101-4.958-3.264c-0.193-0.407-0.354-0.829-0.598-1.405
	c-0.824,0.35-1.77,0.5-2.349,1.042c-2.005,1.875-4.492,2.769-7.018,3.407c-2.095,0.529-4.335,0.799-6.49,0.704
	c-3.855-0.17-5.712-3.2-4.233-6.76c0.874-2.105,1.438-4.423,3.405-5.958c0.958-0.748,1.755-1.703,2.625-2.565
	c0.058-0.058,0.095-0.145,0.161-0.188c2.281-1.515,4.423-3.345,6.889-4.446c2.398-1.071,5.1-1.68,7.725-1.967
	c2.979-0.326,4.55,1.35,4.953,3.714c0.311,1.82,2.031,2.838,3.854,2.31c0.195-0.057,0.398-0.109,0.6-0.116
	c0.156-0.005,0.315,0.063,0.817,0.178c-0.702,0.827-1.201,1.62-1.888,2.182c-1.689,1.382-2.402,3.345-3.168,5.233
	c-0.993,2.453,0.536,4.597,3.207,4.536c1.168-0.027,2.398-0.31,3.475-0.771c2.164-0.929,4.269-2.007,6.333-3.144
	c0.575-0.315,1.15-0.983,1.326-1.604c1.006-3.532,2.961-6.534,5.044-9.479c0.38-0.54,0.795-1.065,1.11-1.643
	c0.881-1.61,3.532-1.986,4.81-0.604c0.212,0.229,0.291,0.794,0.166,1.09c-1.045,2.465-2.239,4.869-3.21,7.361
	c-0.581,1.486-0.947,3.079-1.221,4.657c-0.192,1.118,1.772,2.171,3.195,1.613c1.715-0.672,3.356-1.539,4.985-2.407
	c1.383-0.737,2.725-1.557,4.044-2.405c3.712-2.387,6.412-5.84,9.396-8.996c0.732-0.774,1.437-1.625,2.7-1.507
	c1.283,0.12,1.942,0.774,1.455,1.911c-0.988,2.295-2.045,4.594-3.376,6.699c-1.662,2.629-2.755,5.348-2.615,8.479
	c0.066,1.488,0.917,2.06,2.338,1.644c0.393-0.115,0.772-0.284,1.149-0.45c2.07-0.91,4.174-1.753,6.195-2.76
	c2.765-1.378,5.483-2.851,8.173-4.369c0.427-0.241,0.819-0.916,0.856-1.417c0.24-3.237,2.214-5.641,4.404-7.505
	c1.969-1.676,4.703-2.434,7.432-1.012c0.761,0.396,1.136,0.922,1.02,1.779c-0.196,1.432-0.321,2.846-1.546,3.926
	c-0.597,0.526-0.891,1.384-1.38,2.049c-0.479,0.65-0.956,1.33-1.561,1.849c-1.142,0.979-1.083,2.298,0.329,2.735
	c1.964,0.607,3.268,1.887,4.225,3.59c0.574,1.021,1.301,1.135,2.271,0.666c2.644-1.279,5.312-2.508,7.922-3.85
	c0.553-0.285,1.147-0.901,1.306-1.479c0.979-3.586,2.955-6.624,5.056-9.605c0.356-0.508,0.753-0.994,1.053-1.534
	c0.951-1.716,3.216-2.178,4.752-0.862c0.271,0.232,0.421,0.928,0.279,1.265c-1.032,2.468-2.236,4.865-3.214,7.353
	c-0.57,1.448-0.915,3.003-1.184,4.542c-0.201,1.143,1.688,2.224,3.146,1.689c1.652-0.605,3.236-1.417,4.797-2.242
	c1.421-0.752,2.791-1.606,4.144-2.478c3.313-2.134,5.873-5.078,8.48-7.971c0.716-0.796,1.499-1.543,2.317-2.235
	c0.797-0.676,1.698-0.518,2.546-0.038c0.858,0.485,0.577,1.282,0.291,1.869c-1.061,2.179-2.08,4.396-3.373,6.436
	c-1.64,2.588-2.683,5.291-2.583,8.369c0.049,1.544,1.028,2.319,2.391,1.625c2.669-1.361,5.519-2.62,7.737-4.559
	c3.981-3.479,7.324-7.621,10.452-11.91c0.368-0.505,1.189-0.805,1.852-0.937c0.619-0.123,1.312,0.076,1.963,0.186
	c1.69,0.285,1.86,0.892,0.907,2.35c-0.804,1.229-1.429,2.575-2.117,3.878c-0.328,0.619-0.514,1.348-0.953,1.87
	c-1.521,1.808-2.142,3.983-2.712,6.189c-0.541,2.084,0.906,3.82,2.975,3.346c3.391-0.777,6.521-2.26,9.424-4.159
	c1.791-1.173,3.589-2.391,5.155-3.837c2.94-2.717,5.377-5.876,6.903-9.612c0.727-1.775,2.317-1.687,4.253-1.104
	c1.006,0.302,1.305,1.715,1.07,3.093c-0.607,3.559-2.86,6.287-4.542,9.298c-0.587,1.052-0.978,1.914-0.188,3.059
	c0.814,1.182,1.862,1.346,3.036,0.932c1.061-0.374,2.059-0.934,3.066-1.446c0.476-0.242,0.887-0.619,1.368-0.842
	c2.247-1.037,4.113-2.523,5.572-4.524c0.144-0.195,0.362-0.334,0.54-0.504c1.377-1.31,2.727-2.649,4.131-3.926
	c1.617-1.468,3.144-3.11,4.976-4.245c1.378-0.854,3.163-1.097,4.803-1.457c0.441-0.097,1.246,0.249,1.449,0.625
	c0.204,0.383,0,1.128-0.258,1.583c-0.445,0.786-1.101,1.449-1.614,2.201c-2.368,3.461-3.3,7.364-3.253,11.486
	c0.019,1.763,0.651,2.287,2.44,2.207c1.122-0.05,2.215-0.566,3.34-0.766c0.432-0.076,0.915,0.146,1.376,0.232
	c-0.133,0.506-0.097,1.249-0.425,1.481c-2.074,1.474-4.518,2.192-6.98,2.257c-1.04,0.027-2.325-1.025-3.133-1.919
	c-1.547-1.715-1.372-3.987-1.32-6.128c0.021-0.74,0.345-1.439-0.478-1.982c-0.821-0.542-1.608-0.598-2.429-0.066
	c-2.287,1.488-4.548,3.017-6.856,4.469c-2.934,1.844-5.836,3.757-8.886,5.39c-1.704,0.913-3.7,0.856-5.552,0.111
	c-1.87-0.752-2.025-2.438-2.108-4.127c-0.026-0.563-0.005-1.126-0.005-1.953c-1.066,0.602-1.908,1.191-2.835,1.577
	c-2.464,1.025-4.971,1.946-7.448,2.943c-1.945,0.784-3.836,1.724-5.821,2.387c-0.983,0.328-2.133,0.318-3.188,0.23
	c-2.064-0.17-3.186-1.51-3.229-3.807c-0.024-1.192,0.183-2.388,0.239-3.584c0.016-0.333-0.138-0.674-0.213-1.011
	c-0.297,0.1-0.674,0.118-0.878,0.314c-2.796,2.698-6.363,4.146-9.707,5.933c-1.281,0.685-2.783,1.068-4.232,1.31
	c-1.978,0.328-4.323-1.606-4.416-3.63c-0.057-1.21,0.217-2.451,0.457-3.655c0.304-1.526-0.395-2.325-1.801-1.659
	c-2.266,1.074-4.425,2.383-6.586,3.662c-2.553,1.507-4.965,3.285-7.625,4.552c-1.263,0.602-2.991,0.513-4.454,0.325
	c-1.481-0.189-1.787-1.669-2.087-2.932c-0.13-0.555-0.176-1.129-0.283-1.852c-0.482,0.109-0.896,0.128-1.241,0.293
	c-2.518,1.215-4.989,2.529-7.539,3.674c-2.202,0.99-3.712,2.725-4.819,4.68c-2.767,4.892-5.292,9.918-7.938,14.879
	c-1.121,2.105-2,4.325-3.694,6.136c-1.137,1.214-1.852,2.823-2.771,4.245c-1.079,1.664-2.191,3.305-3.257,4.978
	c-0.906,1.427-1.772,2.882-2.643,4.333c-0.255,0.425-0.377,0.97-0.715,1.298c-3.55,3.423-6.533,7.477-11.257,9.577
	c-2.494,1.108-4.993,0.999-7.542,0.762c-0.387-0.036-0.919-0.663-1.032-1.106c-0.734-2.858,0.233-5.359,1.792-7.708
	c0.641-0.966,1.331-1.904,1.902-2.909c2.297-4.041,5.701-7.06,9.107-10.096c1.073-0.957,2.049-2.039,2.97-3.146
	c2.499-3.005,5.213-5.76,8.358-8.118c1.474-1.106,2.659-2.597,3.979-3.908c1.172-1.163,2.291-2.39,3.546-3.457
	c1.291-1.097,2.261-2.364,3.021-3.876c0.759-1.51,1.753-2.9,2.595-4.37c0.391-0.678,0.709-1.406,0.988-2.139
	c0.757-1.985-0.235-3.709-2.326-3.977c-1.73-0.223-3.176-0.922-4.214-2.327c-0.406-0.549-0.74-0.444-1.251-0.204
	c-2.754,1.296-5.49,2.641-8.3,3.81c-3.186,1.325-6.392,2.641-9.681,3.665c-2.943,0.915-5.483-1.271-5.361-4.361
	c0.036-0.896,0.344-1.779,0.447-2.678c0.057-0.496,0.127-1.275-0.134-1.456c-0.427-0.298-1.251-0.465-1.682-0.244
	c-2.198,1.125-4.348,2.358-6.473,3.62c-2.619,1.554-5.106,3.368-7.839,4.679c-1.217,0.584-2.925,0.432-4.35,0.22
	c-1.409-0.209-1.721-1.631-2.004-2.853C268.971,74.049,268.922,73.437,268.776,72.447z M290.016,121.556
	c0.124,0.561,0.194,1.141,0.383,1.68c0.398,1.144,0.846,1.211,1.813,0.491c3.714-2.766,6.812-6.153,9.758-9.684
	c1.18-1.416,2.259-2.925,3.278-4.463c1.113-1.681,2.174-3.405,3.129-5.18c0.994-1.843,1.856-3.758,2.73-5.661
	c0.262-0.566,0.175-1.072-0.637-1.099c-1.853-0.064-3.768,1.316-4.553,3.071c-0.357,0.799-1.01,1.485-1.601,2.16
	c-0.702,0.806-1.761,1.418-2.176,2.335c-1.119,2.468-3.188,4.087-4.908,6.017c-1.54,1.723-3.801,2.879-4.182,5.5
	c-0.038,0.266-0.404,0.491-0.629,0.726C291.304,118.618,290.091,119.732,290.016,121.556z M233.639,72.885
	c0.031,2.165,1.169,3.032,3.248,2.772c2.442-0.303,4.661-0.899,6.341-2.921c0.827-0.994,1.867-1.901,2.984-2.545
	c2.322-1.337,3.71-3.326,4.6-5.754c0.62-1.691-0.178-2.981-1.941-2.771c-2.281,0.271-4.72,0.062-6.695,1.685
	c-0.5,0.411-1.199,0.571-1.734,0.95c-0.859,0.608-1.706,1.252-2.468,1.976c-0.741,0.703-1.259,1.677-2.07,2.263
	C234.341,69.67,233.781,71.2,233.639,72.885z M250.027,8.38c-0.115-1.994-1.814-3.972-3.358-4.154
	c-1.432-0.168-2.859-0.381-4.292-0.535c-4.321-0.464-8.537,0.131-12.534,1.74c-7.702,3.102-14.382,7.772-20.208,13.681
	c-4.872,4.94-7.983,11.042-11.26,17.034c-1.168,2.136-2.243,4.323-3.368,6.482c-0.836,1.605-1.959,3.121-2.466,4.822
	c-0.94,3.153-1.748,6.381-2.193,9.635c-0.446,3.257,0.241,6.375,2.975,8.643c0.426,0.354,0.953,0.692,1.481,0.799
	c3.456,0.7,6.655,0.029,9.545-2c1.796-1.261,3.524-2.624,5.356-3.829c1.411-0.928,2.9-1.756,4.424-2.482
	c0.984-0.469,1.445-0.084,1.263,1.008c-0.202,1.215-0.582,2.402-0.896,3.599c-0.938,3.567-3.415,6.297-5.178,9.412
	c-0.851,1.504-2.015,2.829-2.991,4.266c-0.436,0.643-0.772,1.356-1.127,2.05c-0.655,1.281-1.092,2.735-1.983,3.82
	c-1.287,1.567-2.722,2.981-4.8,3.734c-5.089,1.844-10.141,3.796-14.697,6.842c-3.405,2.276-6.909,4.411-10.425,6.513
	c-2.721,1.627-5.397,3.095-7.506,5.717c-2.022,2.516-4.066,5.007-5.692,7.769c-2.664,4.523-4.747,9.276-4.433,14.742
	c0.136,2.347,0.759,4.495,2.683,5.887c2.749,1.988,5.809,2.746,9.268,1.978c3.079-0.682,5.185-2.658,7.252-4.747
	c6.771-6.841,11.76-15.051,17.333-22.805c1.822-2.535,3.008-5.517,4.691-8.162c2.71-4.258,5.555-8.434,8.434-12.582
	c0.54-0.777,1.422-1.417,2.282-1.854c3.722-1.895,7.374-3.869,10.689-6.456c1.35-1.052,2.986-1.737,4.485-2.6
	c1.348-0.775,2.708-1.534,4.017-2.371c0.355-0.227,0.623-0.678,0.789-1.084c0.137-0.334,0.064-0.754,0.085-1.135
	c-0.364,0.051-0.774,0.014-1.085,0.171c-1.362,0.69-2.678,1.47-4.042,2.156c-3.205,1.611-6.442,3.159-9.633,4.796
	c-0.862,0.442-1.605,1.114-2.402,1.681c-0.102-0.086-0.203-0.173-0.305-0.26c0.147-0.364,0.262-0.748,0.449-1.091
	c1.139-2.101,2.29-4.195,3.444-6.287c2.171-3.938,4.396-7.845,6.498-11.819c0.939-1.775,2.54-3.333,1.657-5.775
	c-0.643-1.781-1.595-2.751-3.455-2.315c-2.32,0.543-4.661,1.063-6.653,2.548c-2.951,2.199-5.971,4.306-8.945,6.473
	c-2.558,1.862-4.933,1.369-5.582-1.791c-0.321-1.565-0.554-3.193-0.496-4.78c0.104-2.821,0.72-5.565,1.929-8.154
	c1.697-3.629,3.15-7.392,5.093-10.882c2.291-4.114,4.952-8.026,7.542-11.967c0.716-1.09,1.713-2.009,2.648-2.941
	c1.112-1.107,2.358-2.084,3.435-3.224c2.355-2.491,4.871-4.677,8.211-5.82c1.425-0.488,2.739-1.363,4.023-2.186
	c3.022-1.936,6.306-3.074,9.866-3.398c1.83-0.167,3.018,1.431,2.416,3.137c-0.668,1.894-1.986,3.185-3.666,4.217
	c-1.625,1-1.771,2.241-0.616,3.741c0.818,1.063,1.909,1.078,2.882,0.53c1.958-1.103,3.8-2.413,5.722-3.583
	C249.491,13.178,250.211,11.556,250.027,8.38z M197.255,92.382c-4.592,5.425-8.001,11.658-11.995,17.49
	c-2.062,3.011-4.178,5.956-6.974,8.375c-1.241,1.074-2.156,2.515-3.316,3.693c-1.362,1.38-2.754,2.753-4.276,3.948
	c-1.373,1.078-3.069,1.43-4.818,1.203c-1.886-0.243-3.272-2.054-3.375-4.181c-0.272-5.646,1.875-10.333,5.706-14.316
	c8.375-8.707,18.341-15.013,29.547-19.422c0.497-0.195,1.018-0.332,1.534-0.477c0.105-0.029,0.235,0.03,0.683,0.099
	C198.989,90.099,198.18,91.29,197.255,92.382z M79.117,31.402c-0.263,7.612-3.713,12.297-9.207,15.721
	c-0.734,0.458-1.551,0.781-2.319,1.188c-1.491,0.79-3.042,1.131-4.76,1.117c-6.04-0.052-12.081-0.011-18.121,0.056
	c-1.773,0.019-3.544,0.354-5.315,0.337c-2.366-0.021-3.651,1.383-5.003,3.054c-2.992,3.696-6.327,7.121-9.207,10.897
	c-2.614,3.43-6.25,5.647-9.236,8.61c-0.496,0.493-0.94,1.042-1.379,1.589c-1.303,1.626-2.788,2.883-4.993,3.163
	c-0.901,0.114-1.714,0.882-2.618,1.018c-1.586,0.239-3.21,0.288-4.819,0.287c-1.264-0.001-2.023-0.968-2.129-2.447
	c-0.159-2.207,1.643-4.715,3.82-4.984c1.062-0.13,2.188,0.25,3.285,0.403c0.245,0.034,0.534,0.192,0.724,0.11
	c1.647-0.709,3.47-1.204,4.868-2.256c2.638-1.985,5.047-4.279,7.509-6.491c0.667-0.599,1.29-1.303,1.743-2.071
	c0.896-1.521,0.632-1.987-0.921-2.736c-3.739-1.802-7.422-3.758-10.103-7.03c-1.794-2.189-3.647-4.445-4.857-6.966
	c-1.434-2.986-2.474-6.23-2.589-9.628c-0.079-2.305-0.036-4.614-0.013-6.922c0.004-0.444,0.121-0.904,0.267-1.33
	c0.888-2.577,1.703-5.186,2.729-7.707c1.18-2.901,3.229-5.16,5.737-7.026c0.567-0.422,1.101-0.981,1.442-1.593
	c1.28-2.293,2.941-3.756,5.742-4.167c2.374-0.349,4.617-1.519,6.957-2.193c4.003-1.155,7.979-2.649,12.072-3.174
	c4.019-0.515,8.171-0.01,12.264,0.078c0.394,0.009,0.812,0.189,1.168,0.385c2.14,1.173,4.393,1.605,6.82,1.234
	c1.186-0.182,2.311,0.146,2.866,1.278c0.611,1.245,1.727,1.702,2.831,2.261c2.919,1.48,5.438,3.427,7.2,6.25
	c0.833,1.334,1.591,2.738,2.582,3.948c2.08,2.543,2.912,5.502,3.301,8.667c0.095,0.772,0.342,1.526,0.523,2.289
	C78.419,28.484,78.866,30.349,79.117,31.402z M10.361,32.404c0.341,2.33,0.593,4.759,1.087,7.138
	c0.262,1.268,0.81,2.527,1.463,3.654c1.2,2.068,2.561,4.043,3.881,6.04c0.384,0.581,0.793,1.176,1.306,1.635
	c1.357,1.215,2.767,2.373,4.175,3.528c1.752,1.439,2.339,1.559,3.96,0.026c1.419-1.343,2.531-3.009,3.792-4.521
	c3.738-4.475,7.622-8.836,10.718-13.808c0.021-0.035,0.049-0.066,0.073-0.101c2.379-3.282,4.754-6.568,7.139-9.845
	c0.925-1.271,1.811-2.579,2.844-3.758c0.374-0.426,1.104-0.6,1.706-0.753c0.98-0.251,1.983-0.476,2.988-0.54
	c0.438-0.027,1.293,0.376,1.29,0.575c-0.012,0.82-0.122,1.717-0.49,2.437c-0.574,1.124-1.335,2.167-2.114,3.168
	c-0.591,0.761-1.304,1.436-2.015,2.092c-0.956,0.883-2.224,1.544-2.894,2.597c-1.367,2.15-2.348,4.544-4.193,6.386
	c-0.168,0.168-0.305,0.416-0.352,0.648c-0.369,1.856-1.761,2.809-3.223,3.712c-0.668,0.412-1.412,0.756-1.949,1.301
	c-0.294,0.299-0.373,0.987-0.267,1.433c0.058,0.244,0.692,0.46,1.084,0.497c1.478,0.138,2.963,0.206,4.446,0.286
	c1.269,0.068,2.538,0.158,3.808,0.166c1.67,0.01,3.342-0.093,5.013-0.074c2.578,0.031,5.155,0.125,7.733,0.189
	c0.081,0.002,0.164-0.025,0.244-0.044c2.727-0.638,5.03-1.863,6.322-4.517c0.976-2.005,2.012-3.98,2.951-6.002
	c1.214-2.613,1.249-5.263,0.09-7.925c-0.491-1.128-1.163-2.254-1.319-3.438c-0.393-2.986-0.771-5.918-3.049-8.182
	c-0.112-0.112-0.186-0.278-0.24-0.431c-1.478-4.186-4.918-6.38-8.517-8.423c-1.394-0.792-2.727-1.696-4.16-2.406
	c-0.942-0.466-2.046-1.015-3.015-0.917c-1.477,0.15-2.753-0.226-4.111-0.583c-3.72-0.979-7.35-0.463-10.943,0.765
	c-1.302,0.445-2.713,0.96-4.033,0.868c-1.839-0.129-3.55,0.124-4.973,1.107c-2.823,1.948-5.723,3.884-8.168,6.26
	C12.964,17.971,11.197,24.943,10.361,32.404z M142.82,77.542c-1.085,0.253-1.989,0.526-2.913,0.666
	c-1.464,0.223-2.216-0.336-2.325-1.816c-0.134-1.818-0.187-3.649,0.936-5.268c0.199-0.286,0.254-0.672,0.52-1.417
	c-0.973,0.42-1.626,0.683-2.264,0.979c-3.807,1.772-7.598,3.582-11.423,5.316c-1.494,0.677-3.059,1.199-4.596,1.78
	c-2.791,1.055-5.937-2.183-5.304-5.027c0.162-0.727,0.417-1.439,0.506-2.172c0.059-0.479,0.071-1.217-0.205-1.423
	c-0.381-0.285-1.144-0.387-1.586-0.199c-1.476,0.627-2.941,1.326-4.303,2.172c-2.277,1.416-4.487,2.942-6.695,4.466
	c-1.91,1.319-3.884,2.299-6.315,2.126c-1.906-0.136-2.781-0.71-3.269-2.574c-0.196-0.751-0.296-1.527-0.491-2.564
	c-0.862,0.382-1.62,0.734-2.39,1.057c-2.992,1.255-5.921,2.706-8.997,3.699c-4.133,1.335-6.704,0.558-8.522-4.069
	c-0.777,0.32-1.721,0.459-2.306,0.994c-2.083,1.904-4.642,2.842-7.245,3.517c-3.162,0.817-6.437,1.327-9.47-0.592
	c-0.447-0.282-0.9-0.736-1.091-1.214c-0.587-1.47-0.631-2.983,0.049-4.465c1.163-2.535,1.914-5.351,4.729-6.743
	c0.3-0.149,0.44-0.593,0.71-0.84c0.714-0.656,1.443-1.3,2.197-1.912c0.981-0.797,1.907-1.718,3.008-2.295
	c1.695-0.89,3.487-1.628,5.3-2.25c1.395-0.479,2.87-0.782,4.334-0.982c3.137-0.429,5.3,1.384,5.56,4.209
	c0.115,1.252,2.205,2.316,3.532,1.954c0.432-0.118,0.883-0.166,1.325-0.245c0.078,0.125,0.155,0.251,0.232,0.377
	c-0.694,0.777-1.344,1.601-2.091,2.323c-1.729,1.671-2.583,3.823-3.206,6.038c-0.457,1.629,1.341,3.442,3.376,3.401
	c1.209-0.023,2.486-0.281,3.599-0.751c2.168-0.915,4.271-2,6.339-3.13c0.584-0.319,1.209-0.967,1.374-1.582
	c0.964-3.597,2.973-6.611,5.081-9.585c0.358-0.505,0.735-1.006,1.026-1.549c0.894-1.667,3.651-2.038,4.894-0.598
	c0.186,0.215,0.254,0.71,0.142,0.976c-1.044,2.466-2.225,4.877-3.189,7.373c-0.59,1.526-0.992,3.153-1.248,4.771
	c-0.172,1.085,1.727,2.091,3.121,1.562c1.72-0.654,3.381-1.493,4.997-2.38c1.625-0.893,3.288-1.791,4.709-2.96
	c2.228-1.833,4.287-3.874,6.375-5.871c0.866-0.828,1.616-1.776,2.432-2.658c0.281-0.302,0.597-0.574,0.909-0.844
	c0.892-0.774,1.899-0.879,2.852-0.233c0.881,0.598,0.551,1.568,0.214,2.259c-1.008,2.066-2.051,4.131-3.28,6.07
	c-1.704,2.688-2.845,5.492-2.501,8.72c0.13,1.224,0.946,1.674,2.134,1.361c0.319-0.084,0.636-0.19,0.935-0.329
	c3.555-1.647,7.268-3.035,10.61-5.039c2.867-1.718,5.344-4.103,7.915-6.287c0.557-0.473,0.831-1.32,1.139-2.036
	c0.698-1.622,1.374-3.254,1.985-4.909c0.426-1.156,0.614-2.409,1.117-3.525c0.811-1.8,1.779-3.53,2.709-5.275
	c0.538-1.01,1.218-1.952,1.684-2.992c1.483-3.312,2.854-6.674,4.349-9.98c1.004-2.219,2.124-4.386,3.23-6.558
	c1.009-1.98,2.042-3.949,3.118-5.894c0.515-0.93,1.185-1.774,1.73-2.688c2.629-4.407,5.12-8.949,9.243-12.178
	c1.697-1.329,3.642-2.494,5.66-3.202c1.177-0.413,2.789,0.033,4.073,0.475c0.611,0.21,1.249,1.293,1.297,2.019
	c0.158,2.378,0.21,4.76-0.676,7.098c-0.577,1.522-0.733,3.203-1.094,4.809c-0.135,0.604-0.257,1.22-0.483,1.791
	c-1.215,3.061-2.214,6.24-3.75,9.134c-2.615,4.923-5.557,9.675-8.409,14.471c-0.344,0.58-0.977,0.991-1.479,1.477
	c-0.267,0.258-0.657,0.459-0.794,0.771c-1.346,3.077-4.649,4.419-6.342,7.207c-0.443,0.73-1.383,1.147-2.053,1.754
	c-2.622,2.375-5.212,4.785-7.845,7.147c-1.439,1.292-2.966,2.487-4.396,3.789c-0.436,0.397-0.735,0.978-0.998,1.522
	c-0.626,1.301-1.241,2.61-1.771,3.951C142.113,73.782,141.696,75.58,142.82,77.542z M177.422,12.133
	c-0.034-0.904-0.127-1.777-1.314-1.297c-1.474,0.597-2.869,1.272-3.905,2.684c-2.127,2.897-4.307,5.733-5.933,8.969
	c-0.769,1.53-1.918,2.862-2.782,4.351c-0.786,1.354-1.407,2.803-2.12,4.2c-1.333,2.613-2.686,5.215-4.018,7.829
	c-1.378,2.705-2.751,5.412-4.103,8.13c-0.216,0.435-0.339,0.924-0.451,1.401c-0.518,2.209-0.905,4.444-2.266,6.374
	c-0.752,1.067-1.319,2.271-1.905,3.444c-0.105,0.21,0.043,0.625,0.206,0.851c0.063,0.088,0.564,0.003,0.736-0.15
	c1.234-1.094,2.683-2.054,3.597-3.379c2.638-3.823,6.548-6.508,9.003-10.505c2.464-4.01,5.346-7.761,7.845-11.75
	c2.721-4.343,5.08-8.9,6.202-13.96C176.741,16.954,177.027,14.532,177.422,12.133z M58.037,72.802
	c-0.007,2.308,1.06,3.117,3.278,2.854c2.551-0.302,4.828-1.015,6.462-3.171c0.41-0.542,0.988-0.989,1.563-1.366
	c2.549-1.675,4.856-3.518,5.811-6.62c0.534-1.736-0.108-3.027-1.857-2.819c-2.149,0.256-4.476-0.064-6.375,1.457
	c-0.571,0.458-1.338,0.663-1.939,1.091c-0.957,0.68-1.892,1.403-2.754,2.197c-0.69,0.636-1.155,1.552-1.904,2.083
	C58.75,69.618,58.131,71.119,58.037,72.802z M399.522,105.504c2.147,3.26,4.251,6.453,6.363,9.66
	c-1.255,0.607-2.408,0.339-3.244-0.769c-0.968-1.283-1.804-2.667-2.674-4.021c-0.447-0.695-0.83-1.431-1.267-2.133
	c-0.978-1.575-2.356-2.264-4.438-1.81c0,1.165,0,2.388,0,3.612c0,1.326-0.051,2.653,0.014,3.976c0.057,1.151-0.609,1.23-1.489,1.279
	c-0.955,0.053-1.079-0.416-1.075-1.206c0.024-5.965,0.037-11.93,0.002-17.895c-0.006-1.011,0.31-1.432,1.342-1.415
	c1.972,0.034,3.957-0.146,5.914,0.017c2.149,0.181,3.708,1.317,4.255,3.549c0.627,2.564-0.093,4.648-2.221,6.22
	C400.519,104.928,399.98,105.218,399.522,105.504z M395.714,105.123c0.953-0.23,1.983-0.304,2.846-0.723
	c2.097-1.02,2.884-3.851,1.84-6.143c-0.822-1.799-3.57-2.917-5.523-2.167c-0.288,0.109-0.577,0.639-0.585,0.98
	c-0.055,2.192,0.028,4.388-0.053,6.579C394.197,104.786,394.623,105.16,395.714,105.123z M427.713,96.346
	c0.093,2.69,0.146,5.392-0.011,8.076c-0.121,2.124-0.445,4.258-0.927,6.331c-0.354,1.523-1.512,2.506-3.07,2.962
	c-4.271,1.251-7.841-1.291-8.029-5.853c-0.155-3.718-0.166-7.443-0.212-11.167c-0.033-2.593,0.012-2.208-2.117-1.883
	c-0.111,0.017-0.213,0.105-0.239,0.119c0,1.508,0,2.954,0,4.401c0,1.45-0.032,2.901,0.008,4.35c0.055,1.898-0.006,3.823,0.294,5.687
	c0.487,3.045,2.103,5.279,5.301,6.013c0.642,0.146,1.302,0.28,1.955,0.288c3.068,0.039,6.274-0.55,7.774-4.107
	c0.613-1.454,1.023-3.087,1.095-4.658c0.168-3.763,0.085-7.537,0.091-11.307c0-0.312-0.081-0.622-0.123-0.922
	C428.129,94.526,427.668,95.034,427.713,96.346z M381.71,113.528c-1.959,0.062-3.995,0.4-5.87,0.001
	c-4.375-0.931-6.314-4.25-6.324-8.616c-0.011-4.303,1.921-8.013,7.056-8.959c1.965-0.361,3.876,0.007,5.705,0.736
	c0.632,0.251,1.227,0.349,1.391-0.376c0.07-0.314-0.393-0.948-0.765-1.129c-2.279-1.118-4.757-1.219-7.159-0.746
	c-6.214,1.227-9.63,6.011-8.851,12.299c0.447,3.59,2.133,6.437,5.61,7.897c2.955,1.24,6.003,1.367,9.085,0.473
	c0.966-0.28,1.685-0.812,1.854-1.98C382.819,113.277,382.269,113.51,381.71,113.528z M480.476,113.721
	c-2.349-0.006-4.696-0.025-7.044-0.002c-0.823,0.007-1.074-0.37-1.064-1.138c0.026-2.029,0.043-4.06-0.006-6.088
	c-0.022-0.951,0.38-1.22,1.261-1.195c1.615,0.043,3.23,0.009,4.848,0.009c0.812,0,1.325-0.327,1.412-1.352
	c-2.01,0-3.946-0.057-5.877,0.02c-1.207,0.048-1.741-0.286-1.656-1.595c0.105-1.567,0.098-3.15,0.002-4.719
	c-0.074-1.245,0.439-1.58,1.589-1.533c1.611,0.064,3.229,0.001,4.846-0.004c0.813-0.003,1.358-0.282,1.31-1.31
	c-2.967,0-5.899-0.03-8.831,0.018c-0.969,0.015-1.483,0.446-1.467,1.632c0.077,5.631,0.032,11.265,0.034,16.899
	c0.002,1.41,0.283,1.809,1.706,1.849c2.649,0.076,5.301,0.045,7.95,0.03c0.896-0.006,1.419-0.512,1.642-1.467
	C480.861,113.752,480.668,113.722,480.476,113.721z M489.32,114.702c2.282,1.169,4.677,1.327,7.06,0.377
	c4.031-1.607,4.854-6.357,1.61-9.254c-0.763-0.683-1.693-1.177-2.535-1.776c-1.142-0.813-2.407-1.512-3.379-2.497
	c-1.922-1.948-1.087-4.921,1.581-5.48c1.176-0.246,2.504,0.112,3.742,0.323c0.6,0.102,1.232,0.408,1.368-0.406
	c0.055-0.323-0.419-0.933-0.789-1.095c-2.153-0.94-4.416-1.042-6.446,0.142c-1.026,0.599-1.955,1.706-2.451,2.799
	c-1.068,2.355-0.16,4.85,2.146,6.511c1.374,0.992,2.87,1.815,4.244,2.806c1.846,1.332,2.398,3.036,1.662,4.724
	c-0.654,1.492-2.7,2.377-4.689,1.918c-1.235-0.286-2.434-0.733-3.743-1.138C488.192,113.818,488.245,114.15,489.32,114.702z
	 M451.134,114.747c1.827,0.942,3.785,1.162,5.769,0.719c2.229-0.497,3.963-1.646,4.567-4.029c0.587-2.311,0.021-4.259-1.878-5.741
	c-0.781-0.608-1.635-1.119-2.455-1.679c-0.989-0.676-2.028-1.293-2.951-2.05c-1.184-0.972-1.599-2.287-1.195-3.781
	c0.38-1.42,1.505-2.146,2.827-2.245c1.113-0.083,2.255,0.332,3.394,0.427c0.438,0.036,0.897-0.203,1.347-0.316
	c-0.257-0.391-0.456-1.06-0.777-1.124c-1.476-0.3-3.004-0.676-4.481-0.571c-3.623,0.258-5.849,4.061-4.477,7.369
	c0.69,1.661,2.082,2.623,3.51,3.569c1.271,0.843,2.57,1.664,3.733,2.639c1.071,0.896,1.322,2.198,0.958,3.519
	c-0.364,1.317-1.334,2.082-2.682,2.246c-0.802,0.098-1.649,0.165-2.427,0.006c-1.156-0.236-2.268-0.686-3.466-1.065
	C449.768,113.576,450.198,114.265,451.134,114.747z M441.783,104.765c0-2.859,0.002-5.718,0-8.576
	c-0.002-1.77-0.006-1.745-1.741-1.434c-0.621,0.11-0.87,0.292-0.74,0.962c0.117,0.603,0.125,1.233,0.128,1.851
	c0.008,5.344,0.004,10.688,0.006,16.033c0,0.373-0.063,0.77,0.044,1.112c0.318,1.026,1.179,0.452,1.796,0.486
	c0.196,0.011,0.604-0.482,0.606-0.748c0.045-3.228,0.028-6.458,0.028-9.687C441.868,104.765,441.825,104.765,441.783,104.765z
	 M393.774,47.479c-0.253-1.22-1.103-1.629-2.31-1.396c-1.224,0.238-1.918,1.187-2.855,1.819c-0.893,0.603-0.834,1.311-0.502,2.002
	c0.528,1.106,1.188,2.158,1.88,3.174c1.037,1.523,3.213,1.458,4.087-0.132c0.257-0.467,0.221-1.097,0.315-1.645
	C394.186,50.002,394.033,48.73,393.774,47.479z"/>
</svg>
