<?xml version="1.0" encoding="utf-8"?>
<!-- Generator: Adobe Illustrator 21.0.0, SVG Export Plug-In . SVG Version: 6.00 Build 0)  -->
<svg version="1.1" id="without_tagline" xmlns="http://www.w3.org/2000/svg" xmlns:xlink="http://www.w3.org/1999/xlink" x="0px"
	 y="0px" viewBox="0 0 500 83" style="enable-background:new 0 0 500 83;" xml:space="preserve">
<style type="text/css">
	.st0{fill:#FFFFFF;}
</style>
<g>
	<g>
		<path class="st0" d="M97.9,78.4c1.2,0.5,1,2.9-0.2,3.3c-4.9-0.2-9.4-0.3-14-0.3c-5.4,0-10.4,0.1-15.4,0.3
			c-0.9-0.5-1.4-2.6-0.2-3.3l3.1-0.6c4.6-0.8,4.9-1.6,4.9-9.4v-47h-0.2c-3.1,6.3-4.7,9.8-6.9,14.4L59,55.9
			c-3.9,8.1-9.7,20.8-11.7,26.2c-0.5,0.5-2.2,0.5-3,0c-2-6.2-6.9-17.5-9.5-23.2L24.5,36.8c-2.2-4.8-5.3-12.1-6.7-15.5h-0.2
			c-0.2,5.6-0.5,14.6-0.7,19.4c-0.2,7-0.5,17.3-0.5,26.7c0,7.6,0.1,9.3,5.1,10.2l3.8,0.7c0.8,0.7,0.8,2.9-0.1,3.3
			c-4.3-0.2-7.8-0.3-12.1-0.3c-3.7,0-7.8,0.1-12.3,0.3c-1-0.6-1-2.8-0.3-3.3l2-0.2c5.5-0.7,6.3-2.4,7.1-9.4
			c0.8-7.2,1.2-14.7,1.7-26.7c0.5-7.8,1.1-17.4,1.1-24.4c0-5.4-1.7-7.7-6.2-8.5L2.3,8.4c-0.7-0.8-0.6-3,0.5-3.3
			c3.5,0.2,6.6,0.3,10.8,0.3c4,0,8.1,0,12.3-0.3c0.5,6.9,3.3,12.9,6.3,19.1l12.7,26.6c0.9,2,3.9,7.7,5.4,10.4c1.8-3.3,3.3-6.6,6-12
			l10.8-22.1c3.7-7.6,7.4-14.4,9.3-22c3.1,0.2,6.9,0.3,9.4,0.3c4.8,0,8.9-0.1,12.1-0.3c1.3,0.5,1.5,2.6,0.3,3.3L94.5,9
			c-5.1,0.8-6.2,2.6-6.2,8.7c0,17,0.2,34,1,51.1c0.3,7.7,1.6,8.4,5.3,9L97.9,78.4z"/>
		<path class="st0" d="M126.4,78.4c7.9,0,10.2-9.4,10.2-18.3c0-9.7-3.3-21.1-11.8-21.1c-5.9,0-10.5,6-10.5,18.8
			C114.3,68.2,118.1,78.4,126.4,78.4 M150.2,58.1c0,16.3-11.5,24.8-25.2,24.8c-13.2,0-24.3-8.4-24.3-23.5
			c0-15.4,11.7-25.1,25.2-25.1C138.9,34.4,150.2,43.2,150.2,58.1"/>
		<path class="st0" d="M172.8,67.7c0,8.5,0.5,9.9,4.4,10.5l1.7,0.2c0.8,0.8,0.7,2.9-0.2,3.3c-4-0.2-7.9-0.3-12.2-0.3
			c-3.7,0-7.6,0.1-12.4,0.3c-0.9-0.5-1-2.5-0.2-3.3l2.5-0.3c3.9-0.6,4.4-1.8,4.4-10.3v-17c0-5.2,0-6.6-2.9-8.3l-1.4-0.8
			c-0.3-0.5-0.3-2.1,0.1-2.6c4.9-1.4,11.3-4.1,15-6.2c0.8,0,1.3,0.5,1.5,0.9c-0.2,2.2-0.2,4.4-0.2,5.3c0,0.8,0.3,1,1,1.2
			c5.4-3,8.6-5.8,15.8-5.8c9.3,0,13.7,6.4,13.7,15.4v17.8c0,8.5,0.5,9.9,4.4,10.3l2.6,0.3c0.8,0.8,0.7,2.9-0.2,3.3
			c-4.8-0.2-8.7-0.3-13-0.3c-3.8,0-7.7,0.1-11.7,0.3c-0.9-0.5-1-2.5-0.2-3.3l1.7-0.2c3.9-0.6,4.4-2,4.4-10.5V51.8
			c0-5.9-2.3-10.5-9.2-10.5c-3.6,0-6.4,1.8-7.6,3.6c-1.5,2.1-1.6,3.1-1.6,7.4L172.8,67.7L172.8,67.7z"/>
		<path class="st0" d="M232.8,41.1c-2.1,0-2.2,0.2-2.2,3.9v17.7c0,7.2,1,13.7,8.4,13.7c2.3,0,3.7-0.8,5.5-2.1c1,0.1,1.7,1,1.5,2.3
			c-2.3,3.2-7.6,6.3-14.6,6.3c-10.9,0-12.9-6.3-12.9-14.4V45.2c0-4-0.2-4.1-2.1-4.1h-4c-1.2-0.6-1.4-2.4-0.3-3.1
			c3.9-1.5,6.6-3,9.1-4.8c2.2-1.6,4.7-4,6.3-7.1c1-0.7,2.6-0.3,3.2,0.6v6.9c0,1.8,0,2.2,2.2,2.2h11.4c0.7,0.3,0.9,1.3,0.9,2.4
			c-0.1,1.4-0.6,2.4-1.5,3C243.8,41.1,232.8,41.1,232.8,41.1z"/>
		<path class="st0" d="M273.5,49.5c3.3,0,4.8-0.3,5.6-0.8c0.7-0.5,1.2-1.4,1.2-2.4c0-4.1-2.6-7.5-7.6-7.5c-7.7,0-11.3,7.5-11.3,9.9
			c0,0.5,0.2,0.8,1.6,0.8C263,49.5,273.5,49.5,273.5,49.5z M262.9,54.1c-2.2,0-2.4,0.1-2.4,1.5c0,10.4,7.1,18.6,17.4,18.6
			c4.6,0,8.4-1.5,11-5.8c1.2-0.3,2.4,0.8,2.5,1.8C287.5,79.5,279,83,272,83c-13.3,0-22.2-9.9-22.2-23c0-13,8.9-25.5,24.3-25.5
			c8.5,0,17.3,5.5,17.3,15.5c0,1-0.1,1.7-0.6,2.6c-0.7,1-3.3,1.5-7.9,1.5H262.9z"/>
		<path class="st0" d="M481.5,49.5c3.3,0,4.8-0.3,5.6-0.8c0.7-0.5,1.2-1.4,1.2-2.4c0-4.1-2.6-7.5-7.6-7.5c-7.7,0-11.3,7.5-11.3,9.9
			c0,0.5,0.2,0.8,1.6,0.8C471,49.5,481.5,49.5,481.5,49.5z M470.9,54.1c-2.2,0-2.4,0.1-2.4,1.5c0,10.4,7.1,18.6,17.4,18.6
			c4.6,0,8.4-1.5,11-5.8c1.1-0.3,2.4,0.8,2.5,1.8C495.5,79.5,487,83,480,83c-13.3,0-22.2-9.9-22.2-23c0-13,8.9-25.5,24.3-25.5
			c8.5,0,17.3,5.5,17.3,15.5c0,1-0.1,1.7-0.6,2.6c-0.7,1-3.3,1.5-7.9,1.5H470.9z"/>
		<path class="st0" d="M318.3,41.4c-2.4,0-2.4,0.2-2.4,3.6v22.7c0,8.5,0.5,9.8,4.5,10.2l4.5,0.5c0.8,0.8,0.7,2.9-0.2,3.3
			c-5.2-0.2-9.7-0.3-15.1-0.3c-3.8,0-7.7,0.1-12.4,0.3c-0.9-0.5-1-2.5-0.2-3.3l2.5-0.3c3.9-0.6,4.4-1.8,4.4-10.3V44.9
			c0-3.1-0.1-3.5-2.1-3.5h-4.1c-0.9-0.5-1.1-2-0.3-2.6l4.9-2.5c0.8-0.5,1.6-1.1,1.6-2.5v-2.1c0-4.9,0.5-10.6,2.4-16.4
			c3-9.1,10.7-16.1,21.5-16.1c7.9,0,13.1,3.6,13.1,8.4c0,3.2-2.9,5.5-5.6,5.5c-1.7,0-2.6-0.7-3.3-1.6c-3.7-5.3-6.2-7.6-9-7.6
			c-3.9,0-7,7.8-7,25.1v3.5c0,3.5,0.1,3.7,2.5,3.7h12.1c0.5,0.3,0.7,1,0.7,1.8c0,2-0.7,3-1.6,3.6L318.3,41.4L318.3,41.4z"/>
		<path class="st0" d="M341.3,16.9c0-3.9,2.9-6.9,7-6.9s7,3,7,6.9s-2.9,6.9-7,6.9C344.2,23.8,341.3,20.9,341.3,16.9 M354.7,67.7
			c0,8.5,0.5,9.7,4.4,10.3l2.1,0.3c0.8,0.8,0.7,2.9-0.2,3.3c-4.3-0.2-8.2-0.3-12.4-0.3c-3.8,0-7.7,0.1-12.1,0.3
			c-0.9-0.5-1-2.5-0.2-3.3l2.1-0.3c3.9-0.7,4.4-1.8,4.4-10.3V50.8c0-5.2,0-6.6-2.9-8.3l-1.4-0.8c-0.3-0.5-0.3-2.1,0.1-2.6
			c6-1.7,11.7-4.3,15-6.2c0.7,0.1,1.3,0.3,1.6,0.9c-0.2,3.8-0.3,9.3-0.3,14L354.7,67.7L354.7,67.7z"/>
		<path class="st0" d="M390.9,78.4c7.9,0,10.2-9.4,10.2-18.3c0-9.7-3.3-21.1-11.8-21.1c-5.9,0-10.5,6-10.5,18.8
			C378.8,68.2,382.6,78.4,390.9,78.4 M414.7,58.1c0,16.3-11.5,24.8-25.2,24.8c-13.2,0-24.3-8.4-24.3-23.5
			c0-15.4,11.7-25.1,25.2-25.1C403.5,34.4,414.7,43.2,414.7,58.1"/>
		<path class="st0" d="M425.3,50.8c0-5.2,0-6.6-2.9-8.3l-1.4-0.8c-0.3-0.5-0.3-2.1,0.1-2.6c4.9-1.6,11-4.1,14.5-6.2
			c0.7,0,1.4,0.3,1.6,1C437.1,36,437,38,437,39c0,0.8,0.5,1.4,1.2,1.4c3.6-2.5,7.4-6,11.3-6c4,0,6.3,2.6,6.3,5.6
			c0,4.5-3.3,6.7-6.4,6.7c-1.1,0-2.2-0.3-3.1-0.9c-2.9-2-4.8-2.2-5.5-2.2c-2.6,0-3.3,2.6-3.3,8.3v15.8c0,8.5,0.5,9.8,4.5,10.2
			l4.5,0.5c0.8,0.8,0.7,2.9-0.2,3.3c-6.9-0.2-10.8-0.3-15.1-0.3c-3.8,0-7.6,0.1-12,0.3c-0.9-0.5-1-2.5-0.2-3.3l2.1-0.3
			c3.9-0.7,4.4-1.8,4.4-10.3L425.3,50.8L425.3,50.8z"/>
	</g>
</g>
</svg>
