<?xml version="1.0" encoding="utf-8"?>
<!-- Generator: Adobe Illustrator 21.0.0, SVG Export Plug-In . SVG Version: 6.00 Build 0)  -->
<svg version="1.1" id="Layer_1" xmlns="http://www.w3.org/2000/svg" xmlns:xlink="http://www.w3.org/1999/xlink" x="0px" y="0px"
	 viewBox="0 0 154.9 198.1" style="enable-background:new 0 0 154.9 198.1;" xml:space="preserve">
<style type="text/css">
	.st0{fill:#FFFFFF;}
</style>
<g>
	<g>
		<g>
			<g>
				<path class="st0" d="M39.3,198.1l-1.8-11.9l-0.1-0.8h-0.2v0.8v11.9h-2.6v-18.9h3.4l1.6,8.6l0.1,1H40l0.1-1l1.6-8.6h3.4v18.9
					h-2.6v-11.9v-0.8h-0.2l-0.1,0.8l-1.8,11.9H39.3z"/>
				<path class="st0" d="M50.4,198.1l2.9-18.9h3.4l2.9,18.9h-2.7l-0.5-3.9h-2.7l-0.5,3.9H50.4z M55.1,185.3l-0.1-0.5h-0.2l-0.1,0.5
					l-0.8,6h1.9L55.1,185.3z"/>
				<path class="st0" d="M63.2,182v-2.9h8v2.9h-2.6v16h-2.8v-16H63.2z"/>
				<path class="st0" d="M75.5,182v-2.9h8v2.9h-2.6v16h-2.8v-16H75.5z"/>
				<path class="st0" d="M88.5,179.2h6.4v2.9h-3.6v5h2.6v3h-2.6v5.2h3.6v2.9h-6.4V179.2z"/>
				<path class="st0" d="M105,198.1l-1.4-8h-0.7v8H100v-18.9h2.8c3.3,0,4.7,1.9,4.7,5.4c0,1.9-0.5,3.6-1.5,4.3l1.8,9.2L105,198.1
					L105,198.1z M102.8,181.9v5.6c0.8,0,2.1-0.1,2.1-2.8C104.8,182,103.5,181.9,102.8,181.9z"/>
				<path class="st0" d="M116.3,179c3.3-0.1,3.9,2.9,3.9,5l-2.7,0.3c0-1.3-0.2-2.7-1.1-2.7c-0.7,0-1,0.8-1,1.9
					c0,1.3,1.1,2.7,2.2,4.3c1.3,1.9,2.6,3.8,2.6,5.8c0,2.5-0.8,4.8-3.9,4.8c-3.6,0-4-2.7-4-5.5l2.7-0.3c0,1.6,0.2,3.2,1.3,3.2
					c0.8,0,1.1-0.9,1.1-2.1c0-1.3-1.2-2.8-2.2-4.4c-1.3-1.9-2.5-3.9-2.5-5.9C112.7,181.4,113.7,179,116.3,179z"/>
			</g>
			<g>
				<path class="st0" d="M18.9,143.9h6.4v2.9h-3.6v5h2.6v3h-2.6v5.2h3.6v2.9h-6.4C18.9,162.8,18.9,143.9,18.9,143.9z"/>
				<path class="st0" d="M35.7,143.9h2.7l-2.9,18.9h-2.8l-2.9-18.9h2.7l1.4,10.4l0.1,0.8h0.2l0.1-0.8L35.7,143.9z"/>
				<path class="st0" d="M43.4,143.9h6.4v2.9h-3.6v5h2.6v3h-2.6v5.2h3.6v2.9h-6.4C43.4,162.8,43.4,143.9,43.4,143.9z"/>
				<path class="st0" d="M59.8,162.8l-1.4-8h-0.7v8h-2.8v-18.9h2.8c3.3,0,4.7,1.9,4.7,5.5c0,1.9-0.5,3.6-1.5,4.3l1.8,9.2H59.8z
					 M57.7,146.7v5.6c0.8,0,2.1-0.1,2.1-2.8C59.7,146.8,58.4,146.7,57.7,146.7z"/>
				<path class="st0" d="M70.6,150l0.1,0.2h0.1l0.1-0.2l1.4-6h2.7l-2.8,10.9v8h-2.8v-8l-2.8-10.9h2.7L70.6,150z"/>
				<path class="st0" d="M79.1,146.8v-2.9h8v2.9h-2.6v16h-2.8v-16H79.1z"/>
				<path class="st0" d="M97.1,154.6H95v8.2h-2.8c0,0,0-18.8,0-18.9H95v7.8h2.2v-7.8h2.8v18.9h-2.8V154.6z"/>
				<path class="st0" d="M105.9,143.9h2.8v18.9h-2.8V143.9z"/>
				<path class="st0" d="M117.6,153l-0.2-0.9h-0.2v0.9v9.8h-2.5v-18.9h2.5l2.7,9.8l0.2,0.9h0.2v-0.9v-9.8h2.5v18.9h-2.5L117.6,153z"
					/>
				<path class="st0" d="M133.2,150.7v-2.9c0,0,0.1-1.4-0.9-1.4s-0.9,1.4-0.9,1.4v11.4c0,0-0.1,1.4,0.9,1.4s0.9-1.4,0.9-1.4v-3.4
					h-1.1v-2.3h3.9v9.4h-1.6l-0.3-0.9c-0.5,0.6-1.3,1.1-2.2,1.1c-3.5,0-3.3-4.1-3.3-4.1v-11.1c0,0,0-4.1,3.7-4.1s3.7,4.1,3.7,4.1
					v2.9L133.2,150.7L133.2,150.7z"/>
			</g>
		</g>
		<g>
			<path class="st0" d="M30.9,87.6c-0.1,1.3-1.2,5.1-6,5.1c-4.9,0-6-3.8-6-6.5c0-4.2,1.8-7.2,6.3-7.2c2.1,0,5.4,0.9,5.8,5h-3.5
				c-0.1-0.9-0.7-2.2-2.3-2.1c-2.2,0-2.7,2.2-2.7,3.8c0,1.4,0,4.2,2.6,4.2c1.7,0,2.3-1.7,2.3-2.3L30.9,87.6L30.9,87.6z"/>
			<path class="st0" d="M41.6,85.9c0,1.7-0.5,4-3.1,4c-2.7,0-3.1-2.3-3.1-4s0.5-4,3.1-4C41.1,81.9,41.6,84.2,41.6,85.9 M45.2,85.9
				c0-4.7-3.2-6.9-6.7-6.9s-6.7,2.2-6.7,6.9s3.2,6.9,6.7,6.9S45.2,90.6,45.2,85.9"/>
			<path class="st0" d="M58.6,92.4h-3.4v-7.9c0-1,0-2.6-2.2-2.6c-1.5,0-2.7,1-2.7,3v7.5h-3.4V79.3h3.3v1.9h0
				c0.5-0.8,1.4-2.3,3.9-2.3c2.6,0,4.5,1.5,4.5,4.4V92.4z"/>
			<polygon class="st0" points="74.3,77.9 65,77.9 65,81.6 73.5,81.6 73.5,84.7 65,84.7 65,89.3 74.7,89.3 74.7,92.4 61.4,92.4 
				61.4,74.8 74.3,74.8 			"/>
			<path class="st0" d="M79.5,86c0-2.1,0.7-4,2.9-4c2.4,0,2.9,2.1,2.9,4.2c0,1.9-0.9,3.8-3,3.8C80.1,89.9,79.5,87.5,79.5,86
				 M88.6,74.8h-3.4V81h0c-0.5-0.8-1.6-2-3.8-2c-2.9,0-5.4,2.2-5.4,6.7c0,3.6,1.6,7,5.5,7c1.4,0,2.9-0.5,3.8-2h0.1v1.6h3.4
				L88.6,74.8L88.6,74.8z"/>
			<path class="st0" d="M94.5,92.4h-3.4V79.3h3.4V92.4z M94.5,77.8h-3.4v-3.2h3.4V77.8z"/>
			<path class="st0" d="M104.4,83.3c-0.1-0.8-0.4-1.7-2.3-1.7s-2.1,0.7-2.1,1.3c0,2.1,8.2,0.6,8.2,5.4c0,3.8-3.7,4.5-5.7,4.5
				c-3,0-6.2-1-6.3-4.5h3.5c0,1.1,0.7,1.9,2.8,1.9c1.8,0,2.2-0.9,2.2-1.3c0-2.2-8.1-0.5-8.1-5.4c0-1.9,1.2-4.4,5.3-4.4
				c2.6,0,5.6,0.6,5.9,4.3L104.4,83.3L104.4,83.3z"/>
			<path class="st0" d="M119,85.9c0,1.7-0.5,4-3.1,4s-3.1-2.3-3.1-4s0.5-4,3.1-4S119,84.2,119,85.9 M122.6,85.9
				c0-4.7-3.2-6.9-6.7-6.9c-3.5,0-6.7,2.2-6.7,6.9s3.2,6.9,6.7,6.9C119.4,92.7,122.6,90.6,122.6,85.9"/>
			<path class="st0" d="M136,92.4h-3.4v-7.9c0-1,0-2.6-2.2-2.6c-1.5,0-2.7,1-2.7,3v7.5h-3.4V79.3h3.3v1.9h0c0.5-0.8,1.4-2.3,3.9-2.3
				c2.6,0,4.5,1.5,4.5,4.4V92.4z"/>
			<path class="st0" d="M112.9,54.9H69.3c-12.9,0-23.4-10.5-23.4-23.4c0-12.9,10.5-23.4,23.4-23.4h43.6V0H69.3
				C51.9,0,37.8,14.1,37.8,31.5C37.8,48.9,51.9,63,69.3,63h43.6C112.9,63,112.9,54.9,112.9,54.9z"/>
			<path class="st0" d="M51.8,31.6c0,10,8.1,18.1,18.1,18.1h42.9v-8.1H69.9c-5.5,0-10-4.5-10-10c0-5.5,4.5-10,10-10h42.9v-8.1H69.9
				C60,13.5,51.8,21.6,51.8,31.6"/>
			<path class="st0" d="M112.9,27.5H69.7c-2.2,0-4.1,1.8-4.1,4.1c0,2.2,1.8,4.1,4.1,4.1h43.2V27.5z"/>
		</g>
	</g>
	<path class="st0" d="M10.1,118.2c0,0.7-0.6,1.2-1.2,1.2c-0.7,0-1.2-0.6-1.2-1.2c0-0.7,0.6-1.2,1.2-1.2
		C9.6,116.9,10.1,117.5,10.1,118.2z M1.2,116.9c-0.7,0-1.2,0.6-1.2,1.2c0,0.7,0.6,1.2,1.2,1.2s1.2-0.6,1.2-1.2
		C2.5,117.5,1.9,116.9,1.2,116.9z M16.5,116.9c-0.7,0-1.2,0.6-1.2,1.2c0,0.7,0.6,1.2,1.2,1.2c0.7,0,1.2-0.6,1.2-1.2
		C17.7,117.5,17.2,116.9,16.5,116.9z M24.1,116.9c-0.7,0-1.2,0.6-1.2,1.2c0,0.7,0.6,1.2,1.2,1.2s1.2-0.6,1.2-1.2
		C25.4,117.5,24.8,116.9,24.1,116.9z M31.7,116.9c-0.7,0-1.2,0.6-1.2,1.2c0,0.7,0.6,1.2,1.2,1.2c0.7,0,1.2-0.6,1.2-1.2
		C33,117.5,32.4,116.9,31.7,116.9z M39.4,116.9c-0.7,0-1.2,0.6-1.2,1.2c0,0.7,0.6,1.2,1.2,1.2c0.7,0,1.2-0.6,1.2-1.2
		C40.6,117.5,40,116.9,39.4,116.9z M47,116.9c-0.7,0-1.2,0.6-1.2,1.2c0,0.7,0.6,1.2,1.2,1.2c0.7,0,1.2-0.6,1.2-1.2
		C48.2,117.5,47.7,116.9,47,116.9z M54.6,116.9c-0.7,0-1.2,0.6-1.2,1.2c0,0.7,0.6,1.2,1.2,1.2c0.7,0,1.2-0.6,1.2-1.2
		C55.8,117.5,55.3,116.9,54.6,116.9z M62.2,116.9c-0.7,0-1.2,0.6-1.2,1.2c0,0.7,0.6,1.2,1.2,1.2c0.7,0,1.2-0.6,1.2-1.2
		C63.5,117.5,62.9,116.9,62.2,116.9z M69.8,116.9c-0.7,0-1.2,0.6-1.2,1.2c0,0.7,0.6,1.2,1.2,1.2c0.7,0,1.2-0.6,1.2-1.2
		C71.1,117.5,70.5,116.9,69.8,116.9z M77.5,116.9c-0.7,0-1.2,0.6-1.2,1.2c0,0.7,0.6,1.2,1.2,1.2c0.7,0,1.2-0.6,1.2-1.2
		C78.7,117.5,78.2,116.9,77.5,116.9z M85.1,116.9c-0.7,0-1.2,0.6-1.2,1.2c0,0.7,0.6,1.2,1.2,1.2c0.7,0,1.2-0.6,1.2-1.2
		C86.3,117.5,85.8,116.9,85.1,116.9z M92.7,116.9c-0.7,0-1.2,0.6-1.2,1.2c0,0.7,0.6,1.2,1.2,1.2c0.7,0,1.2-0.6,1.2-1.2
		C94,117.5,93.4,116.9,92.7,116.9z M100.3,116.9c-0.7,0-1.2,0.6-1.2,1.2c0,0.7,0.6,1.2,1.2,1.2c0.7,0,1.2-0.6,1.2-1.2
		C101.6,117.5,101,116.9,100.3,116.9z M108,116.9c-0.7,0-1.2,0.6-1.2,1.2c0,0.7,0.6,1.2,1.2,1.2c0.7,0,1.2-0.6,1.2-1.2
		C109.2,117.5,108.6,116.9,108,116.9z M115.6,116.9c-0.7,0-1.2,0.6-1.2,1.2c0,0.7,0.6,1.2,1.2,1.2c0.7,0,1.2-0.6,1.2-1.2
		C116.8,117.5,116.3,116.9,115.6,116.9z M123.2,116.9c-0.7,0-1.2,0.6-1.2,1.2c0,0.7,0.6,1.2,1.2,1.2c0.7,0,1.2-0.6,1.2-1.2
		C124.4,117.5,123.9,116.9,123.2,116.9z M130.8,116.9c-0.7,0-1.2,0.6-1.2,1.2c0,0.7,0.6,1.2,1.2,1.2c0.7,0,1.2-0.6,1.2-1.2
		C132.1,117.5,131.5,116.9,130.8,116.9z M138.4,116.9c-0.7,0-1.2,0.6-1.2,1.2c0,0.7,0.6,1.2,1.2,1.2c0.7,0,1.2-0.6,1.2-1.2
		C139.7,117.5,139.1,116.9,138.4,116.9z M153.7,116.9c-0.7,0-1.2,0.6-1.2,1.2c0,0.7,0.6,1.2,1.2,1.2c0.7,0,1.2-0.6,1.2-1.2
		C154.9,117.5,154.4,116.9,153.7,116.9z M146.1,116.9c-0.7,0-1.2,0.6-1.2,1.2c0,0.7,0.6,1.2,1.2,1.2s1.2-0.6,1.2-1.2
		C147.3,117.5,146.7,116.9,146.1,116.9z"/>
</g>
</svg>
