<?xml version="1.0" encoding="utf-8"?>
<!-- Generator: Adobe Illustrator 21.0.0, SVG Export Plug-In . SVG Version: 6.00 Build 0)  -->
<svg version="1.1" id="Layer_1" xmlns="http://www.w3.org/2000/svg" xmlns:xlink="http://www.w3.org/1999/xlink" x="0px" y="0px"
	 viewBox="0 0 500 135.8" style="enable-background:new 0 0 500 135.8;" xml:space="preserve">
<style type="text/css">
	.st0{fill:#00539B;}
	.st1{fill:#6A737B;}
</style>
<path class="st0" d="M33.6,54.6c1.1-0.9,2.3-2.3,2.8-3.5l0.9-1.1c0.2-0.4,0.6-0.8,0.9-1.3c0.9-0.9,1.4-1.4,1.9-2
	c0.4-0.5,1.5-1.8,2.6-2.9l1.4-2.1c0.6-1,2.6-4,3.4-4.8c2.3-2.6,3.4-4.5,4.9-6.6l1.3-1.9c0.1-0.4,0.4-0.8,0.9-1.4
	c1-1.5,2.5-3.8,3.4-3.8h2.3c0.4,0,0.9-0.2,1.3-0.6c1.3,0,1.4,0.6,1.4,1.1v0.9c0,0.5-0.5,1.3-1.3,1.8l-1.1,1.9
	c-0.9,2.1-1.8,2.5-2.6,2.8l-1.1,0.8c-1,1-1.9,2.2-2.9,4.8c-0.4,0.9-2.9,2.8-2.9,4.3c0,0.5-0.8,1.1-1.3,1.6L49.1,43
	c-0.8,0.8-3.5,1.6-3.5,2.8c0,0.1,0.1,0.6,0.4,1l1.6-0.1c1.9,0,3.7,0.4,6.1,0.8c0.6-0.1,1.4-0.3,2-0.5c0.5-0.1,0.9-0.1,1.4-0.1
	c1.1,0,2.3,0.3,3.2,0.5c0.3,0,0.8-0.1,1.3-0.1c0.5-0.1,1.4-0.2,2.1-0.2c0.5,0,1,0,1.5,0.2l1.1,0.3c0.8,0,2.7-0.6,4.4-1.4
	c2.3-1.3,6.4-9.5,6.4-12.9c-0.1-1.8-0.9-3.7-1.4-5c-0.8-0.8-0.9-2-1-3.3c-0.1-1.8-0.5-4.2-2-5.5c-0.5-0.6-0.9-1.3-1.1-1.9
	c-0.6-1.6-1.6-3.4-3.5-4.5l-2.8-2.3L61.8,9c-0.3-0.1-0.8-0.1-1.8-1.1c-0.5-0.4-0.8-0.6-1.5-0.9c-0.6-0.3-1.3-0.4-2-0.4
	c-0.3,0-0.5,0.1-0.6,0.1h-0.5c-0.6,0-1.3-0.1-1.9-0.4c-1-0.4-2.1-0.8-4.2-0.8c-0.6,0-1.5,0.1-2.4,0.3c-0.9,0.1-1.6,0.1-2.3,0.1
	c-0.2,0-1.5,0.5-2.8,1c-1.3,0.5-2.4,0.9-2.6,0.9c-0.5,0-0.8,0-1.1-0.1c-0.3-0.1-0.6-0.1-1-0.1c-0.8,0-1.8,0.3-3.3,0.9
	c-0.4,0.1-1.5,1-2.6,1.9c-0.8,0.6-1.5,1.1-1.5,1.1c-3.8,2.5-5.2,4.3-6.8,6.3c-1.3,2-2.1,4.5-2.6,6.1c-1.6,3.3-2.1,6.2-2.1,11
	c0.1,1.1,0.5,7.8,2.6,9.8c0.6,0.6,1,1.5,1.8,2.4l1.9,3.5c0.9,1.1,1.3,1.1,2,1.9c1,0.9,2.5,2.1,2.5,2.1c0.4,0.2,1.5,1.4,2.3,1.4
	C31.8,56,33.1,55.1,33.6,54.6 M15.5,71.5c0,0,0.8-0.5,1.6-1c0.3-0.3,0.6-0.3,1-0.3c0.3,0,1-0.2,1.3-0.4c0.5-0.4,1.3-1.1,2-1.9
	l2.5-2.1c0.6-0.4,1.4-1,1.6-1.4l1-0.9c1.1-0.9,2.8-2.3,2.8-4.3c0-0.1-1-0.6-1.4-0.8c-1.5-0.5-2.9-1.5-3.8-2.1
	c-1-0.6-1.5-0.8-2.4-1.4c-1.9-1.3-4.2-3.9-4.2-3.9s-0.4-0.4-0.8-1.3c-0.3-0.5-0.5-1.3-0.8-1.4c-0.3-0.1-0.6-0.6-0.9-0.9
	c-0.3-0.4-0.8-1-0.8-1c-1-1-1.5-2.7-1.9-4.2l-1.1-3.3c0-0.1,0-0.6-0.1-0.9l-0.5-4.2c0-0.3,0.1-0.6,0.1-1v-3.7c0-1.8,1.4-4,1.9-6.1
	c0-0.4,0.9-2.9,1.6-4.5l0.8-1c1-1.4,2.8-3.8,5.2-4.9c0.4-0.9,2-5,6.2-5c0.4,0,1-0.3,1.5-0.4c0.8-0.2,2.1-0.9,4.7-1.6
	c0.4-0.3,9.5-3.4,13.2-3.4h7.3c1.9,0,3.9,0.1,5.2,1c1,0.5,2.8,1,4.7,1c0.6-0.3,1.1-0.3,1.6-0.3c1,0,2.1,0.4,2.9,2.3
	c1,0.8,2.5,1.4,3.3,1.6c1,0.8,5.2,3.9,5.6,5c0,0.2,4,6.3,4.5,7.1c0.8,0.6,1.1,4,1.6,6.7c0.6,3,1.4,1.5,1.4,7.8
	c0,5-4.5,11.1-8.8,13.4c-1.4,0.6-4.2,2.3-5.6,2.3h-2.7c-0.5,0-1.9,0-2.8,0.1h-3.3l-2.3-0.1c-0.8-0.1-1.8-0.1-2.6-0.1h-3.5
	c-0.3,0-0.5,0-0.8,0.1c-1.1,0-2.4,0.1-3.8,0.1c-1,0-1.8,0.1-3.9,0.5c-1,0-1.5,0.5-1.9,1.1c-0.2,0.4-0.5,0.8-0.9,1
	c-0.3,0.4-1,1.6-1.6,2.3l-1.1,1.1c-0.5,0.8-1.5,1.9-2.7,3.2c-1,1.1-2.3,2.5-3.4,4l-0.6,0.5l-2.6,3.3c-3,2.3-4.5,3.4-6.7,5.6
	c-1.5,2.1-3.3,4-6.1,4c-1.1,1.1-3.3,1.3-5,1.3H9.9c-1.1,0-2-0.9-2.1-2.5c0-2.3,1.8-4.9,4.4-4.9c0.4,0,0.8,0.1,1,0.3L15.5,71.5z"/>
<path class="st0" d="M70.5,64.6c-1.3,0.4-1.9,1-2.4,1.8l-1.6,2.1L65.6,69l-1,1.1c-0.4,0.4-0.5,1.5-0.5,1.5c-0.1,0.4-0.3,0.8-0.3,1.1
	c0,0.6,0.1,1.3,0.4,1.8c0.6,0.8,0.6,1.1,1.5,1.1c0.1,0,1.9-0.4,2.1-0.4c0.6,0,2.8-0.6,3.2-0.9c0.5-0.4,1.8-1.5,2.5-2.5
	c0.4-0.6,1.4-0.8,1.6-1.3c0.9-0.8,1.6-0.9,1.8-1l2.3-2.5l1.1-2.6c0.1-0.4,0.1-0.6,0.1-0.9c0-0.9-0.5-1.3-2-1.5l-2.1,0.4l-0.9-0.1
	l-1.3,0.2L70.5,64.6z M91.2,73.4c0,0,0.4,0.1,0.5,0.4c0.1,0.1,0.1,0.6,0.1,0.9c0,0.3-0.4,0.6-0.4,0.6c-1.5,1-2.3,1.5-3.9,1.8
	L85,77.7l-1.8,0.1c-0.4,0-2-0.5-2.3-0.8l-1.3-1c0,0-0.2-0.6-0.6-1.1c-0.4-0.6-0.6-1.6-0.6-1.6l-2.3,0.9l-1.5,1.5
	c-0.4,0-1.1,0.1-1.5,0.5l-1.3,0.6c-0.8,0.2-3.5,1.3-4,1.3H67c-0.2,0-0.6,0.1-1,0.1c-1.1,0.1-2.5,0.1-3,0.1c-0.4,0-2.6-1.1-3.7-1.5
	c-0.5-0.9-0.9-2.8-0.9-3.2c0-0.9,0.8-2.6,0.8-2.6c0-0.1,0.1-0.4,0.4-0.6c0,0,0-0.3,0.1-0.4c0.5-1.1,1.1-3.2,2.4-3.9
	c0.6-0.8,1.9-1.1,1.9-1.5c0,0,0.9-1.4,1.4-1.8c0.5-0.4,0.6-0.3,1.5-0.8c0.4-0.4,0.5-0.4,0.8-0.4l1.4-1.5l0.8-0.4
	c0,0,0.6-0.5,1.1-0.8l1.8-0.6c0.4,0,0.8,0,0.9-0.1c0.1,0,0.3-0.2,0.5-0.4l1.6-0.3l0.4-0.1c0.3,0,0.3-0.1,0.4-0.1
	c0.5,0,0.8-0.2,0.9-0.2c0.3,0,0.4-0.1,0.5-0.1l2.3-0.2l1.4,0.6c0.4,0.1,1.1,0.4,1.9,1.4c0.6,1.8,0.6,1.9,0.6,2c0,0.3,0,0.6,0.2,1
	c0.3,0.3,1,0.8,1.5,0.9c0.2,0.3,0.5,0.4,0.9,0.4c0.5,0,1-0.2,1.3-0.5l0.9,0.1C89,62.8,89,63,89,63.3l-1.1,1.1
	c-0.2,0.4-0.5,0.6-0.5,0.6l-1.4,1.3l-0.8,1.8c-0.4,0.8-0.5,0.9-0.6,1c-0.3,0.6-0.8,1.9-0.8,2.7c0,0.8,0.5,1.4,1.5,2.1
	c1,0.5,1.4,0.5,2,0.5c0.6,0,1.5-0.1,2.8-0.5L91.2,73.4z"/>
<path class="st0" d="M129.7,75.2c0,0.1,0,0.3-0.1,0.4l-1.3,0.6c-0.4,0.3-1.1,0.8-2,1l-1.9,0.5c0,0-0.5,0.1-1.1,0.1
	c-0.8,0-1.6-0.1-1.9-0.5c-1.4-1-1.6-1.6-1.9-2c-0.2-0.4-0.4-1.1-0.4-1.8c0-0.5,0.1-1.3,0.1-1.3l0.6-2.4c0-0.5-0.4-0.9-1.3-0.9
	c-0.5,0-0.9,0.3-1.1,0.3l-1.4,0.9c-1.4,0.6-1.5,0.6-2.9,1.5c-0.5,0.4-1.3,0.6-1.6,1.3l-1.8,0.9l-3,2.3c-0.9,0.6-1.8,0.8-2.7,1.3
	c-0.8,0.3-1.3,0.4-1.6,0.4c-0.2,0-0.5-0.1-0.9-0.1c-0.5,0-1.5,0-1.9-0.1c-0.4-0.3-0.6-0.5-0.6-0.5c-1-0.9-1.3-3-1.3-3.3
	c0-0.9-0.1-0.9-0.2-0.9l-1,0.3l-2.3,1.3c-0.3,0.3-2.4,1.4-3.3,1.4c-0.1,0-0.4,0-0.4-0.1c-0.1-0.1-0.3-0.5-0.3-1.1
	c0-0.6,0.1-0.6,0.5-0.9l1-0.5c0.6-0.3,1.4-0.8,2.4-1.1l2.8-1.4c0.9-0.4,0.8-1,1-1.6c0.5-1.6,1.1-3.2,1.1-3.2l0.9-1.8
	c0.8-0.6,1.4-2.3,2-3c0.6-1,1.6-1.9,2-3.2c0.5-0.8,1-0.9,1.4-0.9h0.5c0.4,0,0.8,0.1,1,0.1l1.4,0.5c0.5,0.4,0.6,0.8,0.6,0.8
	c0,0.3-0.4,1.1-0.5,1.3c0,0.6-1,1.9-1.3,2.8l-0.8,2.1c0,0.1-0.4,1.1-0.8,1.4c-0.3,0.3-0.9,2.7-0.9,3.3c0,0-0.3,0.8-0.3,0.9l-0.1,0.4
	c0,1.3,1.1,1.6,2.8,1.6c0.1,0,0.4,0,0.5-0.1c0.4-0.3,2.3-0.8,2.5-0.9c1.9-1,2.1-1.6,3.2-2l1.8-0.9l2.1-1.6c1.1-0.6,2-1.6,2-1.6
	c1-0.8,1.9-1.9,2.3-2.3c0.9-0.8,1.9-2.1,3.2-3.4c0.1-0.1,1.1-1.3,1.4-1.4c0.6-0.4,0.8-0.6,1.1-0.6c0.6,0,0.9,0,1.1,0.1
	c0.2,0,0.4,0.1,0.4,0.1c0.3,0.1,0.8,0.5,0.8,0.8c0,0.9-0.4,2.1-0.8,2.9c-0.4,1.3-1.5,2.3-1.5,2.7c-0.8,1.9-1.5,2.1-1.8,2.8l-1.1,2.4
	c-0.4,0.2-0.6,2.4-0.6,2.8c0,0.4-0.3,1-0.3,1.5l0.1,1.1c0,0.4,0.6,1.1,1.3,1.1c0.5,0,1.5-0.3,2.3-0.8c0.4-0.2,1.4-1,1.9-1
	c0.3,0,0.5,0.4,0.5,0.8L129.7,75.2z"/>
<path class="st0" d="M154,57.4c1.3-0.6,2-1.9,2.8-2.8l2.4-3c0.1,0,2.7-2.3,3.3-2.9c0,0,0.6-1.4,1.1-2l0.9-1.1c0,0,0.4-0.5,1-1.1
	c0.6-1.1,3-4.4,3.4-4.9c0.1-0.1,4.7-7.8,5.2-8.8c0.5-0.8,1.6-3.5,1.6-3.9c0.3-0.2,1.8-3.5,1.9-4.4c0-0.6,0.4-2.1,0.5-2.7
	c0.2-1.1,0.2-1.8,0.4-3c0-0.8,0.4-1.4,0.4-2.3c-0.1-0.1-0.1-0.3-0.1-0.5l0.1-0.8c0-0.1-0.1-0.3-0.6-0.3c-0.4,0-0.8,0.1-1.1,0.4
	l-1.4,0.8c-1.1,0.3-1.6,1.9-2.6,3c-0.5,0.5-2,2.4-2.3,2.8c-0.4,0.3-1.6,3.2-1.6,3.2c-0.5,1-1.5,2-1.5,2.6c-0.3,0.5-1.1,1.3-1.5,1.8
	c-0.1,0.1-0.5,0.9-0.6,1.4c-0.9,2.3-2.5,4.7-2.7,4.9l-2.8,5.4c0,0.3-1.9,4.4-2.1,4.8c-0.8,0.6-0.6,1.8-1,2.4
	c-0.4,0.8-1.3,1.3-1.5,2.4c-0.4,2-1,5.4-2.5,6.9c-0.3,0.3-0.6,0.9-0.6,1.1c-0.1,0.4-0.4,1.1-1,1.9l-0.1,0.6c0.1,0.3,0.5,0.3,0.6,0.4
	C152.8,58.8,153.5,57.7,154,57.4 M128.4,75.1v-0.6c0-0.4,0-0.5,0.3-0.6c0.3-0.1,1-0.5,1.8-0.6c1.9-0.8,2.3-1.1,3.2-1.5
	c0.6-0.4,1.4-0.5,1.5-0.6l1.9-0.9c0.8-0.3,2.5-1.9,2.7-1.9c0.4-0.3,0.9-1.1,1.6-1.4l1.6-1.1c0.4-0.2,1.8-1.9,2-2.4l0.3-0.6
	c0.8-1.4,0.4-2.1,0.9-2.7c1.4-2.5,2.3-5,2.3-5.6c0-1,1.1-3.2,1.8-4l0.5-1c0.4-0.6,1.1-1.3,1.1-1.3l1-2.3c0.1-0.9,0.4-1.6,0.5-1.9
	c0.6-0.6,3.3-6.8,3.4-7.3c0-0.3,0.3-0.4,0.4-0.6c0.3-0.6,1.1-2.5,1.3-3c0.4-0.8,1.3-2.4,1.8-3.2c0.2-0.5,0.9-1.3,1.1-1.5l2.1-4.9
	c0.4-0.6,1.1-1.3,1.3-1.5c0-0.4,0.5-0.9,0.9-1.5c0.2-0.1,0.4-0.5,0.4-0.5c0.4-0.3,1.4-2.6,1.6-3l0.8-1.1c0.9-1.5,2.8-3.3,3.8-4.3
	c1.4-1.4,1.9-2.1,2.9-2.6c0.8-0.6,1.9-1.1,2.1-1.3c-0.1,0,1.8-0.7,2-0.9c0.3-0.1,0.6-0.1,1-0.1c1.4,0.5,2.8,0.3,3.2,0.8l0.6,0.6
	c0.5,0.4,0.5,0.9,0.6,1.8c0,1.5-0.1,1.5-0.1,2l0.1,1c0,0.5-0.3,1.6-0.5,2.4l-0.9,2.6c-0.1,0.8-0.5,2.1-0.5,2.9c0,1.9-1.8,4-1.8,5.6
	c0,0.6-0.5,1.3-0.9,1.9c0,0.4-0.1,0.5-0.4,1.1c-0.4,0.5-0.6,1.3-0.6,1.3c-0.3,0.8-0.9,2.1-1.5,3c-0.4,0.4-1.4,2.5-1.9,3.7
	c-0.4,0.1-2.3,3.8-3.4,5.5l-0.3,0.4c-0.8,1.3-1,1.8-2.3,3.3c-0.5,0.2-1.5,1-1.6,1.5c-0.1,0.3-0.3,0.8-0.8,1.4
	c-0.4,0.5-1.3,1.3-1.5,1.4c-0.4,0.1-1.4,1.1-2,1.9c-0.3,0.3-1.4,2.1-2.3,2.5c-0.5,0-1.4,1.4-2,1.6l-1.1,0.8
	c-0.3,0.3-0.5,0.4-0.5,0.5c-0.1,0.1-0.9,1.4-1.4,1.8c-0.4,0.4-1.1,1.3-1.5,1.5l-1.3,1c-0.4,0.2-1,0.7-1,0.7
	c-0.4,0.5-1.8,1.3-2.3,1.6c-0.2,0.3-1.5,1.3-1.6,1.6c-0.1,0.1,0.1,0-0.8,0.8c-0.2,0.3-0.5,0.6-0.5,1c-0.4,0.6-0.6,1.5-1,1.9l-0.3,1
	l-0.4,0.8c-0.4,0.6-0.8,1.6-0.8,3.5v0.9l0.6,1c-0.1,0.4-0.2,0.4-0.9,0.4c-0.5,0.2-1.3,0.4-1.9,0.5c-0.1,0.1-0.3,0.1-0.5,0.1
	c-0.2,0-0.6,0-0.8-0.1l-0.9-0.5c-0.2-0.3-0.2-1.4-0.4-2.1c0-0.1,0.1-2.5,0.3-2.8c0.1-0.4,0.3-0.8,0.5-1.1c0.3-0.3,0.6-1,0.6-1.5
	c-1.3,0.1-3,1.5-4,2.1c-0.6,0.3-2.9,1.3-3.3,1.5l-1.9,0.6c-0.4,0.1-1.8,1-1.8,1c-0.3,0.1-1.5,0.6-2,0.6
	C128.4,76,128.4,75.7,128.4,75.1"/>
<path class="st0" d="M200.7,88.3l-0.4-0.1c-0.2,0-0.4,0.1-0.5,0.1l-0.4,0.1c-0.6,0-12,5.2-16.6,8.3c-3.5,2.4-10.3,8.2-13.4,11.5
	c-0.5,0.5-0.9,1-1.1,1.4c-1.5,2-1.8,3-3.3,6.9c-0.1,0.3-0.1,0.8-0.3,1.3v3.9c0.4,2.1,1.8,3.5,4,3.5c0.1,0,2.3-0.2,3.4-1
	c0.8-0.4,0.8-0.8,1.6-1.4c2.4-1.6,4.4-4.9,6.4-6.7c1.3-1,2.5-2.4,4-4.4c0.9-1.3,2.3-3.2,3.3-4.8l3.4-5.1c0.5-1.1,1.3-2.4,1.6-3
	L200.7,88.3z M227.5,73.2c-0.1,0.2-0.8,1.1-1.6,1.4c-0.4,0.1-1,0.6-1.4,1c-0.2,0.3-0.6,0.5-0.9,0.5c-1.4,0.4-2.5,1.1-4,1.9l-2,1.6
	c-1.1,0.8-2,1.6-4.5,2.9c-1.1,0.5-2.3,1.3-3.4,2c-0.2,0.3-0.9,0.4-1.5,0.5c0,0,0.1-0.1-0.8,0.6c-0.3,0.2-1.1,0.9-1.1,0.9
	c-0.9,1.8-3,4.6-3.7,5.4c-1,1.4-2,3.4-3.3,5c-2,2.9-3.8,5.7-4.5,7.8c-1.4,2.3-2,3.4-2.7,4c-1,1.1-1.9,2.1-3.3,4.8l-4,5.4
	c-1.8,2.5-3.7,4.9-4.8,6.3c-1.4,1.4-2.4,2.5-3.4,3.7c-1.4,1.1-1.6,1.8-2.9,2.7c-2.4,1.6-3.8,1.9-7.1,2.1c0,0-2.6,0-6.2-2.4
	c-0.5-0.4-1.8-2.4-1.8-2.4c-0.5-1.3-0.6-3-0.6-4.4c0-1.1,0.1-2,0.1-2l0.3-2l0.9-2.6c0-0.1,0.1-0.5,0.1-0.5l1.3-2.8
	c1.4-3.2,3.3-5.8,4.4-7.2l1-1.6c0.9-1.1,1.9-1.4,2.5-2.7c1-1.6,2.1-2.3,3.3-2.9c0,0,1.5-0.9,2.5-1.4c2.6-1.5,3.9-2.4,6.6-4.2
	l3.2-1.9c2.1-1.3,4.3-2.9,7.9-4.4c1.4-0.5,2.7-1,3.7-1.5c2.2-0.9,3.8-1.5,4.9-1.8c0.1,0,0.6-0.5,1.3-1.1l1.8-1.5
	c1.4-2,1.8-2.8,2-3.7c0.1-0.5,0.4-1.3,0.9-2.1c1-1,3.2-3.9,4.9-7.4c1.9-1.4,4.3-8.2,4.3-10.2l-0.4-0.5l-0.5,0.1
	c-0.6,0.1-1.6,0.6-2,0.9c-2.9,1.4-6.1,4.7-10.1,6.7l-1.9,0.5c-0.4,0.3-1.4,0.4-2.2,0.4l-3-0.2c-1,0-4.2-3.7-4.2-5.7l-0.1-2.6
	c0-0.5,0-1,0.1-1.5c0.5-1.6,0.3-2.3,0.6-3.8c0.3-1.3,0.4-2.1,0.9-3.3c-0.1,0.2,0.8-3,1.8-4.7c0.4-0.9,1.6-2,2.1-3.2
	c0.6-1.5,2.4-4.9,2.4-5.2c3.4-6,5.9-10.5,8.3-13.4c1.6-2.1,3.7-3.9,5.2-5.2c0.4-0.4,2.4-2.5,3.5-3.3l5-3.3c0.8-0.5,3.9-2.4,6.4-3.5
	c3.8-1.8,8.1-2.5,11.6-2.5c2.5,0,2.8,0.1,3.7,0.5l3,0.1c1,0.4,1.6,0.9,2.3,1.9c0.6,1,0.9,2,0.9,2.9c0,1-0.3,1.9-0.5,2.8
	c-0.4,1.3-0.9,1.1-1.4,1.8c-0.5,0.6-0.9,1-1.3,1c-0.3,0.1-1,0.6-1,0.6c-0.3,0.1-0.9,0.4-0.9,0.4l-1.6,1.6l-2.8,1.3h-1.3
	c-0.9,0-1.8-1.9-1.9-2.3c0-0.5,0.1-1.5,1.4-2.3c3-1.6,3.7-4.2,3.9-5.4c0-0.2-0.1-0.2-0.8-0.8c-0.2-0.4-0.8-0.8-1.5-0.8
	c-0.5,0-0.8,0-1.8,0.3c-1.5,0-4.4,0.7-7.9,2.9c-1.9,1.4-4,2.3-5.3,2.8l-1.8,0.8c-0.8,0.4-1.9,1.5-3.2,2.5c-1,1-3.3,3.5-4.4,4.4
	c-2.1,1.4-3.5,3.7-5.2,6.4l-0.3,0.5c-0.5,0.7-0.9,1.5-1.3,2.3c-1.3,1.9-2.3,3.5-3.5,5.2c-0.6,0.9-0.8,1.6-1,2.1
	c0,0.8-1.3,2.1-1.6,3.4l-2.8,6.1c-1.3,3-1.5,6.2-1.5,6.7c-0.1,0.6-0.1,1.3-0.1,1.8c0,1.6,0.4,2.8,0.9,4.7c0.6,0.6,1.1,1.4,2.1,1.5
	L203,63c0.6-0.1,3.7-3.4,8.7-6.3c3.5-2.4,4.8-2.5,5.7-2.5c0.3,0,1-0.4,1.4-0.5c0.3-0.1,0.5-0.1,0.8-0.1c0.9,0,1.5,0.4,1.9,0.5
	l0.5,0.6c0.3,0.2,0.5,1.5,0.6,2.3c0.3,0.2,0.3,0.4,0.3,0.5c0,0.4-0.3,0.9-0.8,1.9l-1.1,2.1l-0.6,0.8c0,0.3-0.5,1.1-1,1.9
	c-1,1.4-1.3,2.4-2.1,3.9c-0.9,1.5-1.8,2.5-2.1,3.8c-0.6,1.8-1.3,3-2,3.8c-0.3,0.3-0.6,0.9-0.6,1l-1.6,3.5l0.4,0.1l1.1-0.9
	c0.6-0.5,1.1-0.9,4.3-2.7c0.6-0.4,1.4-0.5,1.9-0.8c0.5-0.1,1.1-0.4,1.6-0.8c0.5-0.3,1.1-0.8,1.6-0.9c0.2-0.1,1-0.4,1-0.4
	s0.5-0.1,0.6-0.2c0.2-0.3,0.6-0.5,1.9-1.1c0.9-0.4,1.4-0.8,1.6-0.9l0.5-0.2c0.1,0,0.5,0.6,0.5,0.8L227.5,73.2z"/>
<path class="st0" d="M240.1,64.6c-1.2,0.4-1.9,1-2.4,1.8l-1.6,2.1l-0.9,0.5l-1,1.1c-0.4,0.4-0.5,1.5-0.5,1.5
	c-0.1,0.4-0.3,0.8-0.3,1.1c0,0.6,0.1,1.3,0.4,1.8c0.6,0.8,0.6,1.1,1.5,1.1c0.1,0,1.9-0.4,2.1-0.4c0.6,0,2.8-0.6,3.2-0.9
	c0.5-0.4,1.8-1.5,2.5-2.5c0.4-0.6,1.4-0.8,1.6-1.3c0.9-0.8,1.6-0.9,1.8-1l2.3-2.5l1.1-2.6c0.1-0.4,0.1-0.6,0.1-0.9
	c0-0.9-0.5-1.3-2-1.5l-2.1,0.4l-0.9-0.1l-1.3,0.2L240.1,64.6z M260.8,73.4c0,0,0.4,0.1,0.5,0.4c0.1,0.1,0.1,0.6,0.1,0.9
	c0,0.3-0.4,0.6-0.4,0.6c-1.5,1-2.3,1.5-3.9,1.8l-2.5,0.6l-1.8,0.1c-0.4,0-2-0.5-2.3-0.8l-1.3-1c0,0-0.3-0.6-0.6-1.1
	c-0.4-0.6-0.6-1.6-0.6-1.6l-2.3,0.9l-1.5,1.5c-0.4,0-1.1,0.1-1.5,0.5l-1.3,0.6c-0.8,0.2-3.5,1.3-4,1.3h-0.9c-0.2,0-0.6,0.1-1,0.1
	c-1.1,0.1-2.5,0.1-3,0.1c-0.4,0-2.6-1.1-3.7-1.5c-0.5-0.9-0.9-2.8-0.9-3.2c0-0.9,0.8-2.6,0.8-2.6c0-0.1,0.1-0.4,0.4-0.6
	c0,0,0-0.3,0.1-0.4c0.5-1.1,1.1-3.2,2.4-3.9c0.6-0.8,1.9-1.1,1.9-1.5c0,0,0.9-1.4,1.4-1.8c0.5-0.4,0.6-0.3,1.5-0.8
	c0.4-0.4,0.5-0.4,0.8-0.4l1.4-1.5l0.8-0.4c0,0,0.6-0.5,1.1-0.8l1.8-0.6c0.4,0,0.8,0,0.9-0.1c0.1,0,0.3-0.2,0.5-0.4l1.6-0.3l0.4-0.1
	c0.2,0,0.2-0.1,0.4-0.1c0.5,0,0.8-0.2,0.9-0.2c0.2,0,0.4-0.1,0.5-0.1l2.3-0.2l1.4,0.6c0.4,0.1,1.1,0.4,1.9,1.4
	c0.6,1.8,0.6,1.9,0.6,2c0,0.3,0,0.6,0.3,1c0.2,0.3,1,0.8,1.5,0.9c0.3,0.3,0.5,0.4,0.9,0.4c0.5,0,1-0.2,1.3-0.5l0.9,0.1
	c0.1,0.1,0.1,0.3,0.1,0.6l-1.1,1.1c-0.3,0.4-0.5,0.6-0.5,0.6l-1.4,1.3l-0.8,1.8c-0.4,0.8-0.5,0.9-0.6,1c-0.2,0.6-0.8,1.9-0.8,2.7
	c0,0.8,0.5,1.4,1.5,2.1c1,0.5,1.4,0.5,2,0.5c0.6,0,1.5-0.1,2.8-0.5L260.8,73.4z"/>
<path class="st0" d="M299.2,75.2c0,0.1,0,0.3-0.1,0.4l-1.3,0.6c-0.4,0.3-1.1,0.8-2,1l-1.9,0.5c0,0-0.5,0.1-1.1,0.1
	c-0.8,0-1.6-0.1-1.9-0.5c-1.4-1-1.6-1.6-1.9-2c-0.2-0.4-0.4-1.1-0.4-1.8c0-0.5,0.1-1.3,0.1-1.3l0.6-2.4c0-0.5-0.4-0.9-1.3-0.9
	c-0.5,0-0.9,0.3-1.1,0.3l-1.4,0.9c-1.4,0.6-1.5,0.6-2.9,1.5c-0.5,0.4-1.3,0.6-1.6,1.3l-1.8,0.9l-3,2.3c-0.9,0.6-1.8,0.8-2.6,1.3
	c-0.8,0.3-1.3,0.4-1.6,0.4c-0.3,0-0.5-0.1-0.9-0.1c-0.5,0-1.5,0-1.9-0.1c-0.4-0.3-0.6-0.5-0.6-0.5c-1-0.9-1.3-3-1.3-3.3
	c0-0.9-0.1-0.9-0.3-0.9l-1,0.3l-2.3,1.3c-0.3,0.3-2.4,1.4-3.3,1.4c-0.1,0-0.4,0-0.4-0.1c-0.1-0.1-0.3-0.5-0.3-1.1
	c0-0.6,0.1-0.6,0.5-0.9l1-0.5c0.6-0.3,1.4-0.8,2.4-1.1l2.8-1.4c0.9-0.4,0.8-1,1-1.6c0.5-1.6,1.1-3.2,1.1-3.2l0.9-1.8
	c0.8-0.6,1.4-2.3,2-3c0.6-1,1.6-1.9,2-3.2c0.5-0.8,1-0.9,1.4-0.9h0.5c0.4,0,0.8,0.1,1,0.1l1.4,0.5c0.5,0.4,0.6,0.8,0.6,0.8
	c0,0.3-0.4,1.1-0.5,1.3c0,0.6-1,1.9-1.3,2.8l-0.8,2.1c0,0.1-0.4,1.1-0.8,1.4c-0.2,0.3-0.9,2.7-0.9,3.3c0,0-0.2,0.8-0.2,0.9l-0.1,0.4
	c0,1.3,1.1,1.6,2.8,1.6c0.1,0,0.4,0,0.5-0.1c0.4-0.3,2.3-0.8,2.5-0.9c1.9-1,2.1-1.6,3.2-2l1.8-0.9l2.1-1.6c1.1-0.6,2-1.6,2-1.6
	c1-0.8,1.9-1.9,2.3-2.3c0.9-0.8,1.9-2.1,3.2-3.4c0.1-0.1,1.1-1.3,1.4-1.4c0.6-0.4,0.8-0.6,1.1-0.6c0.6,0,0.9,0,1.1,0.1
	c0.2,0,0.4,0.1,0.4,0.1c0.3,0.1,0.8,0.5,0.8,0.8c0,0.9-0.4,2.1-0.8,2.9c-0.4,1.3-1.5,2.3-1.5,2.7c-0.8,1.9-1.5,2.1-1.8,2.8l-1.1,2.4
	c-0.4,0.2-0.6,2.4-0.6,2.8c0,0.4-0.2,1-0.2,1.5l0.1,1.1c0,0.4,0.6,1.1,1.3,1.1c0.5,0,1.5-0.3,2.3-0.8c0.4-0.2,1.4-1,1.9-1
	c0.2,0,0.5,0.4,0.5,0.8L299.2,75.2z"/>
<path class="st0" d="M305.8,97.3c-0.6,0.1-2.3,1.1-2.5,2.1c-0.1,0.6-0.4,1.1-0.9,1.8c-0.4,0.5-0.8,0.6-1.1,1l-1,0.9
	c-0.4,0.4-0.6,0.8-0.9,1.1l-0.1,0.5c-0.3,0.4-0.9,1.6-1.1,1.8c-0.3,0.1-1,1-1.8,1.8c-0.5,0.8-1.1,1.4-1.1,1.4c-0.3,0-3.5,3.3-4,4
	c-0.2,0.4-0.2,0.6-0.2,0.9c0,0.2,0,0.5-0.1,0.8c-0.3,0.5-0.6,0.5-1,1l-1.1,1.3l-0.5,0.9c-0.1,0.4-0.3,1.3-0.3,1.9
	c0,0.2,0.1,0.5,0.1,0.6c0.1,0.6,0.5,1.5,0.9,1.5c0.1,0,0.8-0.4,1-0.6c0.3-0.2,0.8-0.9,1.3-1.1c0.4-0.3,2.5-1.8,2.8-2.3l4.3-4.7
	c0.6-0.8,2-2.4,3.3-3.7c0,0,1.5-3.2,1.8-3.8c0.2-0.8,1.9-2.7,2.4-3.4c0.5-0.6,1.3-2.3,1.3-2.3c0.8-1.1,0.9-2.2,1.3-3.4
	c0-0.4-0.4-0.4-0.8-0.4C307.4,96.9,306.7,97,305.8,97.3 M298.4,74.4c0-0.4,0.1-0.9,0.4-1l3.8-1.3c0.6-0.2,2.5-0.8,2.9-1.3
	c0.1,0,1.4-0.9,2.1-1.4c0.6-0.3,1.4-0.6,1.6-0.9l1.1-0.6c0.4-0.3,0.7-0.9,0.7-1.4V66c0-0.9,0.8-1.6,1.1-2.8c0.2-0.9,0.8-1.1,1.5-2
	c0.8-0.9,1.1-1.9,2-2.3c-0.1,0,0.6-0.3,1-0.4c1-0.4,2.5-0.9,3.2-0.9c0.6,0,0.8,0.1,1,0.1l1.1,0.4c0.8,0.3,1.4,0.6,1.5,1.1v0.6
	c0,1.1-0.3,2.8-0.8,3.3c-0.9,0.6-2.3,3-2.3,3.4c0,0.3-1.1,1.1-1.8,1.5c-0.3,0.3-0.4,0.5-0.4,0.6c0,0.6,0.6,1.5,1.4,1.6
	c0.5,0,1,0.4,1.6,0.8l0.6,0.6c0.1,0.3,0.2,0.1,0.5,0.4l0.8,1c0.3,0.5,0.9,1.5,1.1,1.5c0.5,0,1-0.1,1.5-0.4c0.3-0.3,1.5-0.8,1.6-0.8
	c0.2,0,0.4,1.3,0.4,1.8c0,0.1-1.9,1.4-3.9,2.4c0,0-2.3,2.8-2.4,2.9c-0.6,0.9-3.5,5.8-3.8,6.4c-3.5,6.9-3.8,7.3-3.9,7.8
	c-0.1,0.4-0.5,1.3-0.5,1.3c-0.2,0.3-1.1,2.1-1.3,2.5c-0.1,0.4-1.4,2.2-1.8,2.4c-0.6,0.6-1.8,2.1-2.2,3c-0.4,0.6-0.6,1.1-0.6,1.1
	l-1.1,2.2c-1,1.6-2.8,3.7-3,4c-0.2,0.4-1.9,3.4-2.1,4c-0.2,0.6-2.1,2.3-2.8,2.8c-0.3,0.1-0.9,1-1.4,1.6c-0.5,0.6-1.3,1.5-1.5,1.6
	c-0.4,0.2-1.8,1.3-2.6,2c-2,1-4,2.5-6.6,2.5c-1.8,0-4.2,0-4.5-0.6c-0.3-0.9-0.4-2.1-0.4-3c0-0.9,1.3-4.5,1.8-4.9
	c0.5-0.4,2.6-3.9,3-4.7c0.3-0.6,2.8-3.4,4.7-5.3c1.1-1.1,3.5-3.3,4-3.4c0.3-0.5,3.2-3.8,4.3-5.2c0.3-0.4,2-2,3.7-3.5l2.5-1.9
	c0.8-0.8,1-0.9,1-0.9l1.4-1.4c1.3-1.5,3.2-3.8,3.7-4c0.6-0.4,2.4-1.9,2.8-2.5l0.8-1.4c0.5-1.1,1.4-2.7,1.6-2.9
	c0.6-0.6,2.3-3.9,2.3-4.7c0-0.9-0.6-2.5-1.1-2.5l-0.5-0.1c-0.4-0.1-0.8-0.3-1.4-0.3c-0.3,0-1.6-0.5-2.7-1.3
	c-0.7-0.6-1.3-1.5-1.3-1.5s-3.4,1.8-3.9,1.9c0,0.4-1.5,1-1.8,1.1l-2.8,0.9c-0.4,0.3-1.1,0.6-2,0.6c-0.8,0.1-2.4,1.1-2.9,1.1
	C298.5,75.5,298.4,74.9,298.4,74.4"/>
<path class="st0" d="M366.5,75.2c0,0.1,0,0.3-0.1,0.4l-1.3,0.6c-0.4,0.3-1.1,0.8-2,1l-1.9,0.5c0,0-0.5,0.1-1.1,0.1
	c-0.8,0-1.6-0.1-1.9-0.5c-1.4-1-1.6-1.6-1.9-2c-0.3-0.4-0.4-1.1-0.4-1.8c0-0.5,0.1-1.3,0.1-1.3l0.6-2.4c0-0.5-0.4-0.9-1.3-0.9
	c-0.5,0-0.9,0.3-1.1,0.3l-1.4,0.9c-1.4,0.6-1.5,0.6-2.9,1.5c-0.5,0.4-1.3,0.6-1.6,1.3l-1.8,0.9l-3,2.3c-0.9,0.6-1.8,0.8-2.7,1.3
	c-0.8,0.3-1.3,0.4-1.6,0.4c-0.3,0-0.5-0.1-0.9-0.1c-0.5,0-1.5,0-1.9-0.1c-0.4-0.3-0.6-0.5-0.6-0.5c-1-0.9-1.3-3-1.3-3.3
	c0-0.9-0.1-0.9-0.3-0.9l-1,0.3l-2.3,1.3c-0.3,0.3-2.4,1.4-3.3,1.4c-0.1,0-0.4,0-0.4-0.1c-0.1-0.1-0.2-0.5-0.2-1.1
	c0-0.6,0.1-0.6,0.5-0.9l1-0.5c0.6-0.3,1.4-0.8,2.4-1.1l2.8-1.4c0.9-0.4,0.7-1,1-1.6c0.5-1.6,1.1-3.2,1.1-3.2l0.9-1.8
	c0.8-0.6,1.4-2.3,2-3c0.6-1,1.6-1.9,2-3.2c0.5-0.8,1-0.9,1.4-0.9h0.5c0.4,0,0.8,0.1,1,0.1l1.4,0.5c0.5,0.4,0.6,0.8,0.6,0.8
	c0,0.3-0.4,1.1-0.5,1.3c0,0.6-1,1.9-1.3,2.8l-0.8,2.1c0,0.1-0.4,1.1-0.8,1.4c-0.2,0.3-0.9,2.7-0.9,3.3c0,0-0.2,0.8-0.2,0.9l-0.1,0.4
	c0,1.3,1.1,1.6,2.8,1.6c0.1,0,0.4,0,0.5-0.1c0.4-0.3,2.3-0.8,2.5-0.9c1.9-1,2.1-1.6,3.2-2l1.8-0.9l2.2-1.6c1.1-0.6,2-1.6,2-1.6
	c1-0.8,1.9-1.9,2.3-2.3c0.9-0.8,1.9-2.1,3.2-3.4c0.1-0.1,1.1-1.3,1.4-1.4c0.6-0.4,0.8-0.6,1.1-0.6c0.6,0,0.9,0,1.1,0.1
	c0.2,0,0.4,0.1,0.4,0.1c0.3,0.1,0.8,0.5,0.8,0.8c0,0.9-0.4,2.1-0.8,2.9c-0.4,1.3-1.5,2.3-1.5,2.7c-0.8,1.9-1.5,2.1-1.8,2.8l-1.1,2.4
	c-0.4,0.2-0.6,2.4-0.6,2.8c0,0.4-0.3,1-0.3,1.5l0.1,1.1c0,0.4,0.6,1.1,1.3,1.1c0.5,0,1.5-0.3,2.3-0.8c0.4-0.2,1.4-1,1.9-1
	c0.2,0,0.5,0.4,0.5,0.8L366.5,75.2z"/>
<path class="st0" d="M387.5,75.1c0,0.5-0.3,0.8-0.5,0.8c-0.6,0.2-1,0.5-1.3,0.8c-0.1,0.1-1.4,0.6-2,0.9c0,0,0.1,0-1,0.4
	c-0.4,0.3-2.3,0.8-3,0.9h-1.5c-0.4,0-0.8,0-0.9-0.1l-0.4-0.1c-1.5-0.6-1.9-0.8-2.3-2.8c-0.1-0.3-0.1-0.8-0.1-1.4
	c0-1,0.1-2.4,0.4-3.4c0-0.1-0.2-0.5-0.4-0.5c-0.4,0-1.3,0.9-1.6,1.1l-1.3,1c-1,0.8-1.4,1-2.3,1.5l-1.6,0.8c-0.8,0.4-1.6,0.8-1.9,0.8
	c-0.4,0-0.5-1.1-0.5-1.3c0-0.5,0.6-0.9,1.1-1.1c0.3-0.1,1.5-0.6,1.9-0.9c1-0.6,1.9-1.5,2.5-2.1l2.5-2.5c0.4-0.3,0.6-1.1,1.1-1.6l2-2
	c1.1-1.6,2.7-3.2,3.7-4.9c0.1-0.3,0.3-0.3,0.9-0.6c0.1-0.1,0.4-0.1,0.5-0.1h0.6c0.8,0.3,2,0.1,2.8,0.6c0.3,0.1,0.4,0.3,0.4,0.5
	l-0.1,0.8c-0.5,0.9-0.8,1-1.3,1.8c0,0.1-0.4,0.8-0.9,1.4c-0.1,0.5-0.3,1.4-0.9,2.5c-0.5,1-1.9,2.7-2,3.2l-1.1,3.9
	c0,0.5,0.1,1.3,0.2,1.6c0.3,0.5,1.4,1.1,2.1,1.1l1.6-0.3c1.4-0.3,2.3-1,2.9-1.4l0.9-0.3c0.2,0,0.5,0.1,0.5,0.3
	C387.5,74.3,387.5,74.7,387.5,75.1"/>
<path class="st0" d="M387.9,48c0,0,0.3,0.8,0.3,1.4c0,0.2,0.3,1,0.3,1.4c0,0.5,0.1,1.3,0.1,2c0,0.2,0,0.5-0.1,0.8
	c-0.3,0.4-0.3,0.1-0.5,0.6c-0.1,0.1-0.8,0.9-1,0.9c-0.2,0-0.5-0.1-0.8-0.3c-0.2-0.1-1.4-0.3-1.8-0.6c-0.2-0.5-0.6-1.1-1-1.4
	c-0.5-0.6-0.6-1.8-1-2c-0.3-0.1-0.3-0.3-0.3-0.5c0-0.4,0.1-0.8,0.1-0.9c0-0.5,0.4-0.6,0.6-0.6c0.3,0,0.9-0.9,1.1-1.1
	c0.1-0.4,1-0.4,1.5-0.6c0.2-0.1,0.8-0.2,1.1-0.2c0.1,0,0.2,0,0.4,0.1C387,46.9,387.9,47.8,387.9,48"/>
<path class="st0" d="M387,75.7c-0.5,0-0.5-0.5-0.5-0.9v-0.6c0-0.3,0-0.4,0.1-0.4l0.4-0.1c1.1-0.4,2.9-1.1,3.5-1.5
	c0.1-0.1,0.5-0.8,1.5-1.1c0.3-0.3,0.9-0.6,1.1-0.8c0.6-0.2,1.4-1,1.8-1.3l1.3-1.3c0.3-0.2,0.8-0.6,1-1l2.7-3.1
	c0.4-0.4,2.2-3.4,3-5.4c0.4-1,1.8-1,1.8-1l1.3,0.1c1,0.4,1.1,0,1.8,1c0.3,0.4,0.4,0.9,0.4,1.4s-0.1,0.9-0.3,1.3
	c-0.4,0.6,0.1,1.4-1.4,3.8c-0.4,0.5-2,3.5-2.1,3.8c-0.3,0.4-1.5,2.3-1.5,2.6c0,0.3,0.9,2.4,1.9,2.4c0.5,0,2.9-0.3,3.5-0.8
	c0.2-0.1,1.4-1.4,2.3-1.6c0.6-0.3,1.5-0.5,2.6-1.6c0.3-0.4,1.6-1.4,2.1-1.6c0.3-0.1,0.1-0.9,1-1.5c2.7-1.6,4.3-4.5,6.6-6.4l2.5-1.8
	l0.8-0.4c0.4,0,0.9-0.1,1.1-0.3l0.8-0.3c0.6-0.3,1.9-0.4,2.1-0.4c0.5,0.1,1.4,0.4,1.4,1.1c0,0.6-0.4,1.1-0.9,1.8c0,0-1,1.4-1.3,1.6
	c-1.4,1.9-2.3,4.8-2.3,5.3l-0.5,2.1c-0.1,0.8-0.4,1.5-0.4,2.3c0,0.8,0,2.8,1,3.2c0.3,0.1,1,0.3,1.8,0.3c0.9,0,2.3-0.6,2.9-0.9
	c0.4-0.1,0.2-0.3,0.8-0.3c0.2,0,0.5,0.4,0.5,0.4c0.1,0.3,0.2,0.9,0.2,1.1c0,0.1,0,0.4-0.1,0.4l-0.5,0.3c0.1,0-1.9,1.3-3.8,1.6
	c-0.6,0.1-1.6,0.5-2.1,0.5c-0.5,0-0.8,0.1-0.9,0.1c-0.4,0-0.5-0.1-1-0.4c-1.8-0.6-2.3-1.8-3.2-3.7l-0.3-3.4c0-0.4,0.3-1.4,0.3-1.6
	c0-0.5-0.3-0.4-0.6-0.8c-0.3-0.3-0.8-0.4-1.1-0.4c-0.4,0-0.6,0.1-0.8,0.1c-0.5,0.4-1.4,0.8-2.3,1.3l-2.3,1.5
	c-1.9,1.1-4.7,3.9-6.4,4.4c-0.6,0.1-1.5,0.9-2.1,1.3c-1,0.5-2.5,1.5-2.8,1.5L402,78c-0.5,0.1-1.1,0.1-1.6,0.1c0,0-2.1-0.4-2.4-0.6
	c-0.4-0.4-1.1-0.8-1.3-1.3l-0.4-1.5c0-0.1-0.1-0.5-0.1-0.9c0-0.9,0.1-2.1,0.1-2.1s-0.6,0.5-1.1,0.6l-1.3,0.9c-0.4,0-1.1,0.5-1.3,0.6
	c-0.9,0.4-1.4,0.3-1.8,0.5c-0.6,0-1.1,0.3-1.4,0.4l-0.8,0.5L387,75.7z"/>
<path class="st1" d="M378.1,111.5c0,0.5-0.4,1.4-0.9,1.8c-0.7,0.5-2.6,1-4.7,1c-7.1,0-10.8-4.3-10.8-10.4c0-6.4,4.7-10.6,11-10.6
	c3.1,0,5.2,1,5.7,1.6c0,0.6-0.5,1.3-1,1.4c-1.3-0.6-2.9-1.1-4.9-1.1c-4.2,0-8,2.9-8,8.6c0,5,3,8.6,8.6,8.6
	C375.2,112.4,377.2,111.9,378.1,111.5L378.1,111.5z"/>
<path class="st1" d="M388.4,103.7c1.6,0,3.1-0.1,3.6-0.3c1.2-0.4,2.6-1.7,2.6-4c0-3.1-2.1-4.1-4.2-4.1c-0.7,0-1.5,0-1.9,0.1V103.7z
	 M388.4,113.2c0,0.6-0.1,0.8-0.5,0.8c-0.9,0.1-1.8,0.1-2.2,0.1c0.1-1.3,0.1-3.2,0.1-5.9V97.5c0-1.6,0-2.3-0.1-3.4
	c0.9-0.2,3.6-0.4,4.8-0.4c4.1,0,6.8,1.3,6.8,5.5c0,3-2.5,4.7-4,5.3c0.7,0.4,1.6,1.6,3,4.1c1.6,2.8,3,4.7,3.7,5.2v0.1
	c-0.3,0.2-1,0.3-1.8,0.3c-1,0-1.7-0.6-2.7-1.9c-1.4-2.1-1.5-2.5-2.7-4.5c-1.3-2.2-2.1-2.5-3.5-2.5h-1V113.2z"/>
<path class="st1" d="M409,104.6c0,6.8,3.2,7.9,5.8,7.9c3,0,5.7-1.2,5.7-8.2v-9.6c0-0.6,0.3-0.7,0.6-0.8c1-0.1,1.1-0.1,1.7-0.1
	c-0.1,1.2-0.1,3.1-0.1,5.8v4.6c0,8.9-4.7,10.2-8.2,10.2c-4.7,0-8.1-2.2-8.1-9.8v-6.4c0-2.1,0-3.5-0.1-4.1c0.4-0.1,1.7-0.3,2.2-0.3
	c0.5,0,0.5,0.2,0.5,1.7V104.6z"/>
<path class="st1" d="M431.7,98c0-2.1,0-3.5-0.1-4c0.4-0.1,1.7-0.3,2.3-0.3c0.4,0,0.5,0.2,0.5,1.6v14.5c0,2.2,0.1,3.3,0.1,3.9
	c-0.5,0.2-1.8,0.3-2.2,0.3c-0.3,0-0.5-0.1-0.5-0.6V98z"/>
<path class="st1" d="M448.7,93.4c1.6,0,3.3,0.7,3.9,1.3c0.1,0.4-0.3,1.3-0.8,1.4c-0.8-0.4-2.2-0.9-3.3-0.9c-1.7,0-3.5,0.9-3.5,3
	c0,1.9,1.1,2.8,3.9,4.5c3.2,1.9,4.6,3.1,4.6,5.9c0,3.7-3,5.6-6.5,5.6c-2.1,0-3.7-0.7-4.4-1.3c-0.3-0.3-0.5-0.5-0.5-0.8
	c0-0.5,0.3-1.3,0.5-1.4c1.2,0.9,3,1.5,4.4,1.5c2.6,0,3.8-1.3,3.8-3.1c0-2-1.3-2.9-4.6-4.9c-3.4-2-3.8-4-3.8-5.5
	C442.4,96.8,443.7,93.4,448.7,93.4L448.7,93.4z"/>
<path class="st1" d="M461.2,98.3c0-1.5,0-2.8-0.1-4c0.6-0.2,1.4-0.4,2.2-0.4h8.1c-0.1,0.8-0.4,1.2-0.7,1.5c-0.4,0.2-1.1,0.2-2.4,0.2
	h-4.5v7.1h7.4c-0.2,1.5-0.9,1.7-1.9,1.7h-5.4v7.7c0.6,0.2,2.4,0.3,3.9,0.3c1.4,0,3.4,0,4.6-0.2l0,0.1c-0.2,0.8-0.7,1.4-1.4,1.7
	c-0.4,0.1-1.6,0.1-3.8,0.1c-2.5,0-4.7-0.1-5.6-0.4l-0.4-0.5V98.3z"/>
<path class="st1" d="M485.6,93.4c1.6,0,3.3,0.7,3.9,1.3c0.1,0.4-0.3,1.3-0.8,1.4c-0.8-0.4-2.2-0.9-3.3-0.9c-1.7,0-3.5,0.9-3.5,3
	c0,1.9,1.1,2.8,3.9,4.5c3.2,1.9,4.6,3.1,4.6,5.9c0,3.7-3,5.6-6.5,5.6c-2.1,0-3.7-0.7-4.4-1.3c-0.3-0.3-0.5-0.5-0.5-0.8
	c0-0.5,0.3-1.3,0.5-1.4c1.2,0.9,3,1.5,4.4,1.5c2.6,0,3.8-1.3,3.8-3.1c0-2-1.3-2.9-4.6-4.9c-3.4-2-3.8-4-3.8-5.5
	C479.3,96.8,480.7,93.4,485.6,93.4L485.6,93.4z"/>
</svg>
