<?xml version="1.0" encoding="utf-8"?>
<!-- Generator: Adobe Illustrator 19.2.0, SVG Export Plug-In . SVG Version: 6.00 Build 0)  -->
<svg version="1.1" id="without_tagline" xmlns="http://www.w3.org/2000/svg" xmlns:xlink="http://www.w3.org/1999/xlink" x="0px"
	 y="0px" viewBox="0 0 188.1 48.5" style="enable-background:new 0 0 188.1 48.5;" xml:space="preserve">
<style type="text/css">
	.st0{fill:#475267;}
</style>
<g>
	<g>
		<path class="st0" d="M36.5,29.6c0.4,0.2,0.4,1.1-0.1,1.2c-1.8-0.1-3.5-0.1-5.2-0.1c-2,0-3.9,0-5.8,0.1c-0.3-0.2-0.5-1-0.1-1.2
			l1.2-0.2c1.7-0.3,1.8-0.6,1.8-3.5V8.3h-0.1c-1.2,2.4-1.8,3.6-2.6,5.4L22,21.2c-1.5,3-3.6,7.8-4.4,9.8c-0.2,0.2-0.8,0.2-1.1,0
			c-0.7-2.3-2.6-6.5-3.6-8.7l-3.8-8.2c-0.8-1.8-2-4.5-2.5-5.8H6.6c-0.1,2.1-0.2,5.5-0.3,7.3c-0.1,2.6-0.2,6.4-0.2,10
			c0,2.8,0,3.5,1.9,3.8l1.4,0.3c0.3,0.3,0.3,1.1,0,1.2c-1.6-0.1-2.9-0.1-4.5-0.1c-1.4,0-2.9,0-4.6,0.1c-0.4-0.2-0.4-1-0.1-1.2
			l0.7-0.1C3,29.2,3.3,28.6,3.6,26c0.3-2.7,0.4-5.5,0.6-10c0.2-2.9,0.4-6.5,0.4-9.1c0-2-0.6-2.9-2.3-3.2L0.9,3.5
			C0.6,3.2,0.7,2.4,1,2.2c1.3,0.1,2.4,0.1,4,0.1c1.5,0,3,0,4.6-0.1C9.8,4.8,10.9,7,12,9.4l4.7,9.9c0.3,0.7,1.5,2.9,2,3.9
			c0.7-1.2,1.2-2.4,2.2-4.5l4-8.2c1.4-2.8,2.7-5.4,3.5-8.2c1.2,0.1,2.6,0.1,3.5,0.1c1.8,0,3.3,0,4.5-0.1c0.5,0.2,0.6,1,0.1,1.2
			l-1.4,0.2c-1.9,0.3-2.3,1-2.3,3.3c0,6.4,0.1,12.7,0.4,19.1c0.1,2.9,0.6,3.1,2,3.3L36.5,29.6z"/>
		<path class="st0" d="M47.1,29.6c3,0,3.8-3.5,3.8-6.8c0-3.6-1.2-7.9-4.4-7.9c-2.2,0-3.9,2.2-3.9,7C42.6,25.8,44.1,29.6,47.1,29.6
			 M56,22c0,6.1-4.3,9.3-9.4,9.3c-4.9,0-9.1-3.1-9.1-8.8c0-5.8,4.4-9.4,9.4-9.4C51.8,13.2,56,16.4,56,22"/>
		<path class="st0" d="M64.5,25.6c0,3.2,0.2,3.7,1.6,3.9l0.6,0.1c0.3,0.3,0.3,1.1-0.1,1.2c-1.5-0.1-3-0.1-4.5-0.1
			c-1.4,0-2.8,0-4.6,0.1c-0.3-0.2-0.4-0.9-0.1-1.2l0.9-0.1c1.5-0.2,1.6-0.7,1.6-3.9v-6.3c0-1.9,0-2.4-1.1-3.1l-0.5-0.3
			c-0.1-0.2-0.1-0.8,0-1c1.8-0.5,4.2-1.5,5.6-2.3c0.3,0,0.5,0.2,0.6,0.3c-0.1,0.8-0.1,1.6-0.1,2c0,0.3,0.1,0.4,0.4,0.4
			c2-1.1,3.2-2.1,5.9-2.1c3.5,0,5.1,2.4,5.1,5.8v6.7c0,3.2,0.2,3.7,1.6,3.9l1,0.1c0.3,0.3,0.3,1.1-0.1,1.2c-1.8-0.1-3.3-0.1-4.8-0.1
			c-1.4,0-2.9,0-4.4,0.1c-0.3-0.2-0.4-0.9-0.1-1.2l0.6-0.1c1.5-0.2,1.6-0.7,1.6-3.9v-5.9c0-2.2-0.9-3.9-3.4-3.9
			c-1.3,0-2.4,0.7-2.8,1.3c-0.6,0.8-0.6,1.2-0.6,2.7V25.6z"/>
		<path class="st0" d="M86.9,15.7c-0.8,0-0.8,0.1-0.8,1.5v6.6c0,2.7,0.4,5.1,3.1,5.1c0.9,0,1.4-0.3,2.1-0.8c0.4,0,0.6,0.4,0.6,0.9
			c-0.9,1.2-2.8,2.4-5.5,2.4c-4.1,0-4.8-2.4-4.8-5.4v-8.7c0-1.5-0.1-1.5-0.8-1.5h-1.5c-0.4-0.2-0.5-0.9-0.1-1.2
			c1.5-0.6,2.4-1.1,3.4-1.8c0.8-0.6,1.8-1.5,2.4-2.7c0.4-0.3,1-0.1,1.2,0.2v2.6c0,0.7,0,0.8,0.8,0.8h4.2c0.3,0.1,0.3,0.5,0.3,0.9
			c0,0.5-0.2,0.9-0.6,1.1H86.9z"/>
		<path class="st0" d="M102,18.8c1.2,0,1.8-0.1,2.1-0.3c0.3-0.2,0.4-0.5,0.4-0.9c0-1.5-1-2.8-2.8-2.8c-2.9,0-4.2,2.8-4.2,3.7
			c0,0.2,0.1,0.3,0.6,0.3H102z M98.1,20.5c-0.8,0-0.9,0-0.9,0.6c0,3.9,2.7,7,6.5,7c1.7,0,3.1-0.6,4.1-2.1c0.4-0.1,0.9,0.3,0.9,0.7
			c-1.5,3.4-4.6,4.7-7.3,4.7c-5,0-8.3-3.7-8.3-8.6c0-4.8,3.3-9.5,9.1-9.5c3.2,0,6.4,2.1,6.4,5.8c0,0.4,0,0.6-0.2,1
			c-0.3,0.4-1.2,0.6-3,0.6H98.1z"/>
		<path class="st0" d="M179.6,18.8c1.2,0,1.8-0.1,2.1-0.3c0.3-0.2,0.4-0.5,0.4-0.9c0-1.5-1-2.8-2.8-2.8c-2.9,0-4.2,2.8-4.2,3.7
			c0,0.2,0.1,0.3,0.6,0.3H179.6z M175.7,20.5c-0.8,0-0.9,0-0.9,0.6c0,3.9,2.7,7,6.5,7c1.7,0,3.1-0.6,4.1-2.1
			c0.4-0.1,0.9,0.3,0.9,0.7c-1.5,3.4-4.6,4.7-7.3,4.7c-5,0-8.3-3.7-8.3-8.6c0-4.8,3.3-9.5,9.1-9.5c3.2,0,6.4,2.1,6.4,5.8
			c0,0.4,0,0.6-0.2,1c-0.3,0.4-1.2,0.6-3,0.6H175.7z"/>
		<path class="st0" d="M118.7,15.8c-0.9,0-0.9,0.1-0.9,1.3v8.5c0,3.2,0.2,3.6,1.7,3.8l1.7,0.2c0.3,0.3,0.3,1.1-0.1,1.2
			c-1.9-0.1-3.6-0.1-5.6-0.1c-1.4,0-2.9,0-4.6,0.1c-0.3-0.2-0.4-0.9-0.1-1.2l0.9-0.1c1.5-0.2,1.6-0.7,1.6-3.9v-8.5
			c0-1.2,0-1.3-0.8-1.3H111c-0.3-0.2-0.4-0.7-0.1-1l1.8-0.9c0.3-0.2,0.6-0.4,0.6-0.9v-0.8c0-1.8,0.2-3.9,0.9-6.1c1.1-3.4,4-6,8-6
			c3,0,4.9,1.3,4.9,3.1c0,1.2-1.1,2.1-2.1,2.1c-0.6,0-1-0.3-1.2-0.6c-1.4-2-2.3-2.8-3.3-2.8c-1.5,0-2.6,2.9-2.6,9.4v1.3
			c0,1.3,0,1.4,0.9,1.4h4.5c0.2,0.1,0.3,0.4,0.3,0.7c0,0.7-0.3,1.1-0.6,1.3H118.7z"/>
		<path class="st0" d="M127.3,6.7c0-1.5,1.1-2.6,2.6-2.6c1.5,0,2.6,1.1,2.6,2.6c0,1.5-1.1,2.6-2.6,2.6
			C128.4,9.2,127.3,8.1,127.3,6.7 M132.4,25.6c0,3.2,0.2,3.6,1.6,3.9l0.8,0.1c0.3,0.3,0.3,1.1-0.1,1.2c-1.6-0.1-3-0.1-4.6-0.1
			c-1.4,0-2.9,0-4.5,0.1c-0.3-0.2-0.4-0.9-0.1-1.2l0.8-0.1c1.5-0.3,1.6-0.7,1.6-3.9v-6.3c0-1.9,0-2.4-1.1-3.1l-0.5-0.3
			c-0.1-0.2-0.1-0.8,0-1c2.2-0.6,4.4-1.6,5.6-2.3c0.3,0,0.5,0.1,0.6,0.3c-0.1,1.4-0.1,3.5-0.1,5.2V25.6z"/>
		<path class="st0" d="M145.9,29.6c3,0,3.8-3.5,3.8-6.8c0-3.6-1.2-7.9-4.4-7.9c-2.2,0-3.9,2.2-3.9,7
			C141.3,25.8,142.8,29.6,145.9,29.6 M154.7,22c0,6.1-4.3,9.3-9.4,9.3c-4.9,0-9.1-3.1-9.1-8.8c0-5.8,4.4-9.4,9.4-9.4
			C150.5,13.2,154.7,16.4,154.7,22"/>
		<path class="st0" d="M158.7,19.3c0-1.9,0-2.4-1.1-3.1l-0.5-0.3c-0.1-0.2-0.1-0.8,0-1c1.8-0.6,4.1-1.5,5.4-2.3
			c0.3,0,0.5,0.1,0.6,0.4c0,0.8-0.1,1.5-0.1,1.9c0,0.3,0.2,0.5,0.4,0.5c1.3-0.9,2.7-2.2,4.2-2.2c1.5,0,2.4,1,2.4,2.1
			c0,1.7-1.2,2.5-2.4,2.5c-0.4,0-0.8-0.1-1.2-0.3c-1.1-0.7-1.8-0.8-2.1-0.8c-1,0-1.2,1-1.2,3.1v5.9c0,3.2,0.2,3.6,1.7,3.8l1.7,0.2
			c0.3,0.3,0.3,1.1-0.1,1.2c-2.6-0.1-4-0.1-5.6-0.1c-1.4,0-2.8,0-4.5,0.1c-0.3-0.2-0.4-0.9-0.1-1.2l0.8-0.1c1.5-0.3,1.6-0.7,1.6-3.9
			V19.3z"/>
	</g>
	<g>
		<path class="st0" d="M3.4,39.1v3h2.9v-3h1.8V47H6.4v-3.3H3.4V47H1.6v-7.9H3.4z"/>
		<path class="st0" d="M18.9,43.7H16v1.9h3.2V47h-5v-7.9H19v1.5H16v1.6h2.9V43.7z"/>
		<path class="st0" d="M28.4,45l-0.6,2H26l2.4-7.9h2.3l2.5,7.9h-1.9l-0.6-2H28.4z M30.4,43.7L29.9,42c-0.1-0.5-0.3-1.1-0.4-1.5h0
			c-0.1,0.5-0.2,1.1-0.4,1.5l-0.5,1.7H30.4z"/>
		<path class="st0" d="M39.6,39.1h1.8v6.4h3.1V47h-4.9V39.1z"/>
		<path class="st0" d="M50.8,40.6h-2.1v-1.5h6.1v1.5h-2.2V47h-1.8V40.6z"/>
		<path class="st0" d="M62.9,39.1v3h2.9v-3h1.8V47h-1.8v-3.3h-2.9V47h-1.8v-7.9H62.9z"/>
		<path class="st0" d="M82.7,45.2c0.5,0.2,1.2,0.5,2,0.5c0.8,0,1.3-0.3,1.3-0.9c0-0.5-0.4-0.8-1.3-1.1c-1.3-0.5-2.2-1.2-2.2-2.3
			c0-1.3,1.1-2.4,3-2.4c0.9,0,1.5,0.2,2,0.4L87,40.8c-0.3-0.2-0.9-0.4-1.7-0.4c-0.8,0-1.1,0.4-1.1,0.8c0,0.5,0.4,0.7,1.5,1.1
			c1.4,0.5,2.1,1.2,2.1,2.4c0,1.3-1,2.5-3.2,2.5c-0.9,0-1.8-0.2-2.2-0.5L82.7,45.2z"/>
		<path class="st0" d="M96.2,47v-3.2l-2.5-4.7h2l0.8,1.9c0.2,0.6,0.4,1,0.6,1.5h0c0.2-0.5,0.4-1,0.6-1.5l0.8-1.9h2L98,43.7V47H96.2z
			"/>
		<path class="st0" d="M106.5,45.2c0.5,0.2,1.2,0.5,2,0.5c0.8,0,1.3-0.3,1.3-0.9c0-0.5-0.4-0.8-1.3-1.1c-1.3-0.5-2.2-1.2-2.2-2.3
			c0-1.3,1.1-2.4,3-2.4c0.9,0,1.5,0.2,2,0.4l-0.4,1.4c-0.3-0.2-0.9-0.4-1.7-0.4s-1.1,0.4-1.1,0.8c0,0.5,0.4,0.7,1.5,1.1
			c1.4,0.5,2.1,1.2,2.1,2.4c0,1.3-1,2.5-3.2,2.5c-0.9,0-1.8-0.2-2.2-0.5L106.5,45.2z"/>
		<path class="st0" d="M119.5,40.6h-2.1v-1.5h6.1v1.5h-2.2V47h-1.8V40.6z"/>
		<path class="st0" d="M134.5,43.7h-2.9v1.9h3.2V47h-5v-7.9h4.9v1.5h-3.1v1.6h2.9V43.7z"/>
		<path class="st0" d="M147.9,44c0-1-0.1-2.1-0.1-3.2h0c-0.2,1-0.6,2.1-0.9,3.1l-1,3.1h-1.4l-0.8-3.1c-0.3-0.9-0.5-2.1-0.7-3.1h0
			c0,1.1-0.1,2.3-0.1,3.3l-0.1,3h-1.7l0.5-7.9h2.4l0.8,2.6c0.2,0.9,0.5,1.9,0.7,2.8h0c0.2-0.9,0.5-2,0.8-2.8l0.8-2.6h2.3l0.4,7.9
			H148L147.9,44z"/>
		<path class="st0" d="M151.6,48.4c0.4-1,0.7-2.3,0.8-3.3l1.8-0.1c-0.4,1.2-0.9,2.4-1.5,3.3L151.6,48.4z"/>
		<path class="st0" d="M162.8,39.1V47H161v-7.9H162.8z"/>
		<path class="st0" d="M167.9,47v-7.9h2.1l1.6,2.9c0.5,0.8,0.9,1.8,1.3,2.7h0c-0.1-1-0.2-2.1-0.2-3.3v-2.3h1.6V47h-1.9l-1.7-3
			c-0.5-0.8-1-1.9-1.4-2.8l0,0c0,1,0.1,2.2,0.1,3.4V47H167.9z"/>
		<path class="st0" d="M185.1,46.8c-0.3,0.2-1.1,0.3-2,0.3c-2.7,0-4.1-1.7-4.1-4c0-2.7,1.9-4.2,4.3-4.2c0.9,0,1.6,0.2,1.9,0.4
			l-0.4,1.4c-0.4-0.2-0.9-0.3-1.5-0.3c-1.4,0-2.5,0.9-2.5,2.6c0,1.6,0.9,2.6,2.5,2.6c0.5,0,1.1-0.1,1.5-0.3L185.1,46.8z"/>
		<path class="st0" d="M185.8,46.1c0-0.6,0.4-1.1,1.1-1.1s1,0.4,1,1.1c0,0.6-0.4,1.1-1.1,1.1C186.3,47.1,185.8,46.7,185.8,46.1z"/>
	</g>
</g>
</svg>
